<svg width="24" height="24" viewBox="0 0 24 24" fill="none" xmlns="http://www.w3.org/2000/svg">
    <circle opacity="0.3" cx="12" cy="12" r="12" fill="white"/>
    <path d="M18.4875 15.9847L16.9909 14.9868L15.6604 14.1C15.4037 13.9292 15.0586 13.9852 14.869 14.2285L14.0458 15.2869C13.8689 15.5165 13.5508 15.5825 13.2972 15.4421C12.7386 15.1314 12.0781 14.8388 10.6206 13.3794C9.16304 11.9201 8.8686 11.2614 8.55787 10.7027C8.41747 10.4491 8.48346 10.131 8.71312 9.95422L9.77146 9.13096C10.0147 8.94144 10.0708 8.59638 9.89994 8.33959L9.04038 7.05012L8.01532 5.51251C7.84085 5.25079 7.49159 5.17222 7.22186 5.33398L6.03968 6.04319C5.72019 6.23143 5.48534 6.53538 5.38377 6.89205C5.06049 8.07073 4.99531 10.6708 9.16233 14.8379C13.3294 19.0049 15.9292 18.9395 17.1079 18.6162C17.4646 18.5146 17.7685 18.2798 17.9568 17.9603L18.666 16.7781C18.8278 16.5084 18.7492 16.1591 18.4875 15.9847Z" fill="white"/>
    <path d="M12.931 7.3449C15.1153 7.34733 16.8854 9.11744 16.8878 11.3018C16.8878 11.4303 16.992 11.5345 17.1206 11.5345C17.2491 11.5345 17.3534 11.4303 17.3534 11.3018C17.3507 8.86047 15.3723 6.88208 12.931 6.87939C12.8025 6.87939 12.6982 6.9836 12.6982 7.11216C12.6982 7.24067 12.8024 7.3449 12.931 7.3449Z" fill="white"/>
    <path d="M12.931 8.74141C14.3444 8.74307 15.4897 9.8884 15.4913 11.3017C15.4913 11.4303 15.5955 11.5345 15.7241 11.5345C15.8526 11.5345 15.9568 11.4303 15.9568 11.3017C15.9549 9.6314 14.6014 8.2778 12.931 8.27588C12.8025 8.27588 12.6982 8.38008 12.6982 8.50865C12.6982 8.63721 12.8024 8.74141 12.931 8.74141Z" fill="white"/>
    <path d="M12.931 10.1379C13.5734 10.1386 14.094 10.6592 14.0948 11.3017C14.0948 11.4302 14.199 11.5344 14.3275 11.5344C14.4561 11.5344 14.5603 11.4302 14.5603 11.3017C14.5593 10.4023 13.8304 9.67339 12.931 9.67236C12.8025 9.67236 12.6982 9.77656 12.6982 9.90513C12.6982 10.0337 12.8024 10.1379 12.931 10.1379Z" fill="white"/>
</svg>
