<svg width="83" height="90" viewBox="0 0 83 90" fill="none" xmlns="http://www.w3.org/2000/svg">
<path d="M39.1903 85.4593C39.1903 85.4593 5.14174 82.9608 1.04894 66.3461C-3.04385 49.7313 6.02888 47.4719 9.12569 38.1624C12.2225 28.8584 -1.83016 23.3672 7.57456 10.7065C16.9793 -1.95412 30.8524 -2.17681 36.6977 3.7869C42.543 9.75061 49.2808 0.142409 60.1333 5.55211C70.9857 10.9618 73.6417 21.9007 70.2074 30.4389C66.7786 38.9771 80.8422 47.146 82.6056 56.8302C84.3744 66.5145 68.4495 89.7284 39.1903 85.4593Z" fill="#6F9BD4"/>
<path d="M4.68945 89.9999H25.0936L26.7862 85.4538C27.3849 83.8407 28.6149 82.548 30.1824 81.8419C31.6627 81.1739 33.6493 79.9626 35.5759 77.8064C39.3258 73.6024 41.3178 69.0944 41.3178 69.0944L28.6748 69.0346C28.6748 69.0346 29.8123 61.9738 23.5261 52.5991C22.8513 51.5943 22.5465 50.394 22.6499 49.1882L23.2431 42.35C23.2431 42.35 27.5155 37.5867 24.8922 31.6773C24.8922 31.6773 22.3886 28.2174 21.3926 29.483C21.3926 29.483 13.8221 47.4664 13.1363 50.1441C12.4451 52.8164 11.5307 54.5001 12.4451 62.9025C12.69 65.1294 12.7771 66.9815 12.7716 68.5078C12.7662 71.4353 12.1077 74.3303 10.8559 76.9754L4.68945 89.9999Z" fill="#FBC3A8"/>
<path opacity="0.2" d="M23.7166 78.3334C21.8226 76.2369 19.1938 76.5682 16.4236 75.6068C13.6588 74.6509 12.7716 67.7476 12.7716 67.7476C12.7771 68.0083 12.7771 68.2635 12.7771 68.5025C12.7716 71.4301 12.1131 74.325 10.8613 76.9701L4.68945 89.9947H25.0936L26.7862 85.4486C27.3849 83.8354 28.6149 82.5428 30.1824 81.8367C31.4396 81.2664 33.0669 80.305 34.7106 78.7027C29.0884 81.06 25.6106 80.4299 23.7166 78.3334Z" fill="#FBC3A8"/>
<path opacity="0.1" d="M68.3611 31.2861C68.2903 30.9765 68.0073 30.743 67.6753 30.743C67.6155 30.743 67.5556 30.7484 67.4957 30.7647C67.3324 30.4116 66.9732 30.1672 66.5596 30.1672C66.4508 30.1672 66.3474 30.1835 66.2494 30.2161C66.0262 29.8468 65.618 29.5969 65.1554 29.5969C64.6057 29.5969 64.1322 29.9445 63.9526 30.4388C63.8274 30.3682 63.6805 30.3302 63.5281 30.3302C63.0437 30.3302 62.6519 30.7212 62.6519 31.2046C62.6519 31.2318 62.6519 31.2589 62.6573 31.2915H68.3611V31.2861Z" fill="white"/>
<path opacity="0.1" d="M60.1321 10.6903C59.9471 9.87563 59.2123 9.26731 58.3415 9.26731C58.1837 9.26731 58.0258 9.28904 57.8789 9.32706C57.4489 8.40915 56.5128 7.76824 55.4297 7.76824C55.1467 7.76824 54.88 7.81169 54.6242 7.88773C54.0419 6.92094 52.9806 6.28003 51.7669 6.28003C50.3246 6.28003 49.1 7.19251 48.632 8.4689C48.3 8.28423 47.9245 8.18103 47.5217 8.18103C46.259 8.18103 45.2358 9.20214 45.2358 10.4622C45.2358 10.5383 45.2413 10.6089 45.2467 10.6849H60.1321V10.6903Z" fill="white"/>
<path opacity="0.1" d="M19.7374 24.687C19.5796 24.0026 18.97 23.4975 18.2407 23.4975C18.1047 23.4975 17.974 23.5138 17.8543 23.5464C17.4951 22.7751 16.7114 22.2428 15.8025 22.2428C15.5684 22.2428 15.3399 22.2808 15.1276 22.346C14.6378 21.5367 13.7506 20.999 12.7383 20.999C11.5301 20.999 10.5069 21.7649 10.115 22.8348C9.83743 22.6828 9.52177 22.5959 9.18433 22.5959C8.12848 22.5959 7.26855 23.454 7.26855 24.5077C7.26855 24.5729 7.27399 24.6326 7.27944 24.6924H19.7374V24.687Z" fill="white"/>
<path d="M52.7199 17.4904C52.7199 17.4904 57.0413 14.6063 58.0264 16.5073C59.0115 18.4083 52.4097 25.1378 52.4097 25.1378L52.7199 17.4904Z" fill="#FBC3A8"/>
<path d="M52.7194 30.0641C52.7194 30.0641 57.0408 27.18 58.0259 29.081C59.011 30.982 52.4092 37.7116 52.4092 37.7116L52.7194 30.0641Z" fill="#FBC3A8"/>
<path d="M52.7194 38.6349C52.7194 38.6349 57.0408 35.7508 58.0259 37.6518C59.011 39.5528 52.4092 46.2824 52.4092 46.2824L52.7194 38.6349Z" fill="#FBC3A8"/>
<path d="M49.7368 14.2532H26.0127C24.2439 14.2532 22.8125 15.6816 22.8125 17.4469V56.8464V65.8354C22.8125 67.6169 24.2602 69.0291 26.0127 69.0291H49.7368C51.5002 69.0291 52.937 67.6007 52.937 65.8354V26.4359V17.4469C52.937 15.6708 51.4893 14.2532 49.7368 14.2532Z" fill="#617ABC"/>
<path opacity="0.2" d="M24.9735 54.94C24.9735 54.94 20.6848 65.4226 21.0984 67.4051C21.5121 69.3875 24.119 72.0381 30.5086 71.1528C36.8981 70.2674 41.312 69.0888 41.312 69.0888C41.312 69.0888 41.5787 54.94 41.312 54.223C41.0454 53.5061 29.5561 48.4114 29.1044 48.4114C28.6527 48.4114 24.9735 54.94 24.9735 54.94Z" fill="#FFC0BB"/>
<path d="M51.386 18.6094H24.3638V64.6787H51.386V18.6094Z" fill="#F5F5F5"/>
<path d="M43.3907 17.1592H32.4076C32.2498 17.1592 32.1191 17.0289 32.1191 16.8714C32.1191 16.7138 32.2498 16.5835 32.4076 16.5835H43.3907C43.5485 16.5835 43.6791 16.7138 43.6791 16.8714C43.6791 17.0289 43.5485 17.1592 43.3907 17.1592Z" fill="white"/>
<path d="M22.2736 46.4725C22.2736 46.4725 22.4369 47.0754 22.807 47.3741L23.2424 42.3446C23.2424 42.3446 26.3828 38.8413 25.6262 34.116C25.365 32.4974 24.5595 31.0092 23.3295 29.9283C22.6274 29.3092 21.8546 28.8964 21.3974 29.4775C21.3974 29.4775 17.838 37.9343 15.3779 44.1152L22.2736 46.4725Z" fill="#FBC3A8"/>
<path d="M51.386 61.9521H24.3638V64.6787H51.386V61.9521Z" fill="#6F9BD4" fill-opacity="0.3"/>
<path d="M51.386 18.6094H24.3638V21.0535H51.386V18.6094Z" fill="#6F9BD4" fill-opacity="0.3"/>
<path d="M22.0344 34.4473C23.0195 33.9965 23.5311 31.4438 23.7162 30.2923C22.927 29.4993 21.9364 28.7878 21.3976 29.4776C21.3976 29.4776 20.6139 31.3406 19.5254 33.9531C20.271 34.3713 21.2997 34.7895 22.0344 34.4473Z" fill="#E07C69"/>
<path d="M46.8143 48.9492C46.8143 48.9492 43.1624 49.2534 43.0372 50.2202C42.912 51.187 43.1896 52.8924 46.6347 53.2238H50.205C50.205 53.2238 49.1383 50.2691 49.1873 50.1659C49.2362 50.0627 46.8143 48.9492 46.8143 48.9492Z" fill="#FBC3A8"/>
<path d="M40.9582 63.3862C40.4629 63.647 40.2942 64.2716 40.5718 64.755C42.2535 67.6445 48.9316 79.132 49.5302 80.0662C50.2214 81.1362 51.9032 83.6563 57.4927 84.9544C63.0822 86.2526 65.3789 89.9948 65.3789 89.9948H82.6046C82.6046 89.9948 78.5445 83.5749 75.1755 66.9221C75.1755 66.9221 72.574 53.0937 67.6703 53.5499C67.6703 53.5499 64.6823 50.416 61.776 51.0297C61.776 51.0297 56.2627 47.7437 53.1223 47.7437L45.5898 38.8525C44.8442 37.9726 43.5271 37.7988 42.6128 38.4994C42.3189 38.7221 42.0903 39.0209 42.0304 39.4174C41.8018 40.8675 43.7122 44.5392 46.7763 48.9658C49.8405 53.3978 57.4165 67.4544 54.1238 73.6462C54.1238 73.6462 50.7548 71.126 47.843 67.0742C45.4102 63.685 42.5474 62.5444 40.9582 63.3862Z" fill="#FBC3A8"/>
<path d="M53.1599 47.7488C54.1613 48.6015 55.0974 49.5303 55.9846 50.5025C56.8663 51.4584 57.7099 52.5067 58.4773 53.5658C59.1848 54.5435 60.0121 55.8525 60.5345 56.9442C61.2475 58.3889 61.5686 59.4589 61.7809 60.6864L61.7591 60.6919C61.487 59.4101 60.9808 58.1934 60.3767 57.0257C59.9576 56.2055 59.1358 54.8477 58.2922 53.6962C57.5302 52.6316 56.7084 51.6051 55.8485 50.6166C55.0376 49.6878 54.0198 48.5961 53.1436 47.7596L53.1599 47.7488Z" fill="#E07C69"/>
<path d="M61.732 51.0078C62.5484 51.426 63.2722 52.0018 63.9145 52.659C65.1227 53.8702 66.1078 55.5376 66.6031 57.406C66.799 58.237 66.9296 58.8019 66.9514 60.1163H66.9296C66.8535 59.2147 66.6902 58.3239 66.4344 57.4549C65.8792 55.6571 65.0084 54.12 63.7838 52.7785C63.2069 52.1484 62.4559 51.4695 61.7266 51.0241L61.732 51.0078Z" fill="#E07C69"/>
<path d="M67.6159 53.4954C68.3343 54.0385 69.0636 54.9999 69.4174 55.6462C70.2337 57.0475 70.6202 58.5303 70.6855 60.1217L70.6637 60.1271C70.3589 58.3565 70.0541 57.3517 69.2269 55.7548C68.9547 55.2171 68.2581 54.1634 67.605 53.5117L67.6159 53.4954Z" fill="#E07C69"/>
<path d="M44.4356 66.9435C44.588 66.1722 43.6845 64.9447 42.8627 64.0159C42.3511 63.4402 41.5456 63.2229 40.8326 63.4619C40.4353 63.7552 40.3156 64.3092 40.5714 64.7492C41.0231 65.5259 41.834 66.9218 42.7919 68.5729C43.5103 68.209 44.2941 67.6604 44.4356 66.9435Z" fill="#E07C69"/>
<path d="M45.1598 42.3446C45.5952 42.2576 47.5708 41.6005 47.4511 41.242L45.5027 38.9445C45.1162 38.4882 44.5774 38.2221 44.0168 38.1678C44.0114 38.1678 44.0114 38.1678 44.006 38.1678C43.9896 38.1678 43.957 38.1624 43.9026 38.1624C43.6413 38.1624 42.9991 38.2384 42.8576 38.9445C42.7161 39.6397 43.8753 41.3343 44.3869 42.0404C44.5611 42.2848 44.8659 42.4043 45.1598 42.3446Z" fill="#E07C69"/>
<path d="M10.5668 77.9855C12.7275 79.3107 19.6777 83.2648 26.8618 84.1121C27.2809 84.161 27.5802 84.5466 27.4551 84.8779L26.1978 88.2346C26.1162 88.4573 25.8658 88.5876 25.5828 88.5496C23.4657 88.2943 14.7249 86.9799 8.57486 82.2328C8.36804 82.0699 8.27552 81.8255 8.35716 81.6191L9.63616 78.1919C9.76134 77.8714 10.2131 77.7682 10.5668 77.9855Z" fill="#6F9BD4"/>
<path d="M9.98455 81.2119L9.86481 81.1684C9.76684 81.1304 9.71242 81.0218 9.75051 80.9186L10.175 79.7889C10.2131 79.6911 10.322 79.6368 10.4254 79.6748L10.5451 79.7183C10.6431 79.7563 10.6975 79.8649 10.6594 79.9681L10.2349 81.0978C10.1914 81.201 10.0825 81.2499 9.98455 81.2119Z" fill="#617ABC"/>
<path d="M11.2746 82.0105L11.1549 81.967C11.0569 81.929 11.0025 81.8204 11.0406 81.7172L11.4651 80.5874C11.5032 80.4897 11.612 80.4354 11.7154 80.4734L11.8352 80.5168C11.9331 80.5549 11.9876 80.6635 11.9495 80.7667L11.5249 81.8964C11.4868 81.9942 11.378 82.0431 11.2746 82.0105Z" fill="#617ABC"/>
<path d="M12.57 82.7978L12.4503 82.7544C12.3523 82.7164 12.2979 82.6077 12.336 82.5045L12.7605 81.3748C12.7986 81.277 12.9074 81.2227 13.0108 81.2607L13.1306 81.3042C13.2285 81.3422 13.283 81.4508 13.2449 81.554L12.8204 82.6838C12.7823 82.7815 12.668 82.8359 12.57 82.7978Z" fill="#617ABC"/>
<path d="M13.903 83.4389L13.7833 83.3955C13.6853 83.3575 13.6309 83.2489 13.669 83.1457L14.0935 82.0159C14.1316 81.9181 14.2404 81.8638 14.3438 81.9019L14.4636 81.9453C14.5615 81.9833 14.616 82.092 14.5779 82.1952L14.1534 83.3249C14.1153 83.4281 14.001 83.477 13.903 83.4389Z" fill="#617ABC"/>
<path d="M15.215 84.1882L15.0953 84.1448C14.9973 84.1067 14.9429 83.9981 14.981 83.8949L15.4055 82.7652C15.4436 82.6674 15.5525 82.6131 15.6559 82.6511L15.7756 82.6946C15.8736 82.7326 15.928 82.8412 15.8899 82.9444L15.4654 84.0742C15.4273 84.1719 15.313 84.2208 15.215 84.1882Z" fill="#617ABC"/>
<path d="M16.5807 84.7804L16.461 84.737C16.363 84.699 16.3086 84.5903 16.3467 84.4926L16.7712 83.3628C16.8093 83.2651 16.9182 83.2108 17.0216 83.2488L17.1413 83.2922C17.2393 83.3303 17.2937 83.4389 17.2556 83.5421L16.8311 84.6718C16.793 84.7642 16.6841 84.813 16.5807 84.7804Z" fill="#617ABC"/>
<path d="M17.9792 85.2966L17.8594 85.2532C17.7615 85.2151 17.707 85.1065 17.7451 85.0033L18.1697 83.8736C18.2078 83.7758 18.3166 83.7215 18.42 83.7595L18.5398 83.803C18.6377 83.841 18.6922 83.9496 18.6541 84.0528L18.2295 85.1826C18.186 85.2858 18.0771 85.3346 17.9792 85.2966Z" fill="#617ABC"/>
<path d="M19.4001 85.7471L19.2803 85.7036C19.1824 85.6656 19.1279 85.557 19.166 85.4538L19.5906 84.324C19.6287 84.2263 19.7375 84.1719 19.8409 84.21L19.9607 84.2534C20.0586 84.2914 20.113 84.4001 20.0749 84.5033L19.6504 85.633C19.6123 85.7308 19.498 85.7851 19.4001 85.7471Z" fill="#617ABC"/>
<path d="M20.8801 86.0404L20.7603 85.997C20.6624 85.959 20.6079 85.8504 20.646 85.7526L21.0705 84.6228C21.1086 84.5251 21.2175 84.4708 21.3209 84.5088L21.4406 84.5522C21.5386 84.5903 21.593 84.6989 21.5549 84.8021L21.1304 85.9318C21.0923 86.0242 20.978 86.0785 20.8801 86.0404Z" fill="#617ABC"/>
<path d="M22.3229 86.437L22.2032 86.3935C22.1052 86.3555 22.0508 86.2469 22.0889 86.1437L22.5134 85.014C22.5515 84.9162 22.6604 84.8619 22.7638 84.8999L22.8835 84.9434C22.9815 84.9814 23.0359 85.09 22.9978 85.1932L22.5733 86.3229C22.5352 86.4261 22.4209 86.475 22.3229 86.437Z" fill="#617ABC"/>
<path d="M23.8195 86.6868L23.6998 86.6433C23.6018 86.6053 23.5474 86.4967 23.5855 86.3935L24.01 85.2637C24.0481 85.166 24.1569 85.1116 24.2604 85.1497L24.3801 85.1931C24.4781 85.2311 24.5325 85.3398 24.4944 85.4375L24.0699 86.5673C24.0318 86.6759 23.9175 86.7248 23.8195 86.6868Z" fill="#617ABC"/>
<path d="M25.3166 86.9314L25.1968 86.8879C25.0989 86.8499 25.0444 86.7413 25.0825 86.6381L25.5071 85.5084C25.5452 85.4106 25.654 85.3563 25.7574 85.3943L25.8772 85.4377C25.9751 85.4758 26.0295 85.5844 25.9914 85.6876L25.5669 86.8173C25.5288 86.9205 25.42 86.9694 25.3166 86.9314Z" fill="#617ABC"/>
<path d="M14.8339 85.758L14.8393 85.7417C14.8176 85.7363 14.7958 85.7309 14.774 85.7255L13.0705 85.09C12.9018 85.0248 12.8201 84.8293 12.8909 84.65L14.4257 80.5493C14.491 80.3701 14.6869 80.2723 14.8557 80.332L16.5537 80.9675C16.6517 81.0055 16.7225 81.087 16.7497 81.1902C16.8857 81.25 17.0164 81.3043 17.1524 81.364C17.196 81.0218 17.0218 80.6851 16.7061 80.5656L15.0026 79.9301C14.6325 79.7889 14.2026 80.0062 14.0556 80.4081L12.5208 84.5088C12.3684 84.9107 12.5535 85.3507 12.9236 85.4919L14.6216 86.1274C14.8774 86.2251 15.155 86.1545 15.3564 85.9699C15.1822 85.8993 15.0081 85.8287 14.8339 85.758Z" fill="white"/>
<path d="M14.4587 82.5045L13.7185 82.2275C13.5879 82.1786 13.4355 82.2546 13.3811 82.3958C13.3266 82.5371 13.392 82.6946 13.5226 82.7435L14.2628 83.0205L14.4587 82.5045Z" fill="#6F9BD4"/>
<path opacity="0.2" d="M65.3845 89.9999H82.6101C82.6101 89.9999 79.9487 85.7906 77.1513 75.3459C75.9212 83.0368 69.1398 82.5915 66.4512 83.0206C63.3544 83.5094 51.3264 81.0109 49.6392 80.2179C50.3902 81.3585 52.1645 83.7158 57.5036 84.9541C63.0823 86.2577 65.3845 89.9999 65.3845 89.9999Z" fill="#FBC3A8"/>
<path opacity="0.2" d="M47.6851 50.3613C51.0649 55.7765 57.1224 68.2199 54.1236 73.6459L56.1156 75.6066C56.1156 75.6066 61.1445 70.0503 53.1439 57.7915C51.2826 54.94 49.4321 52.4742 47.6851 50.3613Z" fill="#FFC0BB"/>
<path d="M1.05871 34.6049C0.356624 31.0636 5.64678 29.8741 6.50126 33.3828C6.57746 33.6978 6.62644 34.0563 6.64277 34.4474C6.80605 38.6622 4.25349 43.2463 1.53221 42.475C-1.18906 41.7038 0.378393 38.8251 1.20022 37.0979C1.58664 36.2941 1.23832 35.5174 1.05871 34.6049Z" fill="#6F9BD4"/>
<path d="M77.9997 26.8868C76.4486 26.3491 74.7505 27.1692 74.1682 28.7009C73.7164 29.8904 73.1939 31.5524 73.1504 33.0134C73.0633 35.6477 74.1137 41.3018 78.1303 42.6977C82.1469 44.0935 84.5417 40.411 81.8694 36.1474C80.7265 34.3333 81.2979 28.0383 77.9997 26.8868Z" fill="#6F9BD4"/>
<path opacity="0.1" d="M58.1294 26.3329C58.2763 25.6866 58.8587 25.2086 59.5499 25.2086C59.6751 25.2086 59.8003 25.2249 59.92 25.2575C60.2629 24.5297 61.0031 24.0246 61.863 24.0246C62.0861 24.0246 62.2984 24.0572 62.4998 24.1223C62.9624 23.3565 63.8005 22.8459 64.7639 22.8459C65.9068 22.8459 66.8756 23.5683 67.2457 24.5786C67.5069 24.4319 67.8063 24.3505 68.1274 24.3505C69.1288 24.3505 69.9397 25.1597 69.9397 26.1591C69.9397 26.2189 69.9343 26.2786 69.9288 26.3329H58.1294Z" fill="white"/>
<path opacity="0.1" d="M19.3076 6.33458C19.4165 5.87291 19.8301 5.53073 20.3199 5.53073C20.4124 5.53073 20.4995 5.54159 20.5812 5.56331C20.8261 5.0419 21.354 4.68342 21.969 4.68342C22.1269 4.68342 22.2792 4.70515 22.4262 4.75403C22.7582 4.20546 23.3569 3.84155 24.0426 3.84155C24.859 3.84155 25.5557 4.35754 25.8169 5.08535C26.0019 4.98215 26.2197 4.92241 26.4482 4.92241C27.1667 4.92241 27.7436 5.50357 27.7436 6.21509C27.7436 6.25854 27.7436 6.30199 27.7381 6.34001H19.3076V6.33458Z" fill="white"/>
<path opacity="0.1" d="M63.9526 44.5552C63.9526 44.5552 63.773 46.3041 62.396 46.4236C63.7784 46.5431 63.9526 48.292 63.9526 48.292C63.9526 48.292 64.1322 46.5431 65.5091 46.4236C64.1267 46.3041 63.9526 44.5552 63.9526 44.5552Z" fill="white"/>
<path opacity="0.1" d="M61.52 16.8984C61.52 16.8984 61.3948 18.1531 60.4043 18.24C61.3948 18.3269 61.52 19.5816 61.52 19.5816C61.52 19.5816 61.6452 18.3269 62.6357 18.24C61.6506 18.1531 61.52 16.8984 61.52 16.8984Z" fill="white"/>
<path opacity="0.1" d="M18.5785 10.1853C18.5785 10.1853 18.4969 10.9729 17.8765 11.0272C18.4969 11.0815 18.5785 11.869 18.5785 11.869C18.5785 11.869 18.6602 11.0815 19.2806 11.0272C18.6602 10.9729 18.5785 10.1853 18.5785 10.1853Z" fill="white"/>
<path opacity="0.1" d="M13.5058 31.6501C13.5058 31.6501 13.3262 33.3991 11.9492 33.5186C13.3316 33.638 13.5058 35.387 13.5058 35.387C13.5058 35.387 13.6854 33.638 15.0624 33.5186C13.6799 33.3936 13.5058 31.6501 13.5058 31.6501Z" fill="white"/>
<path opacity="0.1" d="M67.6048 39.7266C67.6048 39.7266 67.4851 40.8835 66.5762 40.9595C67.4905 41.041 67.6048 42.1924 67.6048 42.1924C67.6048 42.1924 67.7245 41.0355 68.6334 40.9595C67.7245 40.878 67.6048 39.7266 67.6048 39.7266Z" fill="white"/>
<path opacity="0.1" d="M64.6875 13.5581C64.6875 13.5581 64.6222 14.1882 64.127 14.2316C64.6277 14.2751 64.6875 14.9051 64.6875 14.9051C64.6875 14.9051 64.7528 14.2751 65.2481 14.2316C64.7528 14.1882 64.6875 13.5581 64.6875 13.5581Z" fill="white"/>
<path opacity="0.1" d="M16.4066 27.5657C16.4066 27.5657 16.2868 28.7226 15.3779 28.7986C16.2923 28.8801 16.4066 30.0315 16.4066 30.0315C16.4066 30.0315 16.5263 28.8746 17.4352 28.7986C16.5263 28.7171 16.4066 27.5657 16.4066 27.5657Z" fill="white"/>
<path opacity="0.1" d="M23.03 8.51245C23.03 8.51245 22.9702 9.11534 22.4912 9.15879C22.9702 9.20224 23.03 9.80513 23.03 9.80513C23.03 9.80513 23.0899 9.20224 23.5688 9.15879C23.0899 9.12077 23.03 8.51245 23.03 8.51245Z" fill="white"/>
<path opacity="0.1" d="M62.2658 36.2559C62.2658 36.2559 62.2114 36.7718 61.8032 36.8099C62.2114 36.8479 62.2658 37.3639 62.2658 37.3639C62.2658 37.3639 62.3203 36.8479 62.7285 36.8099C62.3203 36.7718 62.2658 36.2559 62.2658 36.2559Z" fill="white"/>
<path opacity="0.1" d="M14.7307 38.4719C14.7307 38.4719 14.6763 38.9879 14.2681 39.0259C14.6763 39.0639 14.7307 39.5799 14.7307 39.5799C14.7307 39.5799 14.7851 39.0639 15.1933 39.0259C14.7851 38.9879 14.7307 38.4719 14.7307 38.4719Z" fill="white"/>
<path opacity="0.1" d="M19.5305 14.4109C19.5305 14.4109 19.4271 15.432 18.6216 15.5026C19.4271 15.5732 19.5305 16.5943 19.5305 16.5943C19.5305 16.5943 19.6339 15.5732 20.4394 15.5026C19.6339 15.432 19.5305 14.4109 19.5305 14.4109Z" fill="white"/>
</svg>
