<svg width="375" height="329" viewBox="0 0 375 329" fill="none" xmlns="http://www.w3.org/2000/svg">
<path d="M255.517 172.712C238.508 164.401 204.006 147.735 204.006 147.735H202.681C202.681 147.735 168.178 164.401 151.17 172.712C134.162 181.023 134.603 200.49 134.603 200.49V219.956L148.343 226.401L148.431 314H202.946H203.608H271.906L272.039 200.49C272.083 200.49 272.525 181.068 255.517 172.712Z" fill="#D9E3F3"/>
<path d="M164.549 82.3373L151.229 72.1928C151.229 72.1928 160.642 65.8689 165.437 56.427C170.321 46.7655 180 38.5971 197.05 38.0262C214.056 37.4553 224.756 46.2824 231.106 57.3931C235.413 64.9467 244.337 72.0171 244.337 72.0171L230.351 82.1617L164.549 82.3373Z" fill="#D9E3F3"/>
<path d="M158.988 146.627C158.988 146.627 165.512 131.241 164.718 118.124C163.528 98.1587 156.475 58.6286 193.857 54.9379C232.517 51.1139 235.25 83.2627 233.707 109.898C232.914 123.015 243.229 141.824 243.229 141.824C243.229 141.824 189.978 131.019 158.988 146.627Z" fill="#5C1E14"/>
<path d="M218.843 164.094C218.843 164.094 211.45 171.012 203.126 171.012C193.563 171.012 187.807 164.975 187.807 164.975L188.206 143.559V143.338V143.162L188.471 128.18V127.959V127.783L195.688 129.325L203.259 130.163L216.187 131.573L217.205 131.617L217.249 132.763L217.294 134.041L218.843 164.094Z" fill="#FBC3A8"/>
<path d="M219.952 131.349C219.952 131.349 219.687 131.812 219.113 132.553C218.804 132.923 218.451 133.386 217.965 133.896C214.08 138.249 204.544 146.445 188.916 143.945V143.713V143.528L189.18 127.783L195.229 128.987L203.926 129.867L218.76 131.349H219.952Z" fill="#26120C"/>
<path d="M169.078 92.5162C169.078 92.5162 165.617 139.662 196.85 139.973C228.082 140.285 229.236 113.02 228.748 94.1174C228.349 78.1057 221.25 60.6706 199.246 61.2933C185.359 61.6491 170.364 68.4986 169.078 92.5162Z" fill="#FBC3A8"/>
<path d="M200.708 116.697C200.805 116.709 200.902 116.664 200.977 116.57C201.051 116.476 201.098 116.341 201.107 116.196C201.115 116.05 201.085 115.905 201.022 115.793C200.959 115.681 200.87 115.611 200.772 115.598L198.895 115.091C198.784 115.061 198.684 114.97 198.615 114.836C198.545 114.702 198.511 114.535 198.52 114.366L199.01 103.987C199.013 103.915 199.007 103.842 198.992 103.774C198.976 103.705 198.952 103.642 198.921 103.587C198.857 103.477 198.766 103.409 198.669 103.399C198.571 103.389 198.475 103.437 198.402 103.533C198.328 103.628 198.283 103.764 198.276 103.91L197.786 114.289C197.765 114.728 197.853 115.164 198.034 115.512C198.215 115.859 198.475 116.094 198.765 116.172L200.64 116.679C200.662 116.688 200.685 116.694 200.708 116.697Z" fill="#EB7360"/>
<path d="M227.193 97.0501C227.193 97.0501 229.853 88.766 234.413 91.9218C238.973 95.0777 236.313 114.232 226.602 107.526L227.193 97.0501Z" fill="#FBC3A8"/>
<path d="M169.481 98.1585C169.481 98.1585 166.821 89.8744 162.262 93.0303C157.702 96.1861 160.362 115.34 170.072 108.634L169.481 98.1585Z" fill="#FBC3A8"/>
<path fill-rule="evenodd" clip-rule="evenodd" d="M233.253 94.9913C233.257 95.2503 233.065 95.4638 232.825 95.4681C232.404 95.4757 232.049 95.7518 231.739 96.3215C231.427 96.8942 231.211 97.6833 231.066 98.5134C230.923 99.3358 230.855 100.162 230.824 100.786C230.809 101.097 230.802 101.356 230.8 101.536C230.799 101.626 230.798 101.697 230.798 101.744L230.798 101.797L230.798 101.81L230.798 101.813C230.802 102.072 230.609 102.286 230.369 102.289C230.129 102.293 229.931 102.085 229.928 101.826L230.363 101.82C229.928 101.826 229.928 101.827 229.928 101.826L229.928 101.824L229.928 101.82L229.928 101.804L229.928 101.744C229.928 101.692 229.928 101.617 229.929 101.522C229.932 101.331 229.939 101.06 229.955 100.736C229.987 100.088 230.058 99.2173 230.211 98.3402C230.362 97.4707 230.601 96.5575 230.988 95.847C231.376 95.1335 231.962 94.5455 232.811 94.5302C233.051 94.5259 233.249 94.7323 233.253 94.9913Z" fill="#EB7360"/>
<path fill-rule="evenodd" clip-rule="evenodd" d="M167.848 101.761C167.848 101.761 167.848 101.762 167.401 101.834L167.848 101.761C167.895 102.006 167.716 102.239 167.448 102.282C167.18 102.325 166.924 102.162 166.877 101.918L166.876 101.913L166.872 101.897L166.859 101.833C166.847 101.776 166.829 101.692 166.805 101.586C166.757 101.374 166.685 101.073 166.59 100.722C166.398 100.016 166.114 99.1197 165.745 98.3258C165.561 97.929 165.359 97.5679 165.144 97.2727C164.926 96.9739 164.711 96.767 164.509 96.6506C164.32 96.5417 164.152 96.5149 163.976 96.5551C163.782 96.5994 163.513 96.7408 163.179 97.0914C163 97.2787 162.688 97.2984 162.483 97.1355C162.277 96.9726 162.256 96.6888 162.434 96.5016C162.843 96.0738 163.274 95.789 163.736 95.6835C164.216 95.5738 164.659 95.6734 165.036 95.8914C165.401 96.1017 165.707 96.4221 165.965 96.7751C166.226 97.1318 166.454 97.547 166.653 97.9752C167.052 98.8314 167.35 99.7794 167.547 100.506C167.646 100.871 167.721 101.183 167.771 101.405C167.796 101.516 167.815 101.604 167.828 101.665L167.843 101.735L167.846 101.754L167.848 101.761Z" fill="#EB7360"/>
<path d="M212.193 102.289C213.417 102.289 214.41 101.297 214.41 100.072C214.41 98.848 213.417 97.8554 212.193 97.8554C210.968 97.8554 209.976 98.848 209.976 100.072C209.976 101.297 210.968 102.289 212.193 102.289Z" fill="#26120C"/>
<path d="M185.59 103.398C186.815 103.398 187.807 102.157 187.807 100.627C187.807 99.0961 186.815 97.8554 185.59 97.8554C184.366 97.8554 183.374 99.0961 183.374 100.627C183.374 102.157 184.366 103.398 185.59 103.398Z" fill="#26120C"/>
<path fill-rule="evenodd" clip-rule="evenodd" d="M206.178 124.462C206.32 124.766 206.189 125.127 205.886 125.27C202.707 126.761 199.552 126.605 197.217 126.092C196.048 125.835 195.075 125.486 194.392 125.201C194.05 125.058 193.781 124.93 193.594 124.838C193.501 124.791 193.428 124.754 193.378 124.727C193.353 124.713 193.334 124.703 193.32 124.695L193.303 124.686L193.298 124.683L193.297 124.682L193.296 124.682C193.296 124.682 193.296 124.682 193.59 124.162L193.296 124.682C193.004 124.516 192.902 124.146 193.067 123.854C193.232 123.563 193.602 123.46 193.894 123.625C193.894 123.625 193.894 123.625 193.894 123.625C193.894 123.625 193.894 123.625 193.894 123.625C193.894 123.625 193.894 123.625 193.894 123.625L193.895 123.626L193.905 123.632C193.914 123.637 193.929 123.645 193.949 123.656C193.99 123.677 194.052 123.71 194.135 123.751C194.3 123.833 194.545 123.949 194.86 124.08C195.491 124.344 196.394 124.668 197.478 124.906C199.65 125.384 202.512 125.512 205.37 124.171C205.674 124.028 206.035 124.159 206.178 124.462Z" fill="#EB7360"/>
<path d="M208.611 93.3478C208.611 93.3478 214.428 92.947 215.882 92.7966C217.601 92.5962 218.967 91.2935 215.97 90.592C212.621 89.7903 208.038 89.9407 206.319 91.1933C204.733 92.4459 205.614 93.7486 208.611 93.3478Z" fill="#26120C"/>
<path d="M188.099 93.9519C188.099 93.9519 182.325 94.432 180.882 94.528C179.745 94.576 177.34 93.8079 180.532 92.4158C183.725 91.0236 188.142 90.9756 190.067 91.5517C191.86 92.0797 191.51 93.6159 188.099 93.9519Z" fill="#26120C"/>
<path d="M218.181 147.735C218.181 147.735 219.856 167.265 203.325 171.37C203.325 171.37 205.265 177.865 210.907 186.886C213.685 191.351 222.59 187.698 228.012 176.827C232.817 167.31 228.232 156.17 218.181 147.735Z" fill="#90C9ED"/>
<path d="M188.455 147.735C188.455 147.735 186.778 167.244 203.325 171.344C203.325 171.344 203.193 171.749 202.928 172.515C202.134 174.768 199.972 180.13 195.736 186.888C192.956 191.348 184.042 187.699 178.614 176.841C173.849 167.289 178.438 156.16 188.455 147.735Z" fill="#90C9ED"/>
<path fill-rule="evenodd" clip-rule="evenodd" d="M229.002 161.072C229.315 160.959 229.659 161.123 229.772 161.439C231.574 166.518 231.539 171.774 229.083 176.623C226.34 182.078 222.683 185.781 219.306 187.551C217.619 188.434 215.966 188.853 214.516 188.724C213.045 188.593 211.798 187.894 211.007 186.601C207.069 180.159 204.31 175.336 203.363 172.773C203.247 172.458 203.405 172.107 203.717 171.989C204.028 171.872 204.375 172.032 204.491 172.347C205.387 174.773 208.07 179.483 212.031 185.961L212.031 185.961C212.602 186.895 213.489 187.41 214.622 187.511C215.776 187.614 217.197 187.285 218.752 186.47C221.859 184.842 225.355 181.352 228.011 176.07L228.011 176.069C230.294 171.563 230.347 166.662 228.639 161.851C228.527 161.534 228.689 161.186 229.002 161.072Z" fill="#90C9ED"/>
<path fill-rule="evenodd" clip-rule="evenodd" d="M177.676 161.071C178.002 161.182 178.175 161.531 178.06 161.85C176.325 166.688 176.423 171.529 178.759 176.019C181.526 181.33 185.157 184.829 188.388 186.46C190.005 187.276 191.485 187.607 192.691 187.505C193.876 187.405 194.807 186.89 195.412 185.959L195.413 185.957C199.482 179.731 202.284 174.717 203.219 172.275C203.34 171.958 203.702 171.798 204.026 171.916C204.35 172.034 204.515 172.387 204.394 172.703C203.408 175.278 200.54 180.388 196.471 186.615C195.635 187.901 194.332 188.595 192.799 188.724C191.287 188.852 189.567 188.433 187.812 187.547C184.298 185.773 180.499 182.059 177.641 176.574L177.641 176.574C175.13 171.747 175.045 166.554 176.877 161.446C176.991 161.127 177.349 160.959 177.676 161.071Z" fill="#90C9ED"/>
<path d="M181.648 71.2648C181.648 71.2648 185.914 79.9428 203.111 79.6798C220.309 79.3731 223.33 80.9947 223.375 88.9715C223.419 95.1951 226.841 95.3266 228.263 93.5296C229.907 91.4259 228.663 68.4159 213.998 63.025C199.334 57.6341 185.069 61.0089 180.67 63.9016C176.271 66.7943 181.648 71.2648 181.648 71.2648Z" fill="#5C1E14"/>
<path d="M168.888 96.599C168.888 96.599 169.34 98.218 170.651 97.7804C172.007 97.3428 172.459 95.8989 171.826 90.4731C171.193 85.0473 174.899 71.3079 182.357 71.1766C189.815 71.0453 186.561 64.7444 180.866 65.8383C175.171 66.9323 170.56 74.2833 169.069 79.4465C167.577 84.6098 167.396 92.3984 168.888 96.599Z" fill="#5C1E14"/>
<path d="M239.248 307.305L174.142 307.349C173.171 307.349 172.377 306.55 172.377 305.573L172.289 220.495C172.289 219.518 173.083 218.719 174.053 218.719L239.159 218.675C240.13 218.675 240.924 219.474 240.924 220.451L241.012 305.529C241.012 306.506 240.218 307.305 239.248 307.305Z" fill="#6F9BD4"/>
<path d="M237.361 303.864L237.28 222.503L175.658 222.565L175.739 303.926L237.361 303.864Z" fill="white"/>
<path d="M219.855 224.169L193.444 224.217C192.775 224.217 192.241 223.645 192.241 222.93V216.684C192.241 215.969 192.775 215.397 193.444 215.397L219.855 215.349C220.523 215.349 221.058 215.921 221.058 216.637V222.882C221.102 223.597 220.523 224.169 219.855 224.169Z" fill="#26120C"/>
<path d="M206.651 222C209.711 222 212.193 219.271 212.193 215.904C212.193 212.537 209.711 209.807 206.651 209.807C203.59 209.807 201.108 212.537 201.108 215.904C201.108 219.271 203.59 222 206.651 222Z" fill="#26120C"/>
<path d="M208.868 228.651H204.434V240.843H208.868V228.651Z" fill="#AE4A41"/>
<path d="M200.65 232.717L200.654 236.805L212.341 236.793L212.337 232.705L200.65 232.717Z" fill="#AE4A41"/>
<path fill-rule="evenodd" clip-rule="evenodd" d="M204.434 249.711H183.374V246.386H204.434V249.711Z" fill="#26120C"/>
<path fill-rule="evenodd" clip-rule="evenodd" d="M229.928 255.213L183.376 255.253L183.374 253.076L229.925 253.036L229.928 255.213Z" fill="#26120C"/>
<path fill-rule="evenodd" clip-rule="evenodd" d="M223.277 261.844L183.376 261.904L183.374 258.638L223.274 258.578L223.277 261.844Z" fill="#26120C"/>
<path fill-rule="evenodd" clip-rule="evenodd" d="M229.928 267.406L183.376 267.446L183.374 265.269L229.925 265.229L229.928 267.406Z" fill="#26120C"/>
<path fill-rule="evenodd" clip-rule="evenodd" d="M216.627 279.599L183.377 279.639L183.374 277.461L216.623 277.422L216.627 279.599Z" fill="#26120C"/>
<path fill-rule="evenodd" clip-rule="evenodd" d="M229.928 286.229L183.376 286.289L183.374 283.024L229.925 282.964L229.928 286.229Z" fill="#26120C"/>
<path fill-rule="evenodd" clip-rule="evenodd" d="M223.277 291.791L183.376 291.831L183.374 289.654L223.274 289.614L223.277 291.791Z" fill="#26120C"/>
<path fill-rule="evenodd" clip-rule="evenodd" d="M229.928 298.422L183.376 298.482L183.374 295.216L229.925 295.157L229.928 298.422Z" fill="#26120C"/>
<path d="M207.721 298.482L193 297.563C193 297.563 200.249 270.771 200.65 270.771C201.05 270.771 225.244 271.428 225.244 271.428C225.244 271.428 228.091 283.729 224.221 290.121C220.396 296.512 207.721 298.482 207.721 298.482Z" fill="#FBC3A8"/>
<path d="M215.798 271.161C217.716 270.229 235.366 271.207 238.504 271.626C241.642 272.046 243.429 273.583 243.211 275.959C242.862 279.406 239.463 279.312 236.848 279.219C234.233 279.126 222.815 279.639 222.815 279.639C222.815 279.639 213.837 272.092 215.798 271.161Z" fill="#FBC3A8"/>
<path d="M219.287 283.313L222.612 278.53L241.987 281.912C241.987 281.912 246.51 282.057 246.554 285.825C246.554 289.593 243.051 289.786 239.948 289.544C236.844 289.303 218.843 287.226 218.843 287.226L219.287 283.313Z" fill="#FBC3A8"/>
<path d="M214.41 291.253L217.429 286.289L237.48 289.835C237.48 289.835 242.075 289.977 242.121 293.665C242.121 297.352 238.561 297.541 235.407 297.305C232.253 297.069 214.59 295.461 214.59 295.461L214.41 291.253Z" fill="#FBC3A8"/>
<path d="M200 297.447L209.505 292.94L229.18 297.857C229.18 297.857 233.666 298.586 233.222 302.137C232.778 305.689 229.269 305.37 226.205 304.732C223.14 304.095 214.124 303.093 209.638 302.274C202.665 300.999 200 297.447 200 297.447Z" fill="#FBC3A8"/>
<path fill-rule="evenodd" clip-rule="evenodd" d="M222.169 278.914C222.177 278.694 222.373 278.522 222.605 278.53L231.739 278.842C231.971 278.85 232.153 279.034 232.144 279.254C232.136 279.474 231.941 279.646 231.708 279.638L222.575 279.327C222.342 279.319 222.161 279.134 222.169 278.914Z" fill="#EB7360"/>
<path fill-rule="evenodd" clip-rule="evenodd" d="M218.846 286.677C218.872 286.439 219.095 286.267 219.344 286.292L232.846 287.643C233.096 287.668 233.277 287.881 233.25 288.118C233.224 288.356 233.001 288.529 232.752 288.504L219.25 287.152C219 287.127 218.82 286.914 218.846 286.677Z" fill="#EB7360"/>
<path fill-rule="evenodd" clip-rule="evenodd" d="M217.741 294.576C217.782 294.235 218.029 294.002 218.292 294.056L228.412 296.131C228.675 296.185 228.855 296.505 228.813 296.846C228.772 297.187 228.525 297.42 228.262 297.366L218.142 295.291C217.879 295.237 217.699 294.917 217.741 294.576Z" fill="#EB7360"/>
<path d="M213.73 265.325C213.73 265.325 207.56 271.804 205 271.761L213.867 271.976L213.73 265.325Z" fill="#FBC3A8"/>
<path d="M139.194 184.313C139.194 184.313 113.027 228.824 103.669 253.7C98.6131 267.071 105.754 298.877 196.85 300.699C196.85 300.699 199.112 294.435 201.507 284.085C203.369 276.089 204.434 266.583 204.434 266.583L147.354 255.077L170.638 208.79L139.194 184.313Z" fill="#D9E3F3"/>
<path fill-rule="evenodd" clip-rule="evenodd" d="M133.524 292.205C133.627 291.921 133.969 291.766 134.288 291.858C147.695 295.715 165.529 299.146 191.646 299.619C191.981 299.625 192.248 299.872 192.241 300.17C192.234 300.468 191.957 300.705 191.621 300.699C165.387 300.223 147.436 296.776 133.914 292.885C133.595 292.793 133.42 292.489 133.524 292.205Z" fill="#90C9ED"/>
<path fill-rule="evenodd" clip-rule="evenodd" d="M158.269 226.507C158.559 226.667 158.668 227.038 158.513 227.337L157.987 227.047L157.461 226.757C157.617 226.459 157.978 226.347 158.269 226.507ZM147.989 254.196C147.989 254.196 147.989 254.197 147.989 254.198C147.991 254.204 147.998 254.231 148.031 254.279C148.102 254.383 148.253 254.529 148.524 254.703C149.063 255.05 149.916 255.411 151.021 255.771C153.218 256.487 156.248 257.149 159.332 257.715C162.41 258.279 165.517 258.744 167.856 259.067C169.025 259.229 170.002 259.355 170.686 259.441C171.028 259.484 171.297 259.517 171.48 259.539L171.688 259.564L171.758 259.572C171.759 259.572 171.759 259.572 171.697 260.136L171.758 259.572C172.086 259.61 172.322 259.914 172.285 260.251C172.248 260.587 171.953 260.829 171.626 260.791L171.692 260.182C171.626 260.791 171.626 260.791 171.626 260.791L171.624 260.791L171.552 260.783L171.341 260.757C171.156 260.735 170.885 260.702 170.541 260.659C169.853 260.573 168.872 260.446 167.697 260.283C165.348 259.958 162.223 259.491 159.122 258.922C156.027 258.354 152.934 257.681 150.66 256.94C149.53 256.572 148.561 256.174 147.891 255.743C147.558 255.529 147.257 255.28 147.056 254.986C146.843 254.676 146.726 254.288 146.839 253.867L146.841 253.86C148.918 246.506 151.572 239.733 153.705 234.801C154.773 232.334 155.71 230.325 156.382 228.933C156.717 228.236 156.987 227.694 157.172 227.325C157.265 227.14 157.337 226.999 157.386 226.904L157.442 226.795L157.456 226.767L157.461 226.757C157.461 226.757 157.461 226.757 157.987 227.047L158.513 227.337L158.509 227.345L158.495 227.371L158.441 227.475C158.394 227.568 158.324 227.706 158.232 227.888C158.049 228.251 157.783 228.788 157.451 229.477C156.786 230.857 155.855 232.85 154.796 235.299C152.677 240.199 150.045 246.915 147.989 254.196Z" fill="#90C9ED"/>
<path d="M262.846 314H297.542C297.542 314 277.929 203.423 274.895 193.431C271.861 183.439 259.855 175.446 259.855 175.446L262.846 314Z" fill="#D9E3F3"/>
<path fill-rule="evenodd" clip-rule="evenodd" d="M261.693 217.566C262.098 217.564 262.429 217.836 262.432 218.173L263.181 311.168C263.183 311.506 262.857 311.781 262.452 311.783C262.047 311.785 261.716 311.514 261.713 311.176L260.964 218.181C260.961 217.844 261.288 217.569 261.693 217.566Z" fill="#90C9ED"/>
<path d="M203.325 193.181C204.55 193.181 205.542 192.188 205.542 190.964C205.542 189.74 204.55 188.747 203.325 188.747C202.101 188.747 201.108 189.74 201.108 190.964C201.108 192.188 202.101 193.181 203.325 193.181Z" fill="#90C9ED"/>
<path d="M203.325 207.59C204.55 207.59 205.542 206.598 205.542 205.373C205.542 204.149 204.55 203.157 203.325 203.157C202.101 203.157 201.108 204.149 201.108 205.373C201.108 206.598 202.101 207.59 203.325 207.59Z" fill="#90C9ED"/>
<path d="M211.651 273.084L216.134 272.29C216.134 272.29 217.445 270.909 217.868 270.407C220.786 267.145 218.968 263.924 217.276 262L213.808 265.764L211.651 273.084Z" fill="#FBC3A8"/>
<path fill-rule="evenodd" clip-rule="evenodd" d="M268.932 255H335.281C337.699 255 339.65 256.951 339.65 259.369C339.65 259.689 339.621 260.039 339.534 260.359L327.971 310.602C327.505 312.583 325.757 313.981 323.718 313.981H257.369C254.951 313.981 253 312.029 253 309.612C253 309.291 253.029 308.942 253.116 308.621L264.68 258.379C265.116 256.398 266.893 255 268.932 255Z" fill="#3C8A87"/>
<path fill-rule="evenodd" clip-rule="evenodd" d="M335.835 255H269.311C266.893 255 264.942 256.951 264.942 259.369C264.942 259.544 264.942 259.689 264.971 259.864L270.767 310.456C271.029 312.67 272.893 314.33 275.107 314.33H341.631C344.049 314.33 346 312.379 346 309.961C346 309.786 346 309.641 345.971 309.466L340.175 258.874C339.942 256.66 338.049 255 335.835 255Z" fill="#99E2E0"/>
<mask id="mask0" mask-type="alpha" maskUnits="userSpaceOnUse" x="264" y="255" width="82" height="60">
<path fill-rule="evenodd" clip-rule="evenodd" d="M335.835 255H269.311C266.893 255 264.942 256.951 264.942 259.369C264.942 259.544 264.942 259.689 264.971 259.864L270.767 310.456C271.029 312.67 272.893 314.33 275.107 314.33H341.631C344.049 314.33 346 312.379 346 309.961C346 309.786 346 309.641 345.971 309.466L340.175 258.874C339.942 256.66 338.049 255 335.835 255Z" fill="#5CBBB8"/>
</mask>
<g mask="url(#mask0)">
<path d="M261.039 251.942H343.146V265.165H261.039V251.942Z" fill="#6CC2BF"/>
</g>
<path d="M336.534 276.583H272.951" stroke="white"/>
<path d="M338.573 286.748H274.961" stroke="white"/>
<path d="M339.563 296.913H275.98" stroke="white"/>
<path d="M326.34 270.029L329.398 307.427" stroke="white"/>
<path d="M312.767 270.029L315.825 307.427" stroke="white"/>
<path d="M299.194 270.029L302.281 307.427" stroke="white"/>
<path d="M285.621 270.029L288.709 307.427" stroke="white"/>
<path fill-rule="evenodd" clip-rule="evenodd" d="M315.177 278.316L316 288.316H302.128L301 278.316H315.177Z" fill="#3C8A87"/>
<path d="M307.094 284.165L305.907 283.117C305.852 283.067 305.789 283.029 305.72 283.005C305.651 282.982 305.578 282.973 305.505 282.979C305.433 282.985 305.362 283.006 305.298 283.04C305.233 283.075 305.176 283.123 305.129 283.181C305.082 283.239 305.047 283.307 305.025 283.379C305.003 283.452 304.996 283.528 305.002 283.604C305.009 283.68 305.03 283.754 305.064 283.821C305.098 283.888 305.144 283.948 305.2 283.996L306.487 285.132L306.53 285.158C306.783 285.309 307.08 285.354 307.363 285.283C307.646 285.212 307.892 285.031 308.051 284.776L309.769 282.031L310.91 280.207C310.949 280.144 310.977 280.074 310.99 279.999C311.004 279.925 311.003 279.849 310.989 279.775C310.974 279.701 310.946 279.63 310.905 279.568C310.865 279.505 310.813 279.452 310.753 279.41C310.693 279.369 310.625 279.34 310.554 279.326C310.484 279.312 310.411 279.312 310.34 279.327C310.27 279.343 310.203 279.372 310.143 279.415C310.083 279.457 310.032 279.512 309.993 279.575L309.198 280.846L307.133 284.145C307.129 284.151 307.123 284.157 307.116 284.16C307.11 284.164 307.102 284.166 307.094 284.165Z" fill="white"/>
<path d="M210 308H99V314H210V308Z" fill="#8D8D8D"/>
<path d="M154 314H45.8124C43.9368 314 42.3006 312.723 41.8217 310.928L21.6289 234.013L20.1124 228.149C19.5537 226.035 21.15 224 23.3049 224H127.183C129.058 224 130.694 225.277 131.173 227.112L152.364 307.896L154 314Z" fill="#CDCDCD"/>
<path d="M94.7887 277.777C99.3445 272.719 98.0372 264.08 91.8687 258.483C85.7003 252.886 77.0066 252.449 72.4508 257.507C67.8951 262.566 69.2024 271.204 75.3708 276.801C81.5393 282.399 90.233 282.836 94.7887 277.777Z" fill="white"/>
<path d="M91 270.083L89.8107 264.875H85.3222L84.2481 260H79.4527L80.5269 264.875H76L77.1893 270.125H81.6777L82.7519 275H87.5473L86.4731 270.083H91Z" fill="#AE4A41"/>
<path d="M108.696 160.478L101.013 153.581H65.2643C63.4729 153.581 62 152.129 62 150.274V125.307C62 123.492 63.4331 122 65.2643 122H108.736C110.527 122 112 123.452 112 125.307V158.986C111.96 160.72 109.97 161.648 108.696 160.478Z" fill="#D87979"/>
<path d="M99 140C100.657 140 102 138.657 102 137C102 135.343 100.657 134 99 134C97.3431 134 96 135.343 96 137C96 138.657 97.3431 140 99 140Z" fill="white"/>
<path d="M87 140C88.6569 140 90 138.657 90 137C90 135.343 88.6569 134 87 134C85.3431 134 84 135.343 84 137C84 138.657 85.3431 140 87 140Z" fill="white"/>
<path d="M75 140C76.6569 140 78 138.657 78 137C78 135.343 76.6569 134 75 134C73.3431 134 72 135.343 72 137C72 138.657 73.3431 140 75 140Z" fill="white"/>
<path d="M29.3413 185.509L37.0183 178.786H72.7383C74.5282 178.786 76 177.37 76 175.562V151.224C76 149.455 74.568 148 72.7383 148H29.2617C27.4718 148 26 149.415 26 151.224V184.054C26.0398 185.745 28.0286 186.61 29.3413 185.509Z" fill="#F4C989"/>
<path d="M39 166C40.6569 166 42 164.657 42 163C42 161.343 40.6569 160 39 160C37.3431 160 36 161.343 36 163C36 164.657 37.3431 166 39 166Z" fill="white"/>
<path d="M51 166C52.6569 166 54 164.657 54 163C54 161.343 52.6569 160 51 160C49.3431 160 48 161.343 48 163C48 164.657 49.3431 166 51 166Z" fill="white"/>
<path d="M62.5 166C63.8807 166 65 164.657 65 163C65 161.343 63.8807 160 62.5 160C61.1193 160 60 161.343 60 163C60 164.657 61.1193 166 62.5 166Z" fill="white"/>
<path fill-rule="evenodd" clip-rule="evenodd" d="M312.296 50.6269C306.445 50.6269 301.038 52.6935 296.768 56.1598L291.491 49.4128C297.204 44.7749 304.457 42 312.296 42C330.757 42 345.709 57.3131 345.709 76.1515C345.709 84.8205 342.527 92.7762 337.284 98.8L330.948 93.0766C334.865 88.5755 337.241 82.6384 337.241 76.1515C337.241 62.047 326.05 50.6269 312.296 50.6269Z" fill="white"/>
<path d="M286.537 57.4909C286.69 57.4909 286.844 57.4909 286.997 57.4909C287.867 57.4909 288.685 57.5955 289.503 57.8048L292.726 78.4703C291.089 79.5167 289.094 80.0922 287.048 80.0922C286.895 80.0922 286.741 80.0922 286.588 80.0922C290.015 90.4511 298.045 98.6649 308.173 102.17C308.173 102.013 308.173 101.856 308.173 101.699C308.173 99.6067 308.735 97.6186 309.707 95.9444L329.962 99.2404C330.116 100.025 330.218 100.862 330.218 101.699C330.218 101.856 330.218 102.013 330.218 102.17C330.014 108.082 325.359 112.791 319.63 113C319.477 113 319.323 113 319.221 113C319.068 113 318.914 113 318.812 113C295.232 112.791 276.153 93.2239 276 69.0531C276 68.9485 276 68.8438 276 68.7392C276 68.6346 276 68.5299 276 68.4253C276.051 62.5134 280.706 57.7002 286.537 57.4909Z" fill="#5CBBB8"/>
<path d="M311.049 85.6523V88.4727H298.501V85.8963L304.855 78.8994C305.596 78.0677 306.134 77.3084 306.47 76.6213C306.823 75.9162 306.999 75.2201 306.999 74.5331C306.999 73.6652 306.752 73.0144 306.258 72.5804C305.781 72.1284 305.075 71.9024 304.14 71.9024C302.463 71.9024 300.778 72.5624 299.084 73.8822L297.946 71.3329C298.687 70.664 299.631 70.1306 300.778 69.7329C301.943 69.317 303.108 69.1091 304.272 69.1091C306.143 69.1091 307.626 69.5792 308.72 70.5193C309.814 71.4595 310.361 72.7251 310.361 74.3161C310.361 75.419 310.132 76.4586 309.673 77.4349C309.214 78.3932 308.437 79.4689 307.343 80.6622L302.764 85.6523H311.049Z" fill="white"/>
<path d="M327.636 82.0182V84.7302H325.016V88.4727H321.68V84.7302H313.58V82.1538L322.263 69.3532H325.016V82.0182H327.636ZM316.756 82.0182H321.68V74.7229L316.756 82.0182Z" fill="white"/>
<path d="M128.217 314H4.78266C4.57508 314 4.37601 314.053 4.22924 314.146C4.08246 314.24 4 314.367 4 314.5C4 314.633 4.08246 314.76 4.22924 314.854C4.37601 314.947 4.57508 315 4.78266 315H128.217C128.425 315 128.624 314.947 128.771 314.854C128.918 314.76 129 314.633 129 314.5C129 314.367 128.918 314.24 128.771 314.146C128.624 314.053 128.425 314 128.217 314Z" fill="#1F3966"/>
<path d="M151 314.5C151 314.566 151.019 314.631 151.058 314.692C151.097 314.752 151.155 314.808 151.227 314.854C151.3 314.901 151.386 314.937 151.481 314.962C151.575 314.988 151.677 315 151.779 315H360.221C360.427 315 360.626 314.947 360.772 314.854C360.918 314.76 361 314.633 361 314.5C361 314.367 360.918 314.24 360.772 314.146C360.626 314.053 360.427 314 360.221 314H151.779C151.677 314 151.575 314.012 151.481 314.038C151.386 314.063 151.3 314.099 151.227 314.146C151.155 314.192 151.097 314.248 151.058 314.308C151.019 314.369 151 314.434 151 314.5Z" fill="#1F3966"/>
</svg>
