<svg width="285" height="240" viewBox="0 0 285 240" fill="none" xmlns="http://www.w3.org/2000/svg">
<g clip-path="url(#clip0)">
<path d="M139.469 195.589L134.459 233.165H183.073L178.442 198.974C178.442 198.99 156.746 174.837 139.469 195.589Z" fill="#D1D6E0"/>
<path d="M164.186 5.67929C164.186 5.67929 163.004 -1.23823 148.288 0.198102C133.573 1.63444 131.668 2.82313 126.691 10.9293C121.715 19.0356 118.857 21.1653 118.151 29.8824C117.445 38.5994 121.469 38.8471 120.286 43.3707C119.104 47.9108 118.381 55.6538 130.485 61.4322C129.303 68.4158 129.779 68.4158 115.54 70.3144C101.3 72.2295 91.3314 75.7955 91.1014 84.1494C90.8715 92.5033 96.8004 93.9231 89.4427 97.9845C82.0849 102.046 72.1158 105.381 70.687 115.633C69.2581 125.886 74.7272 136.155 89.1963 134.008C93.4664 143.072 105.094 144.508 123.374 139.968C141.653 135.428 155.186 69.5879 155.186 69.5879C155.186 69.5879 166.288 66.253 176.389 57.1892C186.489 48.1255 186.719 29.0404 183.172 20.2077C179.624 11.4081 168.933 3.53304 164.186 5.67929Z" fill="#7C3515"/>
<path d="M181.891 15.1228C179.92 14.5945 177.834 14.6275 175.797 14.4294C169.113 13.7855 162.971 10.6156 157.025 7.51183L161.69 11.0779C156.877 7.51183 151.031 4.95285 145.069 5.41512C139.107 5.87738 133.195 9.95526 131.914 15.8327C131.421 18.0615 131.585 20.4719 130.633 22.5356C129.926 24.0545 128.678 25.2597 127.726 26.6299C123.324 32.9531 125.771 41.9013 130.271 48.142C133.178 52.1703 137.071 56.7435 135.461 61.4487C135.018 62.7199 134.18 63.9582 134.394 65.2789C134.837 68.0856 138.894 68.0195 141.604 67.194C142.507 68.7955 140.487 70.4134 138.795 71.1068C129.959 74.6729 120.631 77.0007 111.154 78.0243C106.014 78.5857 100.167 79.0975 97.0466 83.2414C93.6797 87.732 95.3221 94.2533 98.2455 99.041C99.7564 101.517 101.645 104.456 100.381 107.081C99.9043 108.055 99.0667 108.782 98.1798 109.376C94.1232 112.15 89.0647 112.827 84.3183 114.098C79.5884 115.386 74.612 117.73 72.6412 122.237C70.851 126.331 72.1321 131.35 75.0883 134.702C78.0445 138.037 82.4132 139.869 86.7983 140.563C89.3275 140.959 92.1031 141.107 94.0575 142.775C95.3221 143.848 96.094 145.45 97.4243 146.424C99.0995 147.629 101.333 147.645 103.386 147.596C109.364 147.431 115.326 147.15 121.288 146.721C126.018 146.391 130.83 145.945 135.166 144.03C140.98 141.471 145.447 136.419 148.37 130.772C151.293 125.11 152.821 118.836 154.036 112.579C155.843 103.218 157.025 93.7415 157.534 84.2154C157.682 81.4913 157.781 78.7177 158.668 76.1422C160.507 70.8096 165.418 67.194 170.296 64.4204C175.19 61.6468 180.478 59.2694 184.239 55.076C187.951 50.9156 189.774 45.4014 190.923 39.9367C191.925 35.1654 192.5 30.163 191.236 25.4578C189.971 20.769 186.571 16.394 181.891 15.1228Z" fill="#511B0B"/>
<path d="M151.671 76.4229L139.469 86.081C139.469 86.081 135.067 124.367 134.509 137.607C133.95 150.848 138.237 195.936 139.469 195.573C140.7 195.209 168.555 191.28 176.52 198.429C184.486 205.594 177.719 137.409 177.719 137.409L180.396 80.6824L151.671 76.4229Z" fill="#61B3E6"/>
<path d="M130.501 61.4487C122.552 68.779 154.184 74.1776 154.184 74.1776C154.184 74.1776 159.193 75.2342 155.186 69.621C147.73 71.1729 130.501 61.4487 130.501 61.4487Z" fill="#F6AA7B"/>
<path d="M161.394 27.8187C161.23 27.6866 161.066 27.5545 160.885 27.4059C161.016 27.538 161.181 27.6866 161.394 27.8187Z" fill="#FFAEAE"/>
<path d="M170.608 45.1207C169.54 46.5571 172.036 36.3541 170.246 32.5899C168.473 28.8258 166.338 27.4059 166.338 27.4059L167.405 29.6678C167.405 29.6678 163.151 28.9083 161.394 27.8022C165.122 30.7904 164.777 31.4508 164.432 31.4508C164.071 31.4508 154.874 31.6819 151.031 27.5215C147.188 23.3446 146.169 20.0096 146.169 20.0096C146.169 20.0096 139.042 29.3211 134.295 30.5097L135.363 27.7691C135.363 27.7691 130.978 34.0923 126.823 30.2786C126.823 30.2786 128.777 42.9745 128.958 48.8849C129.138 54.7954 137.317 72.3286 149.421 69.2743C149.421 77.331 146.925 80.1871 144.609 81.6235C142.293 83.0598 141.587 97.5552 150.834 99.5199C160.097 101.484 168.095 93.791 170.772 87.3523C173.449 80.9135 174.336 79.114 174.336 79.114C174.336 79.114 168.817 74.6399 169.179 71.0573C169.54 67.4747 169.179 56.1987 169.179 56.1987C169.179 56.1987 177.193 52.4345 176.471 47.7953C175.781 43.1561 171.675 43.6844 170.608 45.1207Z" fill="#FFC1A3"/>
<mask id="mask0" mask-type="alpha" maskUnits="userSpaceOnUse" x="126" y="20" width="51" height="80">
<path d="M170.608 45.1207C169.54 46.5571 172.036 36.3541 170.246 32.5899C168.473 28.8258 166.337 27.4059 166.337 27.4059L167.405 29.6677C167.405 29.6677 163.151 28.9083 161.394 27.8022C165.122 30.7904 164.777 31.4508 164.432 31.4508C164.071 31.4508 154.874 31.6819 151.031 27.5215C147.188 23.3446 146.169 20.0096 146.169 20.0096C146.169 20.0096 139.042 29.321 134.295 30.5097L135.363 27.7691C135.363 27.7691 130.978 34.0923 126.823 30.2786C126.823 30.2786 128.777 42.9745 128.958 48.8849C129.138 54.7954 137.317 72.3285 149.421 69.2743C149.421 77.331 146.925 80.1871 144.609 81.6235C142.293 83.0598 141.587 97.5552 150.834 99.5199C160.097 101.484 168.095 93.791 170.772 87.3523C173.449 80.9135 174.336 79.114 174.336 79.114C174.336 79.114 168.817 74.6399 169.179 71.0573C169.54 67.4747 169.179 56.1987 169.179 56.1987C169.179 56.1987 177.193 52.4345 176.471 47.7953C175.781 43.1561 171.675 43.6844 170.608 45.1207Z" fill="#FFC1A3"/>
</mask>
<g mask="url(#mask0)">
<path d="M148.715 69.5054L148.994 70.0832C148.025 71.6186 146.564 72.7743 145.283 74.0621C138.582 80.798 161.18 79.114 159.62 61.3332C156.516 64.7011 152.804 67.4747 148.715 69.5054Z" fill="#E07C69" fill-opacity="0.5"/>
<path opacity="0.3" d="M159.834 42.4132C157.337 42.4132 155.317 44.4438 155.317 46.9533C155.317 49.4628 157.337 51.4934 159.834 51.4934C162.33 51.4934 164.35 49.4628 164.35 46.9533C164.367 44.4438 162.33 42.4132 159.834 42.4132Z" fill="#FE6A58"/>
<path opacity="0.3" d="M130.419 43.4533C127.923 43.4533 125.903 45.4839 125.903 47.9934C125.903 50.5029 127.923 52.5335 130.419 52.5335C132.916 52.5335 134.936 50.5029 134.936 47.9934C134.936 45.5005 132.916 43.4533 130.419 43.4533Z" fill="#FE6A58"/>
</g>
<path d="M152.936 31.6984H161C157.091 27.5215 152.936 31.6984 152.936 31.6984Z" fill="#8E1E00"/>
<path d="M132.981 32.7386L140.766 30.5923C135.888 27.6041 132.981 32.7386 132.981 32.7386Z" fill="#8E1E00"/>
<path d="M142.146 50.3873C142.129 50.3708 139.879 48.9345 139.797 47.4651C139.781 46.9368 140.027 46.4745 140.602 46.0453C141.834 45.1043 142.408 43.6514 142.277 41.8519C142.179 40.5311 141.735 39.491 141.719 39.4415C141.653 39.2764 141.456 39.1938 141.292 39.2764C141.127 39.3424 141.045 39.5405 141.127 39.7056C141.144 39.7386 142.753 43.5524 140.208 45.517C139.469 46.0783 139.124 46.7552 139.157 47.4981C139.239 49.3142 141.702 50.8826 141.801 50.9487C141.85 50.9817 141.916 50.9982 141.981 50.9982C142.096 50.9982 142.195 50.9487 142.261 50.8496C142.343 50.6845 142.293 50.4864 142.146 50.3873Z" fill="#8E1E00"/>
<path d="M140.717 55.076C140.717 55.076 142.129 60.0784 144.626 60.9864C144.806 61.0525 145.02 61.102 145.233 61.1515C147.023 61.4652 149.569 60.7058 150.998 58.477C151.671 57.4369 152.098 56.0831 152.098 54.3661C146.991 56.5124 140.717 55.076 140.717 55.076Z" fill="#8E1E00"/>
<path d="M144.987 60.26C144.987 60.5737 145.069 60.8709 145.217 61.1516C147.007 61.4652 149.553 60.7058 150.982 58.477C150.341 58.0478 149.487 57.8001 148.534 57.8001C146.58 57.7836 144.987 58.8897 144.987 60.26Z" fill="white"/>
<path d="M157.321 33.9603C156.221 33.9603 155.317 35.215 155.317 36.7669C155.317 38.3188 156.221 39.5735 157.321 39.5735C158.421 39.5735 159.325 38.3188 159.325 36.7669C159.325 35.215 158.421 33.9603 157.321 33.9603Z" fill="#8E1E00"/>
<path d="M136.512 34.9178C135.412 34.9178 134.509 36.1725 134.509 37.7244C134.509 39.2763 135.412 40.5311 136.512 40.5311C137.613 40.5311 138.516 39.2763 138.516 37.7244C138.516 36.1725 137.613 34.9178 136.512 34.9178Z" fill="#8E1E00"/>
<path d="M192.336 83.9513C184.502 80.3687 174.352 79.114 174.352 79.114C174.352 79.114 169.54 94.6826 167.766 108.996C165.993 123.31 165.631 142.99 167.766 160.523C169.901 178.056 168.965 196.662 170.328 204.537C171.692 212.412 172.037 233.165 172.037 233.165H221.882C221.882 233.165 236.827 206.684 237.55 192.37C238.256 178.056 227.942 115.435 223.311 107.197C218.679 98.9751 200.154 87.5174 192.336 83.9513Z" fill="#D7E3F5"/>
<mask id="mask1" mask-type="alpha" maskUnits="userSpaceOnUse" x="166" y="79" width="72" height="155">
<path d="M192.336 83.9513C184.502 80.3688 174.352 79.114 174.352 79.114C174.352 79.114 169.54 94.6826 167.767 108.996C165.993 123.31 165.631 142.99 167.767 160.523C169.902 178.056 168.965 196.662 170.329 204.537C171.692 212.413 172.037 233.165 172.037 233.165H221.882C221.882 233.165 236.827 206.684 237.55 192.37C238.256 178.056 227.942 115.435 223.311 107.197C218.679 98.9751 200.154 87.5174 192.336 83.9513Z" fill="#D7E3F5"/>
</mask>
<g mask="url(#mask1)">
<path d="M169.639 79.114C169.491 81.805 159.259 116.211 158.766 118.423C158.29 120.619 167.865 204.141 167.865 204.141C167.865 204.141 173.925 167.556 176.52 151.195C179.115 134.834 190.185 112.926 190.185 112.926L181.874 107.015L191.154 106.256L198.495 80.7484L171.363 74.2436C171.38 74.2436 169.787 76.4229 169.639 79.114Z" fill="#7AC7EF"/>
<path d="M184.896 205.561L184.568 205.462C183.385 209.688 182.203 213.915 181.02 218.141C180.955 218.389 180.889 218.637 180.922 218.884C181.004 219.363 181.464 219.677 181.891 219.924C190.694 225.158 198.725 231.712 205.639 239.274C208.94 236.583 212.521 234.238 216.298 232.29C207.676 221.46 196.951 212.33 184.896 205.561Z" fill="#B4CFEF"/>
<path d="M203.57 157.138C202.946 153.16 202.042 149.23 200.515 145.483C200.285 144.905 199.333 145.152 199.563 145.747C202.207 152.235 202.962 159.285 203.75 166.202C204.49 172.674 205.048 179.657 202.387 185.783C200.926 189.167 198.462 192.007 197.05 195.424C196.803 196.018 197.756 196.266 198.002 195.688C199.3 192.535 201.566 189.893 203.011 186.806C204.375 183.884 205.048 180.698 205.261 177.495C205.491 174.11 205.245 170.726 204.884 167.358C204.506 163.957 204.112 160.539 203.57 157.138Z" fill="#61B3E6"/>
<path d="M192.599 210.695C190.48 209.292 188.263 208.021 185.997 206.865C185.438 206.585 184.929 207.427 185.504 207.724C195.572 212.809 204.227 220.502 210.435 229.962C210.78 230.49 211.634 229.995 211.289 229.467C206.395 222.005 200.022 215.599 192.599 210.695Z" fill="#61B3E6"/>
</g>
<path d="M142.983 211.339C143.115 199.535 140.717 182.002 138.516 164.105C136.315 146.209 138.221 147.282 138.516 132.258C138.812 117.235 141.965 84.1164 141.965 84.1164C141.965 84.1164 118.989 96.1189 113.29 105.414C107.591 114.725 104.749 137.261 101.892 156.148C99.0504 175.018 98.3278 233.182 98.3278 233.182H142.967C142.983 233.165 142.852 223.144 142.983 211.339Z" fill="#D7E3F5"/>
<mask id="mask2" mask-type="alpha" maskUnits="userSpaceOnUse" x="98" y="84" width="45" height="150">
<path d="M142.983 211.339C143.115 199.535 140.717 182.002 138.516 164.105C136.315 146.209 138.22 147.282 138.516 132.258C138.812 117.235 141.965 84.1164 141.965 84.1164C141.965 84.1164 118.988 96.1189 113.289 105.414C107.591 114.725 104.749 137.261 101.892 156.148C99.0503 175.018 98.3276 233.181 98.3276 233.181H142.967C142.983 233.165 142.852 223.144 142.983 211.339Z" fill="#D7E3F5"/>
</mask>
<g mask="url(#mask2)">
<path d="M126.823 112.926L134.459 108.963L126.823 118.423C126.823 118.423 122.75 141.008 134.459 166.962C146.169 192.915 146.416 206.882 146.416 206.882V77.5621L123.505 90.5386L126.823 112.926Z" fill="#7ECAF1"/>
<path d="M117.707 159.912C117.083 156.858 117.724 153.704 118.217 150.634C119.498 142.725 119.711 134.14 115.704 127.206L115.457 128.098C115.819 133.992 115.523 139.919 114.603 145.73C113.881 150.336 112.748 154.976 113.289 159.615C114.012 165.839 117.625 171.254 120.697 176.702C125.082 184.495 128.531 192.799 130.945 201.417C129.253 190.108 127.479 178.502 121.83 168.563C120.269 165.789 118.348 163.065 117.707 159.912Z" fill="#61B3E6"/>
</g>
<path d="M162.56 206.898C160.704 206.667 159.029 207.988 158.799 209.837C158.569 211.703 159.883 213.387 161.723 213.618C163.578 213.849 165.254 212.528 165.484 210.679C165.73 208.83 164.416 207.129 162.56 206.898Z" fill="#61B3E6"/>
<path d="M160.294 219.512C158.438 219.28 156.763 220.601 156.533 222.45C156.303 224.316 157.617 226 159.456 226.231C161.312 226.462 162.987 225.141 163.217 223.292C163.447 221.443 162.133 219.759 160.294 219.512Z" fill="#61B3E6"/>
<path d="M181.135 141.141L179.936 140.497C179.509 140.266 179.23 139.836 179.197 139.358L177.374 118.423H174.878L177.177 141.685C177.226 142.197 177.538 142.626 177.998 142.841L179.871 143.7C180.675 144.079 181.628 143.617 181.841 142.758C182.006 142.131 181.71 141.454 181.135 141.141Z" fill="white"/>
<path d="M184.765 142.082L181.579 141.157C181.201 141.042 180.807 141.273 180.692 141.652L180.232 143.254C180.117 143.634 180.347 144.03 180.725 144.145L183.911 145.07C184.288 145.185 184.683 144.954 184.798 144.575L185.257 142.973C185.356 142.593 185.142 142.197 184.765 142.082Z" fill="white"/>
<path d="M191.63 117.218L189.166 117.631L190.792 138.598C190.825 139.077 190.628 139.539 190.25 139.836L189.183 140.678C188.657 141.091 188.493 141.784 188.756 142.395C189.117 143.204 190.119 143.501 190.858 142.99L192.55 141.834C192.96 141.553 193.206 141.058 193.174 140.546L191.63 117.218Z" fill="white"/>
<path d="M189.708 141.091C189.544 140.744 189.117 140.579 188.756 140.761L185.767 142.214C185.422 142.379 185.257 142.808 185.438 143.171L186.161 144.674C186.325 145.02 186.752 145.185 187.113 145.004L190.102 143.551C190.447 143.386 190.612 142.957 190.431 142.593L189.708 141.091Z" fill="white"/>
<path d="M182.81 91.4632L180.626 79.2461C180.462 78.3545 179.756 77.6611 178.852 77.5951C178.836 77.5951 178.819 77.5951 178.803 77.5951C177.571 77.5126 176.569 78.5857 176.701 79.8239L177.916 92.2061C177.916 92.2061 174.04 95.3429 173.318 97.3076C172.611 99.2722 174.434 120.834 174.434 120.834H177.998C177.998 120.834 176.668 100.709 178.261 98.942C179.87 97.1755 185.06 96.8453 185.832 100.973C186.555 104.803 188.411 120.289 188.411 120.124H192.32C192.32 120.305 191.433 99.5529 188.756 95.9703C186.095 92.3547 182.81 91.4632 182.81 91.4632Z" fill="#61B3E6"/>
<mask id="mask3" mask-type="alpha" maskUnits="userSpaceOnUse" x="173" y="77" width="20" height="44">
<path d="M176.701 79.7909L177.916 92.1731C177.916 92.1731 174.04 95.3099 173.318 97.2746C172.611 99.2392 174.434 120.801 174.434 120.801H177.998C177.998 120.801 176.668 100.676 178.261 98.909C179.87 97.1425 185.06 96.8123 185.832 100.94C186.555 104.77 188.411 120.256 188.411 120.091H192.32C192.303 119.909 191.4 99.4868 188.756 95.9373C186.079 92.3547 182.794 91.4632 182.794 91.4632L180.61 79.2461C180.445 78.3545 179.739 77.6611 178.836 77.5951C178.819 77.5951 178.803 77.5951 178.787 77.5951C178.737 77.5951 178.688 77.5951 178.639 77.5951C177.505 77.5621 176.586 78.6187 176.701 79.7909Z" fill="#18386A"/>
</mask>
<g mask="url(#mask3)">
<path d="M176.274 75.6139C174.927 76.1918 174.106 77.6116 173.827 79.0479C173.547 80.4843 173.695 81.9701 173.777 83.4395C174.352 93.3452 171.478 103.152 171.265 113.091C171.199 116.442 171.445 119.876 172.825 122.914C172.989 123.294 173.203 123.673 173.531 123.888C174.303 124.383 175.387 123.789 175.732 122.947C176.077 122.105 175.929 121.147 175.765 120.239C174.796 114.593 174.286 108.864 174.221 103.135C174.188 100.51 174.401 97.5552 176.339 95.8052C177.111 95.1118 178.113 94.6495 178.754 93.824C179.969 92.2556 179.493 90.0103 178.984 88.0952C178.146 84.9253 177.423 81.6234 177.883 78.371C177.982 77.6446 178.179 76.8687 178.754 76.4229C178.918 76.2908 179.115 76.2248 179.329 76.1918C178.606 75.4158 177.308 75.1682 176.274 75.6139Z" fill="#18386A"/>
</g>
<path d="M132.374 87.5174C132.144 87.7815 132.012 88.1282 131.98 88.4749C131.782 90.258 131.076 96.7627 130.156 103.268C129.089 110.895 128.974 116.508 128.974 116.508H131.47L134.509 88.5575C134.558 88.0457 134.41 87.5009 134.049 87.1376C133.671 86.7744 133.113 86.6093 132.374 87.5174Z" fill="#18386A"/>
<path d="M131.257 114.461C128.728 114.114 126.281 116.723 125.804 120.272C125.328 123.838 126.987 126.992 129.516 127.339C132.045 127.685 134.492 125.077 134.969 121.527C135.461 117.961 133.786 114.808 131.257 114.461Z" fill="#005CA9"/>
<path d="M128.416 114.263C125.886 113.916 123.439 116.525 122.963 120.074C122.487 123.64 124.145 126.794 126.675 127.14C129.204 127.487 131.651 124.879 132.127 121.329C132.604 117.779 130.945 114.61 128.416 114.263Z" fill="#18386A"/>
<path d="M126.198 114.263C123.669 113.916 121.222 116.525 120.746 120.074C120.27 123.64 121.928 126.794 124.458 127.14C126.987 127.487 129.434 124.879 129.91 121.329C130.403 117.779 128.744 114.61 126.198 114.263Z" fill="white"/>
<path d="M64.8893 164.997L77.6996 233.165H137.678L124.162 163.379C124.162 163.379 65.4148 164.815 64.8893 164.997Z" fill="#D87979"/>
<mask id="mask4" mask-type="alpha" maskUnits="userSpaceOnUse" x="64" y="163" width="74" height="71">
<path d="M64.8895 164.997L77.6999 233.165H137.679L124.162 163.379C124.162 163.379 65.4151 164.815 64.8895 164.997Z" fill="#D87979"/>
</mask>
<g mask="url(#mask4)">
<path d="M61.9497 158.641V166.995H120.927L137.679 238.481L144.297 235.344L126.593 154.794L61.9497 158.641Z" fill="#C65959"/>
</g>
<path d="M104.273 158.641H83.3987V162.19H80.0812V165.773H107.607V162.207H104.996L104.273 158.641Z" fill="#FFC1A3"/>
<path d="M86.5192 210.811C84.5812 210.365 82.4462 210.167 82.4462 210.167C82.4462 210.167 84.3349 210.563 86.5192 210.811Z" fill="#FFC1A3"/>
<path d="M87.8658 206.353C86.5027 205.825 85.4187 205.478 85.4187 205.478C85.4187 205.478 86.5027 205.99 87.8658 206.353Z" fill="#FFC1A3"/>
<path d="M232.571 21.1534H217.018C211.516 21.1534 207 25.677 207 31.2243V65.102C207 70.7648 210.662 74.2318 215.754 76.4936C218.02 77.5007 220.484 77.996 222.964 77.996H226.363C229.024 77.996 231.652 77.4511 234.066 76.3615C239.19 74.0336 242.573 70.7482 242.573 65.1185V31.2408C242.59 25.6771 238.09 21.1534 232.571 21.1534Z" fill="#6A8DB7"/>
<mask id="mask5" mask-type="alpha" maskUnits="userSpaceOnUse" x="207" y="21" width="36" height="57">
<path d="M232.571 21.1534H217.018C211.516 21.1534 207 25.6771 207 31.2243V65.102C207 70.7648 210.662 74.2318 215.754 76.4936C218.02 77.5007 220.484 77.996 222.964 77.996H226.363C229.024 77.996 231.652 77.4512 234.066 76.3615C239.19 74.0337 242.573 70.7483 242.573 65.1185V31.2408C242.59 25.6771 238.09 21.1534 232.571 21.1534Z" fill="#6A8DB7"/>
</mask>
<g mask="url(#mask5)">
<path d="M245.595 16.2005C243.263 13.8562 240.093 12.2052 236.809 12.2878L230.486 18.1157C229.73 31.2573 235.166 44.7787 231.323 57.3755C230.568 59.8684 229.435 62.2788 227.644 64.1609C224.721 67.2317 220.402 68.5195 216.214 69.1303C212.026 69.7412 207.739 69.8072 203.666 70.9959C202.27 71.4086 200.743 72.1351 200.398 73.5549C200.119 74.7106 200.743 75.8827 201.449 76.8403C204.077 80.4229 207.969 82.8828 212.042 84.6328C218.907 87.588 226.659 88.6942 233.967 87.1588C241.276 85.6234 248.092 81.3144 252.148 75.0077C255.942 69.0973 257.141 61.8496 257.223 54.8C257.338 44.4155 255.17 33.9979 250.9 24.5214C249.521 21.5166 247.927 18.5449 245.595 16.2005Z" fill="#305284"/>
</g>
<path d="M235.051 35.4838C230.683 36.1607 223.013 36.8045 213.274 35.3517C211.155 35.038 209.25 36.6725 209.25 38.8352V55.609C209.25 56.9958 210.071 58.267 211.336 58.8283C215.294 60.5618 224.606 63.3685 236.825 58.6962C238.188 58.1679 239.092 56.8637 239.092 55.3943V38.9508C239.092 36.8045 237.17 35.1701 235.051 35.4838Z" fill="white"/>
<path d="M266.223 72.4157L261.033 71.3096L256.303 70.3025C255.909 70.2199 255.515 70.2034 255.137 70.2695C253.823 70.4676 252.707 71.4582 252.411 72.845C252.033 74.6115 253.167 76.378 254.924 76.7577L259.917 77.8309L264.844 78.8875C265.238 78.97 265.632 78.9865 266.01 78.9205C267.324 78.7224 268.441 77.7318 268.736 76.345C269.114 74.5455 267.981 72.7954 266.223 72.4157Z" fill="white"/>
<path d="M266.223 72.4157L261.033 71.3096C261.083 71.4747 262.446 75.3544 259.917 77.7979L264.844 78.8545C265.238 78.937 265.632 78.9535 266.01 78.8875C267.324 78.6894 268.44 77.6988 268.736 76.312C269.114 74.5455 267.98 72.7954 266.223 72.4157Z" fill="#D87979"/>
<path d="M256.468 74.4464L251.36 75.8497L246.696 77.1375C246.302 77.2365 245.957 77.4181 245.645 77.6493C244.561 78.4252 244.019 79.8285 244.396 81.1988C244.873 82.9489 246.679 83.989 248.42 83.5102L253.331 82.1564L258.192 80.8191C258.57 80.72 258.931 80.5384 259.243 80.3073C260.327 79.5314 260.869 78.128 260.492 76.7578C260.032 75.0077 258.209 73.9676 256.468 74.4464Z" fill="#D87979"/>
<path d="M256.468 74.4464L251.36 75.8497C251.491 75.9653 254.48 78.7884 253.331 82.1399L258.192 80.8026C258.57 80.7035 258.931 80.5219 259.243 80.2908C260.327 79.5148 260.869 78.1115 260.491 76.7412C260.032 75.0077 258.209 73.9676 256.468 74.4464Z" fill="white"/>
<path d="M245.776 68.1563L240.668 69.5596L236.004 70.8473C235.61 70.9464 235.265 71.128 234.953 71.3591C233.869 72.1351 233.327 73.5384 233.705 74.9087C234.181 76.6587 235.987 77.6988 237.728 77.22L242.639 75.8662L247.5 74.529C247.878 74.4299 248.239 74.2483 248.552 74.0172C249.635 73.2412 250.177 71.8379 249.8 70.4676C249.34 68.7176 247.517 67.6775 245.776 68.1563Z" fill="white"/>
<path d="M245.776 68.1562L240.668 69.5596C240.8 69.6751 243.789 72.4983 242.639 75.8497L247.501 74.5125C247.878 74.4134 248.24 74.2318 248.552 74.0007C249.636 73.2247 250.178 71.8214 249.8 70.4511C249.34 68.7176 247.517 67.6775 245.776 68.1562Z" fill="#D87979"/>
<path d="M225.362 42.0711H219.794V46.5452H215.327V52.1585H219.794V56.6326H225.362V52.1585H229.829V46.5452H225.362V42.0711Z" fill="#D87979"/>
<path d="M214.144 22.986C214.144 22.986 224.376 28.7644 235.577 22.986V12.9151H214.144V22.986Z" fill="white"/>
<path d="M224.869 11C218.956 11 214.144 11.8585 214.144 12.8986C214.144 13.9552 218.94 14.7972 224.869 14.7972C230.781 14.7972 235.593 13.9387 235.593 12.8986C235.593 11.8585 230.781 11 224.869 11Z" fill="#305284"/>
<mask id="mask6" mask-type="alpha" maskUnits="userSpaceOnUse" x="214" y="12" width="22" height="14">
<path d="M214.259 12.9481V23.019C214.259 23.019 224.491 28.7973 235.692 23.019V12.9481H214.259Z" fill="#C4C4C4"/>
</mask>
<g mask="url(#mask6)">
<path d="M224.048 19.6181C224.261 19.6181 224.458 19.6015 224.656 19.585C224.458 19.6015 224.245 19.6181 224.048 19.6181Z" fill="#E6E7E8"/>
<path d="M236.612 17.3892C231.011 20.9223 223.867 21.8799 217.544 19.9647C219.794 20.427 222.061 19.7831 224.048 19.6346C221.502 19.7336 218.365 19.3209 216.247 18.0661C219.876 18.677 223.637 18.4789 227.185 17.4883C222.044 18.0331 216.789 17.3892 211.927 15.6062L210.236 16.7123C209.135 18.1157 208.183 19.6511 207.411 21.269C206.967 22.2101 206.573 23.3327 207.05 24.2572C207.427 25.0002 208.232 25.3799 209.004 25.6936C215.721 28.4342 223.227 29.1606 230.338 27.7408C232.818 27.2455 235.429 26.387 236.924 24.3398C235.659 25.1157 235.594 20.1464 236.612 17.3892Z" fill="#E6E7E8"/>
</g>
<path d="M144.572 232H-80.5724C-80.951 232 -81.3141 232.053 -81.5819 232.146C-81.8496 232.24 -82 232.367 -82 232.5C-82 232.633 -81.8496 232.76 -81.5819 232.854C-81.3141 232.947 -80.951 233 -80.5724 233H144.572C144.951 233 145.314 232.947 145.582 232.854C145.85 232.76 146 232.633 146 232.5C146 232.367 145.85 232.24 145.582 232.146C145.314 232.053 144.951 232 144.572 232Z" fill="#1F3966"/>
<path d="M161 232.5C161 232.566 161.013 232.631 161.038 232.692C161.064 232.752 161.101 232.808 161.148 232.854C161.196 232.901 161.252 232.937 161.314 232.962C161.375 232.988 161.442 233 161.508 233H297.492C297.626 233 297.756 232.947 297.851 232.854C297.946 232.76 298 232.633 298 232.5C298 232.367 297.946 232.24 297.851 232.146C297.756 232.053 297.626 232 297.492 232H161.508C161.442 232 161.375 232.012 161.314 232.038C161.252 232.063 161.196 232.099 161.148 232.146C161.101 232.192 161.064 232.248 161.038 232.308C161.013 232.369 161 232.434 161 232.5Z" fill="#1F3966"/>
</g>
<defs>
<clipPath id="clip0">
<rect width="340" height="240" fill="white"/>
</clipPath>
</defs>
</svg>
