<svg width="212" height="220" viewBox="0 0 212 220" fill="none" xmlns="http://www.w3.org/2000/svg">
<path d="M16.6788 219.761L194.864 219.761C204.075 219.761 211.543 212.294 211.543 203.082L211.543 47.465C211.543 38.2535 204.075 30.786 194.864 30.786L16.6788 30.786C7.46735 30.786 -6.10352e-05 38.2535 -6.10352e-05 47.465L-6.10352e-05 203.082C-6.10352e-05 212.294 7.46735 219.761 16.6788 219.761Z" fill="#75818F"/>
<path d="M15.0108 203.483L199.839 203.483L199.839 18.8592L15.0108 18.8592L15.0108 203.483Z" fill="white"/>
<path d="M199.839 18.8593L15.0108 18.8593C15.0108 16.3826 15.4986 13.9303 16.4464 11.6421C17.3941 9.35403 18.7833 7.275 20.5345 5.52375C22.2858 3.77251 24.3648 2.38334 26.6529 1.43557C28.9411 0.487804 31.3934 -7.62939e-06 33.8701 -7.62939e-06L180.98 -7.62939e-06C183.457 -7.62939e-06 185.909 0.487804 188.197 1.43557C190.485 2.38334 192.564 3.77251 194.315 5.52375C196.067 7.275 197.456 9.35403 198.404 11.6421C199.351 13.9303 199.839 16.3826 199.839 18.8593Z" fill="#99E2E0"/>
<path d="M62.0567 18.8593H58.7302V203.483H62.0567V18.8593Z" fill="#F2F9FF"/>
<path d="M15.0107 156.437V159.763H199.839V156.437H15.0107Z" fill="#F2F9FF"/>
<path d="M15.0107 109.401V112.727L199.839 112.727V109.401L15.0107 109.401Z" fill="#F2F9FF"/>
<path d="M15.0107 62.5692V65.8957L199.839 65.8957V62.5692L15.0107 62.5692Z" fill="#F2F9FF"/>
<path d="M109.093 18.8593H105.767V203.483H109.093V18.8593Z" fill="#F2F9FF"/>
<path d="M156.13 18.8593H152.803V203.483H156.13V18.8593Z" fill="#F2F9FF"/>
<path d="M199.531 159C199.531 159 199.531 179.229 194.76 196.383L184.65 202.71H149C155.774 184.689 155.821 159 155.821 159H199.531Z" fill="#396C61"/>
<path d="M184.959 203.483V197.016H195.069L184.959 203.483Z" fill="#6CC2BF"/>
<path d="M152.803 112.727C152.803 112.727 152.803 132.965 148.032 150.12L137.923 156.446H102.273C109.047 138.426 109.084 112.727 109.084 112.727H152.803Z" fill="#396C61"/>
<path d="M152.803 18.8593C152.803 18.8593 152.803 39.0976 148.032 56.2517L137.923 62.6065H102.273C109.047 44.5858 109.084 18.8872 109.084 18.8872L152.803 18.8593Z" fill="#396C61"/>
<path d="M139 62.5785V56.1026H149.11L139 62.5785Z" fill="#6CC2BF"/>
<path d="M58.73 159.773C58.73 159.773 58.73 180.002 53.95 197.156L43.8402 203.483H8.19946C14.9735 185.462 15.0108 159.773 15.0108 159.773H58.73Z" fill="#F0F0F0"/>
<path d="M43.8402 203.483V197.016H53.9501L43.8402 203.483Z" fill="#C9C9C9"/>
<path d="M35.3797 189.674C35.1103 189.674 34.852 189.567 34.6615 189.376C34.471 189.186 34.364 188.927 34.364 188.658V174.597C34.364 174.328 34.471 174.07 34.6615 173.879C34.852 173.689 35.1103 173.582 35.3797 173.582C35.649 173.582 35.9074 173.689 36.0978 173.879C36.2883 174.07 36.3953 174.328 36.3953 174.597V188.658C36.3953 188.927 36.2883 189.186 36.0978 189.376C35.9074 189.567 35.649 189.674 35.3797 189.674Z" fill="#A3A3A3"/>
<path d="M42.4054 182.648H28.3541C28.1003 182.624 27.8647 182.506 27.6932 182.317C27.5218 182.128 27.4268 181.883 27.4268 181.628C27.4268 181.373 27.5218 181.127 27.6932 180.938C27.8647 180.75 28.1003 180.632 28.3541 180.607H42.4054C42.6592 180.632 42.8948 180.75 43.0663 180.938C43.2377 181.127 43.3327 181.373 43.3327 181.628C43.3327 181.883 43.2377 182.128 43.0663 182.317C42.8948 182.506 42.6592 182.624 42.4054 182.648Z" fill="#A3A3A3"/>
<path d="M105.767 65.8957C105.767 65.8957 105.767 86.134 100.996 103.288L90.8861 109.615H55.2361C62.0101 91.5943 62.0474 65.8957 62.0474 65.8957H105.767Z" fill="#F0F0F0"/>
<path d="M90.8766 109.615V103.139H100.996L90.8766 109.615Z" fill="#C9C9C9"/>
<path d="M82.4162 95.7965C82.1468 95.7965 81.8885 95.6895 81.698 95.4991C81.5075 95.3086 81.4005 95.0503 81.4005 94.7809V80.7296C81.4005 80.4602 81.5075 80.2019 81.698 80.0114C81.8885 79.821 82.1468 79.714 82.4162 79.714C82.6855 79.714 82.9439 79.821 83.1343 80.0114C83.3248 80.2019 83.4318 80.4602 83.4318 80.7296V94.7809C83.4318 94.9143 83.4055 95.0463 83.3545 95.1695C83.3034 95.2928 83.2286 95.4047 83.1343 95.4991C83.04 95.5934 82.9281 95.6682 82.8048 95.7192C82.6816 95.7703 82.5495 95.7965 82.4162 95.7965Z" fill="#A3A3A3"/>
<path d="M89.4417 88.7709H75.3904C75.121 88.7709 74.8627 88.6639 74.6722 88.4734C74.4818 88.283 74.3748 88.0246 74.3748 87.7553C74.3748 87.4859 74.4818 87.2276 74.6722 87.0371C74.8627 86.8466 75.121 86.7396 75.3904 86.7396H89.4417C89.711 86.7396 89.9694 86.8466 90.1599 87.0371C90.3503 87.2276 90.4573 87.4859 90.4573 87.7553C90.4573 88.0246 90.3503 88.283 90.1599 88.4734C89.9694 88.6639 89.711 88.7709 89.4417 88.7709Z" fill="#A3A3A3"/>
<path d="M199.839 112.727C199.839 112.727 199.839 132.965 195.069 150.12L184.959 156.446H149.309C156.083 138.426 156.129 112.727 156.129 112.727H199.839Z" fill="#F0F0F0"/>
<path d="M184.959 156.446V149.97H195.069L184.959 156.446Z" fill="#C9C9C9"/>
<path d="M175.632 140.121L169.286 134.587C169.092 134.356 168.987 134.063 168.991 133.761C168.995 133.46 169.107 133.169 169.307 132.944C169.507 132.718 169.781 132.571 170.08 132.531C170.379 132.49 170.683 132.559 170.935 132.723L175.427 136.637L181.828 129.499C182.049 129.252 182.359 129.103 182.69 129.085C183.022 129.066 183.346 129.18 183.594 129.401C183.841 129.622 183.99 129.933 184.008 130.264C184.027 130.595 183.913 130.92 183.691 131.167L175.632 140.121Z" fill="#A3A3A3"/>
<path d="M191.695 107.872L191.593 107.779H191.928H191.863L191.695 107.872Z" fill="#757B80"/>
<path d="M175.688 107.667V106.335C175.719 106.347 175.748 106.366 175.771 106.391C175.851 106.485 175.909 106.596 175.943 106.714C175.977 106.833 175.985 106.958 175.967 107.08V107.136C175.939 107.34 175.84 107.528 175.688 107.667Z" fill="#757B80"/>
</svg>
