<svg width="326" height="277" viewBox="0 0 326 277" fill="none" xmlns="http://www.w3.org/2000/svg">
<path d="M235.517 134.712C218.508 126.401 184.006 109.735 184.006 109.735H182.681C182.681 109.735 148.178 126.401 131.17 134.712C114.162 143.023 114.603 162.49 114.603 162.49V181.956L128.343 188.401L128.431 276H182.946H183.608H251.906L252.039 162.49C252.083 162.49 252.525 143.068 235.517 134.712Z" fill="#D9E3F3"/>
<path d="M144.549 44.3373L131.229 34.1928C131.229 34.1928 140.642 27.8689 145.437 18.427C150.321 8.76548 160 0.59712 177.05 0.0262138C194.056 -0.544693 204.756 8.2824 211.106 19.3931C215.413 26.9467 224.337 34.0171 224.337 34.0171L210.351 44.1617L144.549 44.3373Z" fill="#D9E3F3"/>
<path d="M138.988 108.627C138.988 108.627 145.512 93.2413 144.718 80.1239C143.528 60.1587 136.475 20.6286 173.857 16.9379C212.517 13.1139 215.25 45.2627 213.707 71.8977C212.914 85.0151 223.229 103.824 223.229 103.824C223.229 103.824 169.978 93.019 138.988 108.627Z" fill="#5C1E14"/>
<path d="M198.843 126.094C198.843 126.094 191.45 133.012 183.126 133.012C173.563 133.012 167.807 126.975 167.807 126.975L168.206 105.559V105.338V105.162L168.471 90.1797V89.9594V89.7831L175.688 91.3255L183.259 92.1627L196.187 93.5728L197.205 93.6169L197.249 94.7626L197.294 96.0405L198.843 126.094Z" fill="#FBC3A8"/>
<path d="M199.952 93.3489C199.952 93.3489 199.687 93.8119 199.113 94.5529C198.804 94.9233 198.451 95.3864 197.965 95.8958C194.08 100.249 184.544 108.445 168.916 105.945V105.713V105.528L169.18 89.7831L175.229 90.9871L183.926 91.867L198.76 93.3489H199.952Z" fill="#26120C"/>
<path d="M149.078 54.5162C149.078 54.5162 145.617 101.662 176.85 101.973C208.082 102.285 209.236 75.0202 208.748 56.1174C208.349 40.1057 201.25 22.6706 179.246 23.2933C165.359 23.6491 150.364 30.4986 149.078 54.5162Z" fill="#FBC3A8"/>
<path d="M180.708 78.6967C180.805 78.7095 180.902 78.6639 180.977 78.57C181.051 78.476 181.098 78.3414 181.107 78.1957C181.115 78.0501 181.085 77.9053 181.022 77.7932C180.959 77.6811 180.87 77.611 180.772 77.5981L178.895 77.0906C178.784 77.0607 178.684 76.97 178.615 76.8361C178.545 76.7022 178.511 76.5346 178.52 76.3656L179.01 65.9867C179.013 65.9145 179.007 65.8421 178.992 65.7735C178.976 65.705 178.952 65.6416 178.921 65.587C178.857 65.4768 178.766 65.4091 178.669 65.3989C178.571 65.3887 178.475 65.4368 178.402 65.5326C178.328 65.6284 178.283 65.7641 178.276 65.9098L177.786 76.2887C177.765 76.7282 177.853 77.1639 178.034 77.5116C178.215 77.8594 178.475 78.0945 178.765 78.1716L180.64 78.6791C180.662 78.6884 180.685 78.6943 180.708 78.6967Z" fill="#EB7360"/>
<path d="M207.193 59.0501C207.193 59.0501 209.853 50.766 214.413 53.9218C218.973 57.0777 216.313 76.232 206.602 69.5258L207.193 59.0501Z" fill="#FBC3A8"/>
<path d="M149.481 60.1585C149.481 60.1585 146.821 51.8744 142.262 55.0303C137.702 58.1861 140.362 77.3404 150.072 70.6342L149.481 60.1585Z" fill="#FBC3A8"/>
<path fill-rule="evenodd" clip-rule="evenodd" d="M213.253 56.9913C213.257 57.2503 213.065 57.4638 212.825 57.4681C212.404 57.4757 212.049 57.7518 211.739 58.3215C211.427 58.8942 211.211 59.6833 211.066 60.5134C210.923 61.3358 210.855 62.162 210.824 62.786C210.809 63.0971 210.802 63.3558 210.8 63.5361C210.799 63.6262 210.798 63.6966 210.798 63.744L210.798 63.7974L210.798 63.8104L210.798 63.8133C210.802 64.0723 210.609 64.2856 210.369 64.2891C210.129 64.2926 209.931 64.0855 209.928 63.8264L210.363 63.8201C209.928 63.8264 209.928 63.8266 209.928 63.8264L209.928 63.8245L209.928 63.82L209.928 63.8039L209.928 63.744C209.928 63.6921 209.928 63.6169 209.929 63.5217C209.932 63.3313 209.939 63.0604 209.955 62.7356C209.987 62.0878 210.058 61.2173 210.211 60.3402C210.362 59.4707 210.601 58.5575 210.988 57.847C211.376 57.1335 211.962 56.5455 212.811 56.5302C213.051 56.5259 213.249 56.7323 213.253 56.9913Z" fill="#EB7360"/>
<path fill-rule="evenodd" clip-rule="evenodd" d="M147.848 63.7613C147.848 63.7614 147.848 63.7615 147.401 63.8335L147.848 63.7613C147.895 64.0057 147.716 64.239 147.448 64.2822C147.18 64.3254 146.924 64.1624 146.877 63.918L146.876 63.9134L146.872 63.8974L146.859 63.8329C146.847 63.776 146.829 63.6921 146.805 63.586C146.757 63.3738 146.685 63.0732 146.59 62.722C146.398 62.0162 146.114 61.1197 145.745 60.3258C145.561 59.929 145.359 59.5679 145.144 59.2727C144.926 58.9739 144.711 58.767 144.509 58.6506C144.32 58.5417 144.152 58.5149 143.976 58.5551C143.782 58.5994 143.513 58.7408 143.179 59.0914C143 59.2787 142.688 59.2984 142.483 59.1355C142.277 58.9726 142.256 58.6888 142.434 58.5016C142.843 58.0738 143.274 57.789 143.736 57.6835C144.216 57.5738 144.659 57.6734 145.036 57.8914C145.401 58.1017 145.707 58.4221 145.965 58.7751C146.226 59.1318 146.454 59.547 146.653 59.9752C147.052 60.8314 147.35 61.7794 147.547 62.5058C147.646 62.8706 147.721 63.183 147.771 63.4046C147.796 63.5155 147.815 63.6039 147.828 63.6649L147.843 63.7355L147.846 63.7543L147.848 63.7613Z" fill="#EB7360"/>
<path d="M192.193 64.2892C193.417 64.2892 194.41 63.2966 194.41 62.0723C194.41 60.848 193.417 59.8554 192.193 59.8554C190.968 59.8554 189.976 60.848 189.976 62.0723C189.976 63.2966 190.968 64.2892 192.193 64.2892Z" fill="#26120C"/>
<path d="M165.59 65.3976C166.815 65.3976 167.807 64.1569 167.807 62.6265C167.807 61.0961 166.815 59.8554 165.59 59.8554C164.366 59.8554 163.374 61.0961 163.374 62.6265C163.374 64.1569 164.366 65.3976 165.59 65.3976Z" fill="#26120C"/>
<path fill-rule="evenodd" clip-rule="evenodd" d="M186.178 86.4625C186.32 86.766 186.189 87.1275 185.886 87.2699C182.707 88.7609 179.552 88.6054 177.217 88.0919C176.048 87.8347 175.075 87.4859 174.392 87.2006C174.05 87.0578 173.781 86.9305 173.594 86.8377C173.501 86.7914 173.428 86.7536 173.378 86.7268C173.353 86.7135 173.334 86.7028 173.32 86.6952L173.303 86.6861L173.298 86.6834L173.297 86.6824L173.296 86.6821C173.296 86.6819 173.296 86.6818 173.59 86.1618L173.296 86.6818C173.004 86.5165 172.902 86.146 173.067 85.8544C173.232 85.5629 173.602 85.4604 173.894 85.6253C173.894 85.6253 173.894 85.6253 173.894 85.6253C173.894 85.6253 173.894 85.6254 173.894 85.6254C173.894 85.6254 173.894 85.6254 173.894 85.6254L173.895 85.6262L173.905 85.6315C173.914 85.6366 173.929 85.6447 173.949 85.6555C173.99 85.6772 174.052 85.7096 174.135 85.7507C174.3 85.8328 174.545 85.9488 174.86 86.0804C175.491 86.3439 176.394 86.6677 177.478 86.9062C179.65 87.3839 182.512 87.5117 185.37 86.1707C185.674 86.0283 186.035 86.1589 186.178 86.4625Z" fill="#EB7360"/>
<path d="M188.611 55.3478C188.611 55.3478 194.428 54.947 195.882 54.7966C197.601 54.5962 198.967 53.2935 195.97 52.592C192.621 51.7903 188.038 51.9407 186.319 53.1933C184.733 54.4459 185.614 55.7486 188.611 55.3478Z" fill="#26120C"/>
<path d="M168.099 55.9519C168.099 55.9519 162.325 56.432 160.882 56.528C159.745 56.576 157.34 55.8079 160.532 54.4158C163.725 53.0236 168.142 52.9756 170.067 53.5517C171.86 54.0797 171.51 55.6159 168.099 55.9519Z" fill="#26120C"/>
<path d="M198.181 109.735C198.181 109.735 199.856 129.265 183.325 133.37C183.325 133.37 185.265 139.865 190.907 148.886C193.685 153.351 202.59 149.698 208.012 138.827C212.817 129.31 208.232 118.17 198.181 109.735Z" fill="#90C9ED"/>
<path d="M168.455 109.735C168.455 109.735 166.778 129.244 183.325 133.344C183.325 133.344 183.193 133.749 182.928 134.515C182.134 136.768 179.972 142.13 175.736 148.888C172.956 153.348 164.042 149.699 158.614 138.841C153.849 129.289 158.438 118.16 168.455 109.735Z" fill="#90C9ED"/>
<path fill-rule="evenodd" clip-rule="evenodd" d="M209.002 123.072C209.315 122.959 209.659 123.123 209.772 123.439C211.574 128.518 211.539 133.774 209.083 138.623C206.34 144.078 202.683 147.781 199.306 149.551C197.619 150.434 195.966 150.853 194.516 150.724C193.045 150.593 191.798 149.894 191.007 148.601C187.069 142.159 184.31 137.336 183.363 134.773C183.247 134.458 183.405 134.107 183.717 133.989C184.028 133.872 184.375 134.032 184.491 134.347C185.387 136.773 188.07 141.483 192.031 147.961L192.031 147.961C192.602 148.895 193.489 149.41 194.622 149.511C195.776 149.614 197.197 149.285 198.752 148.47C201.859 146.842 205.355 143.352 208.011 138.07L208.011 138.069C210.294 133.563 210.347 128.662 208.639 123.851C208.527 123.534 208.689 123.186 209.002 123.072Z" fill="#90C9ED"/>
<path fill-rule="evenodd" clip-rule="evenodd" d="M157.676 123.071C158.002 123.182 158.175 123.531 158.06 123.85C156.325 128.688 156.423 133.529 158.759 138.019C161.526 143.33 165.157 146.829 168.388 148.46C170.005 149.276 171.485 149.607 172.691 149.505C173.876 149.405 174.807 148.89 175.412 147.959L175.413 147.957C179.482 141.731 182.284 136.717 183.219 134.275C183.34 133.958 183.702 133.798 184.026 133.916C184.35 134.034 184.515 134.387 184.394 134.703C183.408 137.278 180.54 142.388 176.471 148.615C175.635 149.901 174.332 150.595 172.799 150.724C171.287 150.852 169.567 150.433 167.812 149.547C164.298 147.773 160.499 144.059 157.641 138.574L157.641 138.574C155.13 133.747 155.045 128.554 156.877 123.446C156.991 123.127 157.349 122.959 157.676 123.071Z" fill="#90C9ED"/>
<path d="M161.648 33.2648C161.648 33.2648 165.914 41.9428 183.111 41.6798C200.309 41.3731 203.33 42.9947 203.375 50.9715C203.419 57.1951 206.841 57.3266 208.263 55.5296C209.907 53.4259 208.663 30.4159 193.998 25.025C179.334 19.6341 165.069 23.0089 160.67 25.9016C156.271 28.7943 161.648 33.2648 161.648 33.2648Z" fill="#5C1E14"/>
<path d="M148.888 58.599C148.888 58.599 149.34 60.218 150.651 59.7804C152.007 59.3428 152.459 57.8989 151.826 52.4731C151.193 47.0473 154.899 33.3079 162.357 33.1766C169.815 33.0453 166.561 26.7444 160.866 27.8383C155.171 28.9323 150.56 36.2833 149.069 41.4465C147.577 46.6098 147.396 54.3984 148.888 58.599Z" fill="#5C1E14"/>
<path d="M219.248 269.305L154.142 269.349C153.171 269.349 152.377 268.55 152.377 267.573L152.289 182.495C152.289 181.518 153.083 180.719 154.053 180.719L219.159 180.675C220.13 180.675 220.924 181.474 220.924 182.451L221.012 267.529C221.012 268.506 220.218 269.305 219.248 269.305Z" fill="#6F9BD4"/>
<path d="M217.361 265.864L217.28 184.503L155.658 184.565L155.739 265.926L217.361 265.864Z" fill="white"/>
<path d="M199.855 186.169L173.444 186.217C172.775 186.217 172.241 185.645 172.241 184.93V178.684C172.241 177.969 172.775 177.397 173.444 177.397L199.855 177.349C200.523 177.349 201.058 177.921 201.058 178.637V184.882C201.102 185.597 200.523 186.169 199.855 186.169Z" fill="#26120C"/>
<path d="M186.651 184C189.711 184 192.193 181.271 192.193 177.904C192.193 174.537 189.711 171.807 186.651 171.807C183.59 171.807 181.108 174.537 181.108 177.904C181.108 181.271 183.59 184 186.651 184Z" fill="#26120C"/>
<path d="M188.868 190.651H184.434V202.843H188.868V190.651Z" fill="#AE4A41"/>
<path d="M180.65 194.717L180.654 198.805L192.341 198.793L192.337 194.705L180.65 194.717Z" fill="#AE4A41"/>
<path fill-rule="evenodd" clip-rule="evenodd" d="M184.434 211.711H163.374V208.386H184.434V211.711Z" fill="#26120C"/>
<path fill-rule="evenodd" clip-rule="evenodd" d="M209.928 217.213L163.376 217.253L163.374 215.076L209.925 215.036L209.928 217.213Z" fill="#26120C"/>
<path fill-rule="evenodd" clip-rule="evenodd" d="M203.277 223.844L163.376 223.904L163.374 220.638L203.274 220.578L203.277 223.844Z" fill="#26120C"/>
<path fill-rule="evenodd" clip-rule="evenodd" d="M209.928 229.406L163.376 229.446L163.374 227.269L209.925 227.229L209.928 229.406Z" fill="#26120C"/>
<path fill-rule="evenodd" clip-rule="evenodd" d="M196.627 241.599L163.377 241.639L163.374 239.461L196.623 239.422L196.627 241.599Z" fill="#26120C"/>
<path fill-rule="evenodd" clip-rule="evenodd" d="M209.928 248.229L163.376 248.289L163.374 245.024L209.925 244.964L209.928 248.229Z" fill="#26120C"/>
<path fill-rule="evenodd" clip-rule="evenodd" d="M203.277 253.791L163.376 253.831L163.374 251.654L203.274 251.614L203.277 253.791Z" fill="#26120C"/>
<path fill-rule="evenodd" clip-rule="evenodd" d="M209.928 260.422L163.376 260.482L163.374 257.216L209.925 257.157L209.928 260.422Z" fill="#26120C"/>
<path d="M187.721 260.482L173 259.563C173 259.563 180.249 232.771 180.65 232.771C181.05 232.771 205.244 233.428 205.244 233.428C205.244 233.428 208.091 245.729 204.221 252.121C200.396 258.512 187.721 260.482 187.721 260.482Z" fill="#FBC3A8"/>
<path d="M195.798 233.161C197.716 232.229 215.366 233.207 218.504 233.626C221.642 234.046 223.429 235.583 223.211 237.959C222.862 241.406 219.463 241.312 216.848 241.219C214.233 241.126 202.815 241.639 202.815 241.639C202.815 241.639 193.837 234.092 195.798 233.161Z" fill="#FBC3A8"/>
<path d="M199.287 245.313L202.612 240.53L221.987 243.912C221.987 243.912 226.51 244.057 226.554 247.825C226.554 251.593 223.051 251.786 219.948 251.544C216.844 251.303 198.843 249.226 198.843 249.226L199.287 245.313Z" fill="#FBC3A8"/>
<path d="M194.41 253.253L197.429 248.289L217.48 251.835C217.48 251.835 222.075 251.977 222.121 255.665C222.121 259.352 218.561 259.541 215.407 259.305C212.253 259.069 194.59 257.461 194.59 257.461L194.41 253.253Z" fill="#FBC3A8"/>
<path d="M180 259.447L189.505 254.94L209.18 259.857C209.18 259.857 213.666 260.586 213.222 264.137C212.778 267.689 209.269 267.37 206.205 266.732C203.14 266.095 194.124 265.093 189.638 264.274C182.665 262.999 180 259.447 180 259.447Z" fill="#FBC3A8"/>
<path fill-rule="evenodd" clip-rule="evenodd" d="M202.169 240.914C202.177 240.694 202.373 240.522 202.605 240.53L211.739 240.842C211.971 240.85 212.153 241.034 212.144 241.254C212.136 241.474 211.941 241.646 211.708 241.638L202.575 241.327C202.342 241.319 202.161 241.134 202.169 240.914Z" fill="#EB7360"/>
<path fill-rule="evenodd" clip-rule="evenodd" d="M198.846 248.677C198.872 248.439 199.095 248.267 199.344 248.292L212.846 249.643C213.096 249.668 213.277 249.881 213.25 250.118C213.224 250.356 213.001 250.529 212.752 250.504L199.25 249.152C199 249.127 198.82 248.914 198.846 248.677Z" fill="#EB7360"/>
<path fill-rule="evenodd" clip-rule="evenodd" d="M197.741 256.576C197.782 256.235 198.029 256.002 198.292 256.056L208.412 258.131C208.675 258.185 208.855 258.505 208.813 258.846C208.772 259.187 208.525 259.42 208.262 259.366L198.142 257.291C197.879 257.237 197.699 256.917 197.741 256.576Z" fill="#EB7360"/>
<path d="M193.73 227.325C193.73 227.325 187.56 233.804 185 233.761L193.867 233.976L193.73 227.325Z" fill="#FBC3A8"/>
<path d="M119.194 146.313C119.194 146.313 93.027 190.824 83.6691 215.7C78.6131 229.071 85.7535 260.877 176.85 262.699C176.85 262.699 179.112 256.435 181.507 246.085C183.369 238.089 184.434 228.583 184.434 228.583L127.354 217.077L150.638 170.79L119.194 146.313Z" fill="#D9E3F3"/>
<path fill-rule="evenodd" clip-rule="evenodd" d="M113.524 254.205C113.627 253.921 113.969 253.766 114.288 253.858C127.695 257.715 145.529 261.146 171.646 261.619C171.981 261.625 172.248 261.872 172.241 262.17C172.234 262.468 171.957 262.705 171.621 262.699C145.387 262.223 127.436 258.776 113.914 254.885C113.595 254.793 113.42 254.489 113.524 254.205Z" fill="#90C9ED"/>
<path fill-rule="evenodd" clip-rule="evenodd" d="M138.269 188.507C138.559 188.667 138.668 189.038 138.513 189.337L137.987 189.047L137.461 188.757C137.617 188.459 137.978 188.347 138.269 188.507ZM127.989 216.196C127.989 216.196 127.989 216.197 127.989 216.198C127.991 216.204 127.998 216.231 128.031 216.279C128.102 216.383 128.253 216.529 128.524 216.703C129.063 217.05 129.916 217.411 131.021 217.771C133.218 218.487 136.248 219.149 139.332 219.715C142.41 220.279 145.517 220.744 147.856 221.067C149.025 221.229 150.002 221.355 150.686 221.441C151.028 221.484 151.297 221.517 151.48 221.539L151.688 221.564L151.758 221.572C151.759 221.572 151.759 221.572 151.697 222.136L151.758 221.572C152.086 221.61 152.322 221.914 152.285 222.251C152.248 222.587 151.953 222.829 151.626 222.791L151.692 222.182C151.626 222.791 151.626 222.791 151.626 222.791L151.624 222.791L151.552 222.783L151.341 222.757C151.156 222.735 150.885 222.702 150.541 222.659C149.853 222.573 148.872 222.446 147.697 222.283C145.348 221.958 142.223 221.491 139.122 220.922C136.027 220.354 132.934 219.681 130.66 218.94C129.53 218.572 128.561 218.174 127.891 217.743C127.558 217.529 127.257 217.28 127.056 216.986C126.843 216.676 126.726 216.288 126.839 215.867L126.841 215.86C128.918 208.506 131.572 201.733 133.705 196.801C134.773 194.334 135.71 192.325 136.382 190.933C136.717 190.236 136.987 189.694 137.172 189.325C137.265 189.14 137.337 188.999 137.386 188.904L137.442 188.795L137.456 188.767L137.461 188.757C137.461 188.757 137.461 188.757 137.987 189.047L138.513 189.337L138.509 189.345L138.495 189.371L138.441 189.475C138.394 189.568 138.324 189.706 138.232 189.888C138.049 190.251 137.783 190.788 137.451 191.477C136.786 192.857 135.855 194.85 134.796 197.299C132.677 202.199 130.045 208.915 127.989 216.196Z" fill="#90C9ED"/>
<path d="M242.846 276H277.542C277.542 276 257.929 165.423 254.895 155.431C251.861 145.439 239.855 137.446 239.855 137.446L242.846 276Z" fill="#D9E3F3"/>
<path fill-rule="evenodd" clip-rule="evenodd" d="M241.693 179.566C242.098 179.564 242.429 179.836 242.432 180.173L243.181 273.168C243.183 273.506 242.857 273.781 242.452 273.783C242.047 273.785 241.716 273.514 241.713 273.176L240.964 180.181C240.961 179.844 241.288 179.569 241.693 179.566Z" fill="#90C9ED"/>
<path d="M183.325 155.181C184.55 155.181 185.542 154.188 185.542 152.964C185.542 151.74 184.55 150.747 183.325 150.747C182.101 150.747 181.108 151.74 181.108 152.964C181.108 154.188 182.101 155.181 183.325 155.181Z" fill="#90C9ED"/>
<path d="M183.325 169.59C184.55 169.59 185.542 168.598 185.542 167.373C185.542 166.149 184.55 165.157 183.325 165.157C182.101 165.157 181.108 166.149 181.108 167.373C181.108 168.598 182.101 169.59 183.325 169.59Z" fill="#90C9ED"/>
<path d="M191.651 235.084L196.134 234.29C196.134 234.29 197.445 232.909 197.868 232.407C200.786 229.145 198.968 225.924 197.276 224L193.808 227.764L191.651 235.084Z" fill="#FBC3A8"/>
<path fill-rule="evenodd" clip-rule="evenodd" d="M248.932 217H315.281C317.699 217 319.65 218.951 319.65 221.369C319.65 221.689 319.621 222.039 319.534 222.359L307.971 272.602C307.505 274.583 305.757 275.981 303.718 275.981H237.369C234.951 275.981 233 274.029 233 271.612C233 271.291 233.029 270.942 233.116 270.621L244.68 220.379C245.116 218.398 246.893 217 248.932 217Z" fill="#3C8A87"/>
<path fill-rule="evenodd" clip-rule="evenodd" d="M315.835 217H249.311C246.893 217 244.942 218.951 244.942 221.369C244.942 221.544 244.942 221.689 244.971 221.864L250.767 272.456C251.029 274.67 252.893 276.33 255.107 276.33H321.631C324.049 276.33 326 274.379 326 271.961C326 271.786 326 271.641 325.971 271.466L320.175 220.874C319.942 218.66 318.049 217 315.835 217Z" fill="#99E2E0"/>
<mask id="mask0" mask-type="alpha" maskUnits="userSpaceOnUse" x="244" y="217" width="82" height="60">
<path fill-rule="evenodd" clip-rule="evenodd" d="M315.835 217H249.311C246.893 217 244.942 218.951 244.942 221.369C244.942 221.544 244.942 221.689 244.971 221.864L250.767 272.456C251.029 274.67 252.893 276.33 255.107 276.33H321.631C324.049 276.33 326 274.379 326 271.961C326 271.786 326 271.641 325.971 271.466L320.175 220.874C319.942 218.66 318.049 217 315.835 217Z" fill="#5CBBB8"/>
</mask>
<g mask="url(#mask0)">
<path d="M241.039 213.942H323.146V227.165H241.039V213.942Z" fill="#6CC2BF"/>
</g>
<path d="M316.534 238.583H252.951" stroke="white"/>
<path d="M318.573 248.748H254.961" stroke="white"/>
<path d="M319.563 258.913H255.98" stroke="white"/>
<path d="M306.34 232.029L309.398 269.427" stroke="white"/>
<path d="M292.767 232.029L295.825 269.427" stroke="white"/>
<path d="M279.194 232.029L282.281 269.427" stroke="white"/>
<path d="M265.621 232.029L268.709 269.427" stroke="white"/>
<path fill-rule="evenodd" clip-rule="evenodd" d="M295.177 240.316L296 250.316H282.128L281 240.316H295.177Z" fill="#3C8A87"/>
<path d="M287.094 246.165L285.907 245.117C285.852 245.067 285.789 245.029 285.72 245.005C285.651 244.982 285.578 244.973 285.505 244.979C285.433 244.985 285.362 245.006 285.298 245.04C285.233 245.075 285.176 245.123 285.129 245.181C285.082 245.239 285.047 245.307 285.025 245.379C285.003 245.452 284.996 245.528 285.002 245.604C285.009 245.68 285.03 245.754 285.064 245.821C285.098 245.888 285.144 245.948 285.2 245.996L286.487 247.132L286.53 247.158C286.783 247.309 287.08 247.354 287.363 247.283C287.646 247.212 287.892 247.031 288.051 246.776L289.769 244.031L290.91 242.207C290.949 242.144 290.977 242.074 290.99 241.999C291.004 241.925 291.003 241.849 290.989 241.775C290.974 241.701 290.946 241.63 290.905 241.568C290.865 241.505 290.813 241.452 290.753 241.41C290.693 241.369 290.625 241.34 290.554 241.326C290.484 241.312 290.411 241.312 290.34 241.327C290.27 241.343 290.203 241.372 290.143 241.415C290.083 241.457 290.032 241.512 289.993 241.575L289.198 242.846L287.133 246.145C287.129 246.151 287.123 246.157 287.116 246.16C287.11 246.164 287.102 246.166 287.094 246.165Z" fill="white"/>
<path d="M190 270H79V276H190V270Z" fill="#8D8D8D"/>
<path d="M134 276H25.8124C23.9368 276 22.3006 274.723 21.8217 272.928L1.62885 196.013L0.11239 190.149C-0.446306 188.035 1.14997 186 3.30494 186H107.183C109.058 186 110.694 187.277 111.173 189.112L132.364 269.896L134 276Z" fill="#CDCDCD"/>
<path d="M74.7887 239.777C79.3445 234.719 78.0372 226.08 71.8687 220.483C65.7003 214.886 57.0066 214.449 52.4508 219.507C47.8951 224.566 49.2024 233.204 55.3708 238.801C61.5393 244.399 70.233 244.836 74.7887 239.777Z" fill="white"/>
<path d="M71 232.083L69.8107 226.875H65.3222L64.2481 222H59.4527L60.5269 226.875H56L57.1893 232.125H61.6777L62.7519 237H67.5473L66.4731 232.083H71Z" fill="#AE4A41"/>
<path d="M88.6959 122.478L81.0127 115.581H45.2643C43.4729 115.581 42 114.129 42 112.274V87.3074C42 85.4923 43.4331 84 45.2643 84H88.7357C90.5271 84 92 85.452 92 87.3074V120.986C91.9602 122.72 89.9697 123.648 88.6959 122.478Z" fill="#D87979"/>
<path d="M79 102C80.6568 102 82 100.657 82 99C82 97.3431 80.6568 96 79 96C77.3431 96 76 97.3431 76 99C76 100.657 77.3431 102 79 102Z" fill="white"/>
<path d="M67 102C68.6569 102 70 100.657 70 99C70 97.3431 68.6569 96 67 96C65.3431 96 64 97.3431 64 99C64 100.657 65.3431 102 67 102Z" fill="white"/>
<path d="M55 102C56.6569 102 58 100.657 58 99C58 97.3431 56.6569 96 55 96C53.3431 96 52 97.3431 52 99C52 100.657 53.3431 102 55 102Z" fill="white"/>
<path d="M9.34129 147.509L17.0183 140.786H52.7383C54.5282 140.786 56 139.37 56 137.562V113.224C56 111.455 54.568 110 52.7383 110H9.26174C7.47176 110 6 111.415 6 113.224V146.054C6.03978 147.745 8.02864 148.61 9.34129 147.509Z" fill="#F4C989"/>
<path d="M19 128C20.6569 128 22 126.657 22 125C22 123.343 20.6569 122 19 122C17.3431 122 16 123.343 16 125C16 126.657 17.3431 128 19 128Z" fill="white"/>
<path d="M31 128C32.6569 128 34 126.657 34 125C34 123.343 32.6569 122 31 122C29.3431 122 28 123.343 28 125C28 126.657 29.3431 128 31 128Z" fill="white"/>
<path d="M42.5 128C43.8807 128 45 126.657 45 125C45 123.343 43.8807 122 42.5 122C41.1193 122 40 123.343 40 125C40 126.657 41.1193 128 42.5 128Z" fill="white"/>
<path fill-rule="evenodd" clip-rule="evenodd" d="M292.296 12.6269C286.445 12.6269 281.038 14.6935 276.768 18.1598L271.491 11.4128C277.204 6.77491 284.457 4 292.296 4C310.757 4 325.709 19.3131 325.709 38.1515C325.709 46.8205 322.527 54.7762 317.284 60.8L310.948 55.0766C314.865 50.5755 317.241 44.6384 317.241 38.1515C317.241 24.047 306.05 12.6269 292.296 12.6269Z" fill="white"/>
<path d="M266.537 19.4909C266.69 19.4909 266.844 19.4909 266.997 19.4909C267.867 19.4909 268.685 19.5955 269.503 19.8048L272.726 40.4703C271.089 41.5167 269.094 42.0922 267.048 42.0922C266.895 42.0922 266.741 42.0922 266.588 42.0922C270.015 52.4511 278.045 60.6649 288.173 64.1702C288.173 64.0133 288.173 63.8563 288.173 63.6994C288.173 61.6067 288.735 59.6186 289.707 57.9444L309.962 61.2404C310.116 62.0252 310.218 62.8623 310.218 63.6994C310.218 63.8563 310.218 64.0133 310.218 64.1702C310.014 70.0821 305.359 74.7907 299.63 75C299.477 75 299.323 75 299.221 75C299.068 75 298.914 75 298.812 75C275.232 74.7907 256.153 55.2239 256 31.0531C256 30.9485 256 30.8438 256 30.7392C256 30.6346 256 30.5299 256 30.4253C256.051 24.5134 260.706 19.7002 266.537 19.4909Z" fill="#5CBBB8"/>
<path d="M291.049 47.6523V50.4727H278.501V47.8963L284.855 40.8994C285.596 40.0677 286.134 39.3084 286.47 38.6213C286.823 37.9162 286.999 37.2201 286.999 36.5331C286.999 35.6652 286.752 35.0144 286.258 34.5804C285.781 34.1284 285.075 33.9024 284.14 33.9024C282.463 33.9024 280.778 34.5624 279.084 35.8822L277.946 33.3329C278.687 32.664 279.631 32.1306 280.778 31.7329C281.943 31.317 283.108 31.1091 284.272 31.1091C286.143 31.1091 287.626 31.5792 288.72 32.5193C289.814 33.4595 290.361 34.7251 290.361 36.3161C290.361 37.419 290.132 38.4586 289.673 39.4349C289.214 40.3932 288.437 41.4689 287.343 42.6622L282.764 47.6523H291.049Z" fill="white"/>
<path d="M307.636 44.0182V46.7302H305.016V50.4727H301.68V46.7302H293.58V44.1538L302.263 31.3532H305.016V44.0182H307.636ZM296.756 44.0182H301.68V36.7229L296.756 44.0182Z" fill="white"/>
</svg>
