<svg width="351" height="88" viewBox="0 0 351 88" fill="none" xmlns="http://www.w3.org/2000/svg">
<defs>
<filter id="filter0_d" x="0" y="0" width="351" height="88" filterUnits="userSpaceOnUse" color-interpolation-filters="sRGB">
<feFlood flood-opacity="0" result="BackgroundImageFix"/>
<feColorMatrix in="SourceAlpha" type="matrix" values="0 0 0 0 0 0 0 0 0 0 0 0 0 0 0 0 0 0 127 0" result="hardAlpha"/>
<feOffset dy="4"/>
<feGaussianBlur stdDeviation="2"/>
<feComposite in2="hardAlpha" operator="out"/>
<feColorMatrix type="matrix" values="0 0 0 0 0.360784 0 0 0 0 0.733333 0 0 0 0 0.721569 0 0 0 0.2 0"/>
<feBlend mode="normal" in2="BackgroundImageFix" result="effect1_dropShadow"/>
<feBlend mode="normal" in="SourceGraphic" in2="effect1_dropShadow" result="shape"/>
</filter>
<radialGradient id="paint0_angular" cx="0" cy="0" r="1" gradientUnits="userSpaceOnUse" gradientTransform="translate(175.5 40) rotate(90) scale(40 171.5)">
<stop offset="0.129994" stop-color="white"/>
<stop offset="0.375127" stop-color="white" stop-opacity="0.59"/>
<stop offset="0.622321" stop-color="white" stop-opacity="0.75"/>
<stop offset="0.860263" stop-color="white" stop-opacity="0"/>
</radialGradient>
</defs>
<g filter="url(#filter0_d)">
<rect x="4" width="343" height="80" rx="26" fill="#5CBBB8"/>
<rect x="5" y="1" width="341" height="78" rx="25" stroke="url(#paint0_angular)" stroke-width="2"/>
</g>
<path d="M326 34L331.25 39.25L326 44.5" stroke="white" stroke-width="2" stroke-miterlimit="10" stroke-linecap="round" stroke-linejoin="round"/>
<path d="M150.476 45V32.31H154.958C157.046 32.31 158.654 32.856 159.782 33.948C160.922 35.04 161.492 36.606 161.492 38.646C161.492 40.686 160.922 42.258 159.782 43.362C158.654 44.454 157.046 45 154.958 45H150.476ZM152.348 43.434H154.85C157.982 43.434 159.548 41.838 159.548 38.646C159.548 35.466 157.982 33.876 154.85 33.876H152.348V43.434ZM148.91 39.258V37.872H155.822V39.258H148.91ZM167.612 45.162C166.724 45.162 165.956 44.976 165.308 44.604C164.66 44.232 164.156 43.71 163.796 43.038C163.448 42.354 163.274 41.544 163.274 40.608C163.274 39.672 163.448 38.868 163.796 38.196C164.156 37.512 164.66 36.984 165.308 36.612C165.956 36.24 166.724 36.054 167.612 36.054C168.476 36.054 169.232 36.24 169.88 36.612C170.528 36.984 171.032 37.512 171.392 38.196C171.752 38.868 171.932 39.672 171.932 40.608C171.932 41.544 171.752 42.354 171.392 43.038C171.032 43.71 170.528 44.232 169.88 44.604C169.232 44.976 168.476 45.162 167.612 45.162ZM167.612 43.758C168.356 43.758 168.956 43.488 169.412 42.948C169.868 42.408 170.096 41.628 170.096 40.608C170.096 39.588 169.868 38.814 169.412 38.286C168.956 37.746 168.356 37.476 167.612 37.476C166.856 37.476 166.25 37.746 165.794 38.286C165.338 38.814 165.11 39.588 165.11 40.608C165.11 41.628 165.338 42.408 165.794 42.948C166.25 43.488 166.856 43.758 167.612 43.758ZM169.52 33.174C169.52 32.934 169.568 32.742 169.664 32.598C169.76 32.442 169.874 32.316 170.006 32.22C170.138 32.124 170.252 32.028 170.348 31.932C170.456 31.836 170.51 31.722 170.51 31.59C170.51 31.374 170.27 31.266 169.79 31.266C169.622 31.266 169.448 31.284 169.268 31.32C169.088 31.344 168.902 31.392 168.71 31.464L168.458 30.708C168.902 30.504 169.454 30.402 170.114 30.402C170.642 30.402 171.05 30.486 171.338 30.654C171.626 30.81 171.77 31.032 171.77 31.32C171.77 31.56 171.71 31.752 171.59 31.896C171.47 32.04 171.332 32.172 171.176 32.292C171.02 32.4 170.882 32.52 170.762 32.652C170.642 32.784 170.582 32.958 170.582 33.174H169.52ZM164.804 35.046L166.784 32.13H168.44L170.42 35.046H169.214L167.612 33.192L166.01 35.046H164.804ZM173.811 34.182V32.292H175.935V34.182H173.811ZM173.973 45V36.216H175.791V45H173.973ZM183.115 45V36.216H184.879V37.638C185.143 37.134 185.509 36.744 185.977 36.468C186.445 36.192 186.991 36.054 187.615 36.054C188.959 36.054 189.829 36.642 190.225 37.818C190.501 37.266 190.897 36.834 191.413 36.522C191.929 36.21 192.517 36.054 193.177 36.054C195.145 36.054 196.129 37.23 196.129 39.582V45H194.311V39.672C194.311 38.928 194.179 38.382 193.915 38.034C193.663 37.686 193.243 37.512 192.655 37.512C191.995 37.512 191.473 37.746 191.089 38.214C190.705 38.67 190.513 39.294 190.513 40.086V45H188.695V39.672C188.695 38.928 188.569 38.382 188.317 38.034C188.065 37.686 187.645 37.512 187.057 37.512C186.397 37.512 185.875 37.746 185.491 38.214C185.119 38.67 184.933 39.294 184.933 40.086V45H183.115ZM201.479 45.162C200.867 45.162 200.321 45.042 199.841 44.802C199.361 44.562 198.977 44.238 198.689 43.83C198.413 43.422 198.275 42.96 198.275 42.444C198.275 41.796 198.437 41.286 198.761 40.914C199.097 40.542 199.643 40.272 200.399 40.104C201.167 39.936 202.199 39.852 203.495 39.852H204.107V39.384C204.107 38.7 203.963 38.208 203.675 37.908C203.387 37.608 202.913 37.458 202.253 37.458C201.749 37.458 201.245 37.536 200.741 37.692C200.237 37.836 199.721 38.07 199.193 38.394L198.635 37.116C199.091 36.792 199.661 36.534 200.345 36.342C201.029 36.15 201.683 36.054 202.307 36.054C203.507 36.054 204.395 36.342 204.971 36.918C205.547 37.482 205.835 38.37 205.835 39.582V45H204.125V43.542C203.909 44.046 203.573 44.442 203.117 44.73C202.661 45.018 202.115 45.162 201.479 45.162ZM201.839 43.866C202.487 43.866 203.027 43.638 203.459 43.182C203.891 42.726 204.107 42.15 204.107 41.454V40.968H203.513C202.637 40.968 201.947 41.01 201.443 41.094C200.951 41.178 200.597 41.322 200.381 41.526C200.177 41.718 200.075 41.988 200.075 42.336C200.075 42.792 200.231 43.164 200.543 43.452C200.855 43.728 201.287 43.866 201.839 43.866ZM201.317 48.51V46.692H203.225V48.51H201.317ZM199.535 35.046L201.515 31.41H203.171L205.151 35.046H203.945L202.343 32.526L200.741 35.046H199.535ZM212.083 45.162C210.979 45.162 210.157 44.88 209.617 44.316C209.077 43.752 208.807 42.936 208.807 41.868V37.62H207.097V36.216H208.807V33.57H210.625V36.216H213.343V37.62H210.625V41.724C210.625 42.36 210.757 42.84 211.021 43.164C211.297 43.488 211.741 43.65 212.353 43.65C212.545 43.65 212.731 43.632 212.911 43.596C213.091 43.548 213.271 43.494 213.451 43.434L213.739 44.802C213.559 44.91 213.307 44.994 212.983 45.054C212.671 45.126 212.371 45.162 212.083 45.162ZM219.641 45V32.31H221.459V40.05H221.495L225.311 36.216H227.561L223.349 40.446L227.885 45H225.617L221.495 40.986H221.459V45H219.641ZM228.923 45V32.31H230.741V37.584C231.041 37.08 231.443 36.702 231.947 36.45C232.463 36.186 233.039 36.054 233.675 36.054C235.751 36.054 236.789 37.23 236.789 39.582V45H234.971V39.69C234.971 38.934 234.821 38.382 234.521 38.034C234.233 37.686 233.777 37.512 233.153 37.512C232.421 37.512 231.833 37.746 231.389 38.214C230.957 38.67 230.741 39.276 230.741 40.032V45H228.923ZM242.102 45.162C241.49 45.162 240.944 45.042 240.464 44.802C239.984 44.562 239.6 44.238 239.312 43.83C239.036 43.422 238.898 42.96 238.898 42.444C238.898 41.796 239.06 41.286 239.384 40.914C239.72 40.542 240.266 40.272 241.022 40.104C241.79 39.936 242.822 39.852 244.118 39.852H244.73V39.384C244.73 38.7 244.586 38.208 244.298 37.908C244.01 37.608 243.536 37.458 242.876 37.458C242.372 37.458 241.868 37.536 241.364 37.692C240.86 37.836 240.344 38.07 239.816 38.394L239.258 37.116C239.714 36.792 240.284 36.534 240.968 36.342C241.652 36.15 242.306 36.054 242.93 36.054C244.13 36.054 245.018 36.342 245.594 36.918C246.17 37.482 246.458 38.37 246.458 39.582V45H244.748V43.542C244.532 44.046 244.196 44.442 243.74 44.73C243.284 45.018 242.738 45.162 242.102 45.162ZM242.462 43.866C243.11 43.866 243.65 43.638 244.082 43.182C244.514 42.726 244.73 42.15 244.73 41.454V40.968H244.136C243.26 40.968 242.57 41.01 242.066 41.094C241.574 41.178 241.22 41.322 241.004 41.526C240.8 41.718 240.698 41.988 240.698 42.336C240.698 42.792 240.854 43.164 241.166 43.452C241.478 43.728 241.91 43.866 242.462 43.866ZM244.874 33.174C244.874 32.934 244.922 32.742 245.018 32.598C245.114 32.442 245.228 32.316 245.36 32.22C245.492 32.124 245.606 32.028 245.702 31.932C245.81 31.836 245.864 31.722 245.864 31.59C245.864 31.374 245.624 31.266 245.144 31.266C244.976 31.266 244.802 31.284 244.622 31.32C244.442 31.344 244.256 31.392 244.064 31.464L243.812 30.708C244.256 30.504 244.808 30.402 245.468 30.402C245.996 30.402 246.404 30.486 246.692 30.654C246.98 30.81 247.124 31.032 247.124 31.32C247.124 31.56 247.064 31.752 246.944 31.896C246.824 32.04 246.686 32.172 246.53 32.292C246.374 32.4 246.236 32.52 246.116 32.652C245.996 32.784 245.936 32.958 245.936 33.174H244.874ZM240.158 35.046L242.138 32.13H243.794L245.774 35.046H244.568L242.966 33.192L241.364 35.046H240.158ZM252.094 45.162C249.97 45.162 248.908 43.98 248.908 41.616V36.216H250.726V41.634C250.726 42.342 250.87 42.864 251.158 43.2C251.446 43.536 251.902 43.704 252.526 43.704C253.21 43.704 253.762 43.476 254.182 43.02C254.614 42.564 254.83 41.952 254.83 41.184V36.216H256.648V45H254.884V43.596C254.596 44.112 254.212 44.502 253.732 44.766C253.252 45.03 252.706 45.162 252.094 45.162Z" fill="white"/>
<path d="M56.2676 67H104.732C105.977 67 107 65.9773 107 64.7324V16.2676C107 15.0226 105.977 14 104.732 14H56.2676C55.0226 14 54 15.0226 54 16.2676V64.7324C54 65.9773 55.0226 67 56.2676 67Z" fill="#6F9BD4"/>
<path opacity="0.5" d="M61.7362 57.6171H99.2186C100.375 57.6171 101.264 56.6834 101.264 55.5718V48.7245C101.264 47.5685 100.33 46.6792 99.2186 46.6792H61.7362C60.5802 46.6792 59.6909 47.6129 59.6909 48.7245V55.5718C59.6909 56.7279 60.6246 57.6171 61.7362 57.6171Z" fill="white"/>
<path d="M92.6387 51.481L93.1722 50.5473L94.4172 51.3032L94.3727 49.9248H95.4398V51.3032L96.6848 50.5473L97.2184 51.481L96.0179 52.148L97.2184 52.8149L96.6848 53.7486L95.4398 52.9928V54.3711H94.3727L94.4172 53.0372L93.1722 53.7486L92.6387 52.8149L93.8392 52.148L92.6387 51.481Z" fill="white"/>
<path d="M85.4365 51.481L85.9701 50.5473L87.215 51.3032V49.9248H88.2822V51.3032L89.5271 50.5473L90.0607 51.481L88.8602 52.148L90.0607 52.8149L89.5271 53.7486L88.2822 52.9928V54.3711H87.215V53.0372L85.9701 53.7486L85.4365 52.8149L86.637 52.148L85.4365 51.481Z" fill="white"/>
<path d="M78.2325 51.481L78.766 50.5473L80.011 51.3032V49.9248H81.0781V51.3032L82.3231 50.5473L82.8566 51.481L81.6561 52.148L82.8566 52.8149L82.3231 53.7486L81.0781 52.9928V54.3711H79.9665V53.0372L78.7215 53.7486L78.188 52.8149L79.3885 52.148L78.2325 51.481Z" fill="white"/>
<path d="M70.9844 51.481L71.5179 50.5473L72.7629 51.3032V49.9248H73.83V51.3032L75.075 50.5473L75.6085 51.481L74.408 52.148L75.6085 52.8149L75.075 53.7486L73.83 52.9928V54.3711H72.7629V53.0372L71.5179 53.7486L70.9844 52.8149L72.1849 52.148L70.9844 51.481Z" fill="white"/>
<path d="M63.7817 51.4825L64.3153 50.5488L65.5603 51.3046V49.9263H66.6274V51.3046L67.8723 50.5488L68.4059 51.4825L67.2054 52.1494L68.4059 52.8164L67.8723 53.7501L66.6274 52.9942V54.3726H65.5603V53.0387L64.3153 53.7501L63.7817 52.8164L64.9822 52.1494L63.7817 51.4825Z" fill="white"/>
<path opacity="0.5" d="M80.4996 42.2784C87.0561 42.2784 92.3712 36.9633 92.3712 30.4068C92.3712 23.8503 87.0561 18.5352 80.4996 18.5352C73.943 18.5352 68.6279 23.8503 68.6279 30.4068C68.6279 36.9633 73.943 42.2784 80.4996 42.2784Z" fill="white"/>
<path d="M74.5425 30.9833V36.6301C74.5425 37.3415 75.1205 37.9195 75.8319 37.9195H85.1247C85.8361 37.9195 86.4141 37.3415 86.4141 36.6301V30.9833C86.4141 30.2719 85.8361 29.6938 85.1247 29.6938H75.8319C75.1205 29.7383 74.5425 30.3163 74.5425 30.9833ZM79.967 33.6955C79.6113 33.5177 79.3445 33.1175 79.3445 32.6729C79.3445 32.0504 79.8336 31.5613 80.4561 31.5613C81.0786 31.5613 81.5676 32.0504 81.5676 32.6729C81.5676 33.1175 81.3009 33.5177 80.9452 33.6955L81.3009 36.0076H79.6113L79.967 33.6955Z" fill="#6F9BD4"/>
<path d="M83.1679 28.8053L83.3458 27.916C83.657 26.3598 82.6343 24.848 81.1226 24.5368C79.5664 24.2256 78.0546 25.2482 77.7434 26.76L77.5655 27.6492L75.9204 27.338L76.0983 26.4487C76.5874 24.0032 78.9884 22.4026 81.4338 22.8917C83.8793 23.3808 85.48 25.7818 84.9909 28.2272L84.813 29.1165L83.1679 28.8053Z" fill="#6F9BD4"/>
<path opacity="0.2" d="M73.8754 61.5764H87.1254C87.4366 61.5764 87.7034 61.3097 87.7034 60.9984C87.7034 60.6872 87.4366 60.4204 87.1254 60.4204H73.8754C73.5641 60.4204 73.2973 60.6872 73.2973 60.9984C73.2529 61.3541 73.5196 61.5764 73.8754 61.5764Z" fill="#B7CDEA"/>
</svg>
