<svg width="351" height="88" viewBox="0 0 351 88" fill="none" xmlns="http://www.w3.org/2000/svg">
    <g filter="url(#filter0_d_3275_6964)">
        <rect x="4" width="343" height="80" rx="26" fill="#5CBBB8"/>
        <rect x="5" y="1" width="341" height="78" rx="25" stroke="url(#paint0_angular_3275_6964)" stroke-width="2"/>
    </g>
    <path d="M326 34L331.25 39.25L326 44.5" stroke="white" stroke-width="2" stroke-miterlimit="10" stroke-linecap="round" stroke-linejoin="round"/>
    <path d="M150.476 45V32.31H154.958C157.046 32.31 158.654 32.856 159.782 33.948C160.922 35.04 161.492 36.606 161.492 38.646C161.492 40.686 160.922 42.258 159.782 43.362C158.654 44.454 157.046 45 154.958 45H150.476ZM152.348 43.434H154.85C157.982 43.434 159.548 41.838 159.548 38.646C159.548 35.466 157.982 33.876 154.85 33.876H152.348V43.434ZM166.604 45.162C165.992 45.162 165.446 45.042 164.966 44.802C164.486 44.562 164.102 44.238 163.814 43.83C163.538 43.422 163.4 42.96 163.4 42.444C163.4 41.796 163.562 41.286 163.886 40.914C164.222 40.542 164.768 40.272 165.524 40.104C166.292 39.936 167.324 39.852 168.62 39.852H169.232V39.384C169.232 38.7 169.088 38.208 168.8 37.908C168.512 37.608 168.038 37.458 167.378 37.458C166.874 37.458 166.37 37.536 165.866 37.692C165.362 37.836 164.846 38.07 164.318 38.394L163.76 37.116C164.216 36.792 164.786 36.534 165.47 36.342C166.154 36.15 166.808 36.054 167.432 36.054C168.632 36.054 169.52 36.342 170.096 36.918C170.672 37.482 170.96 38.37 170.96 39.582V45H169.25V43.542C169.034 44.046 168.698 44.442 168.242 44.73C167.786 45.018 167.24 45.162 166.604 45.162ZM166.964 43.866C167.612 43.866 168.152 43.638 168.584 43.182C169.016 42.726 169.232 42.15 169.232 41.454V40.968H168.638C167.762 40.968 167.072 41.01 166.568 41.094C166.076 41.178 165.722 41.322 165.506 41.526C165.302 41.718 165.2 41.988 165.2 42.336C165.2 42.792 165.356 43.164 165.668 43.452C165.98 43.728 166.412 43.866 166.964 43.866ZM173.464 45V36.216H175.228V37.674C175.528 37.146 175.936 36.744 176.452 36.468C176.98 36.192 177.568 36.054 178.216 36.054C180.292 36.054 181.33 37.23 181.33 39.582V45H179.512V39.69C179.512 38.934 179.362 38.382 179.062 38.034C178.774 37.686 178.318 37.512 177.694 37.512C176.962 37.512 176.374 37.746 175.93 38.214C175.498 38.67 175.282 39.276 175.282 40.032V45H173.464ZM183.835 45V32.31H185.653V37.584C185.953 37.08 186.355 36.702 186.859 36.45C187.375 36.186 187.951 36.054 188.587 36.054C190.663 36.054 191.701 37.23 191.701 39.582V45H189.883V39.69C189.883 38.934 189.733 38.382 189.433 38.034C189.145 37.686 188.689 37.512 188.065 37.512C187.333 37.512 186.745 37.746 186.301 38.214C185.869 38.67 185.653 39.276 185.653 40.032V45H183.835ZM198.97 45V36.216H200.734V37.638C200.998 37.134 201.364 36.744 201.832 36.468C202.3 36.192 202.846 36.054 203.47 36.054C204.814 36.054 205.684 36.642 206.08 37.818C206.356 37.266 206.752 36.834 207.268 36.522C207.784 36.21 208.372 36.054 209.032 36.054C211 36.054 211.984 37.23 211.984 39.582V45H210.166V39.672C210.166 38.928 210.034 38.382 209.77 38.034C209.518 37.686 209.098 37.512 208.51 37.512C207.85 37.512 207.328 37.746 206.944 38.214C206.56 38.67 206.368 39.294 206.368 40.086V45H204.55V39.672C204.55 38.928 204.424 38.382 204.172 38.034C203.92 37.686 203.5 37.512 202.912 37.512C202.252 37.512 201.73 37.746 201.346 38.214C200.974 38.67 200.788 39.294 200.788 40.086V45H198.97ZM217.658 45.162C215.534 45.162 214.472 43.98 214.472 41.616V36.216H216.29V41.634C216.29 42.342 216.434 42.864 216.722 43.2C217.01 43.536 217.466 43.704 218.09 43.704C218.774 43.704 219.326 43.476 219.746 43.02C220.178 42.564 220.394 41.952 220.394 41.184V36.216H222.212V45H220.448V43.596C220.16 44.112 219.776 44.502 219.296 44.766C218.816 45.03 218.27 45.162 217.658 45.162ZM217.406 48.51V46.692H219.314V48.51H217.406ZM228.644 45.162C227.744 45.162 226.964 44.976 226.304 44.604C225.656 44.22 225.152 43.686 224.792 43.002C224.432 42.306 224.252 41.49 224.252 40.554C224.252 39.162 224.648 38.064 225.44 37.26C226.232 36.456 227.3 36.054 228.644 36.054C229.196 36.054 229.742 36.15 230.282 36.342C230.822 36.534 231.266 36.798 231.614 37.134L231.038 38.412C230.702 38.1 230.33 37.872 229.922 37.728C229.526 37.572 229.148 37.494 228.788 37.494C227.936 37.494 227.276 37.764 226.808 38.304C226.352 38.832 226.124 39.588 226.124 40.572C226.124 41.556 226.352 42.33 226.808 42.894C227.276 43.446 227.936 43.722 228.788 43.722C229.148 43.722 229.526 43.65 229.922 43.506C230.33 43.35 230.702 43.116 231.038 42.804L231.614 44.1C231.266 44.424 230.816 44.682 230.264 44.874C229.724 45.066 229.184 45.162 228.644 45.162Z" fill="white"/>
    <path d="M96.5357 14.479H61.5449C60.9732 14.479 60.5098 14.9424 60.5098 15.5142C60.5098 16.0859 60.9732 16.5493 61.5449 16.5493H96.5356C97.5915 16.5493 98.4507 17.4084 98.4507 18.4645V53.4552C98.4507 54.0268 98.9143 54.4904 99.4859 54.4904C100.057 54.4904 100.521 54.0268 100.521 53.4552V18.4645C100.521 16.2668 98.7332 14.479 96.5357 14.479Z" fill="#213250"/>
    <path d="M92.9952 18.019H58.0044C57.4327 18.019 56.9692 18.4825 56.9692 19.0542C56.9692 19.6259 57.4327 20.0894 58.0044 20.0894H92.9951C94.051 20.0894 94.9102 20.9484 94.9102 22.0045V56.9952C94.9102 57.5668 95.3737 58.0303 95.9454 58.0303C96.517 58.0303 96.9805 57.5668 96.9805 56.9952V22.0045C96.9806 19.807 95.1927 18.019 92.9952 18.019Z" fill="#213250"/>
    <path d="M89.4552 21.5596H54.4645C52.2669 21.5596 50.479 23.3474 50.479 25.545V60.5357C50.479 62.7332 52.2668 64.5211 54.4645 64.5211H89.4552C91.6528 64.5211 93.4407 62.7333 93.4407 60.5357V25.545C93.4407 23.3475 91.6528 21.5596 89.4552 21.5596ZM85.9148 27.7604H82.3743C81.8027 27.7604 81.3392 27.2969 81.3392 26.7252C81.3392 26.1535 81.8027 25.6901 82.3743 25.6901H85.9148C87.787 25.6901 89.3102 27.2133 89.3102 29.0855V32.6258C89.3102 33.1975 88.8467 33.661 88.275 33.661C87.7034 33.661 87.2399 33.1975 87.2399 32.6258V29.0855C87.2399 28.3549 86.6455 27.7604 85.9148 27.7604Z" fill="#0090FB"/>
    <path d="M88.2747 33.6609C88.8463 33.6609 89.3099 33.1974 89.3099 32.6257V29.0854C89.3099 27.2132 87.7866 25.6899 85.9145 25.6899H82.374C81.8024 25.6899 81.3389 26.1534 81.3389 26.7251C81.3389 27.2968 81.8024 27.7603 82.374 27.7603H85.9145C86.6452 27.7603 87.2396 28.3547 87.2396 29.0854V32.6257C87.2396 33.1974 87.7031 33.6609 88.2747 33.6609Z" fill="white"/>
    <defs>
        <filter id="filter0_d_3275_6964" x="0" y="0" width="351" height="88" filterUnits="userSpaceOnUse" color-interpolation-filters="sRGB">
            <feFlood flood-opacity="0" result="BackgroundImageFix"/>
            <feColorMatrix in="SourceAlpha" type="matrix" values="0 0 0 0 0 0 0 0 0 0 0 0 0 0 0 0 0 0 127 0" result="hardAlpha"/>
            <feOffset dy="4"/>
            <feGaussianBlur stdDeviation="2"/>
            <feComposite in2="hardAlpha" operator="out"/>
            <feColorMatrix type="matrix" values="0 0 0 0 0.360784 0 0 0 0 0.733333 0 0 0 0 0.721569 0 0 0 0.2 0"/>
            <feBlend mode="normal" in2="BackgroundImageFix" result="effect1_dropShadow_3275_6964"/>
            <feBlend mode="normal" in="SourceGraphic" in2="effect1_dropShadow_3275_6964" result="shape"/>
        </filter>
        <radialGradient id="paint0_angular_3275_6964" cx="0" cy="0" r="1" gradientUnits="userSpaceOnUse" gradientTransform="translate(175.5 40) rotate(90) scale(40 171.5)">
            <stop offset="0.129994" stop-color="white"/>
            <stop offset="0.375127" stop-color="white" stop-opacity="0.59"/>
            <stop offset="0.622321" stop-color="white" stop-opacity="0.75"/>
            <stop offset="0.860263" stop-color="white" stop-opacity="0"/>
        </radialGradient>
    </defs>
</svg>
