<svg width="353" height="90" viewBox="0 0 353 90" fill="none" xmlns="http://www.w3.org/2000/svg">
<defs>
<filter id="filter0_d" x="0" y="0" width="353" height="90" filterUnits="userSpaceOnUse" color-interpolation-filters="sRGB">
<feFlood flood-opacity="0" result="BackgroundImageFix"/>
<feColorMatrix in="SourceAlpha" type="matrix" values="0 0 0 0 0 0 0 0 0 0 0 0 0 0 0 0 0 0 127 0" result="hardAlpha"/>
<feOffset dy="4"/>
<feGaussianBlur stdDeviation="2.5"/>
<feComposite in2="hardAlpha" operator="out"/>
<feColorMatrix type="matrix" values="0 0 0 0 0.458824 0 0 0 0 0.698039 0 0 0 0 0.882353 0 0 0 0.3 0"/>
<feBlend mode="normal" in2="BackgroundImageFix" result="effect1_dropShadow"/>
<feBlend mode="normal" in="SourceGraphic" in2="effect1_dropShadow" result="shape"/>
</filter>
<radialGradient id="paint0_angular" cx="0" cy="0" r="1" gradientUnits="userSpaceOnUse" gradientTransform="translate(176.5 41) rotate(90) scale(40 171.5)">
<stop offset="0.0833136" stop-color="white"/>
<stop offset="0.64303" stop-color="white" stop-opacity="0.78"/>
<stop offset="0.911774" stop-color="white" stop-opacity="0.42"/>
</radialGradient>
</defs>
<g filter="url(#filter0_d)">
<rect x="5" y="1" width="343" height="80" rx="26" fill="#6F9BD4"/>
<rect x="6" y="2" width="341" height="78" rx="25" stroke="url(#paint0_angular)" stroke-width="2"/>
</g>
<path d="M151.476 46V33.31H155.958C158.046 33.31 159.654 33.856 160.782 34.948C161.922 36.04 162.492 37.606 162.492 39.646C162.492 41.686 161.922 43.258 160.782 44.362C159.654 45.454 158.046 46 155.958 46H151.476ZM153.348 44.434H155.85C158.982 44.434 160.548 42.838 160.548 39.646C160.548 36.466 158.982 34.876 155.85 34.876H153.348V44.434ZM149.91 40.258V38.872H156.822V40.258H149.91ZM167.604 46.162C166.992 46.162 166.446 46.042 165.966 45.802C165.486 45.562 165.102 45.238 164.814 44.83C164.538 44.422 164.4 43.96 164.4 43.444C164.4 42.796 164.562 42.286 164.886 41.914C165.222 41.542 165.768 41.272 166.524 41.104C167.292 40.936 168.324 40.852 169.62 40.852H170.232V40.384C170.232 39.7 170.088 39.208 169.8 38.908C169.512 38.608 169.038 38.458 168.378 38.458C167.874 38.458 167.37 38.536 166.866 38.692C166.362 38.836 165.846 39.07 165.318 39.394L164.76 38.116C165.216 37.792 165.786 37.534 166.47 37.342C167.154 37.15 167.808 37.054 168.432 37.054C169.632 37.054 170.52 37.342 171.096 37.918C171.672 38.482 171.96 39.37 171.96 40.582V46H170.25V44.542C170.034 45.046 169.698 45.442 169.242 45.73C168.786 46.018 168.24 46.162 167.604 46.162ZM167.964 44.866C168.612 44.866 169.152 44.638 169.584 44.182C170.016 43.726 170.232 43.15 170.232 42.454V41.968H169.638C168.762 41.968 168.072 42.01 167.568 42.094C167.076 42.178 166.722 42.322 166.506 42.526C166.302 42.718 166.2 42.988 166.2 43.336C166.2 43.792 166.356 44.164 166.668 44.452C166.98 44.728 167.412 44.866 167.964 44.866ZM168.468 36.1C167.628 36.1 166.95 35.794 166.434 35.182C165.918 34.57 165.636 33.73 165.588 32.662L166.668 32.554C166.716 33.322 166.896 33.916 167.208 34.336C167.52 34.744 167.94 34.948 168.468 34.948C168.996 34.948 169.416 34.744 169.728 34.336C170.04 33.916 170.22 33.322 170.268 32.554L171.348 32.662C171.312 33.73 171.03 34.57 170.502 35.182C169.986 35.794 169.308 36.1 168.468 36.1ZM174.464 46V37.216H176.228V38.674C176.528 38.146 176.936 37.744 177.452 37.468C177.98 37.192 178.568 37.054 179.216 37.054C181.292 37.054 182.33 38.23 182.33 40.582V46H180.512V40.69C180.512 39.934 180.362 39.382 180.062 39.034C179.774 38.686 179.318 38.512 178.694 38.512C177.962 38.512 177.374 38.746 176.93 39.214C176.498 39.67 176.282 40.276 176.282 41.032V46H174.464ZM188.813 49.402C188.021 49.402 187.283 49.306 186.599 49.114C185.915 48.934 185.309 48.646 184.781 48.25L185.339 46.954C185.867 47.314 186.407 47.578 186.959 47.746C187.511 47.914 188.087 47.998 188.687 47.998C190.367 47.998 191.207 47.158 191.207 45.478V44.092C190.955 44.62 190.559 45.034 190.019 45.334C189.491 45.634 188.897 45.784 188.237 45.784C187.445 45.784 186.755 45.604 186.167 45.244C185.579 44.872 185.123 44.362 184.799 43.714C184.475 43.054 184.313 42.286 184.313 41.41C184.313 40.546 184.475 39.79 184.799 39.142C185.123 38.482 185.579 37.972 186.167 37.612C186.755 37.24 187.445 37.054 188.237 37.054C188.909 37.054 189.509 37.204 190.037 37.504C190.565 37.804 190.955 38.218 191.207 38.746V37.216H192.971V45.262C192.971 46.642 192.617 47.674 191.909 48.358C191.201 49.054 190.169 49.402 188.813 49.402ZM188.669 44.362C189.437 44.362 190.049 44.098 190.505 43.57C190.961 43.042 191.189 42.322 191.189 41.41C191.189 40.498 190.961 39.784 190.505 39.268C190.049 38.74 189.437 38.476 188.669 38.476C187.901 38.476 187.289 38.74 186.833 39.268C186.377 39.784 186.149 40.498 186.149 41.41C186.149 42.322 186.377 43.042 186.833 43.57C187.289 44.098 187.901 44.362 188.669 44.362ZM199.081 46L202.735 41.464L199.315 37.216H201.439L203.797 40.222L206.155 37.216H208.279L204.841 41.482L208.513 46H206.353L203.779 42.76L201.223 46H199.081ZM212.998 46.162C210.874 46.162 209.812 44.98 209.812 42.616V37.216H211.63V42.634C211.63 43.342 211.774 43.864 212.062 44.2C212.35 44.536 212.806 44.704 213.43 44.704C214.114 44.704 214.666 44.476 215.086 44.02C215.518 43.564 215.734 42.952 215.734 42.184V37.216H217.552V46H215.788V44.596C215.5 45.112 215.116 45.502 214.636 45.766C214.156 46.03 213.61 46.162 212.998 46.162ZM222.922 46.162C222.31 46.162 221.764 46.042 221.284 45.802C220.804 45.562 220.42 45.238 220.132 44.83C219.856 44.422 219.718 43.96 219.718 43.444C219.718 42.796 219.88 42.286 220.204 41.914C220.54 41.542 221.086 41.272 221.842 41.104C222.61 40.936 223.642 40.852 224.938 40.852H225.55V40.384C225.55 39.7 225.406 39.208 225.118 38.908C224.83 38.608 224.356 38.458 223.696 38.458C223.192 38.458 222.688 38.536 222.184 38.692C221.68 38.836 221.164 39.07 220.636 39.394L220.078 38.116C220.534 37.792 221.104 37.534 221.788 37.342C222.472 37.15 223.126 37.054 223.75 37.054C224.95 37.054 225.838 37.342 226.414 37.918C226.99 38.482 227.278 39.37 227.278 40.582V46H225.568V44.542C225.352 45.046 225.016 45.442 224.56 45.73C224.104 46.018 223.558 46.162 222.922 46.162ZM223.282 44.866C223.93 44.866 224.47 44.638 224.902 44.182C225.334 43.726 225.55 43.15 225.55 42.454V41.968H224.956C224.08 41.968 223.39 42.01 222.886 42.094C222.394 42.178 222.04 42.322 221.824 42.526C221.62 42.718 221.518 42.988 221.518 43.336C221.518 43.792 221.674 44.164 221.986 44.452C222.298 44.728 222.73 44.866 223.282 44.866ZM225.604 34.174L227.134 31.474H228.754L226.702 34.174H225.604ZM220.978 36.046L222.958 33.13H224.614L226.594 36.046H225.388L223.786 34.192L222.184 36.046H220.978ZM233.526 46.162C232.422 46.162 231.6 45.88 231.06 45.316C230.52 44.752 230.25 43.936 230.25 42.868V38.62H228.54V37.216H230.25V34.57H232.068V37.216H234.786V38.62H232.068V42.724C232.068 43.36 232.2 43.84 232.464 44.164C232.74 44.488 233.184 44.65 233.796 44.65C233.988 44.65 234.174 44.632 234.354 44.596C234.534 44.548 234.714 44.494 234.894 44.434L235.182 45.802C235.002 45.91 234.75 45.994 234.426 46.054C234.114 46.126 233.814 46.162 233.526 46.162Z" fill="white"/>
<path d="M327 35L332.25 40.25L327 45.5" stroke="white" stroke-width="2" stroke-miterlimit="10" stroke-linecap="round" stroke-linejoin="round"/>
<rect x="80.002" y="12.7998" width="16.35" height="54.4" rx="4" fill="white"/>
<path d="M58.9135 12.9269C57.8302 13.018 57 13.9292 57 15.0226V63.1027C57 64.1252 57.7289 64.9959 58.7312 65.168L80.6705 69.076C81.2881 69.1873 81.9158 69.0152 82.3916 68.6204C82.8674 68.2154 83.1408 67.6282 83.1408 67.0106V13.0788C83.1408 12.4814 82.8978 11.9246 82.4625 11.5298C82.0271 11.1248 81.4501 10.9324 80.8527 10.983L58.9135 12.9269ZM77.3902 42.9149C76.4892 42.9149 75.7501 41.6291 75.7501 40.0396C75.7501 38.4501 76.479 37.1643 77.3902 37.1643C78.2913 37.1643 79.0304 38.4501 79.0304 40.0396C79.0202 41.6291 78.2913 42.9149 77.3902 42.9149Z" fill="#F6AA7B"/>
<path d="M97.8513 33.2807H98.3513V32.7807V27.1738L114.161 38.9147L98.3513 50.581V44.9602V44.4602H97.8513H85.0278V33.2807H97.8513Z" fill="#5CBBB8" stroke="white"/>
<path d="M75.7495 40.0398C75.7495 41.6293 76.4785 42.9151 77.3896 42.9151C78.2907 42.9151 79.0298 41.6293 79.0298 40.0398C79.0298 38.4503 78.3008 37.1646 77.3896 37.1646C76.4785 37.1646 75.7495 38.4503 75.7495 40.0398Z" fill="white"/>
<path d="M96.353 30.917V14.4752C96.353 14.0399 96.1808 13.6248 95.8771 13.3211C95.5734 13.0173 95.1482 12.8452 94.7229 12.8452H84.5278V16.1153H93.0828V30.917H96.353Z" fill="#F6AA7B"/>
<path d="M84.5278 63.9634V67.2335H94.7229C95.1482 67.2335 95.5734 67.0614 95.8771 66.7577C96.1808 66.454 96.353 66.0287 96.353 65.6035V46.7319H93.0828V63.9634H84.5278Z" fill="#F6AA7B"/>
</svg>
