<svg width="187" height="169" viewBox="0 0 187 169" fill="none" xmlns="http://www.w3.org/2000/svg">
<ellipse cx="93" cy="153.331" rx="77" ry="15" fill="#EEEEEE"/>
<rect x="39.585" y="20.5425" width="106.721" height="131.204" rx="8.5" fill="white" stroke="#AFAFAF" stroke-width="3"/>
<rect x="45.0254" y="25.9832" width="95.8395" height="120.323" rx="3.5" fill="white" stroke="#AFAFAF" stroke-width="3"/>
<path d="M92.9189 59.0877C89.8641 59.0877 87.3849 56.6085 87.3849 53.5537C87.3849 50.4989 89.8641 48.0196 92.9189 48.0196C95.9737 48.0196 98.453 50.4989 98.453 53.5537C98.453 56.6085 95.9737 59.0877 92.9189 59.0877ZM92.9189 59.0877C98.3202 59.0877 102.947 62.9837 105.116 68.5842C108.503 65.3523 110.628 60.8144 110.628 55.7673C110.628 45.9831 102.703 38.0583 92.9189 38.0583C83.1347 38.0583 75.21 45.9831 75.21 55.7673C75.21 60.8144 77.335 65.3523 80.7219 68.5842C82.8912 62.9837 87.5177 59.0877 92.9189 59.0877Z" stroke="#3BCCBB" stroke-width="2" stroke-miterlimit="10"/>
<path d="M92.9188 59.0878C95.9752 59.0878 98.4529 56.6101 98.4529 53.5537C98.4529 50.4973 95.9752 48.0197 92.9188 48.0197C89.8624 48.0197 87.3848 50.4973 87.3848 53.5537C87.3848 56.6101 89.8624 59.0878 92.9188 59.0878Z" stroke="#3BCCBB" stroke-miterlimit="10"/>
<path d="M105.116 68.5838C102.946 62.9834 98.32 59.0874 92.9187 59.0874C87.5175 59.0874 82.891 62.9834 80.7217 68.5838C83.9093 71.6165 88.1816 73.4759 92.9187 73.4759C97.6559 73.4759 101.95 71.6165 105.116 68.5838Z" stroke="#3BCCBB" stroke-width="2" stroke-miterlimit="10"/>
<rect x="60.7549" y="87.0513" width="64.3817" height="5.4407" fill="#C4C4C4"/>
<rect x="60.7549" y="107" width="64.3817" height="5.4407" fill="#C4C4C4"/>
<rect x="60.7549" y="126.95" width="64.3817" height="5.4407" fill="#C4C4C4"/>
<path d="M158.687 6.12079V10.2013H152.567V16.3221H148.486V10.2013H142.365V6.12079H148.486V0H152.567V6.12079H158.687Z" fill="#3BCCBB"/>
<circle cx="38.0846" cy="5.44081" r="2.72035" fill="#3BCCBB"/>
<circle cx="2.72035" cy="107.001" r="2.72035" fill="#3BCCBB"/>
<circle cx="26.2971" cy="130.577" r="3.62714" fill="#3BCCBB"/>
<circle cx="165.035" cy="27.2035" r="2.72035" fill="#3BCCBB"/>
<path d="M177.894 123.352C177.775 123.043 177.632 122.78 177.488 122.518C178.581 122.237 179.614 121.74 180.465 121.05C181.142 120.479 181.734 119.799 182.16 119.028C183.141 117.251 183.295 115.141 182.581 113.099C181.88 111.034 180.386 109.294 178.366 108.178C175.433 106.558 171.896 106.618 169.377 108.368C169.216 108.463 169.026 108.48 168.888 108.403C168.722 108.312 168.635 108.142 168.657 107.971C168.77 104.891 166.938 101.866 164.004 100.246C162.012 99.1453 159.743 98.8072 157.594 99.298C155.514 99.7959 153.809 101.051 152.828 102.827C152.402 103.599 152.14 104.4 152.017 105.277C151.895 106.216 151.965 107.201 152.226 108.168C152.32 108.586 152.454 108.996 152.615 109.359L158.52 126.195C158.579 126.349 158.678 126.496 158.844 126.588C159.01 126.679 159.215 126.701 159.378 126.668L164.432 125.495C164.498 125.897 164.605 126.292 164.725 126.663C165.334 128.372 166.589 129.828 168.221 130.729C168.249 130.745 168.277 130.76 168.277 130.76C171.748 132.647 175.95 131.643 177.64 128.519C178.492 126.976 178.558 125.091 177.894 123.352ZM168.651 130.082C167.199 129.311 166.1 128.032 165.564 126.517C165.016 125.024 165.132 123.441 165.828 122.117C167.351 119.359 171.012 118.484 174.042 120.126C175.466 120.882 176.536 122.083 177.082 123.514C177.672 125.06 177.586 126.72 176.865 128.091C175.341 130.849 171.68 131.725 168.651 130.082Z" fill="#3BCCBB"/>
<path d="M177.082 123.514C176.536 122.084 175.466 120.883 174.042 120.126C171.013 118.484 167.351 119.359 165.828 122.117C165.132 123.442 165.016 125.025 165.564 126.517C166.1 128.033 167.199 129.311 168.651 130.082C171.68 131.725 175.341 130.85 176.865 128.092C177.586 126.721 177.672 125.06 177.082 123.514ZM172.192 127.463L170.746 130.081L167.454 128.262L168.899 125.644L166.022 124.055L167.622 121.156L170.5 122.746L171.946 120.128L175.239 121.947L173.793 124.565L176.699 126.169L175.098 129.068L172.192 127.463Z" fill="white"/>
<path d="M176.699 126.169L175.098 129.067L172.192 127.463L170.746 130.08L167.454 128.262L168.899 125.644L166.022 124.054L167.622 121.156L170.5 122.745L171.946 120.128L175.239 121.946L173.793 124.564L176.699 126.169Z" fill="#3BCCBB"/>
<path d="M29.236 68.5706C26.4718 65.8436 22.8093 64.3546 18.9394 64.3821C10.9406 64.4371 4.47584 70.9916 4.53458 78.9903C4.5484 80.9229 4.93884 82.8006 5.67135 84.5303C6.4004 86.26 7.47152 87.8488 8.85015 89.2106C11.5867 91.9135 15.2009 93.3991 19.0362 93.3991H19.1467C27.149 93.3441 33.6103 86.7862 33.5516 78.7874C33.5239 74.9222 31.9933 71.2942 29.236 68.5706ZM22.6918 89.3309H15.3874V82.522H8.59101V75.2592H15.3874V68.4537H22.6918V75.2592H29.4882V82.522H22.6918V89.3309Z" fill="#3BCCBB"/>
<path d="M29.489 75.2602V82.523H22.6926V89.332H15.3882V82.523H8.5918V75.2602H15.3882V68.4547H22.6926V75.2602H29.489Z" fill="white"/>
</svg>
