<svg width="277" height="184" viewBox="0 0 277 184" fill="none" xmlns="http://www.w3.org/2000/svg">
<path fill-rule="evenodd" clip-rule="evenodd" d="M74.2557 146.838C129.707 166.427 181.839 202.755 225.998 172.271C270.158 141.788 267.524 69.0603 210.738 39.4427C153.951 9.82498 101.603 20.9722 59.7885 48.5336C30.0966 68.0863 18.8043 127.25 74.2557 146.838Z" fill="#73B0FF" fill-opacity="0.1"/>
<path d="M198.093 154.808C240.587 154.808 275.035 120.377 275.035 77.9038C275.035 35.431 240.587 1 198.093 1C155.599 1 121.151 35.431 121.151 77.9038C121.151 120.377 155.599 154.808 198.093 154.808Z" fill="#F1F7FF" stroke="#6F9BD4" stroke-width="2"/>
<mask id="mask0" mask-type="alpha" maskUnits="userSpaceOnUse" x="121" y="1" width="155" height="154">
<path d="M198.093 154.808C240.587 154.808 275.035 120.377 275.035 77.9038C275.035 35.431 240.587 1 198.093 1C155.599 1 121.151 35.431 121.151 77.9038C121.151 120.377 155.599 154.808 198.093 154.808Z" fill="#F1F7FF"/>
</mask>
<g mask="url(#mask0)">
<path fill-rule="evenodd" clip-rule="evenodd" d="M140.785 36.9315H221.978V154.539H140.785V36.9315Z" fill="#6F9BD4"/>
<path fill-rule="evenodd" clip-rule="evenodd" d="M140.784 84.5845H99.7089V154.539H140.784V84.5845Z" fill="#6F9BD4"/>
<path fill-rule="evenodd" clip-rule="evenodd" d="M252.425 36.9315H221.978V154.539H252.425V36.9315Z" fill="#4F82C2"/>
<path fill-rule="evenodd" clip-rule="evenodd" d="M263.053 84.5845H221.978V154.539H263.053V84.5845Z" fill="#4F82C2"/>
<path d="M235.147 91.6884H230.094V101.838H235.147V91.6884Z" fill="#6F9BD4" fill-opacity="0.8"/>
<path d="M245.296 91.6884H240.244V101.838H245.296V91.6884Z" fill="#6F9BD4" fill-opacity="0.8"/>
<path d="M255.445 91.6884H250.393V101.838H255.445V91.6884Z" fill="#6F9BD4" fill-opacity="0.8"/>
<path d="M235.147 106.89H230.094V117.039H235.147V106.89Z" fill="#6F9BD4" fill-opacity="0.8"/>
<path d="M245.296 106.89H240.244V117.039H245.296V106.89Z" fill="#6F9BD4" fill-opacity="0.8"/>
<path d="M255.445 106.89H250.393V117.039H255.445V106.89Z" fill="#6F9BD4" fill-opacity="0.8"/>
<path d="M235.147 122.092H230.094V132.241H235.147V122.092Z" fill="#6F9BD4" fill-opacity="0.8"/>
<path d="M245.296 122.092H240.244V132.241H245.296V122.092Z" fill="#6F9BD4" fill-opacity="0.8"/>
<path d="M255.445 122.092H250.393V132.241H255.445V122.092Z" fill="#6F9BD4" fill-opacity="0.8"/>
<path d="M235.147 137.338H230.094V147.487H235.147V137.338Z" fill="#6F9BD4" fill-opacity="0.8"/>
<path d="M245.296 137.338H240.244V147.487H245.296V137.338Z" fill="#6F9BD4" fill-opacity="0.8"/>
<path d="M255.445 137.338H250.393V147.487H255.445V137.338Z" fill="#6F9BD4" fill-opacity="0.8"/>
<path fill-rule="evenodd" clip-rule="evenodd" d="M263.053 84.5845H295.025V154.539H263.053V84.5845Z" fill="#4F82C2"/>
<path d="M221.978 36.9315V154.539" stroke="#EEEBFF"/>
<path d="M271.675 91.6884H266.623V101.838H271.675V91.6884Z" fill="#6F9BD4" fill-opacity="0.8"/>
<path d="M271.675 106.89H266.623V117.039H271.675V106.89Z" fill="#6F9BD4" fill-opacity="0.8"/>
<path d="M271.675 122.092H266.623V132.241H271.675V122.092Z" fill="#6F9BD4" fill-opacity="0.8"/>
<path d="M271.675 137.338H266.623V147.487H271.675V137.338Z" fill="#6F9BD4" fill-opacity="0.8"/>
<path d="M237.179 36.9315V84.5845" stroke="#EEEBFF" stroke-opacity="0.1"/>
<path d="M252.425 36.9315V84.5845" stroke="#EEEBFF"/>
<path d="M201.679 36.9315V154.539" stroke="#EEEBFF" stroke-opacity="0.1"/>
<path d="M161.083 36.9315V154.539" stroke="#EEEBFF" stroke-opacity="0.1"/>
<path d="M140.785 145.436H222.239" stroke="white" stroke-opacity="0.1"/>
<path fill-rule="evenodd" clip-rule="evenodd" d="M170.753 132.76H192.053V154.539H170.753V132.76Z" fill="#4F82C2"/>
<path fill-rule="evenodd" clip-rule="evenodd" d="M140.785 36.9315H221.978V54.1807H140.785V36.9315Z" fill="#A9CBF8"/>
<path d="M181.413 54.2758L181.413 154.065" stroke="#EEEBFF" stroke-opacity="0.1"/>
<path d="M140.785 64.3298H252.425" stroke="white" stroke-opacity="0.1"/>
<path d="M140.785 84.5845H252.425" stroke="white" stroke-opacity="0.1"/>
<path d="M140.785 104.883H222.239" stroke="white" stroke-opacity="0.1"/>
<path fill-rule="evenodd" clip-rule="evenodd" d="M160.081 39.9806C162.869 39.9806 165.134 42.2456 165.134 45.0334C165.134 47.8211 162.869 50.0862 160.081 50.0862C157.293 50.0862 155.028 47.8647 155.028 45.0334C155.028 42.2021 157.293 39.9806 160.081 39.9806ZM160.473 42.2021H159.515C159.384 42.2021 159.297 42.2892 159.297 42.4199V44.2929H157.424C157.293 44.2929 157.206 44.38 157.206 44.5107V45.469C157.206 45.5996 157.293 45.6867 157.424 45.6867H159.297V47.5598C159.297 47.6904 159.384 47.7776 159.515 47.7776H160.473C160.604 47.7776 160.691 47.6904 160.691 47.5598V45.6867H162.564C162.694 45.6867 162.782 45.5996 162.782 45.469V44.5107C162.782 44.38 162.694 44.2929 162.564 44.2929H160.691V42.4199C160.691 42.2892 160.604 42.2021 160.473 42.2021Z" fill="#1C4983"/>
<path d="M167.615 47.475V43.2657H168.465V44.9225H170.131V43.2657H170.98V47.475H170.131V45.6345H168.465V47.475H167.615Z" fill="#1C4983"/>
<path d="M171.69 45.3962C171.69 44.9674 171.754 44.6076 171.882 44.3166C171.978 44.1022 172.108 43.9098 172.273 43.7395C172.439 43.5691 172.621 43.4428 172.818 43.3605C173.08 43.2495 173.383 43.1939 173.725 43.1939C174.346 43.1939 174.841 43.3863 175.213 43.7711C175.586 44.1558 175.773 44.6908 175.773 45.3761C175.773 46.0557 175.588 46.5878 175.218 46.9726C174.849 47.3554 174.355 47.5468 173.737 47.5468C173.111 47.5468 172.613 47.3563 172.244 46.9754C171.874 46.5926 171.69 46.0662 171.69 45.3962ZM172.565 45.3675C172.565 45.8441 172.675 46.2059 172.896 46.4528C173.116 46.6979 173.395 46.8204 173.734 46.8204C174.073 46.8204 174.35 46.6988 174.567 46.4557C174.785 46.2107 174.894 45.8441 174.894 45.356C174.894 44.8736 174.788 44.5138 174.575 44.2764C174.365 44.0391 174.084 43.9204 173.734 43.9204C173.384 43.9204 173.101 44.041 172.887 44.2822C172.673 44.5214 172.565 44.8832 172.565 45.3675Z" fill="#1C4983"/>
<path d="M176.223 46.1054L177.05 46.025C177.1 46.3026 177.201 46.5064 177.352 46.6366C177.505 46.7668 177.711 46.8319 177.969 46.8319C178.243 46.8319 178.449 46.7744 178.587 46.6596C178.726 46.5428 178.796 46.4069 178.796 46.2519C178.796 46.1523 178.766 46.0681 178.707 45.9992C178.65 45.9284 178.548 45.8671 178.403 45.8154C178.303 45.781 178.076 45.7197 177.722 45.6317C177.267 45.5187 176.947 45.3799 176.763 45.2153C176.505 44.9837 176.376 44.7014 176.376 44.3683C176.376 44.1539 176.436 43.9539 176.557 43.7682C176.679 43.5806 176.854 43.438 177.082 43.3404C177.312 43.2428 177.588 43.1939 177.912 43.1939C178.44 43.1939 178.837 43.3097 179.103 43.5414C179.371 43.773 179.512 44.0821 179.525 44.4688L178.676 44.5061C178.639 44.2898 178.561 44.1348 178.44 44.041C178.321 43.9453 178.142 43.8974 177.903 43.8974C177.656 43.8974 177.463 43.9481 177.323 44.0496C177.233 44.1147 177.188 44.2018 177.188 44.3109C177.188 44.4104 177.23 44.4956 177.315 44.5664C177.422 44.6564 177.682 44.7502 178.096 44.8478C178.509 44.9454 178.814 45.0469 179.011 45.1522C179.211 45.2555 179.366 45.3981 179.477 45.58C179.59 45.7599 179.646 45.9829 179.646 46.249C179.646 46.4902 179.579 46.716 179.445 46.9266C179.311 47.1372 179.122 47.2941 178.877 47.3975C178.631 47.499 178.326 47.5497 177.961 47.5497C177.428 47.5497 177.02 47.4272 176.735 47.1822C176.449 46.9352 176.279 46.5763 176.223 46.1054Z" fill="#1C4983"/>
<path d="M180.361 47.475V43.2657H181.725C182.242 43.2657 182.579 43.2868 182.736 43.3289C182.977 43.3921 183.179 43.5299 183.341 43.7424C183.504 43.9529 183.585 44.2257 183.585 44.5607C183.585 44.8191 183.539 45.0363 183.445 45.2125C183.351 45.3886 183.231 45.5273 183.086 45.6288C182.942 45.7283 182.796 45.7944 182.647 45.8269C182.444 45.8671 182.15 45.8872 181.765 45.8872H181.211V47.475H180.361ZM181.211 43.9778V45.1723H181.676C182.011 45.1723 182.235 45.1502 182.348 45.1062C182.461 45.0622 182.549 44.9933 182.612 44.8995C182.677 44.8057 182.71 44.6966 182.71 44.5722C182.71 44.419 182.665 44.2927 182.575 44.1931C182.485 44.0936 182.371 44.0314 182.233 44.0065C182.132 43.9874 181.928 43.9778 181.621 43.9778H181.211Z" fill="#1C4983"/>
<path d="M184.257 47.475V43.2657H185.107V47.475H184.257Z" fill="#1C4983"/>
<path d="M186.867 47.475V43.9778H185.618V43.2657H188.963V43.9778H187.717V47.475H186.867Z" fill="#1C4983"/>
<path d="M192.874 47.475H191.949L191.582 46.5189H189.899L189.552 47.475H188.65L190.29 43.2657H191.189L192.874 47.475ZM191.309 45.8097L190.729 44.2477L190.161 45.8097H191.309Z" fill="#1C4983"/>
<path d="M193.351 47.475V43.3002H194.201V46.7658H196.314V47.475H193.351Z" fill="#1C4983"/>
<path d="M140.785 125.137H222.239" stroke="white" stroke-opacity="0.1"/>
<path d="M123.028 91.6884H117.975V101.838H123.028V91.6884Z" fill="#D4CDFF"/>
<path d="M133.177 91.6884H128.125V101.838H133.177V91.6884Z" fill="#D4CDFF"/>
<path d="M123.028 106.89H117.975V117.039H123.028V106.89Z" fill="#D4CDFF"/>
<path d="M133.177 106.89H128.125V117.039H133.177V106.89Z" fill="#D4CDFF"/>
<path d="M123.028 122.092H117.975V132.241H123.028V122.092Z" fill="#D4CDFF"/>
<path d="M133.177 122.092H128.125V132.241H133.177V122.092Z" fill="#D4CDFF"/>
<path d="M123.028 137.338H117.975V147.487H123.028V137.338Z" fill="#D4CDFF"/>
<path d="M133.177 137.338H128.125V147.487H133.177V137.338Z" fill="#D4CDFF"/>
</g>
<path d="M93.4913 21.3389C103.64 23.4152 110.527 32.8481 109.41 43.1779L106.238 72.0911C105.356 80.2028 98.0392 86.0448 89.9774 85.1421C85.1573 84.5991 80.8929 81.7609 78.6105 77.4929L57.5169 38.4037C54.1954 32.3115 56.4905 24.6883 62.5684 21.4024C63.5731 20.8582 64.6412 20.4637 65.7729 20.2187" stroke="#4F82C2" stroke-width="4.4"/>
<path fill-rule="evenodd" clip-rule="evenodd" d="M65.8299 18.1351L73.7801 16.3491C74.2356 16.244 74.6897 16.5514 74.7948 17.0069C74.7805 17.0424 74.816 17.0567 74.8017 17.0923L75.2927 21.0909C75.348 21.5676 75.0194 21.9718 74.5427 22.027C74.5072 22.0127 74.4929 22.0482 74.4574 22.0339L66.2923 22.2047C65.8798 22.2033 65.5111 21.8891 65.4415 21.4479L65.1653 19.0644C65.1312 18.6376 65.4242 18.219 65.8299 18.1351Z" fill="#1C4983"/>
<path fill-rule="evenodd" clip-rule="evenodd" d="M93.4131 19.2832L85.3889 17.7761C84.9341 17.675 84.4779 17.9863 84.4123 18.4555C84.3979 18.491 84.3979 18.491 84.4191 18.5409L84.0852 22.5366C84.0551 23.0201 84.3951 23.4054 84.8287 23.4566C84.8643 23.471 84.8643 23.471 84.9141 23.4498L93.086 23.3644C93.4985 23.3658 93.8837 23.0257 93.935 22.5921L94.1567 20.2033C94.1369 19.7409 93.8324 19.37 93.4131 19.2832Z" fill="#1C4983"/>
<path d="M26.4106 66.7294C31.6262 61.8972 36.2331 58.2647 40.1105 55.8245" stroke="#1C4983" stroke-width="4.4"/>
<path d="M36.2468 50.4292C34.6225 54.4496 36.5649 59.0255 40.5852 60.6499C44.6056 62.2742 49.1816 60.3318 50.8059 56.3114C52.4302 52.291 50.4878 47.7151 46.4675 46.0908C42.4471 44.4664 37.8711 46.4088 36.2468 50.4292Z" fill="#A9CBF8"/>
<path d="M39.9043 51.9069C39.0961 53.9073 40.0626 56.1841 42.063 56.9923C44.0634 57.8005 46.3402 56.8341 47.1484 54.8337C47.9566 52.8333 46.9901 50.5565 44.9897 49.7483C42.9893 48.9401 40.7125 49.9065 39.9043 51.9069Z" fill="#1C4983" stroke="white" stroke-width="2.86"/>
<path d="M94.217 84.8723C103.076 118.358 96.939 134.672 75.7841 133.767C44.0624 132.434 65.5025 112.595 30.0156 103.916C-5.47134 95.2374 28.2515 65.0361 28.2515 65.0361" stroke="#A9CBF8" stroke-width="6.6" stroke-linecap="round"/>
<path d="M71.3259 63.7274L79.6041 78.1009C82.7359 83.5381 89.213 86.1138 95.236 84.2926C101.444 82.4224 105.908 76.9972 106.542 70.5205L107.714 58.5196" stroke="#A9CBF8" stroke-width="6.6" stroke-linecap="round"/>
<path fill-rule="evenodd" clip-rule="evenodd" d="M91.1275 88.7397H178.372C181.551 88.7397 184.117 91.3057 184.117 94.4845C184.117 94.9058 184.079 95.3654 183.964 95.7867L168.759 161.852C168.146 164.456 165.848 166.295 163.167 166.295H75.9229C72.7441 166.295 70.1781 163.729 70.1781 160.55C70.1781 160.129 70.2164 159.669 70.3313 159.248L85.5359 93.1824C86.1104 90.5781 88.4466 88.7397 91.1275 88.7397Z" fill="#3C8A87"/>
<path fill-rule="evenodd" clip-rule="evenodd" d="M179.1 88.7397H91.6254C88.4466 88.7397 85.8806 91.3057 85.8806 94.4845C85.8806 94.7143 85.8806 94.9058 85.9189 95.1356L93.5404 161.66C93.885 164.571 96.3362 166.754 99.2469 166.754H186.721C189.9 166.754 192.466 164.188 192.466 161.009C192.466 160.78 192.466 160.588 192.428 160.358L184.806 93.8335C184.5 90.9228 182.01 88.7397 179.1 88.7397Z" fill="#99E2E0"/>
<mask id="mask1" mask-type="alpha" maskUnits="userSpaceOnUse" x="85" y="88" width="108" height="79">
<path fill-rule="evenodd" clip-rule="evenodd" d="M179.1 88.7397H91.6254C88.4466 88.7397 85.8806 91.3057 85.8806 94.4845C85.8806 94.7143 85.8806 94.9058 85.9189 95.1356L93.5404 161.66C93.885 164.571 96.3362 166.754 99.2469 166.754H186.721C189.9 166.754 192.466 164.188 192.466 161.009C192.466 160.78 192.466 160.588 192.428 160.358L184.806 93.8335C184.5 90.9228 182.01 88.7397 179.1 88.7397Z" fill="#5CBBB8"/>
</mask>
<g mask="url(#mask1)">
<path d="M80.7486 84.7184H188.713V102.106H80.7486V84.7184Z" fill="#6CC2BF"/>
</g>
<path d="M180.019 117.119H96.4128" stroke="white"/>
<path d="M182.7 130.485H99.0554" stroke="white"/>
<path d="M184.002 143.852H100.396" stroke="white"/>
<path d="M166.614 108.502L170.636 157.677" stroke="white"/>
<path d="M148.767 108.502L152.789 157.677" stroke="white"/>
<path d="M130.92 108.502L134.98 157.677" stroke="white"/>
<path d="M113.073 108.502L117.132 157.677" stroke="white"/>
<path fill-rule="evenodd" clip-rule="evenodd" d="M151.494 119.658L152.528 133.024H135.102L133.685 119.658H151.494Z" fill="#3C8A87"/>
<path d="M141.278 127.603L139.564 126.226C139.484 126.161 139.392 126.111 139.293 126.08C139.193 126.049 139.088 126.037 138.983 126.044C138.879 126.052 138.777 126.08 138.683 126.126C138.59 126.171 138.507 126.234 138.44 126.311C138.372 126.387 138.321 126.476 138.29 126.571C138.258 126.666 138.247 126.767 138.256 126.866C138.266 126.966 138.296 127.062 138.345 127.151C138.394 127.239 138.461 127.317 138.542 127.381L140.401 128.872L140.464 128.906C140.828 129.105 141.258 129.163 141.666 129.07C142.074 128.977 142.43 128.739 142.661 128.405L145.142 124.8L146.789 122.406C146.846 122.323 146.886 122.23 146.906 122.132C146.925 122.035 146.924 121.935 146.903 121.838C146.882 121.74 146.841 121.648 146.783 121.566C146.724 121.484 146.65 121.414 146.563 121.359C146.476 121.304 146.378 121.267 146.276 121.248C146.174 121.229 146.069 121.23 145.967 121.25C145.865 121.27 145.768 121.309 145.682 121.365C145.596 121.421 145.522 121.492 145.465 121.575L144.317 123.244L141.334 127.576C141.328 127.584 141.32 127.592 141.31 127.596C141.3 127.601 141.289 127.603 141.278 127.603Z" fill="white"/>
</svg>
