<svg width="302" height="329" viewBox="0 0 302 329" fill="none" xmlns="http://www.w3.org/2000/svg">
<path d="M273.332 328.807H27.8271C12.4586 328.807 0 316.348 0 300.979V91.9424H301.156V300.979C301.16 316.348 288.701 328.807 273.332 328.807Z" fill="#1C4983"/>
<path d="M179.501 181.856V127.046H122.465V181.856H67.209V236.668H122.465V293.703H179.501V236.668H234.313V181.856H179.501Z" fill="white"/>
<path d="M273.332 27.8149H27.8271C12.4586 27.8149 0 40.2735 0 55.642V81.5193H301.156V55.642C301.16 40.2735 288.701 27.8149 273.332 27.8149Z" fill="#5CBBB8"/>
<path d="M195.214 66.0681C201.527 59.7609 201.544 49.5441 195.254 43.2482C188.963 36.9523 178.746 36.9615 172.434 43.2687C166.121 49.576 166.103 59.7928 172.394 66.0887C178.684 72.3845 188.901 72.3754 195.214 66.0681Z" fill="white"/>
<path d="M182.113 60.936C176.918 60.114 173.193 55.4613 173.193 50.2037V10.8683C173.193 5.60732 176.918 0.95796 182.113 0.135938C188.663 -0.903099 194.46 4.15398 194.46 10.5296V50.5424C194.457 56.9213 188.663 61.9751 182.113 60.936Z" fill="#5CBBB8"/>
<path d="M266.401 53.3546C267.187 63.2978 258.95 71.5344 249.004 70.7519C241.181 70.1337 234.842 63.7976 234.227 55.9752C233.444 46.032 241.678 37.7953 251.624 38.5779C259.446 39.1961 265.786 45.5322 266.401 53.3546Z" fill="white"/>
<path d="M249.579 61.0483C244.101 60.6768 239.929 55.9518 239.929 50.4607V10.6156C239.929 5.12449 244.098 0.399509 249.579 0.0279547C255.741 -0.389633 260.703 4.47345 260.703 10.5334V50.5462C260.703 56.6028 255.741 61.4659 249.579 61.0483Z" fill="#5CBBB8"/>
<path d="M66.9321 53.3541C67.7179 63.2973 59.4813 71.5339 49.5348 70.7514C41.7124 70.1332 35.373 63.7971 34.7581 55.9747C33.9755 46.0315 42.2089 37.7949 52.1554 38.5774C59.9745 39.1956 66.3139 45.5317 66.9321 53.3541Z" fill="white"/>
<path d="M49.1301 60.936C43.9349 60.114 40.2095 55.4613 40.2095 50.2037V10.8683C40.2095 5.60732 43.9349 0.95796 49.1301 0.135938C55.6799 -0.903099 61.4769 4.15398 61.4769 10.5296V50.5424C61.4769 56.9213 55.6799 61.9751 49.1301 60.936Z" fill="#5CBBB8"/>
<path d="M133.42 53.357C134.202 63.3002 125.969 71.5369 116.022 70.7543C108.2 70.1361 101.861 63.8 101.246 55.9776C100.46 46.0344 108.697 37.7978 118.643 38.5803C126.465 39.1952 132.805 45.5314 133.42 53.357Z" fill="white"/>
<path d="M116.595 61.0483C111.117 60.6768 106.944 55.9518 106.944 50.4607V10.6156C106.944 5.12449 111.114 0.399509 116.595 0.0279547C122.757 -0.389633 127.718 4.47345 127.718 10.5334V50.5462C127.718 56.6028 122.757 61.4659 116.595 61.0483Z" fill="#5CBBB8"/>
</svg>
