<svg width="358" height="323" viewBox="0 0 358 323" fill="none" xmlns="http://www.w3.org/2000/svg">
<path d="M16.6788 219.761L194.864 219.761C204.075 219.761 211.543 212.294 211.543 203.082L211.543 47.465C211.543 38.2535 204.075 30.786 194.864 30.786L16.6788 30.786C7.46735 30.786 -6.10352e-05 38.2535 -6.10352e-05 47.465L-6.10352e-05 203.082C-6.10352e-05 212.294 7.46735 219.761 16.6788 219.761Z" fill="#75818F"/>
<path d="M15.0108 203.483L199.839 203.483L199.839 18.8592L15.0108 18.8592L15.0108 203.483Z" fill="white"/>
<path d="M199.839 18.8593L15.0108 18.8593C15.0108 16.3826 15.4986 13.9303 16.4464 11.6421C17.3941 9.35403 18.7833 7.275 20.5345 5.52375C22.2858 3.77251 24.3648 2.38334 26.6529 1.43557C28.9411 0.487804 31.3934 -7.62939e-06 33.8701 -7.62939e-06L180.98 -7.62939e-06C183.457 -7.62939e-06 185.909 0.487804 188.197 1.43557C190.485 2.38334 192.564 3.77251 194.315 5.52375C196.067 7.275 197.456 9.35403 198.404 11.6421C199.351 13.9303 199.839 16.3826 199.839 18.8593Z" fill="#99E2E0"/>
<path d="M62.0567 18.8593H58.7302V203.483H62.0567V18.8593Z" fill="#F2F9FF"/>
<path d="M15.0107 156.437V159.763H199.839V156.437H15.0107Z" fill="#F2F9FF"/>
<path d="M15.0107 109.401V112.727L199.839 112.727V109.401L15.0107 109.401Z" fill="#F2F9FF"/>
<path d="M15.0107 62.5692V65.8957L199.839 65.8957V62.5692L15.0107 62.5692Z" fill="#F2F9FF"/>
<path d="M109.093 18.8593H105.767V203.483H109.093V18.8593Z" fill="#F2F9FF"/>
<path d="M156.13 18.8593H152.803V203.483H156.13V18.8593Z" fill="#F2F9FF"/>
<path d="M199.531 159C199.531 159 199.531 179.229 194.76 196.383L184.65 202.71H149C155.774 184.689 155.821 159 155.821 159H199.531Z" fill="#396C61"/>
<path d="M184.959 203.483V197.016H195.069L184.959 203.483Z" fill="#6CC2BF"/>
<path d="M152.803 112.727C152.803 112.727 152.803 132.965 148.032 150.12L137.923 156.446H102.273C109.047 138.426 109.084 112.727 109.084 112.727H152.803Z" fill="#396C61"/>
<path d="M152.803 18.8593C152.803 18.8593 152.803 39.0976 148.032 56.2517L137.923 62.6065H102.273C109.047 44.5858 109.084 18.8872 109.084 18.8872L152.803 18.8593Z" fill="#396C61"/>
<path d="M139 62.5785V56.1026H149.11L139 62.5785Z" fill="#6CC2BF"/>
<path d="M58.73 159.773C58.73 159.773 58.73 180.002 53.95 197.156L43.8402 203.483H8.19946C14.9735 185.462 15.0108 159.773 15.0108 159.773H58.73Z" fill="#F0F0F0"/>
<path d="M43.8402 203.483V197.016H53.9501L43.8402 203.483Z" fill="#C9C9C9"/>
<path d="M35.3797 189.674C35.1103 189.674 34.852 189.567 34.6615 189.376C34.471 189.186 34.364 188.927 34.364 188.658V174.597C34.364 174.328 34.471 174.07 34.6615 173.879C34.852 173.689 35.1103 173.582 35.3797 173.582C35.649 173.582 35.9074 173.689 36.0978 173.879C36.2883 174.07 36.3953 174.328 36.3953 174.597V188.658C36.3953 188.927 36.2883 189.186 36.0978 189.376C35.9074 189.567 35.649 189.674 35.3797 189.674Z" fill="#A3A3A3"/>
<path d="M42.4054 182.648H28.3541C28.1003 182.624 27.8647 182.506 27.6932 182.317C27.5218 182.128 27.4268 181.883 27.4268 181.628C27.4268 181.373 27.5218 181.127 27.6932 180.938C27.8647 180.75 28.1003 180.632 28.3541 180.607H42.4054C42.6592 180.632 42.8948 180.75 43.0663 180.938C43.2377 181.127 43.3327 181.373 43.3327 181.628C43.3327 181.883 43.2377 182.128 43.0663 182.317C42.8948 182.506 42.6592 182.624 42.4054 182.648Z" fill="#A3A3A3"/>
<path d="M105.767 65.8957C105.767 65.8957 105.767 86.134 100.996 103.288L90.8861 109.615H55.2361C62.0101 91.5943 62.0474 65.8957 62.0474 65.8957H105.767Z" fill="#F0F0F0"/>
<path d="M90.8766 109.615V103.139H100.996L90.8766 109.615Z" fill="#C9C9C9"/>
<path d="M82.4162 95.7965C82.1468 95.7965 81.8885 95.6895 81.698 95.4991C81.5075 95.3086 81.4005 95.0503 81.4005 94.7809V80.7296C81.4005 80.4602 81.5075 80.2019 81.698 80.0114C81.8885 79.821 82.1468 79.714 82.4162 79.714C82.6855 79.714 82.9439 79.821 83.1343 80.0114C83.3248 80.2019 83.4318 80.4602 83.4318 80.7296V94.7809C83.4318 94.9143 83.4055 95.0463 83.3545 95.1695C83.3034 95.2928 83.2286 95.4047 83.1343 95.4991C83.04 95.5934 82.9281 95.6682 82.8048 95.7192C82.6816 95.7703 82.5495 95.7965 82.4162 95.7965Z" fill="#A3A3A3"/>
<path d="M89.4417 88.7709H75.3904C75.121 88.7709 74.8627 88.6639 74.6722 88.4734C74.4818 88.283 74.3748 88.0246 74.3748 87.7553C74.3748 87.4859 74.4818 87.2276 74.6722 87.0371C74.8627 86.8466 75.121 86.7396 75.3904 86.7396H89.4417C89.711 86.7396 89.9694 86.8466 90.1599 87.0371C90.3503 87.2276 90.4573 87.4859 90.4573 87.7553C90.4573 88.0246 90.3503 88.283 90.1599 88.4734C89.9694 88.6639 89.711 88.7709 89.4417 88.7709Z" fill="#A3A3A3"/>
<path d="M199.839 112.727C199.839 112.727 199.839 132.965 195.069 150.12L184.959 156.446H149.309C156.083 138.426 156.129 112.727 156.129 112.727H199.839Z" fill="#F0F0F0"/>
<path d="M184.959 156.446V149.97H195.069L184.959 156.446Z" fill="#C9C9C9"/>
<path d="M175.632 140.121L169.286 134.587C169.092 134.356 168.987 134.063 168.991 133.761C168.995 133.46 169.107 133.169 169.307 132.944C169.507 132.718 169.781 132.571 170.08 132.531C170.379 132.49 170.683 132.559 170.935 132.723L175.427 136.637L181.828 129.499C182.049 129.252 182.359 129.103 182.69 129.085C183.022 129.066 183.346 129.18 183.594 129.401C183.841 129.622 183.99 129.933 184.008 130.264C184.027 130.595 183.913 130.92 183.691 131.167L175.632 140.121Z" fill="#A3A3A3"/>
<path d="M191.695 107.872L191.593 107.779H191.928H191.863L191.695 107.872Z" fill="#757B80"/>
<path d="M175.688 107.667V106.335C175.719 106.347 175.748 106.366 175.771 106.391C175.851 106.485 175.909 106.596 175.943 106.714C175.977 106.833 175.985 106.958 175.967 107.08V107.136C175.939 107.34 175.84 107.528 175.688 107.667Z" fill="#757B80"/>
<g clip-path="url(#clip0)">
<path d="M212.469 278.589L207.459 316.165H256.073L251.442 281.974C251.442 281.99 229.746 257.837 212.469 278.589Z" fill="#D1D6E0"/>
<path d="M237.186 88.6793C237.186 88.6793 236.004 81.7618 221.288 83.1981C206.573 84.6344 204.668 85.8231 199.691 93.9293C194.715 102.036 191.857 104.165 191.151 112.882C190.445 121.599 194.469 121.847 193.286 126.371C192.104 130.911 191.381 138.654 203.485 144.432C202.303 151.416 202.779 151.416 188.54 153.314C174.3 155.229 164.331 158.796 164.101 167.149C163.872 175.503 169.8 176.923 162.443 180.984C155.085 185.046 145.116 188.381 143.687 198.633C142.258 208.886 147.727 219.155 162.196 217.008C166.466 226.072 178.094 227.508 196.374 222.968C214.653 218.428 228.186 152.588 228.186 152.588C228.186 152.588 239.288 149.253 249.389 140.189C259.489 131.125 259.719 112.04 256.172 103.208C252.624 94.4081 241.933 86.533 237.186 88.6793Z" fill="#7C3515"/>
<path d="M254.891 98.1228C252.92 97.5945 250.834 97.6275 248.797 97.4294C242.113 96.7855 235.971 93.6156 230.025 90.5118L234.69 94.0779C229.877 90.5118 224.031 87.9528 218.069 88.4151C212.107 88.8774 206.195 92.9553 204.914 98.8327C204.421 101.061 204.585 103.472 203.633 105.536C202.926 107.054 201.678 108.26 200.726 109.63C196.324 115.953 198.771 124.901 203.271 131.142C206.178 135.17 210.071 139.743 208.461 144.449C208.018 145.72 207.18 146.958 207.394 148.279C207.837 151.086 211.894 151.02 214.604 150.194C215.507 151.795 213.487 153.413 211.795 154.107C202.959 157.673 193.631 160.001 184.154 161.024C179.014 161.586 173.167 162.097 170.047 166.241C166.68 170.732 168.322 177.253 171.245 182.041C172.756 184.517 174.645 187.456 173.381 190.081C172.904 191.055 172.067 191.782 171.18 192.376C167.123 195.15 162.065 195.827 157.318 197.098C152.588 198.386 147.612 200.73 145.641 205.237C143.851 209.331 145.132 214.35 148.088 217.702C151.045 221.037 155.413 222.869 159.798 223.563C162.328 223.959 165.103 224.107 167.057 225.775C168.322 226.848 169.094 228.45 170.424 229.424C172.1 230.629 174.333 230.645 176.386 230.596C182.364 230.431 188.326 230.15 194.288 229.721C199.018 229.391 203.83 228.945 208.166 227.03C213.98 224.471 218.447 219.419 221.37 213.772C224.293 208.11 225.821 201.836 227.036 195.579C228.843 186.218 230.025 176.741 230.534 167.215C230.682 164.491 230.781 161.718 231.668 159.142C233.507 153.81 238.418 150.194 243.296 147.42C248.19 144.647 253.478 142.269 257.239 138.076C260.951 133.916 262.774 128.401 263.923 122.937C264.925 118.165 265.5 113.163 264.236 108.458C262.971 103.769 259.571 99.394 254.891 98.1228Z" fill="#511B0B"/>
<path d="M224.671 159.423L212.469 169.081C212.469 169.081 208.067 207.367 207.509 220.607C206.95 233.848 211.237 278.936 212.469 278.573C213.7 278.209 241.555 274.28 249.52 281.429C257.486 288.594 250.719 220.409 250.719 220.409L253.396 163.682L224.671 159.423Z" fill="#61B3E6"/>
<path d="M203.501 144.449C195.552 151.779 227.184 157.178 227.184 157.178C227.184 157.178 232.193 158.234 228.186 152.621C220.73 154.173 203.501 144.449 203.501 144.449Z" fill="#F6AA7B"/>
<path d="M234.394 110.819C234.23 110.687 234.066 110.555 233.885 110.406C234.016 110.538 234.181 110.687 234.394 110.819Z" fill="#FFAEAE"/>
<path d="M243.608 128.121C242.54 129.557 245.036 119.354 243.246 115.59C241.473 111.826 239.338 110.406 239.338 110.406L240.405 112.668C240.405 112.668 236.151 111.908 234.394 110.802C238.122 113.79 237.777 114.451 237.432 114.451C237.071 114.451 227.874 114.682 224.031 110.522C220.188 106.345 219.169 103.01 219.169 103.01C219.169 103.01 212.042 112.321 207.295 113.51L208.363 110.769C208.363 110.769 203.978 117.092 199.823 113.279C199.823 113.279 201.777 125.974 201.958 131.885C202.138 137.795 210.317 155.329 222.421 152.274C222.421 160.331 219.925 163.187 217.609 164.623C215.293 166.06 214.587 180.555 223.834 182.52C233.097 184.484 241.095 176.791 243.772 170.352C246.449 163.914 247.336 162.114 247.336 162.114C247.336 162.114 241.817 157.64 242.179 154.057C242.54 150.475 242.179 139.199 242.179 139.199C242.179 139.199 250.193 135.434 249.471 130.795C248.781 126.156 244.675 126.684 243.608 128.121Z" fill="#FFC1A3"/>
<mask id="mask0" mask-type="alpha" maskUnits="userSpaceOnUse" x="199" y="103" width="51" height="80">
<path d="M243.608 128.121C242.54 129.557 245.036 119.354 243.246 115.59C241.473 111.826 239.337 110.406 239.337 110.406L240.405 112.668C240.405 112.668 236.151 111.908 234.394 110.802C238.122 113.79 237.777 114.451 237.432 114.451C237.071 114.451 227.874 114.682 224.031 110.521C220.188 106.345 219.169 103.01 219.169 103.01C219.169 103.01 212.042 112.321 207.295 113.51L208.363 110.769C208.363 110.769 203.978 117.092 199.823 113.279C199.823 113.279 201.777 125.974 201.958 131.885C202.138 137.795 210.317 155.329 222.421 152.274C222.421 160.331 219.925 163.187 217.609 164.623C215.293 166.06 214.587 180.555 223.834 182.52C233.097 184.484 241.095 176.791 243.772 170.352C246.449 163.914 247.336 162.114 247.336 162.114C247.336 162.114 241.817 157.64 242.179 154.057C242.54 150.475 242.179 139.199 242.179 139.199C242.179 139.199 250.193 135.434 249.471 130.795C248.781 126.156 244.675 126.684 243.608 128.121Z" fill="#FFC1A3"/>
</mask>
<g mask="url(#mask0)">
<path d="M221.715 152.505L221.994 153.083C221.025 154.619 219.564 155.774 218.283 157.062C211.582 163.798 234.18 162.114 232.62 144.333C229.516 147.701 225.804 150.475 221.715 152.505Z" fill="#E07C69" fill-opacity="0.5"/>
<path opacity="0.3" d="M232.834 125.413C230.337 125.413 228.317 127.444 228.317 129.953C228.317 132.463 230.337 134.493 232.834 134.493C235.33 134.493 237.35 132.463 237.35 129.953C237.367 127.444 235.33 125.413 232.834 125.413Z" fill="#FE6A58"/>
<path opacity="0.3" d="M203.419 126.453C200.923 126.453 198.903 128.484 198.903 130.993C198.903 133.503 200.923 135.534 203.419 135.534C205.916 135.534 207.936 133.503 207.936 130.993C207.936 128.5 205.916 126.453 203.419 126.453Z" fill="#FE6A58"/>
</g>
<path d="M225.936 114.698H234C230.091 110.522 225.936 114.698 225.936 114.698Z" fill="#8E1E00"/>
<path d="M205.981 115.739L213.766 113.592C208.888 110.604 205.981 115.739 205.981 115.739Z" fill="#8E1E00"/>
<path d="M215.146 133.387C215.129 133.371 212.879 131.934 212.797 130.465C212.781 129.937 213.027 129.475 213.602 129.045C214.834 128.104 215.408 126.651 215.277 124.852C215.179 123.531 214.735 122.491 214.719 122.441C214.653 122.276 214.456 122.194 214.292 122.276C214.127 122.342 214.045 122.541 214.127 122.706C214.144 122.739 215.753 126.552 213.208 128.517C212.469 129.078 212.124 129.755 212.157 130.498C212.239 132.314 214.702 133.883 214.801 133.949C214.85 133.982 214.916 133.998 214.981 133.998C215.096 133.998 215.195 133.949 215.261 133.85C215.343 133.684 215.293 133.486 215.146 133.387Z" fill="#8E1E00"/>
<path d="M213.717 138.076C213.717 138.076 215.129 143.078 217.626 143.986C217.806 144.052 218.02 144.102 218.233 144.152C220.023 144.465 222.569 143.706 223.998 141.477C224.671 140.437 225.098 139.083 225.098 137.366C219.991 139.512 213.717 138.076 213.717 138.076Z" fill="#8E1E00"/>
<path d="M217.987 143.26C217.987 143.574 218.069 143.871 218.217 144.152C220.007 144.465 222.553 143.706 223.982 141.477C223.341 141.048 222.487 140.8 221.534 140.8C219.58 140.784 217.987 141.89 217.987 143.26Z" fill="white"/>
<path d="M230.321 116.96C229.221 116.96 228.317 118.215 228.317 119.767C228.317 121.319 229.221 122.574 230.321 122.574C231.421 122.574 232.325 121.319 232.325 119.767C232.325 118.215 231.421 116.96 230.321 116.96Z" fill="#8E1E00"/>
<path d="M209.512 117.918C208.412 117.918 207.509 119.173 207.509 120.724C207.509 122.276 208.412 123.531 209.512 123.531C210.613 123.531 211.516 122.276 211.516 120.724C211.516 119.173 210.613 117.918 209.512 117.918Z" fill="#8E1E00"/>
<path d="M265.336 166.951C257.502 163.369 247.352 162.114 247.352 162.114C247.352 162.114 242.54 177.683 240.766 191.996C238.993 206.31 238.631 225.99 240.766 243.523C242.901 261.056 241.965 279.662 243.328 287.537C244.692 295.412 245.037 316.165 245.037 316.165H294.882C294.882 316.165 309.827 289.684 310.55 275.37C311.256 261.056 300.942 198.435 296.311 190.197C291.679 181.975 273.154 170.517 265.336 166.951Z" fill="#D7E3F5"/>
<mask id="mask1" mask-type="alpha" maskUnits="userSpaceOnUse" x="239" y="162" width="72" height="155">
<path d="M265.336 166.951C257.502 163.369 247.352 162.114 247.352 162.114C247.352 162.114 242.54 177.683 240.767 191.996C238.993 206.31 238.631 225.99 240.767 243.523C242.902 261.056 241.965 279.662 243.329 287.537C244.692 295.413 245.037 316.165 245.037 316.165H294.882C294.882 316.165 309.827 289.684 310.55 275.37C311.256 261.056 300.942 198.435 296.311 190.197C291.679 181.975 273.154 170.517 265.336 166.951Z" fill="#D7E3F5"/>
</mask>
<g mask="url(#mask1)">
<path d="M242.639 162.114C242.491 164.805 232.259 199.211 231.766 201.423C231.29 203.619 240.865 287.141 240.865 287.141C240.865 287.141 246.925 250.556 249.52 234.195C252.115 217.834 263.185 195.926 263.185 195.926L254.874 190.015L264.154 189.256L271.495 163.748L244.363 157.244C244.38 157.244 242.787 159.423 242.639 162.114Z" fill="#7AC7EF"/>
<path d="M257.896 288.561L257.568 288.462C256.385 292.688 255.203 296.915 254.02 301.141C253.955 301.389 253.889 301.637 253.922 301.884C254.004 302.363 254.464 302.677 254.891 302.924C263.694 308.158 271.725 314.712 278.639 322.274C281.94 319.583 285.521 317.238 289.298 315.29C280.676 304.46 269.951 295.33 257.896 288.561Z" fill="#B4CFEF"/>
<path d="M276.57 240.138C275.946 236.16 275.042 232.23 273.515 228.483C273.285 227.905 272.333 228.152 272.563 228.747C275.207 235.235 275.962 242.285 276.75 249.202C277.49 255.674 278.048 262.657 275.387 268.783C273.926 272.167 271.462 275.007 270.05 278.424C269.803 279.018 270.756 279.266 271.002 278.688C272.3 275.535 274.566 272.893 276.011 269.806C277.375 266.884 278.048 263.698 278.261 260.495C278.491 257.11 278.245 253.726 277.884 250.358C277.506 246.957 277.112 243.539 276.57 240.138Z" fill="#61B3E6"/>
<path d="M265.599 293.695C263.48 292.292 261.263 291.021 258.997 289.865C258.438 289.585 257.929 290.427 258.504 290.724C268.572 295.809 277.227 303.502 283.435 312.962C283.78 313.49 284.634 312.995 284.289 312.467C279.395 305.005 273.022 298.599 265.599 293.695Z" fill="#61B3E6"/>
</g>
<path d="M215.983 294.339C216.115 282.535 213.717 265.002 211.516 247.105C209.315 229.209 211.221 230.282 211.516 215.258C211.812 200.235 214.965 167.116 214.965 167.116C214.965 167.116 191.989 179.119 186.29 188.414C180.591 197.725 177.749 220.261 174.892 239.148C172.05 258.018 171.328 316.182 171.328 316.182H215.967C215.983 316.165 215.852 306.144 215.983 294.339Z" fill="#D7E3F5"/>
<mask id="mask2" mask-type="alpha" maskUnits="userSpaceOnUse" x="171" y="167" width="45" height="150">
<path d="M215.983 294.339C216.115 282.535 213.717 265.002 211.516 247.105C209.315 229.209 211.22 230.282 211.516 215.258C211.812 200.235 214.965 167.116 214.965 167.116C214.965 167.116 191.988 179.119 186.289 188.414C180.591 197.725 177.749 220.261 174.892 239.148C172.05 258.018 171.328 316.181 171.328 316.181H215.967C215.983 316.165 215.852 306.144 215.983 294.339Z" fill="#D7E3F5"/>
</mask>
<g mask="url(#mask2)">
<path d="M199.823 195.926L207.459 191.963L199.823 201.423C199.823 201.423 195.75 224.008 207.459 249.962C219.169 275.915 219.416 289.882 219.416 289.882V160.562L196.505 173.539L199.823 195.926Z" fill="#7ECAF1"/>
<path d="M190.707 242.912C190.083 239.858 190.724 236.704 191.217 233.634C192.498 225.725 192.711 217.14 188.704 210.206L188.457 211.098C188.819 216.992 188.523 222.919 187.603 228.73C186.881 233.336 185.748 237.976 186.289 242.615C187.012 248.839 190.625 254.254 193.697 259.702C198.082 267.495 201.531 275.799 203.945 284.417C202.253 273.108 200.479 261.502 194.83 251.563C193.269 248.789 191.348 246.065 190.707 242.912Z" fill="#61B3E6"/>
</g>
<path d="M235.56 289.898C233.704 289.667 232.029 290.988 231.799 292.837C231.569 294.703 232.883 296.387 234.723 296.618C236.578 296.849 238.254 295.528 238.484 293.679C238.73 291.83 237.416 290.129 235.56 289.898Z" fill="#61B3E6"/>
<path d="M233.294 302.512C231.438 302.28 229.763 303.601 229.533 305.45C229.303 307.316 230.617 309 232.456 309.231C234.312 309.462 235.987 308.141 236.217 306.292C236.447 304.443 235.133 302.759 233.294 302.512Z" fill="#61B3E6"/>
<path d="M254.135 224.141L252.936 223.497C252.509 223.266 252.23 222.836 252.197 222.358L250.374 201.423H247.878L250.177 224.685C250.226 225.197 250.538 225.626 250.998 225.841L252.871 226.7C253.675 227.079 254.628 226.617 254.841 225.758C255.006 225.131 254.71 224.454 254.135 224.141Z" fill="white"/>
<path d="M257.765 225.082L254.579 224.157C254.201 224.042 253.807 224.273 253.692 224.652L253.232 226.254C253.117 226.634 253.347 227.03 253.725 227.145L256.911 228.07C257.288 228.185 257.683 227.954 257.798 227.575L258.257 225.973C258.356 225.593 258.142 225.197 257.765 225.082Z" fill="white"/>
<path d="M264.63 200.218L262.166 200.631L263.792 221.598C263.825 222.077 263.628 222.539 263.25 222.836L262.183 223.678C261.657 224.091 261.493 224.784 261.756 225.395C262.117 226.204 263.119 226.501 263.858 225.99L265.55 224.834C265.96 224.553 266.206 224.058 266.174 223.546L264.63 200.218Z" fill="white"/>
<path d="M262.708 224.091C262.544 223.744 262.117 223.579 261.756 223.761L258.767 225.214C258.422 225.379 258.257 225.808 258.438 226.171L259.161 227.674C259.325 228.02 259.752 228.185 260.113 228.004L263.102 226.551C263.447 226.386 263.612 225.957 263.431 225.593L262.708 224.091Z" fill="white"/>
<path d="M255.81 174.463L253.626 162.246C253.462 161.355 252.756 160.661 251.852 160.595C251.836 160.595 251.819 160.595 251.803 160.595C250.571 160.513 249.569 161.586 249.701 162.824L250.916 175.206C250.916 175.206 247.04 178.343 246.318 180.308C245.611 182.272 247.434 203.834 247.434 203.834H250.998C250.998 203.834 249.668 183.709 251.261 181.942C252.87 180.175 258.06 179.845 258.832 183.973C259.555 187.803 261.411 203.289 261.411 203.124H265.32C265.32 203.305 264.433 182.553 261.756 178.97C259.095 175.355 255.81 174.463 255.81 174.463Z" fill="#61B3E6"/>
<mask id="mask3" mask-type="alpha" maskUnits="userSpaceOnUse" x="246" y="160" width="20" height="44">
<path d="M249.701 162.791L250.916 175.173C250.916 175.173 247.04 178.31 246.318 180.275C245.611 182.239 247.434 203.801 247.434 203.801H250.998C250.998 203.801 249.668 183.676 251.261 181.909C252.87 180.142 258.06 179.812 258.832 183.94C259.555 187.77 261.411 203.256 261.411 203.091H265.32C265.303 202.909 264.4 182.487 261.756 178.937C259.079 175.355 255.794 174.463 255.794 174.463L253.61 162.246C253.445 161.355 252.739 160.661 251.836 160.595C251.819 160.595 251.803 160.595 251.787 160.595C251.737 160.595 251.688 160.595 251.639 160.595C250.505 160.562 249.586 161.619 249.701 162.791Z" fill="#18386A"/>
</mask>
<g mask="url(#mask3)">
<path d="M249.274 158.614C247.927 159.192 247.106 160.612 246.827 162.048C246.547 163.484 246.695 164.97 246.777 166.439C247.352 176.345 244.478 186.152 244.265 196.091C244.199 199.442 244.445 202.876 245.825 205.914C245.989 206.294 246.203 206.673 246.531 206.888C247.303 207.383 248.387 206.789 248.732 205.947C249.077 205.105 248.929 204.147 248.765 203.239C247.796 197.593 247.286 191.864 247.221 186.135C247.188 183.51 247.401 180.555 249.339 178.805C250.111 178.112 251.113 177.649 251.754 176.824C252.969 175.256 252.493 173.01 251.984 171.095C251.146 167.925 250.423 164.623 250.883 161.371C250.982 160.645 251.179 159.869 251.754 159.423C251.918 159.291 252.115 159.225 252.329 159.192C251.606 158.416 250.308 158.168 249.274 158.614Z" fill="#18386A"/>
</g>
<path d="M205.374 170.517C205.144 170.782 205.012 171.128 204.98 171.475C204.782 173.258 204.076 179.763 203.156 186.268C202.089 193.895 201.974 199.508 201.974 199.508H204.47L207.509 171.557C207.558 171.046 207.41 170.501 207.049 170.138C206.671 169.774 206.113 169.609 205.374 170.517Z" fill="#18386A"/>
<path d="M204.257 197.461C201.728 197.114 199.281 199.723 198.804 203.272C198.328 206.838 199.987 209.992 202.516 210.339C205.045 210.685 207.492 208.077 207.969 204.527C208.461 200.961 206.786 197.808 204.257 197.461Z" fill="#005CA9"/>
<path d="M201.416 197.263C198.886 196.916 196.439 199.525 195.963 203.074C195.487 206.64 197.145 209.794 199.675 210.14C202.204 210.487 204.651 207.879 205.127 204.329C205.604 200.779 203.945 197.61 201.416 197.263Z" fill="#18386A"/>
<path d="M199.198 197.263C196.669 196.916 194.222 199.525 193.746 203.074C193.27 206.64 194.928 209.794 197.458 210.14C199.987 210.487 202.434 207.879 202.91 204.329C203.403 200.779 201.744 197.61 199.198 197.263Z" fill="white"/>
<path d="M137.889 247.997L150.7 316.165H210.678L197.162 246.379C197.162 246.379 138.415 247.815 137.889 247.997Z" fill="#D87979"/>
<mask id="mask4" mask-type="alpha" maskUnits="userSpaceOnUse" x="137" y="246" width="74" height="71">
<path d="M137.89 247.997L150.7 316.165H210.679L197.162 246.379C197.162 246.379 138.415 247.815 137.89 247.997Z" fill="#D87979"/>
</mask>
<g mask="url(#mask4)">
<path d="M134.95 241.641V249.995H193.927L210.679 321.481L217.297 318.344L199.593 237.794L134.95 241.641Z" fill="#C65959"/>
</g>
<path d="M177.273 241.641H156.399V245.19H153.081V248.773H180.607V245.207H177.996L177.273 241.641Z" fill="#FFC1A3"/>
<path d="M159.519 293.811C157.581 293.365 155.446 293.167 155.446 293.167C155.446 293.167 157.335 293.563 159.519 293.811Z" fill="#FFC1A3"/>
<path d="M160.866 289.353C159.503 288.825 158.419 288.478 158.419 288.478C158.419 288.478 159.503 288.99 160.866 289.353Z" fill="#FFC1A3"/>
<path d="M305.571 104.153H290.018C284.516 104.153 280 108.677 280 114.224V148.102C280 153.765 283.662 157.232 288.754 159.494C291.02 160.501 293.484 160.996 295.964 160.996H299.363C302.024 160.996 304.652 160.451 307.066 159.362C312.19 157.034 315.573 153.748 315.573 148.118V114.241C315.59 108.677 311.09 104.153 305.571 104.153Z" fill="#6A8DB7"/>
<mask id="mask5" mask-type="alpha" maskUnits="userSpaceOnUse" x="280" y="104" width="36" height="57">
<path d="M305.571 104.153H290.018C284.516 104.153 280 108.677 280 114.224V148.102C280 153.765 283.662 157.232 288.754 159.494C291.02 160.501 293.484 160.996 295.964 160.996H299.363C302.024 160.996 304.652 160.451 307.066 159.362C312.19 157.034 315.573 153.748 315.573 148.119V114.241C315.59 108.677 311.09 104.153 305.571 104.153Z" fill="#6A8DB7"/>
</mask>
<g mask="url(#mask5)">
<path d="M318.595 99.2005C316.263 96.8562 313.093 95.2052 309.809 95.2878L303.486 101.116C302.73 114.257 308.166 127.779 304.323 140.375C303.568 142.868 302.435 145.279 300.644 147.161C297.721 150.232 293.402 151.519 289.214 152.13C285.026 152.741 280.739 152.807 276.666 153.996C275.27 154.409 273.743 155.135 273.398 156.555C273.119 157.711 273.743 158.883 274.449 159.84C277.077 163.423 280.969 165.883 285.042 167.633C291.907 170.588 299.659 171.694 306.967 170.159C314.276 168.623 321.092 164.314 325.148 158.008C328.942 152.097 330.141 144.85 330.223 137.8C330.338 127.415 328.17 116.998 323.9 107.521C322.521 104.517 320.927 101.545 318.595 99.2005Z" fill="#305284"/>
</g>
<path d="M308.051 118.484C303.683 119.161 296.013 119.805 286.274 118.352C284.155 118.038 282.25 119.672 282.25 121.835V138.609C282.25 139.996 283.071 141.267 284.336 141.828C288.294 143.562 297.606 146.368 309.825 141.696C311.188 141.168 312.092 139.864 312.092 138.394V121.951C312.092 119.805 310.17 118.17 308.051 118.484Z" fill="white"/>
<path d="M339.223 155.416L334.033 154.31L329.303 153.302C328.909 153.22 328.515 153.203 328.137 153.269C326.823 153.468 325.707 154.458 325.411 155.845C325.033 157.611 326.167 159.378 327.924 159.758L332.917 160.831L337.844 161.887C338.238 161.97 338.632 161.987 339.01 161.92C340.324 161.722 341.441 160.732 341.736 159.345C342.114 157.545 340.981 155.795 339.223 155.416Z" fill="white"/>
<path d="M339.223 155.416L334.033 154.31C334.083 154.475 335.446 158.354 332.917 160.798L337.844 161.854C338.238 161.937 338.632 161.954 339.01 161.887C340.324 161.689 341.44 160.699 341.736 159.312C342.114 157.545 340.98 155.795 339.223 155.416Z" fill="#D87979"/>
<path d="M329.468 157.446L324.36 158.85L319.696 160.137C319.302 160.237 318.957 160.418 318.645 160.649C317.561 161.425 317.019 162.829 317.396 164.199C317.873 165.949 319.679 166.989 321.42 166.51L326.331 165.156L331.192 163.819C331.57 163.72 331.931 163.538 332.243 163.307C333.327 162.531 333.869 161.128 333.492 159.758C333.032 158.008 331.209 156.968 329.468 157.446Z" fill="#D87979"/>
<path d="M329.468 157.446L324.36 158.85C324.491 158.965 327.48 161.788 326.331 165.14L331.192 163.803C331.57 163.704 331.931 163.522 332.243 163.291C333.327 162.515 333.869 161.112 333.491 159.741C333.032 158.008 331.209 156.968 329.468 157.446Z" fill="white"/>
<path d="M318.776 151.156L313.668 152.56L309.004 153.847C308.61 153.946 308.265 154.128 307.953 154.359C306.869 155.135 306.327 156.538 306.705 157.909C307.181 159.659 308.987 160.699 310.728 160.22L315.639 158.866L320.5 157.529C320.878 157.43 321.239 157.248 321.552 157.017C322.635 156.241 323.177 154.838 322.8 153.468C322.34 151.718 320.517 150.678 318.776 151.156Z" fill="white"/>
<path d="M318.776 151.156L313.668 152.56C313.8 152.675 316.789 155.498 315.639 158.85L320.501 157.512C320.878 157.413 321.24 157.232 321.552 157.001C322.636 156.225 323.178 154.821 322.8 153.451C322.34 151.718 320.517 150.677 318.776 151.156Z" fill="#D87979"/>
<path d="M298.362 125.071H292.794V129.545H288.327V135.158H292.794V139.633H298.362V135.158H302.829V129.545H298.362V125.071Z" fill="#D87979"/>
<path d="M287.144 105.986C287.144 105.986 297.376 111.764 308.577 105.986V95.9151H287.144V105.986Z" fill="white"/>
<path d="M297.869 94C291.956 94 287.144 94.8585 287.144 95.8986C287.144 96.9552 291.94 97.7972 297.869 97.7972C303.781 97.7972 308.593 96.9387 308.593 95.8986C308.593 94.8585 303.781 94 297.869 94Z" fill="#305284"/>
<mask id="mask6" mask-type="alpha" maskUnits="userSpaceOnUse" x="287" y="95" width="22" height="14">
<path d="M287.259 95.9481V106.019C287.259 106.019 297.491 111.797 308.692 106.019V95.9481H287.259Z" fill="#C4C4C4"/>
</mask>
<g mask="url(#mask6)">
<path d="M297.048 102.618C297.261 102.618 297.458 102.602 297.656 102.585C297.458 102.602 297.245 102.618 297.048 102.618Z" fill="#E6E7E8"/>
<path d="M309.612 100.389C304.011 103.922 296.867 104.88 290.544 102.965C292.794 103.427 295.061 102.783 297.048 102.635C294.502 102.734 291.365 102.321 289.247 101.066C292.876 101.677 296.637 101.479 300.185 100.488C295.044 101.033 289.789 100.389 284.927 98.6062L283.236 99.7123C282.135 101.116 281.183 102.651 280.411 104.269C279.967 105.21 279.573 106.333 280.05 107.257C280.427 108 281.232 108.38 282.004 108.694C288.721 111.434 296.227 112.161 303.338 110.741C305.818 110.245 308.429 109.387 309.924 107.34C308.659 108.116 308.594 103.146 309.612 100.389Z" fill="#E6E7E8"/>
</g>
<path d="M217.572 315H-7.57243C-7.95105 315 -8.31415 315.053 -8.58187 315.146C-8.84959 315.24 -9 315.367 -9 315.5C-9 315.633 -8.84959 315.76 -8.58187 315.854C-8.31415 315.947 -7.95105 316 -7.57243 316H217.572C217.951 316 218.314 315.947 218.582 315.854C218.85 315.76 219 315.633 219 315.5C219 315.367 218.85 315.24 218.582 315.146C218.314 315.053 217.951 315 217.572 315Z" fill="#1F3966"/>
<path d="M234 315.5C234 315.566 234.013 315.631 234.038 315.692C234.064 315.752 234.101 315.808 234.148 315.854C234.196 315.901 234.252 315.937 234.314 315.962C234.375 315.988 234.442 316 234.508 316H370.492C370.626 316 370.756 315.947 370.851 315.854C370.946 315.76 371 315.633 371 315.5C371 315.367 370.946 315.24 370.851 315.146C370.756 315.053 370.626 315 370.492 315H234.508C234.442 315 234.375 315.012 234.314 315.038C234.252 315.063 234.196 315.099 234.148 315.146C234.101 315.192 234.064 315.248 234.038 315.308C234.013 315.369 234 315.434 234 315.5Z" fill="#1F3966"/>
</g>
<defs>
<clipPath id="clip0">
<rect width="340" height="240" fill="white" transform="translate(73 83)"/>
</clipPath>
</defs>
</svg>
