<svg width="346" height="301" viewBox="0 0 346 301" fill="none" xmlns="http://www.w3.org/2000/svg">
<path d="M125.262 301H15.0866C6.76743 301 0 294.248 0 285.948V77.9784C0 69.6785 6.76743 62.9268 15.0866 62.9268H125.262C133.581 62.9268 140.349 69.6785 140.349 77.9784V285.991C140.349 294.291 133.581 301 125.262 301Z" fill="#75818F"/>
<path d="M7.2771 286.443V77.4835C7.2771 73.4585 10.5569 70.2042 14.6135 70.2042H126.774C130.831 70.2042 134.111 73.4585 134.111 77.4835V286.443C134.111 290.468 130.831 293.723 126.774 293.723H14.6135C10.5569 293.723 7.2771 290.468 7.2771 286.443Z" fill="white"/>
<path d="M62.2698 119.877C62.2545 119.884 62.2377 119.888 62.2207 119.888C62.1956 119.888 62.1713 119.879 62.1517 119.863C62.132 119.848 62.1183 119.826 62.1126 119.801C62.1069 119.777 62.1096 119.751 62.1204 119.729C62.1311 119.706 62.1492 119.687 62.1717 119.676C63.209 119.168 63.2451 117.517 63.2456 117.5C63.2461 117.471 63.258 117.443 63.2789 117.422C63.2997 117.402 63.3278 117.39 63.3571 117.39C63.3717 117.39 63.3862 117.393 63.3997 117.399C63.4132 117.405 63.4254 117.414 63.4356 117.424C63.4458 117.434 63.4539 117.447 63.4593 117.46C63.4647 117.474 63.4674 117.488 63.4672 117.503C63.469 117.584 63.4284 119.311 62.2698 119.877Z" fill="#E07C69"/>
<path d="M65.0723 118.696C66.8714 118.59 68.7017 117.412 68.72 117.4C68.7448 117.385 68.7742 117.381 68.8022 117.387C68.8302 117.394 68.8546 117.411 68.8702 117.435C68.8859 117.459 68.8916 117.489 68.8862 117.517C68.8808 117.545 68.8648 117.57 68.8413 117.587C68.7651 117.637 66.9446 118.809 65.0857 118.919H65.079C65.0644 118.919 65.0498 118.917 65.0361 118.911C65.0224 118.906 65.0099 118.898 64.9992 118.888C64.9885 118.878 64.98 118.866 64.9739 118.853C64.9679 118.839 64.9646 118.825 64.9642 118.81C64.9637 118.796 64.9662 118.781 64.9714 118.767C64.9766 118.754 64.9844 118.741 64.9945 118.731C65.0045 118.72 65.0166 118.711 65.0299 118.705C65.0433 118.699 65.0577 118.696 65.0723 118.696V118.696Z" fill="#E07C69"/>
<path d="M65.3393 119.668C67.2285 119.361 68.3091 118.268 68.3198 118.257C68.3404 118.236 68.3685 118.224 68.3979 118.224C68.4274 118.224 68.4557 118.235 68.4768 118.255C68.498 118.276 68.5101 118.304 68.5107 118.333C68.5113 118.363 68.5002 118.391 68.4799 118.412C68.4353 118.46 67.3409 119.569 65.375 119.888C65.369 119.888 65.3631 119.888 65.3571 119.888C65.3275 119.89 65.2982 119.881 65.2757 119.861C65.2531 119.842 65.2391 119.815 65.2367 119.785C65.2343 119.756 65.2438 119.726 65.2631 119.704C65.2823 119.681 65.3097 119.667 65.3393 119.665V119.668Z" fill="#E07C69"/>
<path d="M65.7915 120.333C66.5845 120.3 67.2699 119.782 67.7052 119.352C67.7156 119.341 67.7279 119.333 67.7416 119.327C67.7552 119.321 67.7699 119.318 67.7846 119.318C67.7994 119.318 67.8141 119.321 67.8277 119.327C67.8414 119.333 67.8538 119.341 67.8641 119.351C67.8745 119.362 67.8827 119.374 67.8882 119.388C67.8937 119.402 67.8964 119.417 67.8962 119.431C67.896 119.446 67.8928 119.461 67.8869 119.474C67.881 119.488 67.8724 119.5 67.8618 119.51C67.3984 119.967 66.6647 120.518 65.8004 120.554H65.796C65.7664 120.554 65.7378 120.543 65.7165 120.522C65.6951 120.502 65.6828 120.474 65.6822 120.444C65.6816 120.415 65.6928 120.386 65.7133 120.365C65.7338 120.343 65.7619 120.331 65.7915 120.331V120.333Z" fill="#E07C69"/>
<path d="M55.1141 132.558C55.0909 132.439 55.0695 132.32 55.045 132.201H55.293C55.2528 132.321 55.2118 132.442 55.1712 132.562C55.1529 132.555 55.1332 132.554 55.1141 132.558Z" fill="#75B2E1"/>
<path d="M61.759 134.278C61.664 134.756 61.5605 135.221 61.4468 135.666C61.3072 136.221 61.1538 136.747 60.9852 137.236C59.7391 140.852 57.3897 141.891 54.2442 141.522C54.1483 138.945 53.9766 136.186 53.7884 133.642C53.8176 133.64 53.8449 133.627 53.8642 133.604C53.8835 133.582 53.8932 133.553 53.8914 133.524C53.8374 132.699 53.7607 131.869 53.6684 131.059L54.7281 130.561L55.0465 132.201C55.0697 132.32 55.0911 132.439 55.1156 132.558C55.1007 132.561 55.0865 132.567 55.0739 132.575C55.0613 132.584 55.0506 132.595 55.0425 132.608C55.0081 132.662 54.2027 133.966 54.2152 135.667C54.2155 135.696 54.2274 135.725 54.2483 135.745C54.2691 135.766 54.2973 135.778 54.3267 135.778C54.3413 135.778 54.3558 135.775 54.3693 135.769C54.3829 135.763 54.3951 135.755 54.4054 135.745C54.4157 135.734 54.4238 135.722 54.4293 135.708C54.4347 135.695 54.4375 135.68 54.4373 135.665C54.4252 134.029 55.2222 132.739 55.2302 132.726C55.238 132.714 55.2433 132.7 55.2458 132.686C55.2482 132.671 55.2478 132.656 55.2445 132.642C55.2413 132.628 55.2352 132.614 55.2267 132.602C55.2182 132.59 55.2074 132.58 55.195 132.572C55.1878 132.568 55.18 132.564 55.1718 132.562C55.2124 132.442 55.2534 132.321 55.2936 132.201C56.3978 128.918 57.3585 125.467 57.6051 122.011C56.8108 119.464 58.7883 118.021 60.364 116.917C61.5762 116.066 62.5252 115.162 63.7088 114.196C64.8586 113.257 64.3528 116.463 63.4381 117.426C63.4279 117.415 63.4157 117.407 63.4023 117.401C63.3888 117.395 63.3743 117.392 63.3596 117.392C63.3304 117.392 63.3023 117.403 63.2814 117.424C63.2606 117.444 63.2486 117.472 63.2481 117.502C63.2481 117.519 63.2116 119.17 62.1742 119.678C62.1517 119.689 62.1336 119.708 62.1229 119.73C62.1122 119.753 62.1094 119.779 62.1151 119.803C62.1208 119.828 62.1346 119.849 62.1542 119.865C62.1738 119.881 62.1982 119.889 62.2233 119.889C62.2403 119.89 62.257 119.886 62.2723 119.878C63.4319 119.311 63.4698 117.584 63.4711 117.506C64.958 117.522 66.4209 116.888 67.8239 116.674C69.2622 116.454 69.2721 117.14 68.6388 118.973C68.0055 120.805 65.1257 122.165 62.8334 122.841C62.7527 125.606 62.5685 129.062 62.114 132.201C62.0248 132.835 61.9196 133.456 61.8045 134.055C61.788 134.13 61.7746 134.204 61.759 134.278ZM65.7961 120.555H65.8005C66.6648 120.52 67.3985 119.968 67.8619 119.512C67.8725 119.502 67.8811 119.49 67.887 119.476C67.8929 119.463 67.8961 119.448 67.8963 119.433C67.8966 119.418 67.8938 119.404 67.8883 119.39C67.8828 119.376 67.8746 119.364 67.8642 119.353C67.8539 119.343 67.8415 119.334 67.8278 119.329C67.8142 119.323 67.7995 119.32 67.7847 119.32C67.77 119.32 67.7553 119.323 67.7417 119.329C67.728 119.334 67.7157 119.343 67.7053 119.353C67.27 119.782 66.5846 120.3 65.7916 120.335C65.762 120.335 65.7339 120.347 65.7134 120.369C65.6929 120.39 65.6817 120.419 65.6823 120.448C65.6829 120.478 65.6952 120.506 65.7166 120.526C65.7379 120.547 65.7665 120.558 65.7961 120.558V120.555ZM65.2475 119.797C65.2517 119.823 65.2651 119.847 65.2852 119.864C65.3053 119.881 65.3308 119.891 65.3572 119.891C65.3631 119.891 65.3691 119.891 65.375 119.891C67.3409 119.572 68.4341 118.464 68.48 118.415C68.5003 118.394 68.5114 118.366 68.5108 118.336C68.5102 118.307 68.4981 118.279 68.4769 118.258C68.4558 118.238 68.4274 118.227 68.398 118.227C68.3686 118.227 68.3405 118.239 68.3199 118.26C68.3092 118.271 67.2286 119.364 65.3394 119.671C65.3109 119.676 65.2854 119.691 65.2682 119.715C65.2511 119.738 65.2436 119.767 65.2475 119.795V119.797ZM65.0789 118.921H65.0856C66.9445 118.812 68.765 117.639 68.8412 117.589C68.8647 117.572 68.8807 117.547 68.8861 117.519C68.8915 117.491 68.8858 117.462 68.8701 117.438C68.8545 117.413 68.8301 117.396 68.8021 117.39C68.7741 117.383 68.7447 117.388 68.7199 117.402C68.7016 117.414 66.8713 118.593 65.0722 118.698C65.0576 118.699 65.0432 118.702 65.0298 118.708C65.0164 118.714 65.0044 118.723 64.9944 118.733C64.9843 118.744 64.9765 118.756 64.9713 118.77C64.9661 118.784 64.9636 118.798 64.9641 118.813C64.9645 118.828 64.9678 118.842 64.9738 118.855C64.9798 118.869 64.9884 118.881 64.9991 118.891C65.0098 118.901 65.0223 118.909 65.036 118.914C65.0497 118.919 65.0643 118.922 65.0789 118.921V118.921Z" fill="#FBC3A8"/>
<path d="M55.171 132.562C55.1792 132.564 55.1871 132.568 55.1942 132.572C55.2067 132.58 55.2174 132.59 55.2259 132.602C55.2344 132.614 55.2405 132.628 55.2438 132.642C55.247 132.656 55.2475 132.671 55.245 132.686C55.2426 132.7 55.2373 132.714 55.2295 132.726C55.2214 132.739 54.4267 134.029 54.4365 135.665C54.4367 135.68 54.4339 135.695 54.4285 135.708C54.423 135.722 54.4149 135.734 54.4046 135.745C54.3943 135.755 54.3821 135.763 54.3686 135.769C54.3551 135.775 54.3405 135.778 54.3259 135.778C54.2965 135.778 54.2684 135.766 54.2475 135.745C54.2266 135.725 54.2147 135.697 54.2144 135.667C54.2019 133.966 55.0074 132.662 55.0417 132.608C55.0498 132.595 55.0605 132.584 55.0731 132.575C55.0857 132.567 55.0999 132.561 55.1149 132.558C55.1336 132.554 55.153 132.555 55.171 132.562Z" fill="#E07C69"/>
<path d="M33.2534 123.865C32.9265 125.809 32.353 127.57 31.7156 129.149C31.6882 129.138 31.6575 129.138 31.6303 129.149C31.603 129.161 31.5814 129.183 31.5703 129.21C31.0574 130.469 30.4999 131.618 30.0093 132.637C29.8586 132.949 29.7132 133.25 29.5754 133.541C29.6169 132.838 29.6646 132.132 29.7275 131.428L28.5942 131.216L28.5367 131.205C28.3804 131.176 28.2413 131.087 28.148 130.958C28.0547 130.829 28.0141 130.67 28.0345 130.512C28.3414 128.176 28.8083 126.327 29.3435 124.864C29.9942 123.085 30.7465 121.876 31.4356 121.062C32.3851 119.939 33.2155 119.561 33.4978 119.456C33.5977 119.395 33.7008 119.338 33.8068 119.288C33.9968 119.199 34.2345 119.091 34.5168 118.976C34.4771 119.018 34.4412 119.064 34.4098 119.113C33.7587 120.15 33.2534 123.865 33.2534 123.865Z" fill="#F6AA7B"/>
<path d="M52.4909 123.712C52.4846 123.683 52.4671 123.658 52.4423 123.642C52.4299 123.634 52.4162 123.628 52.4018 123.626C52.3873 123.623 52.3726 123.623 52.3582 123.627C52.3439 123.63 52.3303 123.636 52.3183 123.644C52.3063 123.652 52.296 123.663 52.2881 123.675C52.2801 123.688 52.2747 123.701 52.2721 123.716C52.2695 123.73 52.2697 123.745 52.2728 123.759C52.284 123.809 53.3584 128.765 53.6705 133.538C53.6724 133.566 53.6849 133.593 53.7055 133.612C53.7261 133.631 53.7533 133.642 53.7816 133.642H53.7914C53.9792 136.184 54.1513 138.944 54.2472 141.522C54.3047 143.066 54.3364 144.545 54.3248 145.873H29.5516C29.5262 145.402 29.4299 143.475 29.408 140.848C29.7898 141.126 30.2853 141.339 30.9212 141.458C34.255 142.092 36.0421 140.499 36.5795 136.203C37.1169 131.907 37.9857 126.346 37.9857 126.346C37.9857 126.346 39.9355 126.059 41.3551 124.313C42.0477 123.461 42.0838 122.372 41.9398 121.48C41.959 121.463 41.9716 121.44 41.9755 121.415C41.9793 121.39 41.9745 121.365 41.9621 121.343C41.9496 121.321 41.9301 121.304 41.9068 121.295C41.8987 121.255 41.8907 121.216 41.8827 121.177L43.1908 120.654C43.3096 120.606 43.4213 120.543 43.523 120.465C45.9545 120.344 47.7661 119.877 47.7661 119.318C47.7661 119.024 47.2631 118.755 46.4317 118.549L46.384 117.982C47.937 118.365 49.6741 119.097 51.012 120.496C51.012 120.496 53.6879 122.42 55.3559 129.787C55.3837 129.91 55.3689 130.038 55.314 130.151C55.259 130.264 55.1671 130.355 55.0536 130.409L54.728 130.563L53.6737 131.061C53.2402 127.168 52.498 123.754 52.4909 123.712Z" fill="#F6AA7B"/>
<path d="M44.0585 119.575C45.7791 119.59 46.4873 119.223 46.4873 119.223L46.4303 118.548C47.2616 118.754 47.7646 119.023 47.7646 119.317C47.7646 119.875 45.9531 120.343 43.5215 120.464C43.8066 120.246 43.9985 119.928 44.0585 119.575Z" fill="#D87334"/>
<path d="M53.7816 133.643C53.7533 133.643 53.7261 133.632 53.7055 133.613C53.6848 133.593 53.6723 133.567 53.6705 133.539C53.3583 128.767 52.284 123.81 52.2728 123.76C52.2666 123.731 52.272 123.701 52.2881 123.676C52.3041 123.651 52.3293 123.634 52.3582 123.628C52.3872 123.621 52.4174 123.627 52.4423 123.643C52.4672 123.659 52.4846 123.684 52.4909 123.713C52.4998 123.754 53.2402 127.168 53.6723 131.059C53.7615 131.869 53.8391 132.699 53.8953 133.524C53.8971 133.553 53.8873 133.582 53.8681 133.604C53.8488 133.626 53.8215 133.64 53.7923 133.642H53.7838L53.7816 133.643Z" fill="#D87334"/>
<path d="M46.0141 115.194C44.5393 115.084 43.1242 114.566 41.928 113.696L40.3189 109.677C40.2499 109.504 40.1476 109.347 40.0179 109.214C39.8881 109.082 39.7335 108.975 39.5628 108.902C39.392 108.829 39.2086 108.791 39.0229 108.788C38.8372 108.786 38.6529 108.821 38.4805 108.89L37.0654 109.456C36.3879 109.019 36.0396 108.228 36.2689 107.488C36.3502 107.224 36.4988 106.986 36.7001 106.798C36.8236 106.681 36.9633 106.584 37.1149 106.508L37.1238 106.504C37.1466 106.493 37.1684 106.482 37.1921 106.472L37.2023 106.468C37.2251 106.457 37.2469 106.447 37.2714 106.439L37.2937 106.43L37.3531 106.409L37.3718 106.403C37.4487 106.378 37.527 106.357 37.6064 106.342H37.6104C37.638 106.337 37.6657 106.332 37.6938 106.328H37.7027C37.729 106.324 37.7558 106.321 37.7825 106.318H37.7946C37.8499 106.313 37.9056 106.31 37.9623 106.309C37.9895 106.309 38.0171 106.309 38.0448 106.309H38.0524C38.0903 106.309 38.1282 106.312 38.1665 106.316L38.2299 106.322C38.2611 106.326 38.2927 106.331 38.3244 106.336L38.3467 106.34C38.386 106.346 38.4252 106.355 38.4645 106.364L38.4872 106.369C38.5242 106.379 38.5617 106.389 38.5991 106.4C38.9981 106.52 39.3506 106.759 39.6089 107.086C40.3068 106.265 40.8812 104.88 40.941 102.812C40.941 102.812 48.4416 105.542 51.1246 103.355C51.225 104.238 51.2729 105.126 51.2682 106.014C51.2682 111.595 49.0544 115.288 46.1635 115.202H46.1474C46.1037 115.199 46.0591 115.197 46.0141 115.194ZM37.6407 108.936C37.1501 108.708 36.8897 108.186 37.0319 107.723C37.0692 107.605 37.1294 107.496 37.209 107.401C37.2886 107.307 37.386 107.229 37.4958 107.173C37.5095 107.166 37.5219 107.157 37.532 107.146C37.5421 107.135 37.5498 107.121 37.5547 107.107C37.5595 107.093 37.5614 107.077 37.5602 107.062C37.5589 107.047 37.5546 107.033 37.5475 107.019C37.5404 107.006 37.5307 106.994 37.5188 106.984C37.507 106.975 37.4934 106.968 37.4788 106.964C37.4642 106.96 37.4489 106.959 37.4339 106.961C37.4188 106.963 37.4044 106.968 37.3914 106.976C37.2558 107.046 37.1353 107.142 37.037 107.259C36.9387 107.376 36.8645 107.511 36.8188 107.657C36.6439 108.226 36.957 108.861 37.5466 109.137C37.5606 109.144 37.5758 109.147 37.5912 109.147C37.6165 109.147 37.641 109.139 37.6607 109.123C37.6804 109.107 37.6942 109.085 37.6997 109.06C37.7051 109.035 37.7021 109.01 37.691 108.987C37.6799 108.964 37.6614 108.946 37.6385 108.935L37.6407 108.936ZM44.69 106.137C44.355 106.12 44.0553 106.65 44.021 107.322C43.9866 107.994 44.2293 108.553 44.5642 108.571C44.8991 108.589 45.1993 108.057 45.2332 107.385C45.2671 106.713 45.0249 106.154 44.69 106.137ZM42.5492 109.797C42.5246 109.771 42.4932 109.751 42.4584 109.741C42.4236 109.731 42.3867 109.731 42.3517 109.74C42.3414 109.729 42.3311 109.718 42.3213 109.707C42.3213 109.707 42.3213 109.723 42.3182 109.751C42.2839 109.767 42.2548 109.792 42.2341 109.824C42.2135 109.855 42.2021 109.892 42.2014 109.93C42.1951 110.493 42.2647 111.506 42.8025 111.951C42.9735 112.093 43.1899 112.169 43.4122 112.165C43.4996 112.165 43.5867 112.156 43.6722 112.138C43.6867 112.136 43.7006 112.13 43.7129 112.122C43.7253 112.114 43.7359 112.103 43.7442 112.091C43.7525 112.079 43.7583 112.065 43.7612 112.051C43.7642 112.036 43.7643 112.022 43.7614 112.007C43.76 112.002 43.7584 111.997 43.7565 111.991C44.0406 111.87 44.3439 111.579 44.6436 111.055C44.7615 111.062 44.8799 111.059 44.9972 111.045C45.0117 111.043 45.0257 111.038 45.0383 111.031C45.0508 111.023 45.0618 111.013 45.0706 111.001C45.0793 110.99 45.0857 110.976 45.0893 110.962C45.0929 110.948 45.0937 110.933 45.0916 110.919C45.0895 110.904 45.0845 110.89 45.077 110.878C45.0695 110.865 45.0596 110.854 45.0479 110.845C45.0361 110.837 45.0228 110.83 45.0086 110.827C44.9944 110.823 44.9796 110.822 44.9651 110.824C44.9495 110.829 43.6629 110.995 42.5483 109.797H42.5492ZM45.4035 105.07C45.3674 105.052 44.5089 104.641 43.5661 104.939C43.5379 104.948 43.5144 104.967 43.5007 104.994C43.4871 105.02 43.4844 105.051 43.4934 105.079C43.5023 105.107 43.5221 105.13 43.5483 105.144C43.5746 105.158 43.6052 105.16 43.6334 105.151C44.4888 104.881 45.2978 105.266 45.3059 105.27C45.3191 105.277 45.3336 105.282 45.3486 105.283C45.3636 105.284 45.3787 105.283 45.393 105.278C45.4073 105.274 45.4205 105.266 45.4319 105.256C45.4433 105.246 45.4525 105.234 45.4591 105.221C45.4657 105.207 45.4695 105.193 45.4703 105.178C45.471 105.163 45.4687 105.148 45.4635 105.133C45.4583 105.119 45.4504 105.106 45.44 105.096C45.4297 105.085 45.4173 105.076 45.4035 105.07ZM48.3823 108.691C48.7176 108.708 49.0174 108.177 49.0512 107.506C49.0851 106.834 48.843 106.275 48.508 106.257C48.1731 106.239 47.8734 106.77 47.8391 107.442C47.8047 108.114 48.0451 108.674 48.38 108.692L48.3823 108.691ZM47.7075 105.399C47.7151 105.421 47.7293 105.44 47.7482 105.454C47.767 105.467 47.7896 105.474 47.8127 105.474C47.8252 105.474 47.8375 105.472 47.8493 105.468C48.2769 105.34 48.7305 105.324 49.1659 105.423C49.1946 105.43 49.225 105.426 49.2503 105.41C49.2756 105.395 49.2937 105.37 49.3008 105.342C49.3078 105.313 49.3031 105.283 49.2878 105.257C49.2725 105.232 49.2477 105.214 49.2189 105.207C48.7419 105.096 48.2439 105.113 47.7757 105.257C47.7616 105.262 47.7485 105.269 47.7372 105.279C47.7259 105.289 47.7167 105.3 47.7102 105.314C47.7036 105.327 47.6998 105.342 47.6989 105.357C47.6981 105.371 47.7002 105.386 47.7053 105.4L47.7075 105.399ZM46.2415 110.123C46.2481 110.146 46.2621 110.167 46.2815 110.181C46.3008 110.196 46.3243 110.204 46.3486 110.204C46.359 110.204 46.3693 110.203 46.3794 110.2L46.9306 110.044C46.9783 110.03 47.0199 110.001 47.0483 109.96C47.0768 109.92 47.0903 109.87 47.0867 109.821C46.9788 108.371 46.9159 107.514 46.9141 107.471C46.914 107.456 46.9111 107.442 46.9054 107.429C46.8998 107.415 46.8916 107.403 46.8812 107.393C46.8708 107.383 46.8585 107.375 46.8451 107.369C46.8316 107.364 46.8171 107.361 46.8026 107.361C46.7729 107.362 46.7445 107.374 46.7237 107.395C46.7028 107.416 46.6911 107.444 46.6911 107.474C46.6911 107.484 46.6911 107.51 46.8637 109.831L46.3182 109.985C46.3039 109.989 46.2904 109.996 46.2786 110.005C46.2668 110.014 46.2569 110.025 46.2496 110.038C46.2422 110.051 46.2375 110.065 46.2358 110.08C46.234 110.094 46.2352 110.109 46.2393 110.124L46.2415 110.123Z" fill="#FBC3A8"/>
<path d="M46.4873 119.223C46.4873 119.223 45.7791 119.59 44.0585 119.575C44.1014 119.319 44.073 119.057 43.9764 118.816L42.7218 115.682C43.6317 116.33 44.7997 116.795 46.2835 116.809L46.3825 117.983L46.4302 118.55L46.4873 119.223Z" fill="#FBC3A8"/>
<path d="M44.5638 108.57C44.2289 108.553 43.984 107.994 44.0206 107.322C44.0572 106.649 44.3555 106.117 44.6895 106.137C45.0236 106.156 45.2693 106.713 45.2327 107.385C45.1962 108.058 44.8991 108.588 44.5638 108.57Z" fill="black"/>
<path d="M48.5069 106.258C48.8418 106.276 49.0867 106.835 49.0501 107.507C49.0135 108.18 48.7156 108.711 48.3811 108.692C48.0466 108.673 47.8013 108.116 47.8379 107.443C47.8744 106.771 48.1719 106.241 48.5069 106.258Z" fill="black"/>
<path d="M45.3521 105.282C45.3352 105.282 45.3186 105.278 45.3035 105.271C45.2954 105.267 44.4864 104.882 43.631 105.152C43.6028 105.161 43.5722 105.159 43.546 105.145C43.5197 105.131 43.4999 105.108 43.491 105.08C43.4821 105.051 43.4847 105.021 43.4983 104.995C43.512 104.968 43.5355 104.948 43.5637 104.94C44.5065 104.642 45.365 105.053 45.4011 105.071C45.4236 105.082 45.4417 105.1 45.4525 105.123C45.4632 105.146 45.4659 105.171 45.4602 105.196C45.4546 105.22 45.4408 105.242 45.4212 105.258C45.4015 105.273 45.3772 105.282 45.3521 105.282Z" fill="black"/>
<path d="M47.7738 105.258C48.2419 105.114 48.7399 105.097 49.217 105.208C49.2457 105.215 49.2705 105.233 49.2858 105.259C49.3012 105.284 49.3058 105.314 49.2988 105.343C49.2918 105.372 49.2736 105.396 49.2483 105.412C49.223 105.427 49.1926 105.432 49.1639 105.425C48.7286 105.326 48.275 105.341 47.8474 105.469C47.8356 105.473 47.8233 105.476 47.8108 105.476C47.7845 105.476 47.7589 105.466 47.7388 105.449C47.7186 105.432 47.7051 105.409 47.7007 105.383C47.6962 105.357 47.7012 105.33 47.7145 105.308C47.7279 105.285 47.7489 105.268 47.7738 105.259V105.258Z" fill="black"/>
<path d="M46.3164 109.986L46.8619 109.832C46.6893 107.513 46.6893 107.485 46.6893 107.475C46.6893 107.445 46.701 107.417 46.7218 107.396C46.7427 107.375 46.7711 107.363 46.8008 107.362C46.8153 107.362 46.8297 107.365 46.8432 107.37C46.8567 107.376 46.869 107.384 46.8794 107.394C46.8897 107.404 46.898 107.416 46.9036 107.43C46.9093 107.443 46.9122 107.457 46.9123 107.472C46.9123 107.516 46.9769 108.371 47.0849 109.822C47.0885 109.871 47.0749 109.92 47.0465 109.961C47.0181 110.002 46.9765 110.031 46.9288 110.045L46.3775 110.201C46.3675 110.204 46.3571 110.205 46.3467 110.205C46.32 110.205 46.2942 110.195 46.2741 110.177C46.2539 110.16 46.2409 110.135 46.2372 110.109C46.2335 110.082 46.2395 110.055 46.254 110.033C46.2686 110.01 46.2907 109.994 46.3164 109.986Z" fill="#E07C69"/>
<path d="M35.364 101.071C34.5452 104.292 35.4903 106.187 34.7116 109.556C34.6331 109.895 34.5457 110.209 34.4511 110.501L34.4195 110.513C34.0807 110.649 33.8074 110.91 33.6569 111.243C33.5064 111.575 33.4902 111.953 33.6118 112.297C32.7461 113.606 31.6883 114.017 30.9288 114.15C30.8869 114.158 30.8438 114.153 30.8044 114.137C30.7649 114.122 30.7307 114.095 30.7056 114.061C30.6805 114.026 30.6656 113.986 30.6624 113.943C30.6593 113.901 30.6681 113.859 30.6879 113.821C31.2677 112.73 31.7877 112.116 31.2846 108.544C30.7093 104.459 28.0986 98.4919 31.86 96.2308C34.4703 94.6614 36.9442 96.6665 37.7866 97.4849C37.7237 97.5638 37.6617 97.6441 37.5998 97.7266C37.5993 97.7289 35.5505 98.2038 35.364 101.071Z" fill="#5C1E14"/>
<path d="M40.9423 102.812C40.8825 104.88 40.3081 106.265 39.6101 107.086C39.352 106.758 38.9991 106.518 38.5995 106.397C38.562 106.386 38.5246 106.377 38.4876 106.367L38.4648 106.361C38.4256 106.352 38.3863 106.344 38.3471 106.337L38.3248 106.334C38.2931 106.328 38.2615 106.324 38.2302 106.32L38.1669 106.314C38.1286 106.31 38.0906 106.308 38.0527 106.306H38.0452C38.0175 106.306 37.9898 106.306 37.9626 106.306C37.906 106.306 37.8503 106.311 37.7949 106.316H37.7829C37.7562 106.319 37.7294 106.322 37.7031 106.326H37.6942C37.6661 106.33 37.6384 106.335 37.6108 106.339H37.6067C37.5274 106.355 37.449 106.375 37.3722 106.401L37.3534 106.406L37.2941 106.428L37.2718 106.436C37.2486 106.445 37.2272 106.455 37.2027 106.465L37.1924 106.469C37.1697 106.48 37.1478 106.491 37.1242 106.502L37.1153 106.506C36.9637 106.582 36.824 106.679 36.7005 106.795C35.5936 104.244 35.2787 102.399 35.3625 101.069C35.5485 98.2016 37.5978 97.7266 37.5978 97.7266C37.6598 97.6441 37.7218 97.5639 37.7847 97.4849C42.6312 91.3468 48.8162 95.3049 50.0404 96.1541C50.7094 96.6188 54.0694 99.0289 51.6312 102.79C51.4926 103.003 51.3215 103.193 51.1241 103.353C48.4429 105.542 40.9423 102.812 40.9423 102.812Z" fill="#5C1E14"/>
<path d="M37.5937 109.148C37.5783 109.148 37.5631 109.144 37.5491 109.138C36.9595 108.863 36.6464 108.226 36.8212 107.657C36.867 107.511 36.9411 107.376 37.0394 107.259C37.1377 107.142 37.2582 107.046 37.3939 106.976C37.4069 106.968 37.4213 106.963 37.4363 106.961C37.4514 106.959 37.4666 106.96 37.4812 106.964C37.4959 106.968 37.5095 106.975 37.5213 106.984C37.5331 106.994 37.5429 107.006 37.55 107.019C37.5571 107.033 37.5614 107.047 37.5626 107.062C37.5639 107.077 37.562 107.093 37.5572 107.107C37.5523 107.121 37.5446 107.135 37.5345 107.146C37.5243 107.157 37.512 107.166 37.4983 107.173C37.3885 107.229 37.291 107.307 37.2114 107.401C37.1318 107.496 37.0717 107.605 37.0344 107.723C36.8921 108.186 37.1539 108.708 37.6432 108.936C37.6661 108.946 37.6846 108.965 37.6957 108.987C37.7068 109.01 37.7099 109.036 37.7044 109.061C37.6989 109.085 37.6851 109.107 37.6654 109.123C37.6457 109.139 37.6212 109.148 37.5959 109.148H37.5937Z" fill="#E07C69"/>
<path d="M42.3175 109.753C42.3175 109.724 42.3206 109.708 42.3206 109.708C42.3305 109.72 42.3408 109.73 42.3511 109.742C42.3437 109.743 42.3366 109.745 42.3296 109.748C42.3255 109.75 42.3214 109.751 42.3175 109.753Z" fill="#DE8A74"/>
<path d="M43.6274 111.922C43.3491 111.978 43.1256 111.932 42.9441 111.782C42.4803 111.398 42.4232 110.44 42.4236 109.989C43.2568 110.861 44.1572 111.034 44.6411 111.06C44.3414 111.583 44.0381 111.874 43.754 111.996C43.7456 111.971 43.7281 111.949 43.7048 111.935C43.6815 111.922 43.6539 111.917 43.6274 111.922Z" fill="#FBC3A8"/>
<path d="M44.9608 110.827C44.9753 110.825 44.99 110.826 45.0042 110.829C45.0184 110.833 45.0318 110.839 45.0435 110.848C45.0553 110.857 45.0652 110.868 45.0727 110.88C45.0802 110.893 45.0851 110.907 45.0872 110.921C45.0893 110.936 45.0886 110.951 45.085 110.965C45.0814 110.979 45.075 110.992 45.0662 111.004C45.0575 111.016 45.0465 111.026 45.0339 111.033C45.0213 111.041 45.0074 111.046 44.9929 111.048C44.8755 111.061 44.7572 111.065 44.6392 111.058C44.1553 111.034 43.2567 110.861 42.4218 109.987C42.4218 110.438 42.4784 111.396 42.9422 111.78C43.1238 111.93 43.3472 111.976 43.6255 111.92C43.6517 111.914 43.679 111.919 43.7022 111.932C43.7255 111.945 43.7432 111.966 43.7522 111.991C43.7541 111.997 43.7557 112.002 43.7571 112.007C43.7599 112.022 43.7598 112.036 43.7569 112.051C43.7539 112.065 43.7481 112.079 43.7398 112.091C43.7315 112.103 43.7209 112.114 43.7086 112.122C43.6962 112.13 43.6824 112.136 43.6679 112.138C43.5823 112.156 43.4952 112.165 43.4079 112.165C43.1855 112.169 42.9692 112.093 42.7982 111.951C42.2603 111.505 42.1908 110.493 42.197 109.93C42.1977 109.892 42.2091 109.855 42.2298 109.824C42.2504 109.792 42.2796 109.767 42.3138 109.751C42.3177 109.749 42.3218 109.747 42.3259 109.746C42.3328 109.743 42.34 109.741 42.3473 109.739C42.3823 109.73 42.4192 109.73 42.454 109.74C42.4888 109.75 42.5202 109.77 42.5449 109.796C43.663 110.995 44.9496 110.829 44.9608 110.827Z" fill="#FBC3A8"/>
<path d="M47.5391 113.051C47.3105 113.219 47.0885 113.272 46.8606 113.212C46.278 113.06 45.8222 112.215 45.6325 111.807C46.7555 112.245 47.6451 112.023 48.0946 111.842C48.0437 112.443 47.8914 112.834 47.6854 113.065C47.6669 113.045 47.6419 113.033 47.6149 113.03C47.588 113.028 47.561 113.035 47.5391 113.051Z" fill="#DE8A74"/>
<path d="M48.2862 111.496C48.2985 111.488 48.3122 111.482 48.3266 111.479C48.3409 111.477 48.3557 111.477 48.3701 111.48C48.3844 111.483 48.398 111.489 48.4101 111.497C48.4222 111.505 48.4326 111.516 48.4406 111.528C48.4486 111.54 48.4542 111.554 48.4569 111.568C48.4596 111.583 48.4595 111.597 48.4565 111.612C48.4535 111.626 48.4477 111.64 48.4395 111.652C48.4312 111.664 48.4207 111.674 48.4084 111.682C48.3077 111.744 48.2018 111.797 48.0919 111.84C47.6434 112.024 46.7554 112.245 45.6299 111.805C45.8199 112.214 46.2754 113.058 46.8579 113.211C47.0859 113.271 47.3078 113.218 47.5365 113.05C47.558 113.034 47.5845 113.026 47.6112 113.028C47.6379 113.031 47.6629 113.042 47.6816 113.061C47.6855 113.065 47.6892 113.069 47.6926 113.073C47.7013 113.085 47.7075 113.099 47.7109 113.113C47.7144 113.128 47.7149 113.142 47.7125 113.157C47.7101 113.172 47.7049 113.186 47.6971 113.198C47.6893 113.211 47.6791 113.221 47.6671 113.23C47.597 113.282 47.5219 113.327 47.4428 113.364C47.2429 113.462 47.0147 113.484 46.7997 113.427C46.1239 113.25 45.634 112.362 45.4018 111.848C45.3866 111.814 45.3814 111.775 45.3868 111.738C45.3923 111.701 45.4081 111.666 45.4325 111.637C45.4352 111.634 45.4381 111.63 45.4412 111.627C45.4463 111.622 45.4518 111.617 45.4578 111.612C45.4856 111.589 45.5192 111.574 45.555 111.568C45.5908 111.562 45.6274 111.567 45.661 111.58C47.1804 112.196 48.2768 111.502 48.2862 111.496Z" fill="#E07C69"/>
<path d="M41.9282 113.696C43.1246 114.566 44.5398 115.084 46.0148 115.194C46.0594 115.197 46.104 115.199 46.1486 115.201H46.1651L46.2842 116.806C44.8004 116.792 43.6324 116.327 42.7225 115.679L41.9282 113.696Z" fill="#E07C69"/>
<path d="M34.419 110.515L34.4506 110.503L37.0668 109.456L38.4819 108.89C38.6543 108.821 38.8386 108.786 39.0243 108.788C39.21 108.791 39.3934 108.829 39.5641 108.902C39.7348 108.976 39.8895 109.082 40.0192 109.214C40.149 109.347 40.2512 109.504 40.3202 109.677L41.928 113.696L42.7223 115.68L43.9769 118.814C44.1162 119.162 44.1116 119.552 43.964 119.896C43.8163 120.241 43.5378 120.513 43.1897 120.653L41.8816 121.176C41.7893 120.747 41.6558 120.328 41.4829 119.925C41.4975 119.919 41.5106 119.909 41.5211 119.897C41.5317 119.885 41.5395 119.871 41.544 119.855C41.5486 119.84 41.5497 119.824 41.5474 119.808C41.5451 119.792 41.5394 119.777 41.5306 119.764C43.2829 118.612 42.6902 117.586 42.6902 117.586C40.4679 117.066 37.6831 117.497 35.9558 118.155L33.6327 112.354C33.6251 112.335 33.6189 112.318 33.6122 112.299C33.4906 111.955 33.5066 111.578 33.6569 111.245C33.8073 110.913 34.0803 110.651 34.419 110.515ZM38.745 110.329L39.2695 111.64C39.3162 111.756 39.4071 111.849 39.5224 111.899C39.6376 111.948 39.7677 111.95 39.8841 111.903L39.9817 111.864C40.0981 111.817 40.1912 111.726 40.2406 111.611C40.2899 111.496 40.2915 111.366 40.2449 111.249L39.7204 109.939C39.6973 109.881 39.6631 109.829 39.6197 109.784C39.5763 109.74 39.5245 109.704 39.4674 109.68C39.4103 109.656 39.3489 109.643 39.2868 109.642C39.2247 109.641 39.163 109.653 39.1054 109.676L39.0081 109.715C38.9506 109.738 38.8981 109.772 38.8537 109.816C38.8094 109.859 38.774 109.911 38.7497 109.968C38.7253 110.025 38.7125 110.086 38.7118 110.148C38.7112 110.21 38.7228 110.272 38.7459 110.329H38.745Z" fill="#617ABC"/>
<path d="M39.7203 109.941L40.2449 111.251C40.342 111.493 40.2242 111.769 39.9818 111.866L39.8841 111.905C39.6417 112.002 39.3666 111.884 39.2695 111.642L38.7449 110.331C38.6478 110.089 38.7657 109.814 39.008 109.717L39.1057 109.677C39.3481 109.58 39.6233 109.698 39.7203 109.941Z" fill="#1F3966"/>
<path d="M28.5932 131.216L29.7265 131.428L30.5355 131.537C30.3571 131.919 30.1787 132.286 30.0083 132.637C29.8576 132.949 29.7122 133.25 29.5744 133.541C29.4852 133.731 29.3985 133.917 29.3144 134.098C29.0774 134.612 28.8663 135.137 28.682 135.672C28.682 135.672 28.682 135.676 28.682 135.677C28.6597 135.744 28.6374 135.811 28.6164 135.875C28.6155 135.879 28.6143 135.883 28.6128 135.886C28.5928 135.95 28.5732 136.013 28.5544 136.075C28.5522 136.081 28.5504 136.088 28.5486 136.094C28.5308 136.154 28.5134 136.213 28.4964 136.273L28.4884 136.303C28.4733 136.357 28.4581 136.412 28.4438 136.466L28.4331 136.508C28.4202 136.558 28.4072 136.608 28.3956 136.658C28.3912 136.676 28.3872 136.694 28.3827 136.712C28.3725 136.757 28.3618 136.802 28.3519 136.846C28.3466 136.871 28.3417 136.895 28.3363 136.92C28.3288 136.957 28.3203 136.995 28.3131 137.032C28.306 137.069 28.3002 137.101 28.294 137.135C28.2886 137.162 28.2833 137.189 28.2788 137.216C28.2681 137.277 28.2578 137.337 28.2489 137.397C28.2467 137.412 28.2474 137.427 28.2508 137.441C28.2543 137.455 28.2606 137.468 28.2692 137.48C28.2779 137.492 28.2888 137.502 28.3013 137.509C28.3138 137.517 28.3277 137.522 28.3421 137.524H28.3591C28.3857 137.524 28.4115 137.515 28.4317 137.497C28.452 137.48 28.4653 137.456 28.4692 137.43C28.4777 137.374 28.4871 137.319 28.4964 137.263L28.5071 137.206C28.5138 137.169 28.5205 137.132 28.5281 137.094C28.5326 137.071 28.5375 137.05 28.5424 137.024C28.5491 136.991 28.5562 136.957 28.5633 136.924C28.5687 136.898 28.5745 136.872 28.5803 136.846C28.5861 136.819 28.595 136.783 28.6021 136.752C28.6093 136.721 28.6155 136.696 28.6227 136.667C28.6298 136.639 28.6374 136.61 28.6445 136.581C28.6516 136.552 28.6601 136.519 28.6686 136.488C28.673 136.471 28.678 136.453 28.6829 136.436C28.7052 136.354 28.7288 136.27 28.7538 136.187C28.7578 136.174 28.7614 136.162 28.7649 136.149C28.7783 136.104 28.7921 136.06 28.806 136.017L28.8207 135.97C28.8349 135.925 28.8497 135.881 28.8653 135.836C28.8702 135.822 28.8746 135.808 28.8795 135.792C28.8956 135.744 28.9121 135.696 28.929 135.647C28.9322 135.638 28.9353 135.629 28.9389 135.62C29.0396 135.333 29.1549 135.035 29.2845 134.728C29.3581 134.553 29.4361 134.375 29.5195 134.193C29.7278 133.737 29.9624 133.25 30.2112 132.735C30.3896 132.364 30.5783 131.977 30.7696 131.569V131.567C30.8493 131.398 30.9296 131.226 31.0104 131.051L31.0354 130.996C31.0671 130.928 31.0983 130.859 31.13 130.79C31.1393 130.769 31.1487 130.748 31.1585 130.727C31.1942 130.648 31.2294 130.569 31.2651 130.489C31.2691 130.481 31.2727 130.473 31.2763 130.464C31.3158 130.375 31.3552 130.286 31.3944 130.197L31.4203 130.136C31.45 130.068 31.4798 130 31.5095 129.93C31.522 129.902 31.534 129.874 31.5461 129.845C31.5737 129.781 31.6009 129.715 31.6286 129.65C31.6397 129.623 31.6513 129.596 31.6625 129.569C31.7004 129.48 31.7383 129.387 31.7758 129.295C31.7813 129.281 31.7841 129.267 31.784 129.252C31.7839 129.238 31.781 129.223 31.7753 129.21C31.7696 129.196 31.7613 129.184 31.7509 129.174C31.7405 129.163 31.7282 129.155 31.7147 129.15C32.352 127.572 32.9255 125.811 33.2524 123.866C33.2524 123.866 33.7577 120.151 34.412 119.116C34.4434 119.067 34.4792 119.021 34.519 118.979C34.7777 118.699 35.2874 118.411 35.9555 118.157C37.6841 117.499 40.4689 117.067 42.6899 117.588C42.6899 117.588 43.2826 118.613 41.5303 119.765C41.5206 119.75 41.5075 119.737 41.492 119.729C41.4764 119.72 41.459 119.715 41.4411 119.714C41.3461 119.71 39.1024 119.625 37.9535 120.404C37.9409 120.412 37.9301 120.422 37.9216 120.434C37.9131 120.447 37.9072 120.46 37.9042 120.475C37.9011 120.49 37.9011 120.505 37.9039 120.519C37.9068 120.534 37.9126 120.548 37.921 120.56C37.9293 120.573 37.9401 120.583 37.9526 120.591C37.9651 120.599 37.9791 120.605 37.9937 120.608C38.0084 120.61 38.0235 120.61 38.038 120.607C38.0526 120.603 38.0663 120.597 38.0784 120.588C39.1662 119.85 41.409 119.936 41.4317 119.937C41.4491 119.937 41.4664 119.934 41.4821 119.926C41.655 120.33 41.7886 120.749 41.8809 121.177C41.8889 121.216 41.8969 121.255 41.9049 121.295C41.897 121.292 41.8888 121.289 41.8804 121.288C41.8215 121.279 40.4278 121.071 39.1639 121.484C39.1389 121.492 39.1177 121.509 39.104 121.532C39.0903 121.554 39.0851 121.581 39.0893 121.607C39.0935 121.633 39.1068 121.657 39.1268 121.674C39.1468 121.691 39.1723 121.701 39.1987 121.701C39.2105 121.701 39.2222 121.699 39.2335 121.696C40.4452 121.3 41.8327 121.506 41.8465 121.508C41.8625 121.51 41.8788 121.509 41.8942 121.504C41.9096 121.499 41.9238 121.491 41.9357 121.48C42.0798 122.372 42.0436 123.461 41.351 124.313C39.9315 126.059 37.9816 126.346 37.9816 126.346C37.9816 126.346 37.1124 131.908 36.5754 136.203C36.0385 140.497 34.251 142.09 30.9172 141.458C30.2813 141.337 29.7858 141.125 29.404 140.848C29.2595 140.743 29.126 140.623 29.0058 140.491C28.9946 140.479 28.9843 140.467 28.9736 140.454C28.9629 140.442 28.9509 140.429 28.9402 140.416C27.3489 138.529 28.054 133.796 28.5932 131.216ZM39.7486 122.986C39.7529 123 39.76 123.013 39.7693 123.024C39.7787 123.036 39.7902 123.045 39.8031 123.052C39.8161 123.059 39.8303 123.063 39.8449 123.064C39.8595 123.065 39.8742 123.064 39.8882 123.06C40.6776 122.817 41.5424 123.24 41.5508 123.245C41.5772 123.258 41.6077 123.26 41.6356 123.25C41.6635 123.241 41.6865 123.221 41.6997 123.194C41.7129 123.168 41.7151 123.138 41.7059 123.11C41.6968 123.082 41.6769 123.059 41.6507 123.045C41.6119 123.026 40.699 122.577 39.8222 122.846C39.7944 122.856 39.7713 122.875 39.7579 122.902C39.7445 122.928 39.7418 122.958 39.7504 122.986H39.7486Z" fill="#FBC3A8"/>
<path d="M38.0787 120.587C38.0542 120.603 38.0246 120.608 37.9962 120.602C37.9678 120.596 37.9428 120.579 37.9266 120.555C37.9103 120.531 37.9041 120.502 37.9091 120.473C37.9142 120.445 37.9303 120.419 37.9538 120.402C39.1027 119.623 41.3465 119.708 41.4415 119.712C41.4665 119.714 41.4903 119.723 41.5092 119.74C41.528 119.756 41.5409 119.778 41.5456 119.803C41.5503 119.827 41.5467 119.853 41.5352 119.875C41.5238 119.897 41.5053 119.915 41.4825 119.925C41.4668 119.933 41.4495 119.936 41.4321 119.935C41.4094 119.935 39.1665 119.849 38.0787 120.587Z" fill="#E07C69"/>
<path d="M41.847 121.507C41.8331 121.507 40.4457 121.299 39.234 121.694C39.2227 121.698 39.211 121.7 39.1992 121.7C39.1728 121.7 39.1473 121.69 39.1273 121.673C39.1073 121.656 39.094 121.632 39.0898 121.606C39.0856 121.58 39.0908 121.553 39.1045 121.531C39.1182 121.508 39.1394 121.491 39.1644 121.483C40.4283 121.07 41.822 121.277 41.8809 121.286C41.8893 121.288 41.8975 121.29 41.9054 121.293C41.9287 121.303 41.9482 121.32 41.9607 121.341C41.9731 121.363 41.9779 121.389 41.9741 121.413C41.9693 121.443 41.9534 121.469 41.9296 121.486C41.9058 121.503 41.8761 121.511 41.847 121.507Z" fill="#E07C69"/>
<path d="M39.8246 122.846C40.7009 122.579 41.6138 123.025 41.6531 123.045C41.6793 123.059 41.6991 123.082 41.7083 123.11C41.7175 123.138 41.7152 123.168 41.7021 123.194C41.6889 123.221 41.6658 123.241 41.6379 123.25C41.6101 123.26 41.5796 123.258 41.5532 123.245C41.5447 123.24 40.68 122.817 39.8906 123.06C39.8766 123.064 39.8619 123.065 39.8473 123.064C39.8328 123.063 39.8186 123.058 39.8057 123.051C39.7927 123.045 39.7812 123.035 39.7719 123.024C39.7626 123.013 39.7556 123 39.7513 122.986C39.747 122.972 39.7454 122.957 39.7468 122.942C39.7482 122.928 39.7524 122.914 39.7593 122.901C39.7661 122.888 39.7755 122.876 39.7868 122.867C39.7981 122.858 39.8111 122.851 39.8251 122.846H39.8246Z" fill="#E07C69"/>
<path d="M31.5702 129.21C31.5813 129.183 31.6029 129.161 31.6302 129.149C31.6574 129.138 31.6881 129.138 31.7156 129.149C31.7291 129.154 31.7414 129.162 31.7518 129.172C31.7622 129.183 31.7705 129.195 31.7762 129.208C31.7819 129.222 31.7848 129.236 31.7849 129.251C31.785 129.266 31.7822 129.28 31.7767 129.294C31.2611 130.559 30.7031 131.714 30.2108 132.733C29.9619 133.248 29.7273 133.735 29.519 134.19C28.9566 135.422 28.6132 136.481 28.4692 137.429C28.4652 137.455 28.4519 137.479 28.4317 137.496C28.4114 137.514 28.3856 137.523 28.359 137.523H28.342C28.3276 137.521 28.3137 137.516 28.3012 137.508C28.2887 137.501 28.2778 137.491 28.2692 137.479C28.2605 137.467 28.2542 137.454 28.2508 137.44C28.2473 137.426 28.2466 137.411 28.2488 137.397C28.396 136.428 28.7452 135.35 29.3161 134.099C29.3991 133.918 29.4857 133.732 29.5761 133.542C29.7139 133.251 29.8593 132.949 30.0101 132.637C30.5011 131.62 31.0573 130.469 31.5702 129.21Z" fill="#E07C69"/>
<path d="M27.1416 145.873H60.1561C60.1857 145.873 60.214 145.885 60.2349 145.906C60.2558 145.927 60.2676 145.955 60.2676 145.985C60.2676 146.015 60.2558 146.043 60.2349 146.064C60.214 146.085 60.1857 146.096 60.1561 146.096H27.1416C27.112 146.096 27.0837 146.085 27.0627 146.064C27.0418 146.043 27.0301 146.015 27.0301 145.985C27.0301 145.955 27.0418 145.927 27.0627 145.906C27.0837 145.885 27.112 145.873 27.1416 145.873Z" fill="#1F3966"/>
<path d="M93.3997 76.4419H46.9497C44.571 76.4419 42.6248 74.5517 42.6248 72.2414V63.9664H97.7247V72.1994C97.7247 74.5517 95.7784 76.4419 93.3997 76.4419Z" fill="#8D8D8D"/>
<path d="M119.437 253.177H20.9121C18.5592 253.177 16.634 251.204 16.634 248.791V170.235C16.634 167.823 18.5592 165.849 20.9121 165.849H119.437C121.79 165.849 123.715 167.823 123.715 170.235V248.835C123.715 251.204 121.79 253.177 119.437 253.177Z" fill="#99E2E0"/>
<path fill-rule="evenodd" clip-rule="evenodd" d="M30.4511 179.102C29.5124 179.102 28.7407 179.922 28.7407 180.92V191.324C28.7407 192.321 29.5124 193.141 30.4511 193.141H40.2433C41.1821 193.141 41.9538 192.321 41.9538 191.324V180.92C41.9538 179.922 41.1821 179.102 40.2433 179.102H30.4511ZM27.0303 180.92C27.0303 178.919 28.5677 177.285 30.4511 177.285H40.2433C42.1268 177.285 43.6642 178.919 43.6642 180.92V191.324C43.6642 193.325 42.1268 194.959 40.2433 194.959H30.4511C28.5677 194.959 27.0303 193.325 27.0303 191.324V180.92Z" fill="white"/>
<path fill-rule="evenodd" clip-rule="evenodd" d="M53.5365 179.102C52.5391 179.102 51.7192 179.922 51.7192 180.92V191.324C51.7192 192.321 52.5391 193.141 53.5365 193.141H63.9407C64.9382 193.141 65.7581 192.321 65.7581 191.324V180.92C65.7581 179.922 64.9382 179.102 63.9407 179.102H53.5365ZM49.9019 180.92C49.9019 178.919 51.5354 177.285 53.5365 177.285H63.9407C65.9419 177.285 67.5754 178.919 67.5754 180.92V191.324C67.5754 193.325 65.9419 194.959 63.9407 194.959H53.5365C51.5354 194.959 49.9019 193.325 49.9019 191.324V180.92Z" fill="white"/>
<path fill-rule="evenodd" clip-rule="evenodd" d="M77.2338 179.102C76.2951 179.102 75.5234 179.922 75.5234 180.92V191.324C75.5234 192.321 76.2951 193.141 77.2338 193.141H87.0261C87.9648 193.141 88.7365 192.321 88.7365 191.324V180.92C88.7365 179.922 87.9648 179.102 87.0261 179.102H77.2338ZM73.813 180.92C73.813 178.919 75.3504 177.285 77.2338 177.285H87.0261C88.9095 177.285 90.4469 178.919 90.4469 180.92V191.324C90.4469 193.325 88.9095 194.959 87.0261 194.959H77.2338C75.3504 194.959 73.813 193.325 73.813 191.324V180.92Z" fill="white"/>
<path fill-rule="evenodd" clip-rule="evenodd" d="M100.931 179.102C100.051 179.102 99.3279 179.922 99.3279 180.92V191.324C99.3279 192.321 100.051 193.141 100.931 193.141H110.112C111.023 193.141 111.715 192.331 111.715 191.324V180.92C111.715 179.922 110.992 179.102 110.112 179.102H100.931ZM97.7244 180.92C97.7244 178.919 99.1657 177.285 100.931 177.285H110.112C111.877 177.285 113.319 178.919 113.319 180.92V191.324C113.319 193.315 111.926 194.959 110.112 194.959H100.931C99.1657 194.959 97.7244 193.325 97.7244 191.324V180.92Z" fill="white"/>
<path fill-rule="evenodd" clip-rule="evenodd" d="M30.4511 201.974C29.5124 201.974 28.7407 202.794 28.7407 203.791V214.196C28.7407 215.193 29.5124 216.013 30.4511 216.013H40.2433C41.1821 216.013 41.9538 215.193 41.9538 214.196V203.791C41.9538 202.794 41.1821 201.974 40.2433 201.974H30.4511ZM27.0303 203.791C27.0303 201.79 28.5677 200.157 30.4511 200.157H40.2433C42.1268 200.157 43.6642 201.79 43.6642 203.791V214.196C43.6642 216.197 42.1268 217.83 40.2433 217.83H30.4511C28.5677 217.83 27.0303 216.197 27.0303 214.196V203.791Z" fill="white"/>
<path fill-rule="evenodd" clip-rule="evenodd" d="M53.5365 201.974C52.5391 201.974 51.7192 202.794 51.7192 203.791V214.196C51.7192 215.193 52.5391 216.013 53.5365 216.013H63.9407C64.9382 216.013 65.7581 215.193 65.7581 214.196V203.791C65.7581 202.794 64.9382 201.974 63.9407 201.974H53.5365ZM49.9019 203.791C49.9019 201.79 51.5354 200.157 53.5365 200.157H63.9407C65.9419 200.157 67.5754 201.79 67.5754 203.791V214.196C67.5754 216.197 65.9419 217.83 63.9407 217.83H53.5365C51.5354 217.83 49.9019 216.197 49.9019 214.196V203.791Z" fill="white"/>
<path d="M86.9052 216.791H77.355C75.9788 216.791 74.8528 215.584 74.8528 214.11V203.877C74.8528 202.403 75.9788 201.196 77.355 201.196H86.9052C88.2815 201.196 89.4075 202.403 89.4075 203.877V214.11C89.4075 215.584 88.2815 216.791 86.9052 216.791Z" fill="white"/>
<path fill-rule="evenodd" clip-rule="evenodd" d="M100.931 201.974C100.051 201.974 99.3279 202.794 99.3279 203.791V214.196C99.3279 215.193 100.051 216.013 100.931 216.013H110.112C111.023 216.013 111.715 215.203 111.715 214.196V203.791C111.715 202.794 110.992 201.974 110.112 201.974H100.931ZM97.7244 203.791C97.7244 201.79 99.1657 200.157 100.931 200.157H110.112C111.877 200.157 113.319 201.79 113.319 203.791V214.196C113.319 216.187 111.926 217.83 110.112 217.83H100.931C99.1657 217.83 97.7244 216.197 97.7244 214.196V203.791Z" fill="white"/>
<path fill-rule="evenodd" clip-rule="evenodd" d="M30.4511 226.711C29.5124 226.711 28.7407 227.435 28.7407 228.315V237.495C28.7407 238.375 29.5124 239.098 30.4511 239.098H40.2433C41.1821 239.098 41.9538 238.375 41.9538 237.495V228.315C41.9538 227.435 41.1821 226.711 40.2433 226.711H30.4511ZM27.0303 228.315C27.0303 226.549 28.5677 225.108 30.4511 225.108H40.2433C42.1268 225.108 43.6642 226.549 43.6642 228.315V237.495C43.6642 239.261 42.1268 240.702 40.2433 240.702H30.4511C28.5677 240.702 27.0303 239.261 27.0303 237.495V228.315Z" fill="white"/>
<path fill-rule="evenodd" clip-rule="evenodd" d="M53.5365 226.711C52.5391 226.711 51.7192 227.435 51.7192 228.315V237.495C51.7192 238.375 52.5391 239.098 53.5365 239.098H63.9407C64.9382 239.098 65.7581 238.375 65.7581 237.495V228.315C65.7581 227.435 64.9382 226.711 63.9407 226.711H53.5365ZM49.9019 228.315C49.9019 226.549 51.5354 225.108 53.5365 225.108H63.9407C65.9419 225.108 67.5754 226.549 67.5754 228.315V237.495C67.5754 239.261 65.9419 240.702 63.9407 240.702H53.5365C51.5354 240.702 49.9019 239.261 49.9019 237.495V228.315Z" fill="white"/>
<path fill-rule="evenodd" clip-rule="evenodd" d="M77.2338 226.711C76.2951 226.711 75.5234 227.435 75.5234 228.315V237.495C75.5234 238.375 76.2951 239.098 77.2338 239.098H87.0261C87.9648 239.098 88.7365 238.375 88.7365 237.495V228.315C88.7365 227.435 87.9648 226.711 87.0261 226.711H77.2338ZM73.813 228.315C73.813 226.549 75.3504 225.108 77.2338 225.108H87.0261C88.9095 225.108 90.4469 226.549 90.4469 228.315V237.495C90.4469 239.261 88.9095 240.702 87.0261 240.702H77.2338C75.3504 240.702 73.813 239.261 73.813 237.495V228.315Z" fill="white"/>
<path fill-rule="evenodd" clip-rule="evenodd" d="M100.931 226.711C100.051 226.711 99.3279 227.435 99.3279 228.315V237.495C99.3279 238.375 100.051 239.098 100.931 239.098H110.112C111.023 239.098 111.715 238.384 111.715 237.495V228.315C111.715 227.435 110.992 226.711 110.112 226.711H100.931ZM97.7244 228.315C97.7244 226.549 99.1657 225.108 100.931 225.108H110.112C111.877 225.108 113.319 226.549 113.319 228.315V237.495C113.319 239.252 111.926 240.702 110.112 240.702H100.931C99.1657 240.702 97.7244 239.261 97.7244 237.495V228.315Z" fill="white"/>
<path d="M105.442 208.474H85.8478C84.3748 208.474 83.1697 207.319 83.1697 205.907V187.129C83.1697 185.717 84.3748 184.562 85.8478 184.562H105.442C106.915 184.562 108.121 185.717 108.121 187.129V205.907C108.121 207.319 106.96 208.474 105.442 208.474Z" fill="#396C61"/>
<path fill-rule="evenodd" clip-rule="evenodd" d="M103.396 191.25C104.117 191.88 104.155 192.937 103.481 193.611L96.4206 200.667C95.7625 201.325 94.6646 201.376 93.9389 200.784L88.9792 196.734C88.2359 196.127 88.1599 195.072 88.8094 194.377C89.459 193.683 90.5881 193.612 91.3313 194.219L94.9897 197.206L100.869 191.33C101.543 190.656 102.674 190.62 103.396 191.25Z" fill="white"/>
<path fill-rule="evenodd" clip-rule="evenodd" d="M64.4565 264.613C64.4565 264.039 64.8483 263.574 65.3316 263.574H85.4135C85.8968 263.574 86.2886 264.039 86.2886 264.613C86.2886 265.187 85.8968 265.653 85.4135 265.653H65.3316C64.8483 265.653 64.4565 265.187 64.4565 264.613Z" fill="#E5C5A7"/>
<path fill-rule="evenodd" clip-rule="evenodd" d="M64.4565 272.93C64.4565 272.356 64.8439 271.891 65.3217 271.891H123.889C124.367 271.891 124.755 272.356 124.755 272.93C124.755 273.504 124.367 273.97 123.889 273.97H65.3217C64.8439 273.97 64.4565 273.504 64.4565 272.93Z" fill="#E5C5A7"/>
<path fill-rule="evenodd" clip-rule="evenodd" d="M64.4565 282.287C64.4565 281.713 64.8518 281.247 65.3394 281.247H105.158C105.646 281.247 106.041 281.713 106.041 282.287C106.041 282.861 105.646 283.326 105.158 283.326H65.3394C64.8518 283.326 64.4565 282.861 64.4565 282.287Z" fill="#E5C5A7"/>
<path fill-rule="evenodd" clip-rule="evenodd" d="M70.6941 124.784C70.6941 124.497 71.0863 124.264 71.57 124.264H89.5709C90.0547 124.264 90.4469 124.497 90.4469 124.784C90.4469 125.071 90.0547 125.304 89.5709 125.304H71.57C71.0863 125.304 70.6941 125.071 70.6941 124.784Z" fill="#E5C5A7"/>
<path fill-rule="evenodd" clip-rule="evenodd" d="M70.6941 134.141C70.6941 133.854 71.0807 133.621 71.5577 133.621H123.891C124.368 133.621 124.754 133.854 124.754 134.141C124.754 134.428 124.368 134.661 123.891 134.661H71.5577C71.0807 134.661 70.6941 134.428 70.6941 134.141Z" fill="#E5C5A7"/>
<path fill-rule="evenodd" clip-rule="evenodd" d="M70.6941 141.938C70.6941 141.364 71.0898 140.898 71.5778 140.898H107.237C107.725 140.898 108.12 141.364 108.12 141.938C108.12 142.512 107.725 142.978 107.237 142.978H71.5778C71.0898 142.978 70.6941 142.512 70.6941 141.938Z" fill="#E5C5A7"/>
<path d="M40.0686 263.433L30.3725 281.6C29.7318 282.845 30.5434 284.366 31.8675 284.366H51.3025C52.6266 284.366 53.4382 282.845 52.7975 281.6L43.1014 263.433C42.3752 262.234 40.7094 262.234 40.0686 263.433Z" fill="#396C61"/>
<path d="M25.0357 267.636L17.8908 281.57C17.2677 282.828 18.057 284.366 19.3447 284.366H33.676C34.9638 284.366 35.753 282.828 35.1299 281.57L27.9435 267.636C27.2789 266.378 25.7003 266.378 25.0357 267.636Z" fill="#396C61"/>
<path d="M82.1302 99.3136H76.9321V114.908H82.1302V99.3136Z" fill="#AE4A41"/>
<path d="M71.7339 104.512V109.71H87.3282V104.512H71.7339Z" fill="#AE4A41"/>
<path d="M340.542 90.8211V258.423C340.542 263.382 336.479 267.439 331.512 267.439H177.198C172.231 267.439 168.167 263.382 168.167 258.423V90.8211C168.167 85.8622 172.231 81.8049 177.198 81.8049H331.512C336.529 81.8049 340.542 85.8121 340.542 90.8211Z" fill="#3571B7"/>
<path d="M144.324 215.212L169.373 230.071V195.114L144.324 209.973C142.363 211.132 142.363 214.053 144.324 215.212Z" fill="#3571B7"/>
<path d="M296.17 207.926C296.16 207.895 296.144 207.865 296.123 207.839C296.102 207.814 296.076 207.792 296.047 207.777C296.017 207.761 295.985 207.751 295.952 207.748C295.919 207.745 295.885 207.749 295.854 207.758C295.806 207.773 290.972 209.191 282.778 207.163C282.712 207.147 282.643 207.157 282.586 207.192C282.528 207.227 282.487 207.283 282.471 207.348C282.455 207.414 282.465 207.483 282.5 207.54C282.535 207.598 282.591 207.639 282.656 207.655C285.107 208.278 287.615 208.645 290.141 208.752C290.502 208.765 290.85 208.771 291.179 208.771C294.204 208.771 295.885 208.278 296.001 208.242C296.058 208.226 296.107 208.19 296.14 208.141C296.161 208.11 296.174 208.074 296.18 208.037C296.185 208 296.181 207.962 296.17 207.926Z" fill="#231F20"/>
<path d="M255.411 147.374C255.411 147.189 255.411 147.019 255.404 146.861L255.392 146.867C255.394 147.029 255.404 147.202 255.411 147.374Z" fill="#D9E3F3"/>
<path d="M279.155 161.16L279.803 161.53C279.832 161.547 279.857 161.569 279.878 161.595C279.898 161.621 279.913 161.651 279.922 161.683C279.931 161.716 279.933 161.749 279.929 161.782C279.924 161.815 279.914 161.847 279.897 161.876C279.895 161.879 279.892 161.883 279.889 161.886L280.637 162.368L280.659 162.383C280.829 160.755 280.897 159.118 280.861 157.481L279.227 160.575C279.13 160.754 279.104 160.963 279.155 161.16Z" fill="#D9E3F3"/>
<path d="M275.347 206.15C275.725 206.238 276.113 205.948 276.213 205.511C276.264 205.301 276.236 205.08 276.133 204.891C276.09 204.808 276.03 204.736 275.957 204.679C275.883 204.622 275.799 204.581 275.708 204.56C275.664 204.549 275.618 204.543 275.573 204.544C275.432 204.545 275.295 204.591 275.182 204.674C275.01 204.804 274.89 204.99 274.842 205.199C274.795 205.409 274.823 205.628 274.921 205.819C274.965 205.902 275.025 205.974 275.098 206.031C275.172 206.088 275.256 206.129 275.347 206.15Z" fill="#D9E3F3"/>
<path d="M285.114 148.128C282.439 146.812 279.789 146.399 277.148 146.151C279.789 146.399 282.439 146.808 285.114 148.128Z" fill="#D9E3F3"/>
<path d="M255.413 145.802C255.413 145.691 255.419 145.633 255.419 145.633H255.367C255.367 145.686 255.367 145.741 255.367 145.797L255.413 145.802Z" fill="#D9E3F3"/>
<path d="M305.096 185.044C303.942 179.329 301.827 173.046 299.178 166.762C294.551 155.788 290.065 150.79 285.651 148.406L281.772 155.747C281.788 155.92 281.803 156.092 281.815 156.268C282.129 160.813 281.377 166.645 279.581 173.607C280.565 173.94 281.388 174.63 281.886 175.542C282.385 176.453 282.522 177.519 282.27 178.527C282.019 179.534 281.398 180.411 280.53 180.982C279.662 181.552 278.611 181.776 277.586 181.607C276.561 181.439 275.637 180.891 274.998 180.072C274.358 179.254 274.05 178.224 274.135 177.189C274.219 176.154 274.69 175.188 275.454 174.484C276.217 173.78 277.218 173.389 278.257 173.389C278.368 173.389 278.479 173.395 278.588 173.404C279.499 169.878 280.098 166.812 280.452 164.144C278.445 166.709 272.73 172.556 265.607 177.058C265.626 177.093 265.636 177.133 265.636 177.173C265.636 177.212 265.648 181.189 265.369 189.873C265.367 189.938 265.339 190.001 265.292 190.046C265.245 190.092 265.182 190.118 265.116 190.118H265.108C265.041 190.115 264.977 190.087 264.932 190.038C264.886 189.989 264.861 189.924 264.863 189.857C265.141 181.184 265.13 177.214 265.13 177.175C265.131 177.114 265.153 177.055 265.193 177.008C257.511 172.136 251.481 165.712 250.005 163.571C249.939 163.477 249.894 163.37 249.871 163.258C249.847 163.146 249.847 163.031 249.869 162.918C249.892 162.806 249.936 162.699 250.001 162.605C250.065 162.51 250.148 162.43 250.245 162.368L251.169 161.772L251.162 161.764C251.145 161.736 251.134 161.704 251.13 161.671C251.125 161.638 251.127 161.604 251.136 161.572C251.144 161.54 251.159 161.51 251.179 161.483C251.199 161.457 251.224 161.435 251.253 161.418L251.732 161.137C251.777 160.947 251.751 160.747 251.66 160.575L249.554 156.589C248.573 161.258 248.664 166.208 248.786 168.546C249.497 168.488 250.202 168.71 250.753 169.163C251.304 169.617 251.656 170.267 251.735 170.976L252.14 174.638C252.179 174.996 252.148 175.359 252.047 175.705C251.946 176.051 251.778 176.374 251.552 176.655C251.327 176.936 251.048 177.17 250.732 177.344C250.416 177.517 250.068 177.626 249.71 177.665L249.377 177.702C248.95 177.749 248.522 177.624 248.187 177.355C247.852 177.087 247.637 176.696 247.59 176.269L246.941 170.374C246.906 170.054 246.967 169.73 247.117 169.445C247.267 169.159 247.498 168.925 247.782 168.772C247.681 166.97 247.58 163.437 248.02 159.679C248.192 158.173 248.463 156.679 248.83 155.208L245.112 148.172C242.704 149.381 240.109 151.23 237.619 154.045C235.684 156.228 233.811 158.992 232.133 162.489C231.863 163.06 231.595 163.651 231.328 164.261C230.441 166.339 229.678 168.467 229.043 170.634C228.792 171.482 228.55 172.356 228.32 173.267C228.289 173.385 228.26 173.503 228.23 173.62C220.737 203.162 223.021 204.848 228.066 207.202C230.544 208.359 236.105 208.98 241.139 209.313C241.011 215.59 240.997 222.332 241.008 226.931H245.721C245.788 226.931 245.852 226.958 245.9 227.005C245.947 227.053 245.974 227.117 245.974 227.184H253.412C253.412 227.151 253.418 227.118 253.431 227.087C253.444 227.056 253.462 227.028 253.486 227.005C253.509 226.981 253.537 226.963 253.568 226.95C253.599 226.937 253.632 226.931 253.665 226.931H291.373C291.045 221.913 290.528 214.072 290.15 208.759C287.624 208.652 285.116 208.285 282.666 207.662C282.633 207.654 282.603 207.64 282.576 207.62C282.549 207.6 282.527 207.576 282.509 207.547C282.492 207.519 282.481 207.487 282.476 207.454C282.471 207.421 282.472 207.388 282.48 207.355C282.488 207.323 282.502 207.293 282.522 207.266C282.542 207.239 282.567 207.216 282.595 207.199C282.624 207.182 282.655 207.171 282.688 207.166C282.721 207.161 282.755 207.162 282.787 207.17C290.982 209.195 295.816 207.778 295.863 207.765C295.895 207.756 295.928 207.752 295.961 207.755C295.995 207.758 296.027 207.768 296.056 207.784C296.085 207.799 296.111 207.821 296.132 207.846C296.154 207.872 296.169 207.902 296.179 207.934C296.19 207.969 296.193 208.005 296.188 208.042C296.183 208.078 296.17 208.113 296.15 208.143C301.28 207.121 304.163 203.975 305.375 199.47C306.427 195.525 306.206 190.548 305.096 185.044ZM295.593 197.237C293.82 201.793 284.027 207.93 278.343 207.705C278.343 207.705 278.58 206.656 278.822 205.113C278.57 206.514 278.345 207.644 278.325 207.754C278.316 207.803 278.293 207.849 278.258 207.885C278.223 207.921 278.179 207.946 278.13 207.957C270.371 209.653 261.149 210.066 254.005 210.066C247.286 210.066 242.405 209.7 242.306 209.692C242.273 209.69 242.241 209.681 242.211 209.666C242.181 209.651 242.155 209.63 242.133 209.605C242.089 209.554 242.067 209.487 242.072 209.42C242.077 209.353 242.109 209.29 242.16 209.247C242.211 209.203 242.278 209.181 242.345 209.186C242.547 209.201 262.891 210.723 277.86 207.495C278.048 206.529 279.01 201.546 279.047 199.935C279.158 195.036 277.832 193.908 277.629 193.766C275.721 193.428 273.794 193.105 271.864 192.797C272.603 193.911 274.317 197.624 272.37 206.496C272.358 206.553 272.327 206.604 272.282 206.641C272.237 206.678 272.181 206.698 272.123 206.698C272.105 206.7 272.086 206.7 272.068 206.698C272.036 206.691 272.005 206.677 271.977 206.658C271.95 206.639 271.927 206.615 271.909 206.586C271.891 206.558 271.879 206.527 271.873 206.494C271.867 206.461 271.868 206.427 271.876 206.394C273.077 200.927 272.83 197.511 272.41 195.611C271.96 193.562 271.219 192.79 271.212 192.783C271.186 192.757 271.167 192.726 271.155 192.692C252.751 189.791 234.515 188.286 234.311 188.27C234.278 188.267 234.245 188.258 234.216 188.243C234.186 188.227 234.16 188.206 234.138 188.181C234.095 188.13 234.073 188.063 234.079 187.996C234.084 187.929 234.116 187.867 234.168 187.823C234.219 187.779 234.286 187.758 234.353 187.764C234.389 187.764 235.013 187.817 236.118 187.916C233.81 183.542 234.646 181.343 235.402 180.84C235.467 180.797 235.536 180.762 235.609 180.733V180.724C235.599 180.693 235.595 180.66 235.597 180.627C235.599 180.594 235.608 180.562 235.623 180.532C235.638 180.503 235.658 180.477 235.683 180.455C235.708 180.433 235.737 180.417 235.768 180.406C235.816 180.39 236.457 180.193 237.624 180.517C236.892 178.375 237.379 177.042 237.884 176.321C237.946 176.232 238.029 176.16 238.125 176.111C238.221 176.061 238.327 176.036 238.435 176.037C238.543 176.038 238.649 176.065 238.744 176.117C238.839 176.168 238.92 176.242 238.98 176.332C239.362 176.901 240.048 177.831 241.219 179.161C241.38 175.563 241.315 170.645 241.315 170.587C241.314 170.553 241.32 170.52 241.333 170.49C241.345 170.459 241.363 170.431 241.386 170.407C241.409 170.383 241.437 170.364 241.468 170.351C241.498 170.338 241.531 170.331 241.564 170.33C241.63 170.331 241.694 170.357 241.741 170.403C241.789 170.45 241.816 170.513 241.817 170.58C241.817 170.641 241.888 176.053 241.696 179.699C242.561 180.655 243.654 181.791 245.025 183.119C248.996 186.967 249.946 188.708 250.17 189.36C258.2 190.28 268.25 191.588 277.767 193.282C277.79 193.286 277.813 193.293 277.835 193.304C277.908 193.344 277.976 193.393 278.037 193.45C278.645 192.624 282.318 187.843 287.191 185.713C286.988 176.968 287.564 170.048 287.572 169.957C287.575 169.924 287.585 169.891 287.6 169.862C287.615 169.832 287.636 169.806 287.662 169.784C287.687 169.763 287.717 169.747 287.749 169.736C287.781 169.726 287.814 169.723 287.847 169.725C287.88 169.728 287.913 169.738 287.942 169.753C287.972 169.768 287.998 169.789 288.02 169.815C288.041 169.841 288.058 169.87 288.068 169.902C288.078 169.934 288.081 169.967 288.079 170C288.071 170.09 287.507 176.886 287.695 185.507C290.299 184.486 293.219 184.259 296.182 185.792C296.318 185.862 296.437 185.96 296.532 186.081C296.626 186.201 296.694 186.34 296.73 186.489C296.852 187.006 296.868 187.924 296.183 189.268C295.042 191.497 297.363 192.678 295.593 197.237ZM274.349 205.087C274.422 204.754 274.615 204.46 274.891 204.261C275.023 204.163 275.175 204.095 275.336 204.061C275.496 204.028 275.663 204.029 275.823 204.065C275.983 204.102 276.133 204.173 276.264 204.273C276.394 204.373 276.501 204.5 276.578 204.645C276.741 204.944 276.788 205.292 276.71 205.623C276.568 206.245 276.046 206.672 275.482 206.672C275.276 206.672 275.074 206.615 274.897 206.508C274.721 206.401 274.577 206.247 274.481 206.064C274.318 205.766 274.27 205.418 274.347 205.087H274.349Z" fill="#D9E3F3"/>
<path d="M288.076 169.992C288.079 169.959 288.076 169.926 288.066 169.894C288.055 169.862 288.039 169.832 288.018 169.807C287.996 169.781 287.97 169.76 287.94 169.745C287.911 169.73 287.878 169.72 287.845 169.717C287.812 169.715 287.778 169.718 287.747 169.728C287.715 169.738 287.685 169.755 287.66 169.776C287.634 169.798 287.613 169.824 287.598 169.854C287.582 169.883 287.573 169.916 287.57 169.949C287.562 170.04 286.988 176.96 287.188 185.705C287.355 185.633 287.523 185.565 287.695 185.503C287.504 176.876 288.068 170.085 288.076 169.992Z" fill="#90C9ED"/>
<path d="M296.728 186.481C296.692 186.332 296.624 186.193 296.53 186.073C296.435 185.952 296.316 185.854 296.18 185.784C293.217 184.251 290.297 184.478 287.693 185.498C287.523 185.566 287.354 185.633 287.186 185.701C282.314 187.827 278.642 192.612 278.033 193.438C278.51 193.859 279.653 195.35 279.552 199.94C279.528 200.973 279.147 203.271 278.821 205.104C278.579 206.648 278.342 207.697 278.342 207.697C284.026 207.921 293.819 201.787 295.592 197.229C297.365 192.67 295.043 191.489 296.182 189.252C296.865 187.915 296.85 186.995 296.728 186.481ZM290.188 194.099C290.15 194.099 290.113 194.091 290.079 194.075C290.045 194.059 290.015 194.035 289.991 194.006C289.949 193.954 289.929 193.887 289.936 193.82C289.943 193.753 289.976 193.692 290.028 193.649C292.154 191.928 295.363 190.877 295.495 190.834C295.527 190.823 295.561 190.819 295.594 190.822C295.627 190.824 295.66 190.833 295.689 190.848C295.719 190.864 295.746 190.884 295.767 190.91C295.789 190.935 295.805 190.965 295.816 190.997C295.826 191.028 295.83 191.062 295.827 191.095C295.824 191.128 295.815 191.161 295.799 191.19C295.784 191.22 295.763 191.246 295.737 191.268C295.712 191.289 295.682 191.306 295.65 191.316C295.618 191.326 292.392 192.377 290.345 194.042C290.3 194.079 290.245 194.099 290.188 194.099ZM296.021 193.933C296.044 193.957 296.063 193.984 296.076 194.015C296.089 194.046 296.095 194.079 296.095 194.112C296.095 194.146 296.089 194.178 296.076 194.209C296.063 194.24 296.044 194.268 296.021 194.291C294.77 195.502 293.343 196.515 291.787 197.296C291.753 197.312 291.715 197.321 291.676 197.321C291.619 197.321 291.564 197.301 291.519 197.266C291.475 197.23 291.443 197.181 291.43 197.125C291.418 197.07 291.424 197.011 291.448 196.96C291.473 196.908 291.514 196.866 291.565 196.841C293.919 195.691 295.643 193.953 295.66 193.936C295.684 193.912 295.712 193.893 295.742 193.879C295.773 193.866 295.806 193.859 295.84 193.859C295.874 193.858 295.907 193.865 295.938 193.878C295.969 193.89 295.997 193.909 296.021 193.933ZM296.069 188.558C296.017 188.548 291.972 187.809 288.793 190.61C288.768 190.632 288.739 190.649 288.708 190.66C288.676 190.67 288.643 190.675 288.61 190.673C288.577 190.671 288.544 190.662 288.514 190.647C288.485 190.633 288.458 190.612 288.436 190.588C288.414 190.563 288.397 190.534 288.386 190.502C288.375 190.471 288.371 190.437 288.373 190.404C288.375 190.371 288.384 190.339 288.398 190.309C288.413 190.279 288.433 190.252 288.458 190.23C291.834 187.255 295.992 188.028 296.167 188.061C296.233 188.075 296.291 188.114 296.328 188.17C296.365 188.226 296.378 188.295 296.365 188.36C296.351 188.426 296.312 188.484 296.256 188.521C296.2 188.559 296.131 188.572 296.065 188.558H296.069Z" fill="#FBC3A8"/>
<path d="M296.366 188.359C296.373 188.326 296.372 188.292 296.366 188.259C296.359 188.227 296.346 188.196 296.327 188.168C296.308 188.14 296.284 188.116 296.256 188.098C296.228 188.08 296.197 188.067 296.164 188.061C295.988 188.028 291.831 187.251 288.455 190.23C288.43 190.252 288.41 190.279 288.395 190.309C288.381 190.339 288.372 190.371 288.37 190.404C288.368 190.437 288.373 190.471 288.383 190.502C288.394 190.534 288.411 190.563 288.433 190.588C288.455 190.613 288.482 190.633 288.512 190.647C288.541 190.662 288.574 190.671 288.607 190.673C288.64 190.675 288.674 190.67 288.705 190.66C288.736 190.649 288.765 190.632 288.79 190.61C291.969 187.809 296.014 188.548 296.066 188.558C296.099 188.565 296.133 188.565 296.166 188.559C296.199 188.553 296.23 188.54 296.258 188.521C296.286 188.503 296.31 188.479 296.328 188.451C296.347 188.423 296.36 188.392 296.366 188.359Z" fill="#EB7360"/>
<path d="M295.817 190.997C295.796 190.933 295.751 190.88 295.691 190.849C295.632 190.819 295.562 190.813 295.498 190.834C295.363 190.877 292.151 191.923 290.031 193.649C289.979 193.692 289.946 193.753 289.939 193.82C289.932 193.887 289.952 193.954 289.994 194.006C290.037 194.058 290.098 194.091 290.165 194.098C290.232 194.104 290.298 194.085 290.35 194.042C292.398 192.377 295.624 191.326 295.656 191.316C295.72 191.295 295.772 191.249 295.803 191.189C295.833 191.13 295.838 191.06 295.817 190.997Z" fill="#EB7360"/>
<path d="M295.663 193.936C295.646 193.953 293.922 195.691 291.567 196.841C291.516 196.866 291.475 196.908 291.451 196.96C291.427 197.011 291.42 197.069 291.433 197.125C291.446 197.18 291.477 197.23 291.522 197.266C291.567 197.301 291.622 197.321 291.679 197.321C291.717 197.321 291.755 197.312 291.79 197.296C293.346 196.515 294.773 195.502 296.024 194.291C296.048 194.268 296.067 194.24 296.08 194.209C296.093 194.178 296.099 194.145 296.099 194.111C296.1 194.078 296.093 194.044 296.08 194.013C296.067 193.982 296.048 193.954 296.024 193.931C296 193.907 295.972 193.888 295.941 193.876C295.909 193.863 295.876 193.857 295.843 193.858C295.809 193.858 295.776 193.865 295.745 193.879C295.714 193.892 295.686 193.912 295.663 193.936Z" fill="#EB7360"/>
<path d="M241.817 170.571C241.816 170.505 241.788 170.442 241.741 170.395C241.694 170.349 241.63 170.323 241.564 170.322C241.531 170.323 241.498 170.33 241.467 170.343C241.437 170.356 241.409 170.375 241.386 170.399C241.363 170.423 241.345 170.451 241.332 170.482C241.32 170.512 241.314 170.545 241.315 170.579C241.315 170.637 241.38 175.555 241.219 179.153C241.37 179.326 241.53 179.504 241.699 179.69C241.888 176.045 241.817 170.633 241.817 170.571Z" fill="#90C9ED"/>
<path d="M245.025 183.111C243.654 181.782 242.561 180.647 241.695 179.69C241.526 179.504 241.366 179.326 241.215 179.153C240.044 177.823 239.358 176.893 238.976 176.324C238.916 176.234 238.835 176.16 238.74 176.109C238.645 176.057 238.539 176.03 238.431 176.029C238.323 176.028 238.216 176.053 238.12 176.102C238.024 176.152 237.942 176.224 237.88 176.313C237.374 177.034 236.888 178.367 237.62 180.509C238.617 180.784 239.999 181.441 241.728 182.918C241.767 182.952 241.795 182.997 241.808 183.047C241.821 183.097 241.819 183.15 241.801 183.198C241.783 183.247 241.751 183.289 241.708 183.318C241.666 183.348 241.616 183.364 241.564 183.364C241.503 183.364 241.445 183.343 241.399 183.303C237.896 180.309 235.941 180.873 235.922 180.879C235.86 180.899 235.793 180.893 235.735 180.865C235.677 180.836 235.632 180.786 235.609 180.725C235.536 180.753 235.467 180.789 235.401 180.832C234.646 181.338 233.81 183.534 236.117 187.908C238.666 188.137 243.778 188.617 250.17 189.352C249.946 188.7 248.996 186.959 245.025 183.111ZM240.577 185.463C240.558 185.49 240.534 185.514 240.506 185.532C240.478 185.55 240.447 185.563 240.414 185.569C240.381 185.575 240.348 185.575 240.315 185.568C240.283 185.561 240.252 185.548 240.224 185.529C237.557 183.706 235.732 184.875 235.655 184.921C235.627 184.94 235.596 184.953 235.563 184.959C235.531 184.966 235.497 184.966 235.465 184.96C235.432 184.953 235.401 184.94 235.373 184.922C235.346 184.904 235.322 184.88 235.303 184.852C235.285 184.825 235.272 184.794 235.265 184.761C235.259 184.729 235.259 184.695 235.265 184.662C235.271 184.63 235.284 184.599 235.302 184.571C235.321 184.543 235.345 184.52 235.372 184.501C235.459 184.442 237.546 183.077 240.511 185.109C240.539 185.127 240.563 185.151 240.581 185.179C240.599 185.207 240.612 185.239 240.618 185.272C240.624 185.305 240.624 185.339 240.617 185.372C240.61 185.404 240.596 185.436 240.577 185.463Z" fill="#FBC3A8"/>
<path d="M235.922 180.879C235.941 180.873 237.896 180.309 241.399 183.303C241.445 183.343 241.503 183.364 241.564 183.364C241.615 183.364 241.666 183.348 241.708 183.318C241.751 183.289 241.783 183.247 241.801 183.198C241.819 183.15 241.821 183.097 241.808 183.047C241.795 182.997 241.767 182.952 241.728 182.918C239.999 181.441 238.617 180.784 237.62 180.509C236.453 180.185 235.812 180.382 235.764 180.398C235.733 180.409 235.704 180.425 235.679 180.447C235.654 180.468 235.633 180.495 235.619 180.524C235.604 180.554 235.595 180.586 235.593 180.619C235.59 180.652 235.595 180.685 235.605 180.716V180.725C235.627 180.787 235.673 180.838 235.732 180.866C235.791 180.895 235.859 180.9 235.922 180.879Z" fill="#EB7360"/>
<path d="M240.51 185.112C237.545 183.082 235.458 184.446 235.371 184.504C235.315 184.542 235.277 184.6 235.264 184.666C235.251 184.731 235.265 184.8 235.302 184.855C235.34 184.911 235.398 184.95 235.464 184.963C235.529 184.976 235.598 184.962 235.653 184.924C235.73 184.874 237.556 183.702 240.223 185.532C240.25 185.552 240.281 185.566 240.314 185.574C240.347 185.581 240.381 185.582 240.415 185.576C240.448 185.571 240.48 185.558 240.508 185.54C240.537 185.522 240.561 185.498 240.58 185.47C240.6 185.442 240.613 185.411 240.62 185.378C240.627 185.345 240.627 185.311 240.62 185.278C240.613 185.244 240.6 185.213 240.581 185.185C240.562 185.157 240.538 185.133 240.51 185.115V185.112Z" fill="#EB7360"/>
<path d="M278.037 193.442C277.976 193.385 277.908 193.336 277.834 193.296C277.813 193.285 277.79 193.278 277.767 193.274C268.249 191.583 258.2 190.272 250.17 189.352C243.778 188.621 238.666 188.137 236.117 187.908C235.013 187.807 234.389 187.758 234.353 187.755C234.319 187.753 234.286 187.757 234.254 187.767C234.222 187.777 234.193 187.793 234.168 187.815C234.142 187.836 234.121 187.863 234.106 187.893C234.091 187.922 234.081 187.955 234.079 187.988C234.076 188.021 234.08 188.055 234.09 188.086C234.1 188.118 234.117 188.147 234.138 188.173C234.16 188.198 234.186 188.219 234.216 188.235C234.245 188.25 234.278 188.259 234.311 188.262C234.514 188.278 252.751 189.781 271.155 192.684C271.167 192.718 271.186 192.749 271.211 192.775C271.218 192.782 271.96 193.554 272.41 195.603C272.829 197.503 273.076 200.918 271.876 206.387C271.868 206.419 271.867 206.453 271.873 206.486C271.879 206.519 271.891 206.55 271.909 206.579C271.926 206.607 271.95 206.631 271.977 206.65C272.004 206.67 272.035 206.683 272.068 206.69C272.086 206.692 272.104 206.692 272.123 206.69C272.181 206.69 272.237 206.67 272.282 206.633C272.327 206.596 272.358 206.545 272.37 206.488C274.318 197.616 272.604 193.899 271.863 192.789C273.793 193.093 275.721 193.42 277.629 193.758C277.831 193.9 279.155 195.028 279.046 199.927C279.01 201.538 278.048 206.521 277.86 207.487C262.891 210.715 242.549 209.193 242.345 209.178C242.311 209.176 242.278 209.18 242.246 209.19C242.215 209.2 242.185 209.217 242.16 209.239C242.109 209.283 242.077 209.345 242.072 209.412C242.067 209.479 242.089 209.546 242.133 209.597C242.177 209.648 242.239 209.679 242.306 209.684C242.407 209.693 247.286 210.058 254.005 210.058C261.149 210.058 270.371 209.645 278.13 207.949C278.179 207.938 278.223 207.913 278.258 207.877C278.292 207.841 278.316 207.796 278.325 207.746C278.345 207.645 278.57 206.506 278.822 205.105C279.153 203.267 279.53 200.969 279.553 199.941C279.655 195.354 278.514 193.863 278.037 193.442Z" fill="#90C9ED"/>
<path d="M275.234 206.645C275.315 206.663 275.397 206.672 275.48 206.672C276.044 206.672 276.565 206.245 276.707 205.623C276.785 205.292 276.738 204.943 276.576 204.645C276.499 204.499 276.392 204.372 276.261 204.272C276.131 204.173 275.98 204.102 275.82 204.065C275.66 204.029 275.494 204.028 275.333 204.061C275.172 204.095 275.021 204.163 274.889 204.261C274.616 204.464 274.426 204.757 274.352 205.088C274.277 205.419 274.324 205.766 274.484 206.065C274.56 206.21 274.667 206.336 274.796 206.436C274.926 206.536 275.075 206.607 275.234 206.645ZM274.841 205.199C274.886 204.988 275.007 204.801 275.181 204.674C275.295 204.591 275.431 204.545 275.572 204.544C275.618 204.543 275.663 204.549 275.708 204.56C275.798 204.581 275.883 204.622 275.956 204.679C276.03 204.736 276.09 204.808 276.133 204.891C276.235 205.08 276.264 205.301 276.213 205.51C276.112 205.95 275.725 206.237 275.346 206.15C275.256 206.129 275.171 206.088 275.098 206.031C275.025 205.974 274.964 205.902 274.921 205.819C274.819 205.629 274.79 205.408 274.841 205.199Z" fill="#90C9ED"/>
<path d="M280.637 162.368L279.889 161.886C279.866 161.922 279.835 161.951 279.798 161.972C279.761 161.992 279.72 162.003 279.677 162.003C279.633 162.003 279.59 161.992 279.552 161.97L276.919 160.461C276.862 160.427 276.821 160.372 276.805 160.308C276.788 160.244 276.797 160.176 276.83 160.119C276.863 160.061 276.917 160.019 276.98 160.001C277.044 159.983 277.112 159.99 277.17 160.022L279.16 161.16C279.108 160.963 279.132 160.754 279.227 160.575L280.861 157.481C280.727 152.775 279.545 150.045 278.246 148.47C276.946 146.894 275.452 146.343 274.492 146.161C275.234 161.424 266.306 175.749 265.454 177.077V177.088L265.391 177.178L265.321 177.089C257.161 166.44 255.661 153.162 255.411 147.374C255.404 147.198 255.398 147.029 255.392 146.868C252.126 148.555 250.419 152.461 249.551 156.588L251.657 160.574C251.748 160.746 251.773 160.946 251.729 161.136L254 159.804C254.029 159.785 254.061 159.772 254.095 159.766C254.129 159.76 254.163 159.761 254.197 159.769C254.23 159.777 254.262 159.791 254.29 159.812C254.317 159.832 254.341 159.858 254.358 159.888C254.375 159.917 254.386 159.95 254.391 159.984C254.395 160.018 254.392 160.053 254.382 160.086C254.373 160.119 254.357 160.15 254.335 160.176C254.313 160.203 254.286 160.225 254.255 160.24L251.506 161.853C251.467 161.876 251.423 161.888 251.377 161.888C251.335 161.888 251.294 161.877 251.257 161.857C251.22 161.836 251.188 161.807 251.166 161.771L250.241 162.367C250.145 162.429 250.062 162.509 249.998 162.604C249.933 162.698 249.888 162.805 249.866 162.917C249.844 163.03 249.844 163.145 249.867 163.257C249.891 163.369 249.936 163.476 250.001 163.57C251.481 165.711 257.51 172.135 265.19 177.007C265.15 177.054 265.127 177.113 265.127 177.174C265.127 177.213 265.138 181.183 264.86 189.855C264.858 189.923 264.882 189.988 264.928 190.037C264.974 190.086 265.038 190.114 265.105 190.117H265.113C265.178 190.117 265.242 190.091 265.289 190.045C265.336 190 265.364 189.937 265.366 189.872C265.644 181.188 265.633 177.215 265.633 177.172C265.633 177.132 265.623 177.092 265.604 177.057C272.727 172.555 278.442 166.708 280.449 164.143C280.53 163.535 280.597 162.948 280.651 162.382L280.637 162.368Z" fill="#90C9ED"/>
<path d="M279.001 147.796C280.537 149.647 281.467 152.321 281.772 155.747L285.65 148.406C285.472 148.311 285.295 148.218 285.117 148.13C282.441 146.814 279.792 146.401 277.151 146.153C277.85 146.6 278.474 147.155 279.001 147.796Z" fill="#90C9ED"/>
<path d="M250.047 151.601C251.289 148.814 253.009 146.878 255.162 145.849C255.225 145.819 255.294 145.802 255.364 145.8C255.364 145.745 255.364 145.689 255.364 145.636H255.359L254.834 145.678L254.744 145.685L254.55 145.702L254.423 145.713L254.242 145.731L254.109 145.744L253.937 145.761L253.797 145.776L253.635 145.794L253.492 145.811L253.338 145.828L253.18 145.848L253.047 145.864L252.774 145.901L252.665 145.916L252.495 145.941L252.378 145.958L252.221 145.983L252.108 146.002L251.955 146.027L251.847 146.047L251.694 146.074L251.592 146.093L251.43 146.125L251.349 146.142C251.269 146.158 251.19 146.174 251.114 146.191C251.093 146.196 251.071 146.199 251.049 146.202L250.738 146.258H250.72C250.618 146.276 250.517 146.297 250.416 146.318H250.396C250.294 146.339 250.184 146.362 250.077 146.386H250.067C249.974 146.407 249.879 146.428 249.784 146.452L249.612 146.493L249.496 146.521L249.294 146.574L249.205 146.597L248.983 146.659L248.909 146.679L248.673 146.748L248.609 146.766L248.36 146.843L248.307 146.86L248.043 146.946L248.003 146.959L247.722 147.054L247.697 147.063L247.4 147.164H247.389C247.296 147.199 247.203 147.233 247.109 147.266L246.932 147.334L246.824 147.377L246.631 147.456L246.537 147.493L246.334 147.578L246.246 147.617L246.044 147.707L245.958 147.746L245.755 147.841L245.667 147.881L245.458 147.983L245.37 148.025L245.16 148.126L245.112 148.15L248.83 155.186C249.135 153.959 249.542 152.76 250.047 151.601Z" fill="#90C9ED"/>
<path d="M251.377 161.889C251.423 161.889 251.467 161.877 251.506 161.854L254.255 160.241C254.286 160.226 254.313 160.204 254.335 160.177C254.357 160.151 254.373 160.12 254.382 160.087C254.392 160.054 254.395 160.02 254.391 159.985C254.386 159.951 254.375 159.918 254.358 159.889C254.341 159.859 254.317 159.833 254.29 159.813C254.262 159.792 254.23 159.778 254.197 159.77C254.163 159.762 254.129 159.761 254.095 159.767C254.061 159.773 254.029 159.786 254 159.805L251.729 161.136L251.25 161.418C251.221 161.435 251.196 161.457 251.176 161.483C251.156 161.51 251.141 161.54 251.133 161.572C251.124 161.604 251.122 161.638 251.127 161.671C251.131 161.704 251.142 161.735 251.159 161.764L251.166 161.772C251.188 161.808 251.22 161.837 251.257 161.858C251.294 161.878 251.335 161.889 251.377 161.889Z" fill="#75B2E1"/>
<path d="M279.803 161.531L279.155 161.16L277.164 160.022C277.106 159.99 277.038 159.983 276.974 160.001C276.911 160.019 276.857 160.061 276.824 160.119C276.791 160.176 276.782 160.244 276.799 160.308C276.815 160.372 276.856 160.427 276.913 160.461L279.546 161.97C279.584 161.992 279.627 162.003 279.671 162.003C279.714 162.003 279.755 161.993 279.792 161.972C279.829 161.951 279.86 161.922 279.883 161.886C279.886 161.883 279.889 161.879 279.891 161.876C279.925 161.818 279.935 161.75 279.918 161.685C279.902 161.62 279.86 161.565 279.803 161.531Z" fill="#75B2E1"/>
<path d="M248.371 168.59C248.164 168.612 247.963 168.675 247.78 168.775C247.496 168.928 247.265 169.162 247.115 169.448C246.965 169.733 246.904 170.057 246.939 170.377L247.588 176.272C247.635 176.699 247.849 177.09 248.185 177.358C248.52 177.627 248.948 177.752 249.375 177.705L249.708 177.668C250.066 177.629 250.413 177.52 250.73 177.347C251.046 177.173 251.325 176.939 251.55 176.658C251.776 176.377 251.944 176.054 252.045 175.708C252.146 175.362 252.177 174.999 252.138 174.641L251.733 170.979C251.654 170.27 251.302 169.62 250.751 169.166C250.2 168.713 249.495 168.491 248.783 168.549L248.705 168.557L248.371 168.59Z" fill="white"/>
<path d="M273.487 146.07C273.822 146.06 274.158 146.089 274.487 146.157C275.447 146.34 276.937 146.883 278.241 148.465C279.544 150.048 280.722 152.775 280.856 157.477C280.892 159.114 280.824 160.751 280.653 162.379C280.597 162.945 280.529 163.532 280.451 164.14C280.096 166.808 279.498 169.874 278.587 173.4C278.925 173.426 279.259 173.494 279.58 173.602C281.375 166.64 282.128 160.807 281.814 156.263C281.802 156.087 281.786 155.915 281.771 155.742C281.467 152.316 280.536 149.642 279 147.791C278.473 147.149 277.847 146.593 277.147 146.146C275.257 144.947 273.513 145.048 273.417 145.054H273.386L273.431 146.059C273.449 146.063 273.468 146.067 273.487 146.07Z" fill="#1F3966"/>
<path d="M278.257 173.389C277.149 173.385 276.084 173.816 275.291 174.589C274.497 175.361 274.038 176.414 274.012 177.522C273.987 178.629 274.396 179.702 275.153 180.511C275.91 181.32 276.954 181.799 278.061 181.847C279.167 181.894 280.248 181.505 281.072 180.764C281.895 180.023 282.395 178.989 282.464 177.884C282.533 176.778 282.166 175.69 281.441 174.852C280.716 174.014 279.692 173.494 278.588 173.404C278.481 173.395 278.368 173.389 278.257 173.389ZM279.675 177.526C279.675 177.806 279.591 178.08 279.436 178.313C279.28 178.546 279.058 178.728 278.799 178.835C278.54 178.943 278.255 178.971 277.98 178.916C277.705 178.861 277.453 178.726 277.255 178.528C277.056 178.33 276.921 178.077 276.867 177.802C276.812 177.527 276.84 177.242 276.947 176.983C277.055 176.724 277.236 176.503 277.469 176.347C277.703 176.191 277.977 176.108 278.257 176.108C278.443 176.108 278.628 176.144 278.8 176.215C278.973 176.286 279.129 176.391 279.261 176.522C279.393 176.654 279.498 176.81 279.569 176.983C279.641 177.155 279.678 177.339 279.678 177.526H279.675Z" fill="white"/>
<path d="M279.261 178.53C279.815 177.976 279.815 177.076 279.261 176.521C278.706 175.967 277.806 175.967 277.252 176.521C276.697 177.076 276.697 177.976 277.252 178.53C277.806 179.085 278.706 179.085 279.261 178.53Z" fill="#90C9ED"/>
<path d="M273.453 146.554L273.432 146.069L273.388 145.064L273.043 137.227C272.768 137.557 266.091 145.42 256.459 143.201C256.443 144.119 256.428 144.948 256.417 145.54C256.406 146.106 256.399 146.452 256.399 146.452C256.399 146.452 263.415 152.396 273.453 146.554Z" fill="#FBC3A8"/>
<path d="M273.043 137.227L273.052 137.216C270.558 139.444 267.556 140.76 264.282 140.76C261.431 140.76 258.774 139.795 256.486 138.095L256.441 143.194L256.463 143.199C266.091 145.42 272.767 137.557 273.043 137.227Z" fill="#EB7360"/>
<path d="M254.109 119.837C254.149 124.141 256.236 127.621 258.796 127.621C261.382 127.621 263.485 124.077 263.485 119.712C263.485 115.347 261.382 111.802 258.796 111.802C256.264 111.802 254.197 115.204 254.111 119.439C254.152 119.51 254.17 119.593 254.162 119.675C254.156 119.732 254.138 119.787 254.109 119.837ZM258.796 119.562C259.47 119.562 260.011 120.597 260.011 121.875C260.011 123.153 259.465 124.188 258.796 124.188C258.126 124.188 257.58 123.152 257.58 121.875C257.58 120.598 258.122 119.559 258.796 119.559V119.562Z" fill="#FBC3A8"/>
<path d="M269.021 127.621C271.606 127.621 273.71 124.077 273.71 119.712C273.71 115.347 271.606 111.802 269.021 111.802C266.436 111.802 264.332 115.346 264.332 119.712C264.332 124.078 266.431 127.621 269.021 127.621ZM269.358 119.559C270.032 119.559 270.573 120.594 270.573 121.872C270.573 123.15 270.027 124.185 269.358 124.185C268.688 124.185 268.143 123.149 268.143 121.872C268.143 120.595 268.684 119.559 269.358 119.559Z" fill="#FBC3A8"/>
<path d="M273.052 137.216C275.525 135.003 277.497 131.885 278.737 128.244C279.066 128.298 279.399 128.326 279.732 128.326C282.649 128.326 285.014 126.289 285.014 123.775C285.014 121.728 283.444 119.997 281.285 119.421C280.929 119.328 280.566 119.267 280.199 119.24H280.177C280.113 119.24 280.048 119.231 279.984 119.229H279.961C279.885 119.229 279.809 119.229 279.732 119.229C279.324 119.229 278.917 119.27 278.517 119.351C278.067 119.442 277.629 119.586 277.213 119.78L274.511 120.035C274.463 122.21 273.919 124.249 272.965 125.807C271.926 127.502 270.525 128.439 269.016 128.439C267.508 128.439 266.107 127.506 265.067 125.807C264.537 124.919 264.144 123.955 263.902 122.949C263.661 123.955 263.268 124.919 262.737 125.807C261.699 127.502 260.297 128.439 258.789 128.439C257.28 128.439 255.88 127.506 254.84 125.807C253.882 124.242 253.337 122.191 253.292 120.005L248.355 119.539C248.274 119.531 248.197 119.498 248.134 119.446C248.072 119.393 248.027 119.323 248.005 119.244C245.288 119.42 243.143 121.382 243.143 123.775C243.143 126.289 245.507 128.326 248.423 128.326C248.86 128.326 249.297 128.279 249.724 128.186C251.109 132.404 253.486 135.881 256.481 138.096C258.774 139.796 261.431 140.761 264.278 140.761C267.556 140.761 270.558 139.449 273.052 137.216ZM280.905 126.027C281.953 125.632 282.626 124.749 282.626 123.775C282.626 122.941 282.133 122.17 281.31 121.712C281.251 121.679 281.208 121.625 281.189 121.56C281.171 121.496 281.179 121.426 281.211 121.368C281.244 121.309 281.299 121.266 281.363 121.247C281.428 121.229 281.497 121.237 281.556 121.269C282.543 121.818 283.133 122.755 283.133 123.775C283.133 124.961 282.323 126.031 281.079 126.501C281.016 126.525 280.946 126.523 280.885 126.495C280.824 126.467 280.776 126.416 280.753 126.353C280.729 126.291 280.731 126.221 280.759 126.16C280.787 126.099 280.838 126.051 280.901 126.027H280.905ZM269.704 132.944C269.831 132.929 272.843 132.529 273.869 128.673C273.887 128.608 273.929 128.553 273.987 128.519C274.045 128.485 274.114 128.476 274.179 128.493C274.244 128.51 274.3 128.552 274.334 128.61C274.367 128.669 274.377 128.738 274.36 128.803C273.246 133.004 269.796 133.442 269.762 133.446H269.732C269.699 133.448 269.666 133.443 269.634 133.432C269.603 133.421 269.574 133.404 269.549 133.382C269.524 133.36 269.504 133.333 269.49 133.303C269.475 133.273 269.467 133.241 269.465 133.207C269.463 133.174 269.468 133.141 269.479 133.109C269.49 133.078 269.507 133.049 269.529 133.024C269.551 132.999 269.578 132.979 269.608 132.965C269.638 132.95 269.671 132.942 269.704 132.94V132.944ZM248.02 127.024H247.996C246.099 126.837 244.67 125.441 244.67 123.776C244.67 122.518 245.48 121.393 246.773 120.84C246.803 120.827 246.836 120.82 246.869 120.819C246.903 120.818 246.936 120.824 246.967 120.837C246.998 120.849 247.026 120.867 247.05 120.89C247.074 120.913 247.093 120.941 247.107 120.972C247.12 121.002 247.127 121.035 247.128 121.069C247.128 121.102 247.122 121.135 247.11 121.166C247.098 121.197 247.08 121.225 247.056 121.249C247.033 121.273 247.006 121.293 246.975 121.306C245.867 121.778 245.18 122.723 245.18 123.776C245.18 125.18 246.413 126.359 248.049 126.52C248.117 126.524 248.18 126.554 248.225 126.604C248.27 126.653 248.293 126.719 248.29 126.786C248.287 126.853 248.257 126.916 248.207 126.962C248.157 127.007 248.091 127.03 248.024 127.027L248.02 127.024ZM263.249 128.948L263.587 124.164C263.592 124.097 263.623 124.035 263.674 123.99C263.724 123.946 263.791 123.924 263.858 123.929C263.925 123.934 263.987 123.965 264.032 124.016C264.076 124.066 264.098 124.133 264.093 124.2L263.755 128.983C263.749 129.061 263.773 129.138 263.821 129.2C263.868 129.262 263.937 129.303 264.014 129.317L265.309 129.551C265.376 129.557 265.439 129.589 265.482 129.641C265.525 129.693 265.546 129.759 265.54 129.826C265.534 129.894 265.502 129.956 265.45 129.999C265.399 130.042 265.332 130.063 265.265 130.057C265.25 130.059 265.234 130.059 265.219 130.057L263.925 129.823C263.723 129.788 263.542 129.678 263.417 129.516C263.292 129.354 263.232 129.152 263.249 128.948Z" fill="#FBC3A8"/>
<path d="M253.308 119.188C253.385 117.09 253.925 115.129 254.849 113.619C255.887 111.924 257.289 110.986 258.798 110.986C260.306 110.986 261.707 111.92 262.746 113.619C263.277 114.507 263.67 115.471 263.911 116.477C264.153 115.471 264.546 114.507 265.076 113.619C266.115 111.924 267.517 110.986 269.025 110.986C270.534 110.986 271.933 111.92 272.974 113.619C273.903 115.138 274.442 117.107 274.516 119.216L278.111 118.877C277.873 118.552 277.671 118.202 277.509 117.833C277.451 117.703 277.394 117.569 277.34 117.428C277.313 117.358 277.287 117.288 277.261 117.217C277.21 117.076 277.16 116.93 277.115 116.782C277.091 116.707 277.068 116.632 277.046 116.556C277.001 116.404 276.96 116.252 276.919 116.093C276.879 115.934 276.841 115.776 276.806 115.614C276.68 115.049 276.58 114.459 276.502 113.864C276.49 113.779 276.479 113.694 276.469 113.609C276.447 113.437 276.427 113.267 276.409 113.096C276.363 112.67 276.328 112.246 276.298 111.829C276.287 111.662 276.277 111.497 276.268 111.333C276.255 111.088 276.244 110.848 276.235 110.611C276.229 110.454 276.223 110.301 276.219 110.149C276.215 109.997 276.212 109.845 276.21 109.703C276.208 109.561 276.21 109.416 276.204 109.277C276.204 108.794 276.204 108.356 276.211 107.985C276.211 107.884 276.211 107.782 276.218 107.681C276.235 107.064 276.257 106.695 276.257 106.695C268.865 109.791 266.045 105.771 266.045 105.771C256.848 110.446 249.994 106.865 249.994 106.865C248.779 110.379 248.448 113.807 248.374 115.775C248.362 116.71 248.362 117.696 248.374 118.734C248.399 118.732 248.424 118.732 248.448 118.734L253.308 119.188Z" fill="#FBC3A8"/>
<path d="M277.919 94.7295C278.19 94.8379 280.61 93.723 281.71 92.1414C282.85 90.5031 282.554 88.5084 281.54 87.9819C280.527 87.4554 278.667 88.3413 278.041 90.2358C277.367 92.2842 277.76 94.6667 277.919 94.7295Z" fill="#5C1E14"/>
<path d="M258.795 124.188C259.468 124.188 260.014 123.152 260.014 121.875C260.014 120.598 259.468 119.562 258.795 119.562C258.122 119.562 257.576 120.598 257.576 121.875C257.576 123.152 258.122 124.188 258.795 124.188Z" fill="#2B100E"/>
<path d="M269.357 124.188C270.031 124.188 270.576 123.152 270.576 121.875C270.576 120.598 270.031 119.562 269.357 119.562C268.684 119.562 268.138 120.598 268.138 121.875C268.138 123.152 268.684 124.188 269.357 124.188Z" fill="#2B100E"/>
<path d="M269.732 133.448H269.761C269.796 133.448 273.241 133.006 274.359 128.805C274.376 128.74 274.367 128.671 274.333 128.613C274.3 128.554 274.244 128.512 274.179 128.495C274.114 128.478 274.045 128.487 273.987 128.521C273.929 128.555 273.886 128.61 273.869 128.675C272.843 132.531 269.831 132.928 269.703 132.946C269.67 132.948 269.638 132.956 269.608 132.971C269.578 132.985 269.551 133.006 269.529 133.03C269.506 133.055 269.489 133.084 269.478 133.116C269.467 133.147 269.463 133.18 269.465 133.214C269.466 133.247 269.475 133.279 269.489 133.309C269.504 133.339 269.524 133.366 269.549 133.388C269.574 133.411 269.602 133.428 269.634 133.439C269.665 133.45 269.699 133.454 269.732 133.452V133.448Z" fill="#FBC3A8"/>
<path d="M260.524 134.72L260.544 134.741C260.568 134.766 263.259 136.962 267.077 134.884C267.136 134.851 267.18 134.797 267.199 134.733C267.218 134.668 267.211 134.599 267.178 134.54C267.146 134.481 267.092 134.437 267.027 134.418C266.963 134.399 266.893 134.407 266.834 134.439C263.33 136.347 260.97 134.434 260.869 134.354C260.845 134.331 260.816 134.313 260.785 134.301C260.754 134.289 260.721 134.284 260.688 134.285C260.654 134.286 260.621 134.293 260.591 134.307C260.561 134.32 260.533 134.34 260.51 134.364C260.488 134.388 260.47 134.417 260.458 134.448C260.446 134.479 260.441 134.512 260.441 134.545C260.442 134.579 260.45 134.611 260.464 134.642C260.477 134.672 260.497 134.7 260.521 134.722L260.524 134.72Z" fill="#EB7360"/>
<path d="M265.264 130.052C265.331 130.058 265.398 130.037 265.449 129.994C265.501 129.951 265.533 129.889 265.539 129.821C265.545 129.754 265.524 129.688 265.481 129.636C265.438 129.584 265.376 129.552 265.308 129.546L264.013 129.312C263.936 129.298 263.867 129.257 263.819 129.195C263.772 129.133 263.748 129.056 263.754 128.978L264.092 124.195C264.095 124.161 264.09 124.128 264.08 124.096C264.069 124.065 264.052 124.036 264.031 124.01C263.986 123.96 263.924 123.929 263.857 123.924C263.79 123.919 263.723 123.941 263.673 123.985C263.622 124.03 263.591 124.092 263.586 124.159L263.248 128.943C263.233 129.145 263.294 129.346 263.419 129.506C263.543 129.666 263.723 129.775 263.923 129.81L265.217 130.044C265.232 130.049 265.248 130.051 265.264 130.052Z" fill="#EB7360"/>
<path d="M248.045 126.519C246.409 126.358 245.176 125.179 245.176 123.775C245.176 122.723 245.863 121.777 246.971 121.305C247.033 121.278 247.081 121.228 247.106 121.165C247.131 121.102 247.129 121.032 247.102 120.971C247.076 120.909 247.025 120.86 246.963 120.836C246.9 120.811 246.83 120.812 246.768 120.839C245.471 121.392 244.665 122.517 244.665 123.775C244.665 125.44 246.095 126.836 247.991 127.023H248.016C248.083 127.026 248.149 127.003 248.198 126.957C248.248 126.912 248.278 126.849 248.282 126.782C248.285 126.715 248.261 126.649 248.216 126.6C248.171 126.55 248.108 126.52 248.041 126.516L248.045 126.519Z" fill="#EB7360"/>
<path d="M248.364 119.535L253.301 120.001C253.346 122.187 253.891 124.238 254.849 125.803C255.887 127.498 257.289 128.435 258.798 128.435C260.306 128.435 261.707 127.502 262.746 125.803C263.277 124.915 263.67 123.951 263.911 122.945C264.153 123.951 264.546 124.915 265.076 125.803C266.115 127.498 267.517 128.435 269.025 128.435C270.534 128.435 271.933 127.502 272.974 125.803C273.928 124.245 274.472 122.206 274.52 120.031L277.222 119.776C277.638 119.582 278.076 119.438 278.526 119.347C278.486 119.309 278.446 119.27 278.407 119.229L278.35 119.167L278.298 119.109C278.273 119.08 278.248 119.051 278.223 119.021L278.197 118.988C278.169 118.953 278.14 118.917 278.112 118.879L274.517 119.218C274.443 117.109 273.904 115.136 272.975 113.621C271.936 111.926 270.535 110.988 269.026 110.988C267.518 110.988 266.117 111.922 265.077 113.621C264.547 114.509 264.154 115.473 263.912 116.479C263.671 115.473 263.278 114.509 262.747 113.621C261.709 111.926 260.307 110.988 258.799 110.988C257.29 110.988 255.89 111.922 254.85 113.621C253.926 115.129 253.386 117.09 253.309 119.19L248.442 118.73C248.418 118.728 248.393 118.728 248.368 118.73C248.274 118.738 248.186 118.779 248.119 118.846C248.051 118.912 248.01 119 248.001 119.094C247.996 119.144 248.001 119.194 248.015 119.241C248.037 119.32 248.082 119.39 248.144 119.442C248.207 119.494 248.283 119.527 248.364 119.535ZM269.02 111.802C271.605 111.802 273.708 115.346 273.708 119.712C273.708 124.078 271.605 127.621 269.02 127.621C266.435 127.621 264.331 124.077 264.331 119.712C264.331 115.347 266.431 111.802 269.021 111.802H269.02ZM254.111 119.439C254.197 115.204 256.265 111.802 258.795 111.802C261.382 111.802 263.485 115.346 263.485 119.712C263.485 124.078 261.382 127.621 258.795 127.621C256.236 127.621 254.149 124.141 254.109 119.837C254.138 119.787 254.156 119.732 254.162 119.675C254.17 119.593 254.152 119.51 254.111 119.439Z" fill="white"/>
<path d="M266.037 105.779C266.037 105.779 268.861 109.799 276.253 106.7C276.253 106.7 276.231 107.069 276.214 107.686C276.214 107.78 276.214 107.881 276.207 107.99C276.2 108.361 276.196 108.8 276.2 109.282C276.2 109.421 276.2 109.562 276.206 109.708C276.212 109.854 276.206 110.002 276.215 110.154C276.224 110.306 276.224 110.457 276.231 110.616C276.239 110.853 276.25 111.093 276.264 111.338C276.273 111.502 276.283 111.667 276.294 111.834C276.324 112.251 276.359 112.675 276.405 113.101C276.423 113.272 276.443 113.442 276.464 113.614C276.475 113.699 276.486 113.784 276.498 113.869C276.578 114.464 276.678 115.054 276.802 115.619C276.837 115.781 276.876 115.941 276.915 116.098C276.955 116.255 276.997 116.409 277.042 116.561C277.064 116.637 277.087 116.712 277.11 116.787C277.157 116.935 277.206 117.08 277.257 117.222C277.283 117.293 277.309 117.363 277.336 117.433C277.39 117.571 277.447 117.705 277.505 117.838C277.667 118.207 277.869 118.557 278.107 118.882C278.135 118.92 278.164 118.956 278.192 118.991L278.218 119.024C278.243 119.054 278.268 119.083 278.293 119.112L278.345 119.17L278.402 119.232C278.442 119.273 278.481 119.312 278.522 119.35C278.922 119.269 279.329 119.228 279.737 119.228C279.814 119.228 279.89 119.228 279.966 119.228H279.989C280.053 119.228 280.118 119.234 280.182 119.239H280.204C280.571 119.267 280.934 119.328 281.29 119.422C281.984 118.604 282.953 116.734 284.044 112.517C288.127 96.7485 276.366 96.7485 276.366 96.7485C276.366 96.7485 268.614 81.9552 254.007 93.4902C254.007 93.4902 242.646 88.3717 240.499 100.956C238.661 111.726 246.159 116.346 248.359 117.449C248.359 117.449 248.332 116.817 248.374 115.766C248.453 113.803 248.779 110.374 249.994 106.856C249.994 106.865 256.848 110.446 266.037 105.779Z" fill="#5C1E14"/>
<path d="M280.993 126.518C281.024 126.518 281.054 126.512 281.083 126.501C282.33 126.032 283.137 124.961 283.137 123.776C283.137 122.755 282.547 121.818 281.559 121.269C281.53 121.253 281.498 121.243 281.465 121.239C281.432 121.235 281.399 121.238 281.367 121.247C281.335 121.256 281.305 121.272 281.279 121.292C281.253 121.313 281.231 121.339 281.215 121.368C281.199 121.397 281.189 121.429 281.185 121.462C281.181 121.495 281.184 121.528 281.193 121.56C281.202 121.592 281.217 121.622 281.238 121.648C281.259 121.674 281.284 121.696 281.313 121.712C282.138 122.17 282.63 122.941 282.63 123.776C282.63 124.749 281.951 125.633 280.908 126.027C280.853 126.048 280.807 126.088 280.777 126.14C280.748 126.191 280.738 126.251 280.748 126.31C280.759 126.368 280.79 126.421 280.835 126.459C280.881 126.497 280.938 126.518 280.998 126.518H280.993Z" fill="#EB7360"/>
<path d="M245.711 226.924H205.789C205.721 226.924 205.657 226.951 205.61 226.998C205.562 227.046 205.535 227.11 205.535 227.177C205.535 227.244 205.562 227.309 205.61 227.356C205.657 227.404 205.721 227.43 205.789 227.43H245.711C245.778 227.43 245.843 227.404 245.89 227.356C245.938 227.309 245.964 227.244 245.964 227.177C245.964 227.11 245.938 227.046 245.89 226.998C245.843 226.951 245.778 226.924 245.711 226.924Z" fill="#1F3966"/>
<path d="M253.402 227.177C253.402 227.21 253.409 227.243 253.421 227.274C253.434 227.305 253.453 227.333 253.476 227.356C253.5 227.38 253.528 227.399 253.558 227.411C253.589 227.424 253.622 227.43 253.655 227.43H321.358C321.425 227.43 321.489 227.404 321.537 227.356C321.584 227.309 321.611 227.244 321.611 227.177C321.611 227.11 321.584 227.046 321.537 226.998C321.489 226.951 321.425 226.924 321.358 226.924H253.655C253.622 226.924 253.589 226.93 253.558 226.943C253.528 226.956 253.5 226.974 253.476 226.998C253.453 227.021 253.434 227.049 253.421 227.08C253.409 227.111 253.402 227.144 253.402 227.177Z" fill="#1F3966"/>
<path d="M255.192 145.836L255.161 145.849C253.009 146.878 251.288 148.814 250.047 151.601C249.538 152.768 249.129 153.975 248.824 155.211C248.457 156.682 248.186 158.176 248.014 159.683C247.572 163.44 247.672 166.973 247.776 168.775C247.959 168.675 248.16 168.612 248.367 168.59L248.7 168.553L248.778 168.546C248.657 166.209 248.566 161.256 249.547 156.589C250.414 152.46 252.122 148.554 255.388 146.869L255.4 146.863L256.395 146.458L256.414 145.464C256.414 145.464 255.664 145.596 255.192 145.836Z" fill="#1F3966"/>
<path d="M255.86 145.591L255.42 145.632C255.42 145.632 255.42 145.668 255.42 145.734C255.564 145.679 255.711 145.631 255.86 145.591Z" fill="#75B2E1"/>
<path d="M274.487 146.157C274.158 146.089 273.822 146.06 273.487 146.07C273.468 146.071 273.45 146.071 273.432 146.07L273.453 146.555C263.415 152.397 256.399 146.454 256.399 146.454L255.405 146.859C255.405 147.017 255.405 147.187 255.412 147.372C255.661 153.16 257.161 166.439 265.317 177.086L265.387 177.175L265.45 177.085V177.074C266.301 175.744 275.229 161.42 274.487 146.157Z" fill="#75B2E1"/>
<path d="M256.417 145.539L256.399 146.451C256.399 146.451 256.406 146.102 256.417 145.539Z" fill="#75B2E1"/>
<path fill-rule="evenodd" clip-rule="evenodd" d="M213.973 238.509C213.973 237.843 214.631 237.304 215.442 237.304H243.845C244.656 237.304 245.314 237.843 245.314 238.509C245.314 239.175 244.656 239.714 243.845 239.714H215.442C214.631 239.714 213.973 239.175 213.973 238.509Z" fill="#E5C5A7"/>
<path fill-rule="evenodd" clip-rule="evenodd" d="M213.973 251.166C213.973 250.167 214.649 249.358 215.483 249.358H301.664C302.498 249.358 303.174 250.167 303.174 251.166C303.174 252.164 302.498 252.974 301.664 252.974H215.483C214.649 252.974 213.973 252.164 213.973 251.166Z" fill="#E5C5A7"/>
<path d="M207.561 0H110.366C107.965 0 106 1.97449 106 4.38775V38.6122C106 41.0255 107.965 43 110.366 43H207.561C209.962 43 211.927 41.0255 211.927 38.6122V4.38775C211.927 1.97449 209.962 0 207.561 0Z" fill="#D87979"/>
<path d="M128.549 33.561C135.21 33.561 140.61 28.1611 140.61 21.5C140.61 14.8389 135.21 9.43903 128.549 9.43903C121.888 9.43903 116.488 14.8389 116.488 21.5C116.488 28.1611 121.888 33.561 128.549 33.561Z" fill="white"/>
<path fill-rule="evenodd" clip-rule="evenodd" d="M134.737 15.1481C135.485 15.8506 135.579 17.0948 134.948 17.9271L129.194 25.5195C128.593 26.3123 127.543 26.4509 126.792 25.8366L122.454 22.2869C121.666 21.6421 121.497 20.4078 122.076 19.5301C122.655 18.6524 123.763 18.4636 124.551 19.1085L127.555 21.5668L132.242 15.3829C132.873 14.5507 133.99 14.4455 134.737 15.1481Z" fill="#396C61"/>
<path fill-rule="evenodd" clip-rule="evenodd" d="M177.317 14.6639C177.318 15.2336 176.734 15.6963 176.013 15.6973L151.358 15.7317C150.636 15.7327 150.05 15.2717 150.049 14.7019C150.048 14.1322 150.632 13.6695 151.353 13.6685L176.008 13.6341C176.73 13.6331 177.316 14.0942 177.317 14.6639Z" fill="white"/>
<path fill-rule="evenodd" clip-rule="evenodd" d="M200.39 26.1668C200.392 26.7185 199.811 27.1669 199.093 27.1684L151.353 27.2683C150.635 27.2698 150.051 26.8238 150.049 26.2722C150.047 25.7205 150.628 25.2721 151.346 25.2706L199.086 25.1707C199.804 25.1692 200.388 25.6152 200.39 26.1668Z" fill="white"/>
<path d="M341.097 4.19513H284.415C282.121 4.19513 280.244 6.10231 280.244 8.43331V66.0301C280.244 68.3611 282.121 70.2683 284.415 70.2683H341.097C343.391 70.2683 345.268 68.3611 345.268 66.0301V8.43331C345.268 6.05993 343.391 4.19513 341.097 4.19513Z" fill="#F4C989"/>
<path d="M327.439 32.9962C327.439 40.7826 318.558 55.5854 313.28 55.5854C308.003 55.5854 299.122 40.7826 299.122 32.9962C299.122 25.2098 305.472 18.8781 313.28 18.8781C321.089 18.8781 327.439 25.2098 327.439 32.9962Z" fill="#D87979"/>
<path d="M314.329 38.8049C318.094 38.8049 321.146 36.2223 321.146 33.0366C321.146 29.8508 318.094 27.2683 314.329 27.2683C310.564 27.2683 307.512 29.8508 307.512 33.0366C307.512 36.2223 310.564 38.8049 314.329 38.8049Z" fill="#F6E7D1"/>
<path fill-rule="evenodd" clip-rule="evenodd" d="M215.219 20.4733C215.219 19.013 216.379 17.8293 217.808 17.8293H255.391C261.567 17.8293 266.61 22.979 266.61 29.2865V67.6243C266.61 69.0845 265.451 70.2683 264.021 70.2683C262.591 70.2683 261.432 69.0845 261.432 67.6243V29.2865C261.432 25.8995 258.708 23.1172 255.391 23.1172H217.808C216.379 23.1172 215.219 21.9335 215.219 20.4733Z" fill="#396C61"/>
<path fill-rule="evenodd" clip-rule="evenodd" d="M51 28.9271C51 22.9114 54.9249 18 59.7322 18H88.9849C90.0978 18 91 19.129 91 20.5216C91 21.9143 90.0978 23.0433 88.9849 23.0433H59.7322C57.1507 23.0433 55.0302 25.6967 55.0302 28.9271V49.4784C55.0302 50.871 54.128 52 53.0151 52C51.9022 52 51 50.871 51 49.4784V28.9271Z" fill="#396C61"/>
</svg>
