<svg id="Capa_1" enable-background="new 0 0 512 512" height="512" viewBox="0 0 512 512" width="512" xmlns="http://www.w3.org/2000/svg"><g id="Flat_82_"><g><path d="m96 100h-32c-4.418 0-8 3.582-8 8v368c0 4.418 3.582 8 8 8h32c4.418 0 8-3.582 8-8v-368c0-4.418-3.582-8-8-8z" fill="#756571"/><path d="m80 12c-22.056 0-40 17.944-40 40v32c0 4.418 3.582 8 8 8h64c4.418 0 8-3.582 8-8v-32c0-22.056-17.944-40-40-40z" fill="#faec70"/><path d="m64 84v-32c0-17.876 11.789-33.049 28-38.158-3.79-1.195-7.821-1.842-12-1.842-22.056 0-40 17.944-40 40v32c0 4.418 3.582 8 8 8h24c-4.418 0-8-3.582-8-8z" fill="#f7e011"/><path d="m120 84h-80c-4.418 0-8 3.582-8 8v24c0 4.418 3.582 8 8 8h80c4.418 0 8-3.582 8-8v-24c0-4.418-3.582-8-8-8z" fill="#f6c97d"/><path d="m56 116v-24c0-4.418 3.582-8 8-8h-24c-4.418 0-8 3.582-8 8v24c0 4.418 3.582 8 8 8h24c-4.418 0-8-3.582-8-8z" fill="#f0a526"/></g><g><path d="m448 100h-32c-4.418 0-8 3.582-8 8v368c0 4.418 3.582 8 8 8h32c4.418 0 8-3.582 8-8v-368c0-4.418-3.582-8-8-8z" fill="#756571"/><path d="m432 12c-22.056 0-40 17.944-40 40v32c0 4.418 3.582 8 8 8h64c4.418 0 8-3.582 8-8v-32c0-22.056-17.944-40-40-40z" fill="#faec70"/><path d="m416 84v-32c0-17.876 11.789-33.049 28-38.158-3.79-1.195-7.821-1.842-12-1.842-22.056 0-40 17.944-40 40v32c0 4.418 3.582 8 8 8h24c-4.418 0-8-3.582-8-8z" fill="#f7e011"/><path d="m472 84h-80c-4.418 0-8 3.582-8 8v24c0 4.418 3.582 8 8 8h80c4.418 0 8-3.582 8-8v-24c0-4.418-3.582-8-8-8z" fill="#f6c97d"/><path d="m408 116v-24c0-4.418 3.582-8 8-8h-24c-4.418 0-8 3.582-8 8v24c0 4.418 3.582 8 8 8h24c-4.418 0-8-3.582-8-8z" fill="#f0a526"/></g><g><g><path d="m504 156h-496c-4.418 0-8 3.582-8 8v64c0 4.418 3.582 0 8 0h496c4.418 0 8 4.418 8 0v-64c0-4.418-3.582-8-8-8z" fill="#eeeced"/><path d="m0 212v16c0 4.418 3.582 8 8 8h21.082l48.969-12 37.936 12h388.013c4.418 0 8-3.582 8-8v-16z" fill="#dcd8dc"/></g><g><path d="m108.453 156-56 56h88.174l56-56z" fill="#e87764"/><path d="m28.453 236h88.174l24-24h-88.174z" fill="#e2563d"/><path d="m173.462 236h88.174l24-24h-88.174z" fill="#e2563d"/><path d="m253.462 156-56 56h88.174l56-56z" fill="#e87764"/><path d="m486.645 156h-88.174l-56 56h88.174z" fill="#e87764"/><path d="m342.471 212-24 24h88.174l24-24z" fill="#e2563d"/></g></g><g><g><path d="m504 268h-496c-4.418 0-8 3.582-8 8v64c0 4.418 3.582 3 8 3h496c4.418 0 8 1.418 8-3v-64c0-4.418-3.582-8-8-8z" fill="#eeeced"/><path d="m0 324v16c0 4.418 3.582 8 8 8h21.684l50.529-15 36.126 15h387.661c4.418 0 8-3.582 8-8v-16z" fill="#dcd8dc"/></g><g><path d="m108.453 268-56 56h88.174l56-56z" fill="#e87764"/><path d="m28.453 348h88.174l24-24h-88.174z" fill="#e2563d"/><path d="m173.462 348h88.174l24-24h-88.174z" fill="#e2563d"/><path d="m253.462 268-56 56h88.174l56-56z" fill="#e87764"/><path d="m486.645 268h-88.174l-56 56h88.174z" fill="#e87764"/><path d="m342.471 324-24 24h88.174l24-24z" fill="#e2563d"/></g></g><path d="m504 476h-496c-4.418 0-8 3.582-8 8v8c0 4.418 3.582 8 8 8h496c4.418 0 8-3.582 8-8v-8c0-4.418-3.582-8-8-8z" fill="#cbc5ca"/></g></svg>