<svg width="350" height="136" viewBox="0 0 350 136" fill="none" xmlns="http://www.w3.org/2000/svg">
<defs>
<filter id="filter0_d" x="0" y="30" width="350" height="105.16" filterUnits="userSpaceOnUse" color-interpolation-filters="sRGB">
<feFlood flood-opacity="0" result="BackgroundImageFix"/>
<feColorMatrix in="SourceAlpha" type="matrix" values="0 0 0 0 0 0 0 0 0 0 0 0 0 0 0 0 0 0 127 0" result="hardAlpha"/>
<feOffset dy="4"/>
<feGaussianBlur stdDeviation="2.5"/>
<feComposite in2="hardAlpha" operator="out"/>
<feColorMatrix type="matrix" values="0 0 0 0 0.458824 0 0 0 0 0.698039 0 0 0 0 0.882353 0 0 0 0.3 0"/>
<feBlend mode="normal" in2="BackgroundImageFix" result="effect1_dropShadow"/>
<feBlend mode="normal" in="SourceGraphic" in2="effect1_dropShadow" result="shape"/>
</filter>
<radialGradient id="paint0_angular" cx="0" cy="0" r="1" gradientUnits="userSpaceOnUse" gradientTransform="translate(175 78.5802) rotate(90) scale(47.5802 170)">
<stop offset="0.0833136" stop-color="white"/>
<stop offset="0.64303" stop-color="white" stop-opacity="0.78"/>
<stop offset="0.911774" stop-color="white" stop-opacity="0.42"/>
</radialGradient>
<clipPath id="clip0">
<rect width="168" height="125" fill="white" transform="translate(10)"/>
</clipPath>
</defs>
<g filter="url(#filter0_d)">
<rect x="5" y="31" width="340" height="95.1603" rx="32" fill="#6F9BD4"/>
<rect x="6" y="32" width="338" height="93.1603" rx="31" stroke="url(#paint0_angular)" stroke-width="2"/>
</g>
<path d="M327 74L332.25 79.25L327 84.5" stroke="white" stroke-width="2" stroke-miterlimit="10" stroke-linecap="round" stroke-linejoin="round"/>
<path d="M188.396 71.676C188.66 71.76 188.894 71.898 189.098 72.09C189.314 72.294 189.53 72.564 189.746 72.9L190.988 74.916L189.422 75.69L187.82 73.08C187.436 72.456 186.806 72.144 185.93 72.144C184.73 72.144 183.686 71.88 182.798 71.352C181.922 70.824 181.244 70.074 180.764 69.102C180.284 68.13 180.044 66.984 180.044 65.664C180.044 64.332 180.278 63.18 180.746 62.208C181.226 61.224 181.91 60.474 182.798 59.958C183.686 59.43 184.73 59.166 185.93 59.166C187.142 59.166 188.192 59.43 189.08 59.958C189.968 60.474 190.646 61.224 191.114 62.208C191.594 63.18 191.834 64.326 191.834 65.646C191.834 67.122 191.534 68.388 190.934 69.444C190.334 70.488 189.488 71.232 188.396 71.676ZM181.934 65.646C181.934 67.242 182.282 68.472 182.978 69.336C183.686 70.2 184.67 70.632 185.93 70.632C187.202 70.632 188.192 70.2 188.9 69.336C189.608 68.472 189.962 67.242 189.962 65.646C189.962 64.05 189.608 62.826 188.9 61.974C188.204 61.11 187.214 60.678 185.93 60.678C184.67 60.678 183.686 61.11 182.978 61.974C182.282 62.826 181.934 64.05 181.934 65.646ZM201.851 63.216V72H200.087V70.578C199.811 71.082 199.427 71.466 198.935 71.73C198.455 71.994 197.915 72.126 197.315 72.126C195.179 72.126 194.111 70.95 194.111 68.598V63.216H195.929V68.58C195.929 69.288 196.073 69.81 196.361 70.146C196.649 70.482 197.093 70.65 197.693 70.65C198.401 70.65 198.965 70.422 199.385 69.966C199.817 69.51 200.033 68.904 200.033 68.148V63.216H201.851ZM208.067 63C209.243 63 210.113 63.294 210.677 63.882C211.253 64.47 211.541 65.364 211.541 66.564V72H209.795V70.542C209.567 71.058 209.225 71.454 208.769 71.73C208.325 71.994 207.803 72.126 207.203 72.126C206.627 72.126 206.099 72.012 205.619 71.784C205.139 71.544 204.761 71.214 204.485 70.794C204.221 70.374 204.089 69.906 204.089 69.39C204.089 68.754 204.251 68.256 204.575 67.896C204.911 67.524 205.457 67.26 206.213 67.104C206.981 66.948 208.031 66.87 209.363 66.87H209.777V66.348C209.777 65.676 209.633 65.19 209.345 64.89C209.069 64.59 208.613 64.44 207.977 64.44C206.981 64.44 205.985 64.746 204.989 65.358L204.449 64.08C204.917 63.756 205.481 63.498 206.141 63.306C206.813 63.102 207.455 63 208.067 63ZM207.527 70.776C208.187 70.776 208.727 70.554 209.147 70.11C209.567 69.654 209.777 69.072 209.777 68.364V67.896H209.453C208.517 67.896 207.797 67.938 207.293 68.022C206.789 68.106 206.429 68.25 206.213 68.454C205.997 68.646 205.889 68.928 205.889 69.3C205.889 69.72 206.039 70.074 206.339 70.362C206.651 70.638 207.047 70.776 207.527 70.776ZM208.643 62.064H207.581V61.578C207.581 61.326 207.641 61.116 207.761 60.948C207.881 60.768 208.049 60.582 208.265 60.39C208.421 60.246 208.529 60.132 208.589 60.048C208.661 59.964 208.697 59.868 208.697 59.76C208.697 59.628 208.637 59.526 208.517 59.454C208.397 59.37 208.229 59.328 208.013 59.328C207.701 59.328 207.365 59.394 207.005 59.526L206.699 58.662C207.179 58.458 207.671 58.356 208.175 58.356C208.763 58.356 209.219 58.476 209.543 58.716C209.879 58.956 210.047 59.256 210.047 59.616C210.047 59.892 209.981 60.12 209.849 60.3C209.717 60.468 209.525 60.648 209.273 60.84C209.057 61.008 208.895 61.158 208.787 61.29C208.691 61.41 208.643 61.56 208.643 61.74V62.064ZM218.762 63C220.862 63 221.912 64.182 221.912 66.546V72H220.094V66.636C220.094 65.892 219.944 65.346 219.644 64.998C219.356 64.65 218.9 64.476 218.276 64.476C217.544 64.476 216.956 64.704 216.512 65.16C216.068 65.616 215.846 66.228 215.846 66.996V72H214.028V63.216H215.81V64.62C216.098 64.092 216.5 63.69 217.016 63.414C217.532 63.138 218.114 63 218.762 63ZM229.145 72V59.31H230.963V72H229.145ZM239.732 63.234H241.55L236.312 75.24H234.476L236.006 71.784L232.316 63.234H234.224L236.96 69.948L239.732 63.234ZM237.518 62.064H236.33L238.112 58.41H240.056L237.518 62.064ZM247.602 72V59.31H249.42V72H247.602ZM251.961 72V63.216H253.779V72H251.961ZM251.835 59.292H253.923V61.182H251.835V59.292ZM251.907 73.548H253.815V75.366H251.907V73.548ZM260.173 72.126C259.285 72.126 258.511 71.94 257.851 71.568C257.203 71.196 256.699 70.674 256.339 70.002C255.991 69.318 255.817 68.52 255.817 67.608C255.817 66.696 255.997 65.892 256.357 65.196C256.729 64.5 257.245 63.96 257.905 63.576C258.577 63.192 259.357 63 260.245 63C260.857 63 261.445 63.102 262.009 63.306C262.585 63.51 263.053 63.786 263.413 64.134L262.855 65.43C262.063 64.782 261.241 64.458 260.389 64.458C259.549 64.458 258.889 64.734 258.409 65.286C257.941 65.826 257.707 66.594 257.707 67.59C257.707 68.574 257.941 69.336 258.409 69.876C258.877 70.404 259.537 70.668 260.389 70.668C261.241 70.668 262.063 70.344 262.855 69.696L263.413 71.01C263.029 71.358 262.549 71.634 261.973 71.838C261.397 72.03 260.797 72.126 260.173 72.126ZM269.756 63C271.856 63 272.906 64.182 272.906 66.546V72H271.088V66.636C271.088 65.892 270.938 65.346 270.638 64.998C270.35 64.65 269.894 64.476 269.27 64.476C268.538 64.476 267.95 64.704 267.506 65.16C267.062 65.616 266.84 66.228 266.84 66.996V72H265.022V59.31H266.84V64.548C267.14 64.044 267.542 63.66 268.046 63.396C268.55 63.132 269.12 63 269.756 63ZM184.418 95.722C184.694 95.722 184.964 95.704 185.228 95.668L185.138 97.054C184.838 97.102 184.526 97.126 184.202 97.126C183.062 97.126 182.21 96.85 181.646 96.298C181.094 95.734 180.818 94.924 180.818 93.868V89.62H179.108V88.216H180.818V85.57H182.636V88.216H185.048V89.62H182.636V93.796C182.636 95.08 183.23 95.722 184.418 95.722ZM196.398 85.912V86.452C196.398 87.172 196.212 87.766 195.84 88.234C195.468 88.702 194.958 88.996 194.31 89.116V97H192.546V95.578C192.27 96.082 191.886 96.466 191.394 96.73C190.914 96.994 190.374 97.126 189.774 97.126C187.638 97.126 186.57 95.95 186.57 93.598V88.216H188.388V93.58C188.388 94.288 188.532 94.81 188.82 95.146C189.108 95.482 189.552 95.65 190.152 95.65C190.86 95.65 191.424 95.422 191.844 94.966C192.276 94.51 192.492 93.904 192.492 93.148V88.216H193.014C193.65 88.216 194.106 88.06 194.382 87.748C194.658 87.436 194.796 86.92 194.796 86.2V85.912H196.398ZM208.127 88.234H209.945L206.129 97H204.491L200.711 88.234H202.619L205.355 94.948L208.127 88.234ZM214.782 88C215.958 88 216.828 88.294 217.392 88.882C217.968 89.47 218.256 90.364 218.256 91.564V97H216.51V95.542C216.282 96.058 215.94 96.454 215.484 96.73C215.04 96.994 214.518 97.126 213.918 97.126C213.342 97.126 212.814 97.012 212.334 96.784C211.854 96.544 211.476 96.214 211.2 95.794C210.936 95.374 210.804 94.906 210.804 94.39C210.804 93.754 210.966 93.256 211.29 92.896C211.626 92.524 212.172 92.26 212.928 92.104C213.696 91.948 214.746 91.87 216.078 91.87H216.492V91.348C216.492 90.676 216.348 90.19 216.06 89.89C215.784 89.59 215.328 89.44 214.692 89.44C213.696 89.44 212.7 89.746 211.704 90.358L211.164 89.08C211.632 88.756 212.196 88.498 212.856 88.306C213.528 88.102 214.17 88 214.782 88ZM214.242 95.776C214.902 95.776 215.442 95.554 215.862 95.11C216.282 94.654 216.492 94.072 216.492 93.364V92.896H216.168C215.232 92.896 214.512 92.938 214.008 93.022C213.504 93.106 213.144 93.25 212.928 93.454C212.712 93.646 212.604 93.928 212.604 94.3C212.604 94.72 212.754 95.074 213.054 95.362C213.366 95.638 213.762 95.776 214.242 95.776ZM217.392 85.192H216.366L217.914 82.636H219.642L217.392 85.192ZM213.522 87.064H212.028L214.224 84.454H215.376L217.572 87.064H216.078L214.8 85.426L213.522 87.064ZM225.476 88C227.576 88 228.626 89.182 228.626 91.546V97H226.808V91.636C226.808 90.892 226.658 90.346 226.358 89.998C226.07 89.65 225.614 89.476 224.99 89.476C224.258 89.476 223.67 89.704 223.226 90.16C222.782 90.616 222.56 91.228 222.56 91.996V97H220.742V88.216H222.524V89.62C222.812 89.092 223.214 88.69 223.73 88.414C224.246 88.138 224.828 88 225.476 88ZM239.676 97.126C238.812 97.126 238.05 96.94 237.39 96.568C236.742 96.196 236.238 95.668 235.878 94.984C235.53 94.288 235.356 93.484 235.356 92.572C235.356 91.648 235.53 90.844 235.878 90.16C236.238 89.464 236.742 88.93 237.39 88.558C238.05 88.186 238.812 88 239.676 88C240.54 88 241.296 88.186 241.944 88.558C242.604 88.93 243.108 89.464 243.456 90.16C243.816 90.844 243.996 91.648 243.996 92.572C243.996 93.484 243.816 94.288 243.456 94.984C243.108 95.668 242.604 96.196 241.944 96.568C241.296 96.94 240.54 97.126 239.676 97.126ZM239.676 95.686C240.48 95.686 241.092 95.422 241.512 94.894C241.944 94.366 242.16 93.592 242.16 92.572C242.16 91.564 241.944 90.796 241.512 90.268C241.08 89.728 240.468 89.458 239.676 89.458C238.884 89.458 238.272 89.728 237.84 90.268C237.408 90.796 237.192 91.564 237.192 92.572C237.192 93.592 237.402 94.366 237.822 94.894C238.254 95.422 238.872 95.686 239.676 95.686ZM250.754 88C252.854 88 253.904 89.182 253.904 91.546V97H252.086V91.636C252.086 90.892 251.936 90.346 251.636 89.998C251.348 89.65 250.892 89.476 250.268 89.476C249.536 89.476 248.948 89.704 248.504 90.16C248.06 90.616 247.838 91.228 247.838 91.996V97H246.02V88.216H247.802V89.62C248.09 89.092 248.492 88.69 249.008 88.414C249.524 88.138 250.106 88 250.754 88ZM256.391 97V84.31H258.209V97H256.391ZM260.75 97V88.216H262.568V97H260.75ZM260.624 84.292H262.712V86.182H260.624V84.292ZM269.844 88C271.944 88 272.994 89.182 272.994 91.546V97H271.176V91.636C271.176 90.892 271.026 90.346 270.726 89.998C270.438 89.65 269.982 89.476 269.358 89.476C268.626 89.476 268.038 89.704 267.594 90.16C267.15 90.616 266.928 91.228 266.928 91.996V97H265.11V88.216H266.892V89.62C267.18 89.092 267.582 88.69 268.098 88.414C268.614 88.138 269.196 88 269.844 88ZM283.005 92.914H276.795C276.927 94.774 277.851 95.704 279.567 95.704C280.575 95.704 281.487 95.374 282.303 94.714L282.861 95.992C282.453 96.34 281.949 96.616 281.349 96.82C280.749 97.024 280.137 97.126 279.513 97.126C278.109 97.126 276.999 96.724 276.183 95.92C275.379 95.116 274.977 94.006 274.977 92.59C274.977 91.69 275.151 90.892 275.499 90.196C275.859 89.5 276.357 88.96 276.993 88.576C277.641 88.192 278.373 88 279.189 88C280.377 88 281.307 88.384 281.979 89.152C282.663 89.92 283.005 90.982 283.005 92.338V92.914ZM279.225 89.332C278.529 89.332 277.971 89.554 277.551 89.998C277.143 90.43 276.897 91.054 276.813 91.87H281.439C281.403 91.054 281.193 90.43 280.809 89.998C280.437 89.554 279.909 89.332 279.225 89.332Z" fill="white"/>
<g clip-path="url(#clip0)">
<path d="M65.2805 107.23C65.2801 107.021 65.3208 106.815 65.4004 106.622C65.48 106.429 65.5969 106.253 65.7444 106.106C65.8918 105.958 66.067 105.841 66.2598 105.761C66.4527 105.681 66.6594 105.64 66.8681 105.64H87.3901C87.1793 104.8 86.9844 103.926 86.8021 103.025H70.8018C70.7742 103.025 70.7469 103.02 70.7213 103.009C70.6958 102.999 70.6726 102.983 70.6531 102.964C70.6336 102.944 70.6181 102.921 70.6076 102.896C70.5971 102.87 70.5917 102.843 70.5918 102.815H61.8021V124.865H65.2805V107.23Z" fill="#90C9ED"/>
<path d="M70.8021 102.608H86.7243C86.5076 101.479 86.3135 100.31 86.1413 99.1166H57.8653C57.7846 99.1166 57.7046 99.1325 57.6301 99.1634C57.5555 99.1943 57.4878 99.2396 57.4308 99.2967C57.3737 99.3538 57.3285 99.4216 57.2977 99.4962C57.2669 99.5708 57.2511 99.6507 57.2512 99.7314V102.204C57.2512 102.367 57.3159 102.523 57.4311 102.639C57.5462 102.754 57.7024 102.818 57.8653 102.818H70.5921C70.5921 102.763 70.6142 102.709 70.6536 102.67C70.693 102.631 70.7464 102.608 70.8021 102.608Z" fill="#75B2E1"/>
<path d="M70.8016 102.608C70.7459 102.608 70.6925 102.631 70.6531 102.67C70.6137 102.709 70.5916 102.763 70.5916 102.818C70.5915 102.846 70.5969 102.873 70.6074 102.899C70.6179 102.924 70.6333 102.948 70.6529 102.967C70.6724 102.987 70.6956 103.002 70.7211 103.013C70.7466 103.023 70.774 103.029 70.8016 103.028H86.8053C86.7776 102.89 86.7507 102.75 86.7213 102.608H70.8016Z" fill="#6279BA"/>
<path d="M79.1419 115.896C79.0256 115.896 78.9119 115.93 78.8152 115.995C78.7185 116.059 78.6432 116.151 78.5987 116.259C78.5541 116.366 78.5425 116.484 78.5652 116.598C78.5879 116.712 78.6439 116.817 78.7261 116.899C78.8083 116.982 78.9131 117.038 79.0272 117.06C79.1412 117.083 79.2595 117.071 79.3669 117.027C79.4743 116.982 79.5662 116.907 79.6308 116.81C79.6954 116.714 79.7299 116.6 79.7299 116.484C79.7299 116.328 79.6679 116.178 79.5577 116.068C79.4474 115.958 79.2978 115.896 79.1419 115.896Z" fill="#75B2E1"/>
<path d="M89.8246 124.868H100.81C100.791 122.367 100.848 119.581 100.956 116.673C95.0317 117.368 90.6066 115.413 88.2596 108.6C87.9421 107.676 87.6532 106.688 87.3902 105.643H66.8682C66.4474 105.643 66.0438 105.811 65.7462 106.108C65.4486 106.406 65.2814 106.809 65.2814 107.23V124.87H81.9974C82.0531 124.87 82.1065 124.892 82.1459 124.932C82.1853 124.971 82.2074 125.024 82.2074 125.08H89.6146C89.6143 125.052 89.6196 125.025 89.6301 124.999C89.6405 124.974 89.6559 124.95 89.6755 124.931C89.695 124.911 89.7182 124.895 89.7438 124.885C89.7694 124.874 89.7968 124.868 89.8246 124.868ZM79.1423 117.484C78.9429 117.484 78.748 117.425 78.5823 117.314C78.4165 117.203 78.2873 117.046 78.211 116.862C78.1347 116.678 78.1148 116.475 78.1536 116.279C78.1925 116.084 78.2885 115.904 78.4295 115.763C78.5705 115.622 78.7501 115.526 78.9456 115.487C79.1412 115.448 79.3438 115.468 79.528 115.545C79.7122 115.621 79.8696 115.75 79.9804 115.916C80.0912 116.082 80.1503 116.277 80.1503 116.476C80.1503 116.743 80.0441 117 79.855 117.189C79.666 117.378 79.4096 117.484 79.1423 117.484ZM82.6753 123.849C82.6753 123.904 82.6532 123.958 82.6138 123.997C82.5744 124.037 82.521 124.059 82.4653 124.059C82.4096 124.059 82.3562 124.037 82.3168 123.997C82.2774 123.958 82.2553 123.904 82.2553 123.849V106.366C82.2553 106.31 82.2774 106.257 82.3168 106.217C82.3562 106.178 82.4096 106.156 82.4653 106.156C82.521 106.156 82.5744 106.178 82.6138 106.217C82.6532 106.257 82.6753 106.31 82.6753 106.366V123.849Z" fill="#75B2E1"/>
<path d="M82.4652 106.156C82.4095 106.156 82.3561 106.178 82.3167 106.217C82.2773 106.257 82.2552 106.31 82.2552 106.366V123.85C82.2552 123.906 82.2773 123.959 82.3167 123.999C82.3561 124.038 82.4095 124.06 82.4652 124.06C82.5209 124.06 82.5743 124.038 82.6137 123.999C82.6531 123.959 82.6752 123.906 82.6752 123.85V106.366C82.6752 106.31 82.6531 106.257 82.6137 106.217C82.5743 106.178 82.5209 106.156 82.4652 106.156Z" fill="#6279BA"/>
<path d="M79.1419 115.476C78.9425 115.476 78.7477 115.535 78.5819 115.645C78.4161 115.756 78.2869 115.914 78.2106 116.098C78.1343 116.282 78.1144 116.485 78.1533 116.68C78.1921 116.876 78.2882 117.055 78.4291 117.196C78.5701 117.337 78.7497 117.433 78.9453 117.472C79.1408 117.511 79.3435 117.491 79.5277 117.415C79.7119 117.339 79.8693 117.209 79.9801 117.044C80.0908 116.878 80.15 116.683 80.15 116.484C80.15 116.216 80.0438 115.96 79.8547 115.771C79.6657 115.582 79.4093 115.476 79.1419 115.476ZM79.1419 117.066C79.0256 117.066 78.9119 117.031 78.8152 116.967C78.7185 116.902 78.6432 116.81 78.5987 116.703C78.5542 116.595 78.5425 116.477 78.5652 116.363C78.5879 116.249 78.6439 116.144 78.7261 116.062C78.8084 115.98 78.9131 115.924 79.0272 115.901C79.1413 115.878 79.2595 115.89 79.3669 115.934C79.4744 115.979 79.5662 116.054 79.6308 116.151C79.6955 116.248 79.7299 116.361 79.7299 116.478C79.7295 116.633 79.6674 116.782 79.5571 116.892C79.4469 117.002 79.2976 117.064 79.1419 117.064V117.066Z" fill="#6279BA"/>
<path d="M87.3808 78.7369C87.408 78.75 87.4377 78.7568 87.4679 78.7567C87.5125 78.7565 87.5557 78.7413 87.5905 78.7135C87.6254 78.6857 87.6498 78.6469 87.6599 78.6035C87.67 78.5601 87.6651 78.5145 87.6461 78.4742C87.627 78.4339 87.5949 78.4012 87.555 78.3814C85.7133 77.4795 85.6491 74.5474 85.6483 74.5173C85.6475 74.4653 85.6263 74.4158 85.5893 74.3794C85.5522 74.3429 85.5023 74.3225 85.4504 74.3225C85.4243 74.3229 85.3986 74.3284 85.3747 74.3387C85.3508 74.349 85.3292 74.364 85.311 74.3827C85.2929 74.4012 85.2786 74.4231 85.2689 74.4471C85.2593 74.4712 85.2545 74.4969 85.2548 74.5228C85.2516 74.6662 85.3237 77.7321 87.3808 78.7369Z" fill="#E07C69"/>
<path d="M82.4057 76.6409C79.2115 76.4533 75.9619 74.3613 75.9294 74.3399C75.8855 74.314 75.8332 74.306 75.7835 74.3177C75.7338 74.3294 75.6906 74.3598 75.6628 74.4026C75.635 74.4454 75.6248 74.4973 75.6344 74.5474C75.6439 74.5976 75.6725 74.6421 75.7141 74.6717C75.8495 74.7604 79.0816 76.8421 82.3819 77.0361H82.3938C82.4198 77.0368 82.4457 77.0325 82.47 77.0233C82.4943 77.014 82.5166 77.0001 82.5355 76.9823C82.5544 76.9645 82.5697 76.9431 82.5803 76.9194C82.591 76.8956 82.5969 76.87 82.5977 76.844C82.5984 76.818 82.5941 76.7922 82.5849 76.7678C82.5756 76.7435 82.5617 76.7213 82.5439 76.7023C82.5261 76.6834 82.5047 76.6682 82.481 76.6575C82.4572 76.6468 82.4316 76.6409 82.4057 76.6402V76.6409Z" fill="#E07C69"/>
<path d="M81.9314 78.3663C78.5773 77.8215 76.6587 75.8816 76.6397 75.8618C76.6031 75.8246 76.5532 75.8033 76.501 75.8027C76.4487 75.8021 76.3984 75.8222 76.3609 75.8585C76.3234 75.8949 76.3017 75.9446 76.3007 75.9968C76.2997 76.049 76.3194 76.0995 76.3554 76.1373C76.4346 76.2213 78.3777 78.1905 81.868 78.7566C81.8786 78.7574 81.8892 78.7574 81.8997 78.7566C81.9522 78.7608 82.0042 78.744 82.0443 78.7099C82.0844 78.6757 82.1093 78.627 82.1135 78.5745C82.1177 78.522 82.1009 78.47 82.0667 78.4299C82.0326 78.3898 81.9839 78.3649 81.9314 78.3607V78.3663Z" fill="#E07C69"/>
<path d="M81.1284 79.5469C79.7205 79.4883 78.5035 78.569 77.7307 77.8049C77.7123 77.7861 77.6904 77.7713 77.6662 77.7611C77.6419 77.7509 77.616 77.7457 77.5897 77.7457C77.5634 77.7456 77.5374 77.7508 77.5132 77.761C77.489 77.7711 77.467 77.7859 77.4486 77.8046C77.4301 77.8233 77.4156 77.8455 77.4058 77.8699C77.396 77.8943 77.3912 77.9203 77.3916 77.9466C77.392 77.9728 77.3976 77.9988 77.4081 78.0228C77.4186 78.0469 77.4338 78.0686 77.4528 78.0868C78.2755 78.8968 79.578 79.8755 81.1125 79.9389H81.1205C81.173 79.9399 81.2237 79.92 81.2616 79.8837C81.2995 79.8473 81.3213 79.7973 81.3224 79.7448C81.3234 79.6923 81.3036 79.6416 81.2672 79.6037C81.2308 79.5659 81.1809 79.544 81.1284 79.5429V79.5469Z" fill="#E07C69"/>
<path d="M100.085 101.251C100.126 101.041 100.164 100.829 100.208 100.618H99.7677C99.839 100.832 99.9118 101.045 99.9839 101.258C100.016 101.247 100.051 101.245 100.085 101.251Z" fill="#75B2E1"/>
<path d="M88.288 104.305C88.4567 105.155 88.6404 105.979 88.8423 106.77C89.0901 107.755 89.3625 108.69 89.6618 109.557C91.8742 115.977 96.0454 117.822 101.63 117.167C101.8 112.591 102.105 107.693 102.439 103.177C102.387 103.173 102.339 103.149 102.305 103.11C102.27 103.07 102.253 103.019 102.256 102.967C102.352 101.502 102.488 100.029 102.652 98.5908L100.771 97.7072L100.206 100.618C100.164 100.829 100.126 101.041 100.083 101.251C100.109 101.256 100.135 101.267 100.157 101.282C100.179 101.297 100.198 101.317 100.213 101.34C100.274 101.437 101.704 103.752 101.682 106.772C101.681 106.824 101.66 106.874 101.623 106.911C101.586 106.947 101.536 106.968 101.484 106.968C101.458 106.968 101.432 106.963 101.408 106.953C101.384 106.943 101.362 106.928 101.344 106.909C101.326 106.891 101.311 106.869 101.301 106.845C101.292 106.821 101.287 106.795 101.287 106.769C101.309 103.864 99.8936 101.573 99.8794 101.551C99.8655 101.529 99.8561 101.504 99.8518 101.478C99.8474 101.453 99.8482 101.426 99.854 101.401C99.8598 101.376 99.8706 101.352 99.8856 101.33C99.9007 101.309 99.9199 101.291 99.9419 101.277C99.9547 101.269 99.9685 101.263 99.9831 101.258C99.911 101.045 99.8382 100.832 99.7669 100.618C97.8064 94.7893 96.1008 88.6615 95.663 82.5273C97.0732 78.0052 93.5623 75.4421 90.7648 73.4816C88.6127 71.9724 86.9277 70.3658 84.8262 68.6515C82.7849 66.984 83.6829 72.6771 85.3069 74.3858C85.325 74.3671 85.3466 74.3522 85.3706 74.3419C85.3945 74.3315 85.4202 74.326 85.4462 74.3257C85.4982 74.3257 85.5481 74.3461 85.5851 74.3825C85.6221 74.419 85.6434 74.4685 85.6442 74.5205C85.6442 74.5505 85.7091 77.4826 87.5509 78.3845C87.5908 78.4043 87.6229 78.437 87.642 78.4773C87.661 78.5176 87.6659 78.5632 87.6558 78.6066C87.6457 78.6501 87.6213 78.6888 87.5864 78.7166C87.5516 78.7444 87.5083 78.7597 87.4638 78.7598C87.4336 78.7599 87.4038 78.7531 87.3767 78.74C85.318 77.7328 85.2507 74.6669 85.2483 74.5276C82.6084 74.5569 80.0112 73.4317 77.5202 73.0508C74.9666 72.6613 74.9492 73.8783 76.0736 77.1319C77.1979 80.3854 82.3107 82.7997 86.3806 84.0001C86.5239 88.9093 86.8509 95.0443 87.6578 100.619C87.8161 101.744 88.003 102.846 88.2073 103.91C88.2366 104.042 88.2603 104.175 88.288 104.305ZM81.1206 79.942H81.1126C79.5781 79.8787 78.2756 78.9 77.4529 78.0899C77.4339 78.0718 77.4187 78.0501 77.4082 78.026C77.3977 78.0019 77.3921 77.976 77.3917 77.9498C77.3913 77.9235 77.3961 77.8974 77.4059 77.8731C77.4157 77.8487 77.4302 77.8265 77.4487 77.8078C77.4671 77.7891 77.4891 77.7743 77.5133 77.7642C77.5375 77.754 77.5635 77.7488 77.5898 77.7488C77.616 77.7489 77.642 77.7541 77.6662 77.7643C77.6905 77.7744 77.7124 77.7893 77.7308 77.8081C78.5036 78.569 79.7206 79.4883 81.1285 79.5501C81.181 79.5511 81.2309 79.573 81.2673 79.6108C81.3037 79.6487 81.3235 79.6995 81.3225 79.752C81.3214 79.8045 81.2996 79.8544 81.2617 79.8908C81.2238 79.9272 81.1731 79.947 81.1206 79.946V79.942ZM82.0945 78.5959C82.087 78.6422 82.0633 78.6844 82.0276 78.7148C81.9919 78.7453 81.9466 78.7621 81.8997 78.7622C81.8892 78.763 81.8786 78.763 81.868 78.7622C78.3777 78.1961 76.437 76.2284 76.3554 76.1429C76.3194 76.1051 76.2997 76.0546 76.3007 76.0024C76.3017 75.9501 76.3234 75.9004 76.3609 75.8641C76.3984 75.8277 76.4487 75.8077 76.5009 75.8083C76.5532 75.8089 76.6031 75.8301 76.6397 75.8673C76.6587 75.8871 78.5773 77.8271 81.9314 78.3718C81.9819 78.3802 82.0273 78.408 82.0577 78.4492C82.0882 78.4905 82.1014 78.542 82.0945 78.5928V78.5959ZM82.3938 77.04H82.3819C79.0816 76.846 75.8495 74.7643 75.7141 74.6756C75.6725 74.6461 75.6439 74.6015 75.6344 74.5514C75.6248 74.5013 75.635 74.4494 75.6628 74.4066C75.6906 74.3638 75.7338 74.3334 75.7835 74.3217C75.8332 74.31 75.8855 74.3179 75.9294 74.3439C75.9619 74.3653 79.2115 76.4572 82.4057 76.6449C82.4317 76.6457 82.4573 76.6516 82.481 76.6622C82.5047 76.6729 82.5261 76.6881 82.5439 76.7071C82.5617 76.726 82.5757 76.7483 82.5849 76.7726C82.5941 76.7969 82.5985 76.8228 82.5977 76.8488C82.5969 76.8748 82.591 76.9004 82.5803 76.9241C82.5697 76.9478 82.5544 76.9692 82.5355 76.987C82.5166 77.0048 82.4943 77.0188 82.47 77.028C82.4457 77.0372 82.4198 77.0416 82.3938 77.0408V77.04Z" fill="#FBC3A8"/>
<path d="M99.9843 101.258C99.9697 101.263 99.9558 101.269 99.9431 101.277C99.921 101.291 99.9019 101.309 99.8868 101.331C99.8717 101.352 99.861 101.376 99.8552 101.401C99.8493 101.426 99.8486 101.453 99.8529 101.478C99.8573 101.504 99.8667 101.529 99.8805 101.551C99.8948 101.573 101.306 103.864 101.288 106.769C101.288 106.795 101.293 106.821 101.303 106.845C101.312 106.869 101.327 106.891 101.345 106.909C101.363 106.928 101.385 106.943 101.409 106.953C101.433 106.963 101.459 106.968 101.485 106.968C101.537 106.968 101.587 106.947 101.624 106.911C101.661 106.874 101.682 106.824 101.683 106.772C101.705 103.752 100.275 101.437 100.214 101.34C100.199 101.317 100.18 101.297 100.158 101.282C100.136 101.267 100.111 101.256 100.084 101.251C100.051 101.245 100.016 101.247 99.9843 101.258Z" fill="#E07C69"/>
<path d="M138.898 85.8173C139.478 89.2704 140.496 92.3965 141.628 95.1987C141.676 95.1791 141.731 95.1796 141.779 95.2001C141.828 95.2206 141.866 95.2594 141.886 95.308C142.796 97.5425 143.786 99.5838 144.657 101.391C144.925 101.946 145.183 102.48 145.428 102.997C145.354 101.749 145.269 100.495 145.158 99.2465L147.17 98.8696L147.272 98.8506C147.549 98.7976 147.796 98.6407 147.962 98.4118C148.128 98.183 148.2 97.8995 148.163 97.6193C147.619 93.4725 146.79 90.1897 145.839 87.5925C144.684 84.4332 143.348 82.2874 142.125 80.8415C140.439 78.8485 138.965 78.1763 138.464 77.991C138.286 77.8813 138.103 77.7814 137.915 77.6917C137.578 77.5333 137.156 77.3425 136.654 77.1374C136.725 77.2125 136.789 77.2938 136.844 77.3805C138 79.2223 138.898 85.8173 138.898 85.8173Z" fill="#F6AA7B"/>
<path d="M104.743 85.5465C104.754 85.4951 104.785 85.4503 104.829 85.4219C104.851 85.4078 104.876 85.3981 104.901 85.3935C104.927 85.3889 104.953 85.3893 104.978 85.3948C105.004 85.4003 105.028 85.4108 105.049 85.4256C105.071 85.4404 105.089 85.4593 105.103 85.4812C105.117 85.5031 105.127 85.5275 105.131 85.5531C105.136 85.5787 105.136 85.605 105.13 85.6304C105.11 85.7183 103.203 94.5177 102.649 102.992C102.645 103.042 102.623 103.089 102.586 103.123C102.55 103.157 102.502 103.176 102.451 103.176H102.434C102.101 107.69 101.795 112.59 101.625 117.166C101.523 119.908 101.466 122.534 101.487 124.892H145.47C145.515 124.056 145.686 120.633 145.725 115.97C145.047 116.463 144.167 116.841 143.038 117.054C137.119 118.178 133.947 115.35 132.992 107.723C132.038 100.095 130.496 90.2237 130.496 90.2237C130.496 90.2237 127.034 89.713 124.514 86.6138C123.284 85.1015 123.22 83.1678 123.476 81.5842C123.442 81.554 123.419 81.5128 123.412 81.4678C123.406 81.4238 123.414 81.3787 123.436 81.34C123.458 81.3014 123.493 81.2713 123.534 81.2548C123.548 81.1844 123.563 81.1155 123.577 81.0466L121.255 80.117C121.044 80.0326 120.845 79.9199 120.665 79.782C116.348 79.5667 113.131 78.7369 113.131 77.7455C113.131 77.2237 114.025 76.7462 115.5 76.3796L115.585 75.3732C112.828 76.0526 109.744 77.3528 107.369 79.8367C107.369 79.8367 102.618 83.2518 99.6563 96.3326C99.6069 96.5502 99.6331 96.7781 99.7307 96.9788C99.8283 97.1794 99.9914 97.3408 100.193 97.4363L100.771 97.7095L102.643 98.5932C103.413 91.6822 104.73 85.6209 104.743 85.5465Z" fill="#F6AA7B"/>
<path d="M119.714 78.2008C116.659 78.2277 115.402 77.5761 115.402 77.5761L115.503 76.3773C114.027 76.7439 113.134 77.2213 113.134 77.7431C113.134 78.7345 116.35 79.5643 120.667 79.7797C120.161 79.393 119.82 78.8288 119.714 78.2008Z" fill="#D87334"/>
<path d="M102.452 103.178C102.502 103.178 102.55 103.159 102.587 103.124C102.623 103.09 102.645 103.043 102.649 102.993C103.203 94.5208 105.11 85.7199 105.13 85.632C105.141 85.5806 105.132 85.527 105.103 85.4828C105.075 85.4386 105.03 85.4075 104.979 85.3964C104.927 85.3853 104.874 85.395 104.829 85.4235C104.785 85.4519 104.754 85.4967 104.743 85.5481C104.727 85.6209 103.413 91.6822 102.646 98.5907C102.487 100.029 102.349 101.502 102.25 102.967C102.246 103.019 102.264 103.07 102.298 103.11C102.332 103.149 102.381 103.173 102.433 103.177H102.448L102.452 103.178Z" fill="#D87334"/>
<path d="M116.242 70.4227C118.86 70.2285 121.372 69.3077 123.496 67.7638L126.353 60.628C126.476 60.3219 126.657 60.0429 126.887 59.807C127.118 59.5711 127.392 59.3829 127.695 59.2531C127.999 59.1233 128.324 59.0545 128.654 59.0506C128.984 59.0467 129.311 59.1079 129.617 59.2305L132.129 60.2361C133.332 59.4601 133.951 58.0554 133.544 56.7418C133.399 56.2736 133.135 55.8512 132.778 55.5161C132.559 55.31 132.311 55.1369 132.041 55.0022L132.026 54.9951C131.985 54.9753 131.946 54.9555 131.904 54.9373L131.886 54.9301C131.846 54.9119 131.807 54.8945 131.764 54.8787L131.724 54.8644L131.619 54.8256L131.585 54.8153C131.449 54.7707 131.31 54.7344 131.169 54.7069H131.162C131.113 54.6981 131.064 54.6894 131.014 54.6823H130.998C130.951 54.676 130.904 54.6696 130.856 54.6649H130.835C130.737 54.6554 130.638 54.6498 130.537 54.6483C130.489 54.6483 130.44 54.6483 130.391 54.6483H130.377C130.31 54.6483 130.242 54.6546 130.174 54.6609L130.062 54.672C130.006 54.6791 129.95 54.6871 129.894 54.6966L129.854 54.7029C129.785 54.7148 129.715 54.7298 129.645 54.7457L129.605 54.7559C129.539 54.7726 129.473 54.79 129.406 54.8098C128.698 55.0225 128.072 55.4479 127.614 56.0284C126.374 54.5715 125.355 52.1113 125.248 48.4405C125.248 48.4405 111.932 53.2871 107.168 49.4041C106.99 50.9715 106.905 52.5482 106.913 54.1257C106.913 64.0344 110.844 70.5906 115.976 70.437H116.005C116.082 70.4322 116.162 70.4291 116.242 70.4227ZM131.108 59.312C131.979 58.9074 132.441 57.981 132.189 57.1583C132.123 56.9493 132.016 56.7555 131.874 56.5879C131.733 56.4204 131.56 56.2824 131.365 56.182C131.341 56.1707 131.319 56.1546 131.301 56.1345C131.283 56.1145 131.269 56.091 131.261 56.0655C131.252 56.04 131.249 56.013 131.251 55.9862C131.253 55.9594 131.261 55.9333 131.273 55.9095C131.286 55.8857 131.303 55.8648 131.324 55.8479C131.345 55.8311 131.369 55.8187 131.395 55.8115C131.421 55.8043 131.449 55.8025 131.475 55.8062C131.502 55.8098 131.527 55.8189 131.551 55.8328C131.791 55.9571 132.005 56.1279 132.18 56.3353C132.354 56.5427 132.486 56.7826 132.567 57.0411C132.878 58.0523 132.322 59.179 131.275 59.6699C131.25 59.6815 131.223 59.6877 131.196 59.6881C131.151 59.688 131.107 59.6726 131.072 59.6444C131.037 59.6163 131.013 59.577 131.003 59.5332C130.994 59.4894 130.999 59.4435 131.019 59.4032C131.038 59.3629 131.071 59.3304 131.112 59.3112L131.108 59.312ZM118.592 54.3434C119.187 54.3125 119.719 55.254 119.78 56.4473C119.841 57.6405 119.41 58.6327 118.816 58.6643C118.221 58.696 117.688 57.753 117.628 56.5597C117.568 55.3664 117.998 54.3743 118.592 54.3434ZM122.393 60.8418C122.437 60.7946 122.493 60.7603 122.555 60.7424C122.616 60.7246 122.682 60.7239 122.744 60.7405C122.762 60.7207 122.78 60.7017 122.798 60.6811C122.798 60.6811 122.798 60.7104 122.803 60.7602C122.864 60.7882 122.916 60.8328 122.953 60.8888C122.989 60.9448 123.009 61.01 123.011 61.077C123.022 62.0778 122.898 63.876 121.943 64.6663C121.64 64.9186 121.256 65.0535 120.861 65.0463C120.706 65.0457 120.551 65.0295 120.399 64.998C120.374 64.9933 120.349 64.9835 120.327 64.9692C120.305 64.9549 120.286 64.9363 120.272 64.9147C120.257 64.893 120.247 64.8687 120.241 64.843C120.236 64.8174 120.236 64.7909 120.241 64.7652C120.243 64.7559 120.246 64.7466 120.25 64.7375C119.745 64.5214 119.207 64.0051 118.675 63.0747C118.465 63.0871 118.255 63.0813 118.047 63.0573C118.021 63.0536 117.996 63.0448 117.974 63.0315C117.952 63.0182 117.932 63.0006 117.917 62.9797C117.901 62.9589 117.89 62.9352 117.883 62.91C117.877 62.8848 117.876 62.8586 117.879 62.8328C117.883 62.8071 117.892 62.7823 117.905 62.76C117.919 62.7376 117.936 62.7181 117.957 62.7026C117.978 62.687 118.002 62.6757 118.027 62.6694C118.052 62.663 118.078 62.6616 118.104 62.6654C118.132 62.6733 120.416 62.9686 122.395 60.8418H122.393ZM117.326 52.4486C117.39 52.4169 118.914 51.6877 120.588 52.2158C120.638 52.2317 120.68 52.2668 120.704 52.3134C120.728 52.36 120.733 52.4144 120.717 52.4644C120.701 52.5145 120.666 52.5563 120.619 52.5805C120.573 52.6047 120.518 52.6094 120.468 52.5935C118.95 52.1137 117.513 52.797 117.499 52.8041C117.476 52.8168 117.45 52.8246 117.423 52.8271C117.397 52.8296 117.37 52.8266 117.344 52.8185C117.319 52.8103 117.295 52.7971 117.275 52.7796C117.255 52.7622 117.239 52.7408 117.227 52.7168C117.215 52.6928 117.208 52.6667 117.207 52.64C117.206 52.6134 117.21 52.5867 117.219 52.5617C117.228 52.5366 117.242 52.5137 117.261 52.4942C117.279 52.4748 117.301 52.4593 117.326 52.4486ZM112.037 58.8773C111.442 58.9082 110.91 57.9659 110.849 56.7735C110.789 55.581 111.219 54.5881 111.814 54.5564C112.408 54.5247 112.941 55.4678 113.001 56.6603C113.062 57.8527 112.636 58.848 112.041 58.8789L112.037 58.8773ZM113.235 53.0338C113.222 53.0726 113.196 53.1063 113.163 53.1301C113.129 53.1539 113.089 53.1668 113.048 53.1668C113.026 53.1666 113.004 53.1628 112.983 53.1557C112.224 52.9276 111.419 52.9004 110.646 53.0765C110.595 53.089 110.541 53.0807 110.496 53.0535C110.451 53.0262 110.419 52.9822 110.406 52.9312C110.394 52.8802 110.402 52.8263 110.429 52.7814C110.457 52.7364 110.501 52.7042 110.552 52.6917C111.399 52.4944 112.283 52.5253 113.114 52.7812C113.139 52.7893 113.162 52.8024 113.182 52.8196C113.202 52.8369 113.219 52.858 113.23 52.8818C113.242 52.9055 113.249 52.9313 113.25 52.9577C113.252 52.984 113.248 53.0105 113.239 53.0353L113.235 53.0338ZM115.838 61.4198C115.826 61.4612 115.801 61.4977 115.767 61.5237C115.733 61.5497 115.691 61.5638 115.648 61.5639C115.629 61.5639 115.611 61.5615 115.593 61.5568L114.614 61.2797C114.53 61.2557 114.456 61.2032 114.405 61.131C114.355 61.0589 114.331 60.9716 114.337 60.8838C114.529 58.3088 114.641 56.7877 114.644 56.7117C114.644 56.6859 114.649 56.6604 114.659 56.6366C114.669 56.6128 114.684 56.5912 114.702 56.5731C114.721 56.555 114.742 56.5407 114.766 56.5311C114.79 56.5214 114.816 56.5166 114.842 56.5169C114.894 56.5176 114.945 56.5389 114.982 56.5764C115.019 56.6139 115.04 56.6645 115.04 56.7173C115.04 56.7347 115.04 56.7814 114.733 60.902L115.702 61.176C115.727 61.1825 115.751 61.1942 115.772 61.2102C115.793 61.2262 115.81 61.2462 115.823 61.2691C115.837 61.292 115.845 61.3172 115.848 61.3434C115.851 61.3696 115.849 61.3961 115.842 61.4214L115.838 61.4198Z" fill="#FBC3A8"/>
<path d="M115.401 77.5761C115.401 77.5761 116.659 78.2277 119.714 78.2008C119.637 77.7472 119.688 77.2814 119.859 76.8547L122.087 71.2906C120.471 72.4411 118.398 73.2654 115.763 73.2915L115.588 75.3748L115.503 76.3812L115.401 77.5761Z" fill="#FBC3A8"/>
<path d="M118.817 58.6635C119.412 58.6327 119.847 57.6405 119.782 56.4465C119.717 55.2524 119.187 54.3086 118.594 54.3426C118.001 54.3767 117.565 55.3656 117.63 56.5597C117.695 57.7537 118.222 58.6944 118.817 58.6635Z" fill="black"/>
<path d="M111.816 54.5588C111.221 54.5897 110.787 55.5819 110.852 56.7759C110.916 57.97 111.445 58.9139 112.039 58.8798C112.633 58.8458 113.069 57.8568 113.004 56.6627C112.939 55.4686 112.411 54.5279 111.816 54.5588Z" fill="black"/>
<path d="M117.417 52.8255C117.447 52.8256 117.476 52.8188 117.503 52.8057C117.517 52.7986 118.954 52.1153 120.472 52.5951C120.523 52.6109 120.577 52.6063 120.623 52.5821C120.67 52.5578 120.705 52.5161 120.721 52.466C120.737 52.4159 120.732 52.3616 120.708 52.315C120.684 52.2684 120.642 52.2333 120.592 52.2174C118.918 51.6893 117.394 52.4185 117.33 52.4502C117.29 52.47 117.258 52.5027 117.239 52.543C117.22 52.5833 117.215 52.6289 117.225 52.6723C117.235 52.7157 117.259 52.7545 117.294 52.7823C117.329 52.8101 117.372 52.8253 117.417 52.8255Z" fill="black"/>
<path d="M113.118 52.7835C112.287 52.5277 111.403 52.4968 110.556 52.6941C110.505 52.7066 110.461 52.7388 110.434 52.7837C110.406 52.8287 110.398 52.8826 110.41 52.9336C110.423 52.9846 110.455 53.0286 110.5 53.0558C110.545 53.0831 110.599 53.0914 110.65 53.0789C111.423 52.9027 112.228 52.93 112.987 53.158C113.008 53.1652 113.03 53.1689 113.052 53.1691C113.099 53.1692 113.144 53.1527 113.18 53.1226C113.216 53.0925 113.24 53.0506 113.248 53.0045C113.256 52.9584 113.247 52.911 113.223 52.8707C113.199 52.8304 113.162 52.7998 113.118 52.7843V52.7835Z" fill="black"/>
<path d="M115.705 61.1776L114.737 60.9036C115.043 56.7862 115.043 56.7363 115.043 56.7189C115.043 56.6662 115.023 56.6156 114.986 56.5781C114.949 56.5406 114.898 56.5192 114.845 56.5186C114.82 56.5182 114.794 56.523 114.77 56.5327C114.746 56.5423 114.724 56.5566 114.706 56.5747C114.688 56.5928 114.673 56.6144 114.663 56.6382C114.653 56.662 114.648 56.6875 114.648 56.7133C114.648 56.7925 114.533 58.3104 114.341 60.8854C114.335 60.9732 114.359 61.0606 114.409 61.1327C114.46 61.2048 114.534 61.2573 114.618 61.2813L115.597 61.5585C115.615 61.5632 115.633 61.5656 115.652 61.5656C115.699 61.5652 115.745 61.5478 115.781 61.5164C115.816 61.4851 115.84 61.4419 115.846 61.3948C115.853 61.3478 115.842 61.2999 115.816 61.26C115.79 61.2202 115.751 61.1909 115.705 61.1776Z" fill="#E07C69"/>
<path d="M135.15 45.3492C136.604 51.0669 134.926 54.4313 136.309 60.4143C136.448 61.0161 136.603 61.5735 136.771 62.0905L136.827 62.1127C137.429 62.3536 137.914 62.8177 138.181 63.408C138.448 63.9983 138.477 64.669 138.261 65.28C139.798 67.604 141.676 68.3332 143.025 68.57C143.099 68.5832 143.176 68.5754 143.246 68.5473C143.316 68.5193 143.376 68.4721 143.421 68.4112C143.465 68.3503 143.492 68.2781 143.498 68.2029C143.503 68.1277 143.488 68.0524 143.452 67.9856C142.423 66.0488 141.5 64.9585 142.393 58.6169C143.414 51.3638 148.05 40.7701 141.372 36.7556C136.737 33.9693 132.345 37.5292 130.849 38.9822C130.961 39.1224 131.071 39.2649 131.181 39.4114C131.182 39.4153 134.819 40.2586 135.15 45.3492Z" fill="#5C1E14"/>
<path d="M125.247 48.4404C125.353 52.1113 126.373 54.5714 127.612 56.0284C128.07 55.4462 128.697 55.0193 129.406 54.8058C129.473 54.786 129.539 54.7686 129.605 54.752L129.645 54.7417C129.715 54.7258 129.785 54.7108 129.854 54.6989L129.894 54.6926C129.95 54.6831 130.006 54.6752 130.062 54.668L130.174 54.657C130.242 54.6506 130.31 54.6467 130.377 54.6443H130.39C130.439 54.6443 130.489 54.6443 130.537 54.6443C130.637 54.6443 130.736 54.6514 130.835 54.6609H130.856C130.903 54.6657 130.951 54.672 130.998 54.6783H131.014C131.063 54.6855 131.112 54.6942 131.162 54.7029H131.169C131.31 54.7304 131.449 54.7667 131.585 54.8114L131.618 54.8216L131.724 54.8604L131.763 54.8747C131.805 54.8905 131.843 54.908 131.886 54.9262L131.904 54.9333C131.945 54.9515 131.983 54.9713 132.025 54.9911L132.041 54.9982C132.31 55.1329 132.558 55.306 132.778 55.5121C134.743 50.9821 135.302 47.7072 135.153 45.3452C134.823 40.2547 131.185 39.4114 131.185 39.4114C131.074 39.2649 130.964 39.1224 130.853 38.9822C122.248 28.0845 111.267 35.1118 109.094 36.6194C107.906 37.4445 101.94 41.7235 106.269 48.4016C106.515 48.7794 106.819 49.1163 107.17 49.4001C111.93 53.2871 125.247 48.4404 125.247 48.4404Z" fill="#5C1E14"/>
<path d="M131.192 59.6889C131.219 59.6885 131.246 59.6823 131.271 59.6707C132.318 59.183 132.874 58.0531 132.563 57.0419C132.482 56.7832 132.35 56.5432 132.176 56.3356C132.001 56.1281 131.787 55.9572 131.546 55.8328C131.523 55.8189 131.498 55.8099 131.471 55.8062C131.444 55.8025 131.417 55.8043 131.391 55.8115C131.365 55.8187 131.341 55.8311 131.32 55.8479C131.299 55.8648 131.282 55.8857 131.269 55.9095C131.257 55.9333 131.249 55.9594 131.247 55.9862C131.245 56.0131 131.248 56.04 131.257 56.0655C131.265 56.0911 131.279 56.1145 131.297 56.1346C131.315 56.1546 131.337 56.1707 131.361 56.182C131.556 56.2825 131.729 56.4204 131.87 56.588C132.012 56.7555 132.118 56.9493 132.185 57.1583C132.437 57.981 131.972 58.9074 131.104 59.312C131.063 59.3312 131.03 59.3637 131.011 59.404C130.991 59.4443 130.985 59.4902 130.995 59.534C131.005 59.5778 131.029 59.6171 131.064 59.6452C131.099 59.6734 131.143 59.6888 131.188 59.6889H131.192Z" fill="#E07C69"/>
<path d="M122.805 60.7627C122.805 60.7112 122.799 60.6835 122.799 60.6835C122.782 60.7041 122.764 60.7231 122.746 60.7429C122.759 60.7458 122.771 60.7497 122.784 60.7548C122.791 60.7569 122.798 60.7596 122.805 60.7627Z" fill="#DE8A74"/>
<path d="M120.48 64.6141C120.974 64.7138 121.37 64.6323 121.693 64.3654C122.516 63.6837 122.618 61.9829 122.617 61.1831C121.138 62.7303 119.539 63.0384 118.68 63.0835C119.212 64.0131 119.75 64.5293 120.255 64.7463C120.27 64.7006 120.301 64.662 120.342 64.6377C120.384 64.6133 120.432 64.6049 120.48 64.6141Z" fill="#FBC3A8"/>
<path d="M118.112 62.6701C118.086 62.6664 118.06 62.6678 118.035 62.6742C118.009 62.6805 117.986 62.6918 117.965 62.7074C117.944 62.7229 117.927 62.7424 117.913 62.7648C117.9 62.7871 117.891 62.8119 117.887 62.8376C117.884 62.8633 117.885 62.8896 117.891 62.9148C117.898 62.94 117.909 62.9637 117.925 62.9845C117.94 63.0054 117.96 63.023 117.982 63.0363C118.004 63.0496 118.029 63.0583 118.055 63.0621C118.263 63.0861 118.473 63.0919 118.683 63.0795C119.542 63.0383 121.137 62.7303 122.62 61.1792C122.62 61.9789 122.519 63.6797 121.696 64.3614C121.373 64.6283 120.977 64.7098 120.483 64.6101C120.436 64.6007 120.388 64.6084 120.346 64.6318C120.305 64.6552 120.274 64.6928 120.258 64.7375C120.254 64.7466 120.251 64.7559 120.249 64.7653C120.244 64.791 120.244 64.8174 120.249 64.8431C120.255 64.8687 120.265 64.8931 120.28 64.9147C120.294 64.9364 120.313 64.9549 120.335 64.9692C120.357 64.9835 120.382 64.9933 120.407 64.9981C120.559 65.0295 120.714 65.0457 120.869 65.0464C121.264 65.0535 121.648 64.9187 121.951 64.6663C122.906 63.8745 123.03 62.0779 123.019 61.077C123.017 61.0101 122.997 60.9449 122.961 60.8888C122.924 60.8328 122.872 60.7883 122.811 60.7603C122.804 60.7567 122.797 60.7535 122.79 60.7508C122.778 60.7458 122.765 60.7418 122.752 60.7389C122.69 60.7224 122.624 60.723 122.562 60.7409C122.501 60.7587 122.445 60.7931 122.401 60.8403C120.416 62.9687 118.132 62.6733 118.112 62.6701Z" fill="#FBC3A8"/>
<path d="M113.535 66.6187C113.941 66.9176 114.335 67.011 114.739 66.905C115.774 66.6343 116.583 65.135 116.92 64.4095C114.926 65.1884 113.346 64.7932 112.548 64.4717C112.639 65.539 112.909 66.2343 113.275 66.6437C113.308 66.6087 113.352 66.5867 113.4 66.5821C113.448 66.5775 113.496 66.5905 113.535 66.6187Z" fill="#DE8A74"/>
<path d="M112.208 63.8574C112.186 63.8431 112.162 63.8333 112.136 63.8285C112.111 63.8236 112.084 63.8239 112.059 63.8292C112.034 63.8345 112.009 63.8447 111.988 63.8594C111.966 63.874 111.948 63.8928 111.934 63.9145C111.919 63.9363 111.91 63.9606 111.905 63.9862C111.9 64.0117 111.9 64.038 111.906 64.0634C111.911 64.0889 111.921 64.1131 111.936 64.1345C111.95 64.156 111.969 64.1744 111.991 64.1887C112.17 64.2984 112.358 64.3923 112.553 64.4694C113.349 64.7944 114.926 65.1882 116.924 64.4072C116.587 65.1322 115.778 66.6319 114.744 66.9026C114.339 67.0086 113.945 66.9152 113.539 66.6163C113.501 66.5882 113.454 66.5747 113.406 66.5786C113.359 66.5824 113.315 66.6031 113.281 66.637C113.274 66.6438 113.268 66.651 113.262 66.6585C113.246 66.6797 113.235 66.7037 113.229 66.7291C113.223 66.7546 113.222 66.781 113.226 66.8069C113.231 66.8327 113.24 66.8575 113.254 66.8797C113.268 66.9019 113.286 66.9212 113.307 66.9364C113.432 67.029 113.565 67.1089 113.705 67.1749C114.06 67.3479 114.465 67.3877 114.847 67.2869C116.047 66.9718 116.917 65.395 117.329 64.4829C117.356 64.4216 117.365 64.354 117.356 64.2877C117.346 64.2215 117.318 64.1592 117.274 64.1082C117.27 64.102 117.265 64.0961 117.259 64.0906C117.25 64.0808 117.24 64.0719 117.23 64.0638C117.18 64.0225 117.121 63.9955 117.057 63.9856C116.993 63.9757 116.928 63.9834 116.869 64.0077C114.171 65.1 112.224 63.8686 112.208 63.8574Z" fill="#E07C69"/>
<path d="M123.496 67.7639C121.372 69.3079 118.859 70.2288 116.241 70.4228C116.161 70.4291 116.082 70.4323 116.003 70.4355H115.974L115.762 73.286C118.397 73.2599 120.47 72.4356 122.086 71.2851L123.496 67.7639Z" fill="#E07C69"/>
<path d="M136.828 62.1167L136.772 62.0945L132.127 60.2361L129.615 59.2305C129.309 59.1079 128.981 59.0468 128.652 59.0507C128.322 59.0545 127.996 59.1233 127.693 59.2531C127.39 59.3829 127.115 59.5711 126.885 59.8071C126.655 60.043 126.473 60.3219 126.351 60.6281L123.496 67.7639L122.086 71.2867L119.859 76.8508C119.611 77.4689 119.619 78.16 119.882 78.7721C120.144 79.3842 120.638 79.8671 121.256 80.1146L123.579 81.0442C123.742 80.2828 123.979 79.539 124.286 78.8232C124.26 78.8116 124.237 78.7946 124.219 78.7732C124.2 78.7518 124.186 78.7267 124.178 78.6994C124.17 78.6722 124.168 78.6435 124.172 78.6154C124.176 78.5872 124.186 78.5603 124.202 78.5365C121.091 76.4913 122.143 74.6709 122.143 74.6709C126.089 73.7469 131.033 74.5125 134.099 75.6813L138.224 65.3805C138.237 65.3481 138.248 65.3164 138.26 65.2839C138.476 64.6732 138.448 64.0026 138.181 63.4124C137.914 62.8221 137.429 62.3579 136.828 62.1167ZM129.147 61.7865L128.216 64.1136C128.133 64.3201 127.972 64.4853 127.767 64.5729C127.563 64.6605 127.332 64.6633 127.125 64.5808L126.952 64.5111C126.745 64.4284 126.58 64.2669 126.492 64.0623C126.405 63.8577 126.402 63.6266 126.485 63.42L127.416 61.0937C127.457 60.9912 127.517 60.8979 127.594 60.819C127.672 60.7401 127.763 60.6771 127.865 60.6337C127.966 60.5904 128.075 60.5674 128.186 60.5661C128.296 60.5649 128.405 60.5854 128.508 60.6265L128.68 60.6954C128.782 60.7364 128.876 60.7972 128.954 60.8743C129.033 60.9513 129.096 61.0431 129.139 61.1445C129.182 61.2458 129.205 61.3546 129.206 61.4648C129.207 61.575 129.187 61.6843 129.146 61.7865H129.147Z" fill="#617ABC"/>
<path d="M127.416 61.0965L126.485 63.423C126.312 63.8533 126.521 64.3419 126.952 64.5142L127.125 64.5836C127.556 64.7559 128.044 64.5467 128.216 64.1164L129.148 61.7899C129.32 61.3595 129.111 60.871 128.681 60.6987L128.507 60.6292C128.077 60.4569 127.588 60.6661 127.416 61.0965Z" fill="#1F3966"/>
<path d="M147.172 98.8695L145.16 99.2464L143.723 99.4388C144.04 100.117 144.357 100.768 144.659 101.391C144.927 101.946 145.185 102.48 145.43 102.996C145.588 103.334 145.742 103.664 145.891 103.986C146.312 104.899 146.687 105.831 147.014 106.781C147.014 106.781 147.014 106.787 147.014 106.79C147.054 106.908 147.093 107.028 147.13 107.141C147.132 107.148 147.134 107.155 147.137 107.161C147.172 107.274 147.207 107.385 147.24 107.495C147.244 107.507 147.248 107.518 147.251 107.53C147.282 107.636 147.313 107.741 147.343 107.847L147.358 107.9C147.385 107.998 147.411 108.095 147.437 108.191L147.456 108.265C147.479 108.354 147.502 108.443 147.522 108.53C147.53 108.563 147.537 108.595 147.545 108.628C147.563 108.707 147.582 108.786 147.6 108.865C147.609 108.91 147.618 108.952 147.628 108.996C147.641 109.062 147.656 109.13 147.669 109.196C147.681 109.261 147.692 109.317 147.703 109.378C147.712 109.426 147.722 109.474 147.73 109.522C147.749 109.629 147.767 109.737 147.783 109.844C147.787 109.87 147.786 109.896 147.779 109.921C147.773 109.946 147.762 109.97 147.747 109.991C147.731 110.012 147.712 110.029 147.69 110.043C147.668 110.056 147.643 110.065 147.617 110.069H147.587C147.54 110.069 147.494 110.052 147.458 110.021C147.422 109.991 147.399 109.948 147.392 109.901C147.377 109.803 147.36 109.705 147.343 109.605L147.324 109.504C147.312 109.438 147.301 109.372 147.287 109.306C147.279 109.264 147.27 109.226 147.262 109.18C147.25 109.122 147.237 109.062 147.225 109.003C147.215 108.957 147.205 108.911 147.194 108.865C147.184 108.818 147.168 108.754 147.156 108.698C147.143 108.643 147.132 108.598 147.119 108.548C147.107 108.497 147.093 108.446 147.08 108.394C147.068 108.343 147.053 108.285 147.038 108.23C147.03 108.199 147.021 108.168 147.012 108.137C146.973 107.991 146.931 107.843 146.886 107.694C146.879 107.672 146.873 107.65 146.867 107.627C146.843 107.548 146.818 107.469 146.794 107.393L146.768 107.309C146.742 107.23 146.716 107.151 146.689 107.072C146.68 107.047 146.672 107.021 146.663 106.993C146.635 106.908 146.605 106.823 146.575 106.737C146.57 106.72 146.564 106.704 146.558 106.688C146.379 106.178 146.174 105.65 145.944 105.104C145.814 104.793 145.675 104.477 145.527 104.154C145.157 103.345 144.741 102.481 144.299 101.566C143.982 100.908 143.647 100.22 143.307 99.4966V99.4926C143.166 99.1928 143.023 98.8872 142.88 98.5757L142.836 98.4783C142.779 98.3572 142.724 98.2352 142.668 98.1125C142.651 98.0753 142.634 98.0381 142.617 98.0009C142.554 97.8615 142.491 97.7206 142.428 97.5788C142.421 97.5638 142.414 97.5495 142.408 97.5345C142.338 97.3761 142.268 97.2178 142.198 97.0594L142.152 96.9525C142.099 96.8316 142.047 96.7097 141.994 96.5867C141.972 96.536 141.95 96.4861 141.929 96.4355C141.88 96.3206 141.832 96.205 141.782 96.0894C141.763 96.0411 141.742 95.9936 141.722 95.9453C141.655 95.787 141.588 95.6223 141.521 95.4584C141.511 95.4343 141.506 95.4086 141.507 95.3827C141.507 95.3567 141.512 95.3311 141.522 95.3072C141.532 95.2833 141.547 95.2616 141.565 95.2434C141.584 95.2252 141.606 95.2108 141.63 95.201C140.498 92.3988 139.48 89.2727 138.899 85.8196C138.899 85.8196 138.002 79.2246 136.841 77.386C136.785 77.2993 136.721 77.218 136.651 77.1429C136.191 76.6457 135.286 76.1349 134.1 75.6836C131.031 74.5157 126.087 73.7492 122.144 74.6733C122.144 74.6733 121.092 76.4944 124.203 78.5389C124.22 78.5122 124.243 78.4899 124.271 78.4741C124.298 78.4583 124.329 78.4492 124.361 78.4478C124.53 78.4407 128.513 78.2895 130.553 79.6728C130.575 79.687 130.595 79.7055 130.61 79.7273C130.625 79.7491 130.635 79.7736 130.641 79.7995C130.646 79.8255 130.646 79.8522 130.641 79.8782C130.636 79.9041 130.626 79.9288 130.611 79.9507C130.596 79.9727 130.577 79.9914 130.555 80.0058C130.533 80.0203 130.508 80.0301 130.482 80.0347C130.456 80.0394 130.429 80.0387 130.403 80.0329C130.377 80.027 130.353 80.016 130.331 80.0006C128.4 78.6901 124.418 78.8422 124.378 78.8437C124.347 78.845 124.316 78.8388 124.288 78.8255C123.981 79.5413 123.744 80.2851 123.58 81.0466C123.566 81.1155 123.552 81.1843 123.538 81.2548C123.552 81.249 123.566 81.2448 123.581 81.2421C123.686 81.2263 126.16 80.8573 128.404 81.5905C128.448 81.6055 128.486 81.6356 128.51 81.6757C128.535 81.7158 128.544 81.7632 128.536 81.8095C128.529 81.8558 128.505 81.8979 128.47 81.9284C128.434 81.959 128.389 81.9759 128.342 81.9762C128.321 81.9761 128.3 81.9729 128.281 81.9667C126.129 81.2643 123.666 81.6301 123.641 81.6333C123.613 81.6372 123.584 81.6349 123.557 81.6264C123.529 81.6179 123.504 81.6035 123.483 81.5842C123.227 83.1678 123.291 85.1014 124.521 86.6138C127.041 89.713 130.503 90.2237 130.503 90.2237C130.503 90.2237 132.046 100.098 133 107.723C133.953 115.347 137.127 118.175 143.045 117.053C144.175 116.838 145.054 116.463 145.732 115.97C145.989 115.784 146.226 115.571 146.439 115.337C146.459 115.315 146.477 115.293 146.496 115.271C146.515 115.249 146.536 115.227 146.555 115.204C149.381 111.853 148.129 103.449 147.172 98.8695ZM127.366 84.2574C127.358 84.2822 127.346 84.3053 127.329 84.3254C127.313 84.3454 127.292 84.3619 127.269 84.3741C127.246 84.3862 127.221 84.3937 127.195 84.3961C127.169 84.3985 127.143 84.3957 127.118 84.388C125.717 83.9581 124.181 84.7087 124.166 84.7166C124.119 84.7397 124.065 84.7432 124.016 84.7266C123.966 84.7099 123.925 84.6743 123.902 84.6277C123.879 84.581 123.875 84.5269 123.891 84.4773C123.907 84.4276 123.942 84.3864 123.989 84.3627C124.058 84.3286 125.679 83.5321 127.235 84.0095C127.285 84.026 127.326 84.0612 127.349 84.1075C127.373 84.1538 127.378 84.2076 127.363 84.2574H127.366Z" fill="#FBC3A8"/>
<path d="M130.33 79.9982C130.374 80.0258 130.427 80.0354 130.477 80.0249C130.527 80.0145 130.572 79.9847 130.601 79.942C130.629 79.8994 130.641 79.8471 130.632 79.7964C130.622 79.7457 130.594 79.7005 130.552 79.6704C128.512 78.2863 124.529 78.4383 124.36 78.4455C124.316 78.4476 124.273 78.4646 124.24 78.4936C124.206 78.5227 124.184 78.5621 124.175 78.6057C124.167 78.6492 124.173 78.6944 124.194 78.7338C124.214 78.7732 124.247 78.8047 124.287 78.8232C124.315 78.8364 124.346 78.8426 124.377 78.8414C124.417 78.8398 128.399 78.6878 130.33 79.9982Z" fill="#E07C69"/>
<path d="M123.64 81.631C123.665 81.631 126.128 81.262 128.279 81.9643C128.299 81.9706 128.32 81.9738 128.341 81.9738C128.388 81.9735 128.433 81.9566 128.469 81.9261C128.504 81.8956 128.528 81.8534 128.535 81.8072C128.543 81.7609 128.533 81.7135 128.509 81.6734C128.485 81.6333 128.447 81.6031 128.403 81.5882C126.159 80.855 123.684 81.224 123.58 81.2398C123.565 81.2424 123.55 81.2467 123.536 81.2525C123.495 81.269 123.46 81.299 123.438 81.3377C123.416 81.3764 123.408 81.4214 123.414 81.4655C123.423 81.5171 123.451 81.5634 123.493 81.5944C123.536 81.6254 123.588 81.6385 123.64 81.631Z" fill="#E07C69"/>
<path d="M127.231 84.0096C125.675 83.5345 124.054 84.3263 123.985 84.3627C123.938 84.3865 123.903 84.4276 123.887 84.4773C123.87 84.5269 123.874 84.581 123.898 84.6277C123.921 84.6744 123.962 84.7099 124.012 84.7266C124.061 84.7432 124.115 84.7397 124.162 84.7166C124.177 84.7087 125.712 83.9581 127.114 84.388C127.139 84.3957 127.165 84.3984 127.191 84.3959C127.217 84.3935 127.242 84.3859 127.265 84.3738C127.288 84.3616 127.308 84.345 127.325 84.325C127.341 84.3049 127.354 84.2818 127.361 84.257C127.369 84.2321 127.372 84.206 127.369 84.1801C127.367 84.1543 127.359 84.1291 127.347 84.1061C127.335 84.0832 127.318 84.0628 127.298 84.0462C127.278 84.0297 127.255 84.0172 127.23 84.0096H127.231Z" fill="#E07C69"/>
<path d="M141.886 95.308C141.866 95.2593 141.828 95.2206 141.779 95.2001C141.731 95.1796 141.677 95.1791 141.628 95.1987C141.604 95.2084 141.582 95.2228 141.563 95.241C141.545 95.2593 141.53 95.2809 141.52 95.3049C141.51 95.3288 141.505 95.3544 141.505 95.3804C141.505 95.4063 141.51 95.432 141.519 95.456C142.435 97.7024 143.425 99.7532 144.299 101.562C144.741 102.477 145.158 103.341 145.528 104.15C146.526 106.336 147.136 108.217 147.392 109.899C147.399 109.946 147.422 109.989 147.458 110.02C147.494 110.051 147.54 110.067 147.587 110.067H147.617C147.643 110.063 147.667 110.055 147.69 110.041C147.712 110.028 147.731 110.01 147.747 109.989C147.762 109.968 147.773 109.945 147.779 109.919C147.785 109.894 147.787 109.868 147.783 109.842C147.521 108.123 146.901 106.208 145.888 103.988C145.741 103.666 145.587 103.336 145.426 102.998C145.182 102.482 144.923 101.946 144.656 101.393C143.784 99.5869 142.797 97.5425 141.886 95.308Z" fill="#E07C69"/>
<path d="M149.749 124.893H91.1339C91.0814 124.893 91.031 124.913 90.9939 124.951C90.9568 124.988 90.9359 125.038 90.9359 125.09C90.9359 125.143 90.9568 125.193 90.9939 125.23C91.031 125.268 91.0814 125.288 91.1339 125.288H149.749C149.801 125.288 149.851 125.268 149.889 125.23C149.926 125.193 149.947 125.143 149.947 125.09C149.947 125.038 149.926 124.988 149.889 124.951C149.851 124.913 149.801 124.893 149.749 124.893Z" fill="#1F3966"/>
<path d="M81.997 124.868H49.5578C49.5021 124.868 49.4487 124.891 49.4093 124.93C49.37 124.969 49.3478 125.023 49.3478 125.078C49.3478 125.134 49.37 125.188 49.4093 125.227C49.4487 125.266 49.5021 125.288 49.5578 125.288H81.997C82.0527 125.288 82.1061 125.266 82.1455 125.227C82.1848 125.188 82.207 125.134 82.207 125.078C82.207 125.023 82.1848 124.969 82.1455 124.93C82.1061 124.891 82.0527 124.868 81.997 124.868Z" fill="#1F3966"/>
<path d="M72.3744 89.0626C74.7474 86.6266 74.2089 83.6664 74.2089 83.6664C71.7771 85.0289 70.313 86.6224 69.4327 88.0109C69.3885 88.357 69.3347 88.7076 69.2714 89.0626H72.3744Z" fill="#008E6D"/>
<path d="M66.4756 88.6392C66.4459 88.6264 66.4195 88.6068 66.3987 88.582C66.3779 88.5572 66.363 88.5279 66.3554 88.4965C66.1874 87.7766 66.0629 87.0473 65.9825 86.3125C64.4982 82.5871 62.6838 81.679 62.6493 81.7991C61.6741 85.2037 62.7821 87.5514 64.1613 89.0601H66.5411C66.5201 88.9282 66.4974 88.7871 66.4756 88.6392Z" fill="#008E6D"/>
<path d="M67.0655 78.9095C67.0504 78.9515 65.5426 83.1826 66.7648 88.4015C66.7711 88.4283 66.7721 88.4561 66.7677 88.4833C66.7633 88.5105 66.7535 88.5365 66.739 88.5599C66.7245 88.5834 66.7055 88.6037 66.6831 88.6197C66.6607 88.6358 66.6354 88.6472 66.6085 88.6535C66.5929 88.6574 66.5768 88.6594 66.5607 88.6593C66.5316 88.6589 66.503 88.6523 66.4767 88.64C66.4985 88.7879 66.5212 88.929 66.5439 89.06H69.2722C69.3355 88.7055 69.3892 88.355 69.4335 88.0084C70.1643 82.3501 68.5725 77.8301 68.1827 76.8364C68.1743 76.815 68.1603 76.7961 68.1423 76.7819C68.1242 76.7676 68.1027 76.7583 68.0799 76.7551C68.0571 76.7519 68.0338 76.7547 68.0125 76.7634C67.9911 76.7721 67.9725 76.7862 67.9584 76.8045C67.5315 77.3638 67.1891 77.9827 66.942 78.6415C66.9937 78.661 67.0356 78.7 67.0587 78.7502C67.0818 78.8003 67.0843 78.8576 67.0655 78.9095Z" fill="#54C0A1"/>
<path d="M66.4754 88.6392C66.5018 88.6515 66.5304 88.6581 66.5594 88.6585C66.5756 88.6586 66.5917 88.6566 66.6073 88.6527C66.6342 88.6464 66.6595 88.635 66.6819 88.6189C66.7043 88.6029 66.7233 88.5826 66.7378 88.5591C66.7523 88.5357 66.7621 88.5097 66.7665 88.4825C66.7709 88.4553 66.7699 88.4275 66.7636 88.4007C65.5413 83.1826 67.0492 78.9515 67.0643 78.9087C67.0833 78.8565 67.0809 78.799 67.0576 78.7486C67.0343 78.6983 66.992 78.6592 66.94 78.6399C66.8876 78.6209 66.8299 78.6234 66.7793 78.6469C66.7288 78.6703 66.6896 78.7128 66.6703 78.765C66.6569 78.802 65.5086 82.0175 65.9823 86.3149C66.0627 87.0498 66.1873 87.7791 66.3553 88.4989C66.3633 88.53 66.3782 88.5587 66.399 88.5831C66.4199 88.6074 66.446 88.6266 66.4754 88.6392Z" fill="#1F3966"/>
<path d="M74.2536 89.9085C74.2456 89.6812 74.1495 89.4659 73.9857 89.3081C73.8219 89.1503 73.6033 89.0622 73.3758 89.0626H62.4432C62.2157 89.0622 61.9971 89.1503 61.8333 89.3081C61.6695 89.4659 61.5734 89.6812 61.5654 89.9085C61.5083 91.5977 61.6805 95.5087 64.0972 98.7654C64.179 98.8747 64.2853 98.9634 64.4075 99.0244C64.5297 99.0853 64.6645 99.1169 64.8011 99.1165H71.0171C71.1536 99.1169 71.2882 99.0854 71.4103 99.0244C71.5324 98.9635 71.6385 98.8747 71.7202 98.7654C74.1385 95.5087 74.3107 91.5977 74.2536 89.9085ZM70.76 98.0724C70.7459 98.0968 70.727 98.118 70.7044 98.135C70.6818 98.1519 70.6561 98.1641 70.6287 98.1708C70.6013 98.1776 70.5729 98.1788 70.545 98.1743C70.5172 98.1698 70.4905 98.1597 70.4666 98.1447C70.4428 98.1297 70.4221 98.11 70.406 98.0869C70.3899 98.0637 70.3786 98.0376 70.3729 98.01C70.3671 97.9824 70.3669 97.9539 70.3724 97.9262C70.3779 97.8985 70.3889 97.8723 70.4047 97.8489C71.6647 95.8481 71.8882 93.0836 71.8907 93.0559C71.8928 93.0283 71.9003 93.0015 71.9128 92.9768C71.9253 92.9521 71.9425 92.9301 71.9635 92.9121C71.9845 92.8941 72.0088 92.8804 72.0351 92.8718C72.0614 92.8631 72.0891 92.8598 72.1166 92.8619C72.1442 92.864 72.1711 92.8715 72.1958 92.884C72.2205 92.8965 72.2425 92.9137 72.2605 92.9347C72.2785 92.9557 72.2922 92.98 72.3008 93.0063C72.3094 93.0326 72.3128 93.0603 72.3107 93.0878C72.2998 93.208 72.0763 95.9799 70.76 98.0724Z" fill="#F6AA7B"/>
<path d="M72.1157 92.8627C72.0882 92.8606 72.0605 92.8638 72.0343 92.8724C72.0081 92.8809 71.9838 92.8946 71.9629 92.9125C71.942 92.9305 71.9248 92.9524 71.9124 92.977C71.9 93.0016 71.8926 93.0284 71.8905 93.0559C71.8905 93.0837 71.6612 95.8481 70.4045 97.8491C70.3898 97.8724 70.3799 97.8985 70.3752 97.9257C70.3706 97.9529 70.3714 97.9808 70.3776 98.0077C70.3837 98.0347 70.3952 98.0601 70.4112 98.0826C70.4272 98.1051 70.4475 98.1242 70.4709 98.1389C70.518 98.1683 70.5749 98.1778 70.6291 98.1654C70.6832 98.1529 70.7303 98.1196 70.7599 98.0725C72.0762 95.98 72.2996 93.208 72.3089 93.0879C72.313 93.0324 72.295 92.9776 72.2588 92.9354C72.2226 92.8931 72.1711 92.867 72.1157 92.8627Z" fill="#F1F2F2"/>
<path d="M52.5428 61.2804L52.4101 61.2502L52.5428 61.2804Z" fill="#75B2E1"/>
<path d="M53.0819 61.3972L53.008 61.3821L53.0819 61.3972Z" fill="#75B2E1"/>
<path d="M63.1773 61.4442C62.9959 61.4795 62.8142 61.5126 62.6322 61.5434C62.8147 61.512 62.9964 61.479 63.1773 61.4442Z" fill="#75B2E1"/>
<path d="M63.7207 61.3325C63.5712 61.3644 63.42 61.3955 63.2688 61.4258C63.4242 61.3955 63.5712 61.3644 63.7207 61.3325Z" fill="#75B2E1"/>
<path d="M55.3414 61.7525L55.239 61.7408L55.3414 61.7525Z" fill="#75B2E1"/>
<path d="M55.9484 61.813L55.8409 61.8038L55.9484 61.813Z" fill="#75B2E1"/>
<path d="M58.8269 61.9079C58.6348 61.9118 58.4419 61.9141 58.2481 61.9146C58.4413 61.9146 58.6342 61.9124 58.8269 61.9079Z" fill="#75B2E1"/>
<path d="M60.7508 61.792C60.5635 61.8096 60.3745 61.8256 60.1855 61.839C60.3745 61.8289 60.5677 61.813 60.7508 61.792Z" fill="#75B2E1"/>
<path d="M59.4102 61.8878C59.2758 61.8936 59.1414 61.8987 59.0061 61.9029C59.1397 61.8987 59.2758 61.8936 59.4102 61.8878Z" fill="#75B2E1"/>
<path d="M60.0152 61.8542C59.8799 61.8634 59.7439 61.8718 59.6086 61.8785C59.7439 61.876 59.8799 61.8634 60.0152 61.8542Z" fill="#75B2E1"/>
<path d="M62.4728 61.5694C62.3401 61.5912 62.2074 61.6122 62.0739 61.6324C62.2074 61.6122 62.3401 61.5912 62.4728 61.5694Z" fill="#75B2E1"/>
<path d="M61.8817 61.6601C61.7531 61.6786 61.6238 61.6954 61.4953 61.7114C61.6238 61.6954 61.7531 61.6786 61.8817 61.6601Z" fill="#75B2E1"/>
<path d="M57.0967 61.8895L56.9968 61.8844L57.0967 61.8895Z" fill="#75B2E1"/>
<path d="M61.3141 61.734C61.1461 61.7542 60.9781 61.7727 60.8101 61.7895C60.9776 61.7727 61.1456 61.7542 61.3141 61.734Z" fill="#75B2E1"/>
<path d="M53.6282 61.5022L53.5165 61.4812L53.6282 61.5022Z" fill="#75B2E1"/>
<path d="M54.2213 61.6022L54.1045 61.5837L54.2213 61.6022Z" fill="#75B2E1"/>
<path d="M54.7614 61.6811L54.7169 61.6752L54.7614 61.6811Z" fill="#75B2E1"/>
<path d="M58.3292 2.47525C58.9612 3.38442 60.3517 4.02521 60.5073 3.96298C60.5987 3.92603 60.8262 2.55693 60.4373 1.38036C60.0775 0.292282 59.0088 -0.216268 58.4264 0.0861394C57.8439 0.388547 57.6747 1.534 58.3292 2.47525Z" fill="#5C1E14"/>
<path d="M87.0529 54.2545C86.933 54.3666 86.8117 54.4772 86.6892 54.5861C86.8117 54.4772 86.933 54.3666 87.0529 54.2545Z" fill="#75B2E1"/>
<path d="M55.1281 58.7595C55.0309 58.7148 54.9405 58.6681 54.8471 58.6224C54.9405 58.6681 55.0338 58.7148 55.1281 58.7595Z" fill="#75B2E1"/>
<path d="M57.4512 59.7464L57.2499 59.6706L57.4512 59.7464Z" fill="#75B2E1"/>
<path d="M55.6953 59.023C55.6185 58.9889 55.5436 58.9539 55.4677 58.9189C55.5436 58.9539 55.6185 58.9889 55.6953 59.023Z" fill="#75B2E1"/>
<path d="M58.0693 59.9691L57.8991 59.9098L58.0693 59.9691Z" fill="#75B2E1"/>
<path d="M54.6058 58.5028L54.2733 58.3326C54.3841 58.389 54.494 58.4464 54.6058 58.5028Z" fill="#75B2E1"/>
<path d="M56.3029 59.2894L56.0588 59.1853L56.3029 59.2894Z" fill="#75B2E1"/>
<path d="M60.4883 60.6915C60.4387 60.6799 60.391 60.6663 60.3405 60.6536C60.3901 60.6663 60.4348 60.6799 60.4883 60.6915Z" fill="#75B2E1"/>
<path d="M87.5302 53.8004C87.4154 53.9126 87.2994 54.0237 87.1821 54.1339C87.3 54.0231 87.4161 53.9119 87.5302 53.8004Z" fill="#75B2E1"/>
<path d="M58.6184 60.1538L58.4463 60.0974L58.6184 60.1538Z" fill="#75B2E1"/>
<path d="M59.8964 60.536L59.7729 60.5029L59.8964 60.536Z" fill="#75B2E1"/>
<path d="M59.2744 60.358L59.0974 60.3046L59.2744 60.358Z" fill="#75B2E1"/>
<path d="M56.8123 59.4994C56.7452 59.4732 56.6801 59.4459 56.6179 59.4187C56.6801 59.4459 56.7452 59.4732 56.8123 59.4994Z" fill="#75B2E1"/>
<path d="M48.2937 45.3485C52.2804 35.1689 56.5063 33.9349 60.564 33.5363C61.8076 32.6086 63.0445 32.6796 63.1077 32.6845H63.1203L63.3089 28.3769L63.3031 28.3701C61.8825 27.0983 60.7487 25.3072 60.0369 23.2166C59.848 23.2483 59.6568 23.2643 59.4652 23.2642C57.7898 23.2642 56.4314 22.0974 56.4314 20.6496C56.4314 19.473 57.3328 18.4783 58.5706 18.1496C58.2633 17.7889 57.8627 17.0674 57.4038 15.6477C47.7706 19.263 41 27.7702 41 37.6902C41 43.5516 43.3648 48.919 47.2883 53.0769C46.8721 52.6361 46.4744 52.1823 46.0952 51.7156C46.6523 49.7961 47.3807 47.6793 48.2937 45.3485Z" fill="#C1DCFF"/>
<path d="M49.9609 55.5312C49.6815 55.3095 49.408 55.0826 49.1403 54.8506C49.4093 55.082 49.6828 55.3089 49.9609 55.5312Z" fill="#75B2E1"/>
<path d="M54.0103 58.1926C53.9257 58.1469 53.8421 58.1022 53.7585 58.0555L54.0103 58.1926Z" fill="#75B2E1"/>
<path d="M50.5329 55.9736C50.3617 55.8453 50.1935 55.715 50.0263 55.5847C50.1935 55.715 50.3617 55.8453 50.5329 55.9736Z" fill="#75B2E1"/>
<path d="M47.2928 53.0818C47.7037 53.5175 48.1322 53.9388 48.5782 54.3459C48.1329 53.9395 47.7044 53.5181 47.2928 53.0818Z" fill="#75B2E1"/>
<path d="M99.5499 42.1018L94.5052 36.746C94.1056 27.5494 87.8844 19.6869 79.0446 16.0133C78.5657 16.4009 78.0475 16.7372 77.4985 17.0168C77.4985 17.0168 77.5151 16.6551 77.4908 16.0522C77.4966 16.5417 77.4966 17.0557 77.4908 17.5944C77.5835 17.5995 77.6713 17.6376 77.7383 17.7018C77.8054 17.766 77.8472 17.8521 77.8564 17.9445C77.8597 17.9822 77.8571 18.0203 77.8486 18.0572C79.3402 18.2225 80.4925 19.3213 80.4925 20.6496C80.4925 22.0935 79.1311 23.2642 77.4587 23.2642C77.2069 23.2644 76.9559 23.2374 76.71 23.1835C75.9146 25.6076 74.5484 27.602 72.8283 28.8767L72.8536 31.8064H72.8399C72.8497 32.3344 72.8584 32.8109 72.8643 33.1503L73.1997 33.1823C73.2692 33.1378 73.3488 33.1117 73.4311 33.1064C73.5135 33.1011 73.5958 33.1169 73.6703 33.1522C73.7258 33.1784 73.7792 33.2076 73.8337 33.2358L74.1381 33.264H74.174C74.2713 33.2747 74.3734 33.2844 74.4716 33.2961H74.5056C74.6028 33.3068 74.7001 33.3185 74.7973 33.3311L75.0764 33.37H75.1075L75.3603 33.4099L75.4031 33.4177C75.4838 33.4313 75.5626 33.4459 75.6394 33.4604L75.6744 33.4672C75.7531 33.4828 75.8309 33.4984 75.9058 33.5149L75.9437 33.5217C76.8296 33.6724 77.7319 33.8873 78.6343 34.3181C78.8728 34.4192 79.1149 34.5313 79.3606 34.6545L79.3363 34.6992C81.7808 36.1967 84.204 39.5717 86.3121 47.8631C86.8702 50.0606 87.2844 52.0063 87.5761 53.7351C90.4631 50.8968 92.5965 47.4372 93.6923 43.607H98.8896C99.0632 43.6053 99.2326 43.5535 99.3774 43.4578C99.5223 43.3622 99.6364 43.2267 99.7061 43.0678C99.7758 42.9088 99.7982 42.7331 99.7705 42.5617C99.7428 42.3904 99.6661 42.2307 99.5499 42.1018Z" fill="#C1DCFF"/>
<path d="M52.9801 57.6111C52.8342 57.5249 52.69 57.4374 52.5474 57.3486C52.6906 57.4367 52.8349 57.5243 52.9801 57.6111Z" fill="#75B2E1"/>
<path d="M53.5421 57.9349C53.4118 57.862 53.2834 57.7891 53.1531 57.7142C53.2834 57.7891 53.4118 57.862 53.5421 57.9349Z" fill="#75B2E1"/>
<path d="M52.401 57.263L52.1298 57.0909L52.401 57.263Z" fill="#75B2E1"/>
<path d="M52.0068 57.0063C51.8512 56.9052 51.6972 56.8024 51.5449 56.698C51.6972 56.8024 51.8512 56.9052 52.0068 57.0063Z" fill="#75B2E1"/>
<path d="M50.8722 56.2245L50.5873 56.0154L50.8722 56.2245Z" fill="#75B2E1"/>
<path d="M51.4303 56.6193C51.2468 56.4929 51.065 56.3632 50.8848 56.2303C51.0643 56.3632 51.2462 56.4929 51.4303 56.6193Z" fill="#75B2E1"/>
<path d="M49.1276 54.8399C48.9516 54.6872 48.7775 54.5316 48.6054 54.3751C48.7775 54.5316 48.9516 54.6872 49.1276 54.8399Z" fill="#75B2E1"/>
<path d="M74.7341 60.7635C74.5921 60.7975 74.4502 60.8306 74.3072 60.8607C74.4502 60.8335 74.5921 60.8004 74.7341 60.7635Z" fill="#75B2E1"/>
<path d="M75.4015 60.5982C75.2517 60.6381 75.1001 60.677 74.9484 60.7149C75.1001 60.677 75.2517 60.6381 75.4015 60.5982Z" fill="#75B2E1"/>
<path d="M86.5208 54.7349C86.4284 54.8165 86.3341 54.8982 86.2397 54.9779C86.3341 54.8972 86.4284 54.8156 86.5208 54.7349Z" fill="#75B2E1"/>
<path d="M76.7746 60.1966C76.6184 60.2472 76.4612 60.2961 76.303 60.3435C76.4606 60.2961 76.6178 60.2472 76.7746 60.1966Z" fill="#75B2E1"/>
<path d="M78.0342 59.7639C77.8883 59.8184 77.7425 59.8718 77.5947 59.9234C77.7425 59.8718 77.8835 59.8184 78.0342 59.7639Z" fill="#75B2E1"/>
<path d="M77.3824 59.9953C77.2492 60.041 77.115 60.0858 76.9798 60.1305C77.115 60.0828 77.2492 60.041 77.3824 59.9953Z" fill="#75B2E1"/>
<path d="M76.1723 60.3833C75.972 60.4417 75.7698 60.499 75.5675 60.5545C75.7698 60.499 75.972 60.4417 76.1723 60.3833Z" fill="#75B2E1"/>
<path d="M78.7518 59.4858C78.5619 59.5617 78.3706 59.6362 78.1781 59.7095C78.3706 59.6343 78.5619 59.5597 78.7518 59.4858Z" fill="#75B2E1"/>
<path d="M82.2765 57.7706C82.1608 57.8367 82.0451 57.9028 81.9284 57.9651C82.0451 57.9028 82.1608 57.8367 82.2765 57.7706Z" fill="#75B2E1"/>
<path d="M84.488 56.3461C84.384 56.4209 84.279 56.4948 84.173 56.5687C84.279 56.4948 84.384 56.4209 84.488 56.3461Z" fill="#75B2E1"/>
<path d="M81.1935 58.3647C81.0152 58.4567 80.836 58.5472 80.6558 58.636C80.8367 58.5478 81.0159 58.4574 81.1935 58.3647Z" fill="#75B2E1"/>
<path d="M85.0518 55.9318C84.9222 56.0284 84.7926 56.1237 84.6629 56.2177C84.7951 56.1237 84.9248 56.0284 85.0518 55.9318Z" fill="#75B2E1"/>
<path d="M83.4797 57.0335C83.3144 57.1405 83.1491 57.2455 82.9818 57.3495C83.151 57.2455 83.3163 57.1405 83.4797 57.0335Z" fill="#75B2E1"/>
<path d="M82.8706 57.4166C82.7364 57.499 82.6013 57.5803 82.4651 57.6607C82.6013 57.581 82.7364 57.4996 82.8706 57.4166Z" fill="#75B2E1"/>
<path d="M79.3256 59.2466C79.1849 59.3069 79.0436 59.3659 78.9016 59.4236C79.0436 59.3665 79.1849 59.3076 79.3256 59.2466Z" fill="#75B2E1"/>
<path d="M83.9831 56.699C83.8713 56.7749 83.7595 56.8497 83.6467 56.9236C83.7595 56.8497 83.8684 56.7768 83.9831 56.699Z" fill="#75B2E1"/>
<path d="M81.729 58.0759C81.6035 58.1449 81.4771 58.212 81.3497 58.2791C81.481 58.212 81.6074 58.1449 81.729 58.0759Z" fill="#75B2E1"/>
<path d="M85.598 55.5069C85.4482 55.6265 85.2975 55.7451 85.1439 55.8628C85.2975 55.7451 85.4482 55.6265 85.598 55.5069Z" fill="#75B2E1"/>
<path d="M86.0591 55.1306L85.7674 55.3718L86.0591 55.1306Z" fill="#75B2E1"/>
<path d="M80.5244 58.6992C80.3844 58.7673 80.2424 58.8353 80.1005 58.9005C80.2424 58.8353 80.3844 58.7673 80.5244 58.6992Z" fill="#75B2E1"/>
<path d="M79.9029 58.9909C79.7774 59.0483 79.652 59.1047 79.5266 59.1591C79.652 59.1047 79.7774 59.0483 79.9029 58.9909Z" fill="#75B2E1"/>
<path d="M74.135 33.268L73.8307 33.2398L74.135 33.268Z" fill="#D9E3F3"/>
<path d="M75.9436 33.5373C76.8684 33.6969 77.7714 33.9642 78.6341 34.3337C77.7318 33.902 76.8294 33.6871 75.9436 33.5373Z" fill="#D9E3F3"/>
<path d="M79.3366 34.7139L77.3627 38.4507C78.2116 41.6002 78.1095 45.1328 78.0181 46.5806C78.1257 46.6653 78.2099 46.776 78.263 46.9022C78.3161 47.0284 78.3362 47.166 78.3215 47.3021L77.9219 50.9339C77.8981 51.1468 77.7909 51.3416 77.6238 51.4756C77.4566 51.6096 77.2432 51.6718 77.0302 51.6486L76.509 51.5912C76.1485 51.5514 75.8186 51.37 75.5918 51.087C75.365 50.8041 75.2598 50.4426 75.2994 50.0821L75.5765 47.5637C75.6155 47.2088 75.792 46.8833 76.068 46.6568C76.3441 46.4304 76.6978 46.321 77.0535 46.3521C77.1216 45.0521 77.1731 42.3508 76.6646 39.7673L75.595 41.7927C75.5625 41.856 75.5448 41.9258 75.5434 41.9969L75.8779 42.1914C75.9335 42.224 75.9738 42.2773 75.9902 42.3396C76.0066 42.4019 75.9977 42.4682 75.9654 42.5239L75.9586 42.5317L76.4079 42.8234C76.4637 42.8586 76.5117 42.9047 76.5491 42.9591C76.5865 43.0134 76.6124 43.0748 76.6253 43.1394C76.6382 43.2041 76.6379 43.2707 76.6242 43.3353C76.6106 43.3998 76.5839 43.4609 76.546 43.5148C75.701 44.737 72.2744 48.3892 67.8997 51.1818C67.9334 51.2241 67.9516 51.2766 67.9512 51.3306C67.9512 51.353 67.9454 53.6332 68.1049 58.6136C68.1059 58.6455 68.1006 58.6774 68.0894 58.7073C68.0781 58.7371 68.061 58.7645 68.0392 58.7878C68.0173 58.8111 67.9911 58.8299 67.962 58.843C67.9329 58.8562 67.9015 58.8635 67.8695 58.8645H67.8618C67.7988 58.8643 67.7383 58.8396 67.6932 58.7957C67.648 58.7518 67.6217 58.6921 67.6196 58.6292C67.4592 53.638 67.465 51.352 67.465 51.3287C67.4659 51.2873 67.4772 51.2468 67.4981 51.211C63.6923 48.7898 60.5943 45.7123 59.2855 44.1342C59.5381 45.8258 59.8841 47.5021 60.322 49.1554C60.9099 49.1585 61.4759 49.3793 61.9104 49.7753C62.345 50.1713 62.6173 50.7143 62.6748 51.2994C62.7323 51.8845 62.5709 52.4701 62.2218 52.9431C61.8726 53.4162 61.3606 53.743 60.7845 53.8604C60.2084 53.9779 59.6093 53.8776 59.1028 53.579C58.5964 53.2804 58.2186 52.8047 58.0425 52.2438C57.8663 51.6829 57.9044 51.0766 58.1492 50.5421C58.3941 50.0076 58.8284 49.5829 59.3682 49.3499C58.2383 44.9675 57.8211 41.4047 58.1206 38.6909L56.066 34.8014C57.5722 33.9885 59.0648 33.7046 60.5515 33.5461L60.5642 33.5364C56.5065 33.935 52.2825 35.169 48.2939 45.3486C47.3808 47.6823 46.6525 49.7962 46.0954 51.7157C46.4746 52.1824 46.8723 52.6362 47.2885 53.077H47.2933C47.7043 53.5126 48.1328 53.934 48.5788 54.3411L48.606 54.3673C48.7781 54.5239 48.9522 54.6794 49.1282 54.8321L49.1408 54.8428C49.4092 55.0742 49.6827 55.3011 49.9615 55.5234L50.0266 55.575C50.1939 55.7072 50.3621 55.8375 50.5332 55.9639L50.5877 56.0057L50.8726 56.2148L50.8852 56.2245C51.0648 56.3542 51.2466 56.4838 51.4307 56.6135C51.4687 56.6407 51.5076 56.666 51.5455 56.6922C51.6978 56.7959 51.8518 56.8987 52.0073 57.0005L52.1299 57.0802L52.4012 57.2523L52.548 57.3427C52.6912 57.4309 52.8355 57.5184 52.9807 57.6053L53.1557 57.7083C53.2841 57.7832 53.4124 57.8561 53.5447 57.9291L53.7605 58.0496C53.8441 58.0963 53.9278 58.141 54.0124 58.1868C54.097 58.2325 54.1874 58.284 54.2759 58.3258L54.6084 58.4969L54.8496 58.6165C54.9468 58.6622 55.0363 58.7089 55.1306 58.7536C55.2434 58.8081 55.3562 58.8606 55.4699 58.9131C55.5458 58.9481 55.6207 58.9831 55.6975 59.0171C55.818 59.0726 55.9406 59.1261 56.0631 59.1795L56.3052 59.2836L56.6164 59.4129C56.6825 59.4401 56.7476 59.4674 56.8108 59.4936C56.956 59.5519 57.1019 59.609 57.2484 59.6647L57.4497 59.7406C57.5984 59.796 57.7472 59.8514 57.8979 59.9039L58.0681 59.9633C58.1926 60.007 58.319 60.0498 58.4444 60.0916L58.6165 60.148C58.776 60.1992 58.9358 60.2495 59.0959 60.2987L59.2729 60.3522C59.4391 60.4018 59.6044 60.4494 59.7717 60.4971L59.8952 60.5301C60.042 60.571 60.1869 60.6099 60.3386 60.6478C60.3882 60.6604 60.4358 60.6741 60.4864 60.6857C60.6585 60.7295 60.8306 60.7713 61.0046 60.8112L61.1583 60.8462C61.3372 60.887 61.5171 60.9269 61.697 60.9638L61.7825 60.9813C61.9498 61.0157 62.1174 61.0481 62.2852 61.0786L62.4146 61.1029C62.5974 61.1359 62.7812 61.1683 62.9659 61.2001L63.1011 61.2215C63.2916 61.2513 63.4829 61.2795 63.6748 61.3061L63.7263 61.3129C63.9101 61.3382 64.0948 61.3605 64.2796 61.3819L64.3982 61.3955C64.5927 61.4169 64.7845 61.4367 64.9738 61.4549L65.0983 61.4656C65.2928 61.4831 65.497 61.4996 65.6982 61.5132H65.7216C65.9161 61.5268 66.1164 61.5375 66.3147 61.5472L66.4304 61.5531C66.6249 61.5618 66.8252 61.5677 67.0236 61.5725H67.1412C67.3483 61.5725 67.5545 61.5793 67.7626 61.5793C67.9862 61.5793 68.2095 61.5767 68.4325 61.5715L68.6406 61.5657C68.7972 61.5609 68.9528 61.555 69.1083 61.5482L69.3378 61.5375C69.4944 61.5297 69.6519 61.52 69.8084 61.5093L70.0029 61.4957C70.2217 61.4801 70.4405 61.4617 70.6573 61.4412L70.7215 61.4344C70.916 61.415 71.1104 61.3936 71.3049 61.3703C71.3749 61.3625 71.4449 61.3528 71.5149 61.344C71.6637 61.3255 71.8134 61.3061 71.9622 61.2847L72.1849 61.2526C72.3395 61.2293 72.4931 61.205 72.6468 61.1797L72.8305 61.1495C73.0412 61.1132 73.2516 61.075 73.4616 61.0348L73.5676 61.0134C73.7426 60.9784 73.9177 60.9424 74.0907 60.9055L74.2988 60.8588C74.4418 60.8267 74.5837 60.7937 74.7257 60.7616L74.9396 60.71C75.0913 60.6721 75.243 60.6332 75.3927 60.5933L75.559 60.5496C75.7613 60.4942 75.9635 60.4368 76.1638 60.3785L76.2951 60.3386C76.4526 60.2913 76.6098 60.2423 76.7667 60.1918L76.9718 60.1256C77.107 60.0809 77.2412 60.0362 77.3744 59.9905L77.5815 59.9185C77.7293 59.867 77.8732 59.8135 78.021 59.7591L78.1698 59.7046C78.3643 59.632 78.5555 59.5575 78.7435 59.481L78.8932 59.4187C79.0352 59.3617 79.1765 59.3027 79.3172 59.2418L79.5185 59.1543C79.6439 59.0998 79.7693 59.0434 79.8948 58.986C79.9609 58.9569 80.026 58.9267 80.0893 58.8956C80.2312 58.8305 80.3732 58.7624 80.5132 58.6943L80.6445 58.6311C80.8253 58.543 81.0046 58.4525 81.1822 58.3598L81.3426 58.2743C81.47 58.2072 81.5964 58.1401 81.7219 58.071C81.788 58.0351 81.8531 57.9991 81.9163 57.9621C82.033 57.898 82.1487 57.8318 82.2644 57.7677L82.4531 57.6578C82.5892 57.5781 82.7244 57.4967 82.8585 57.4137L82.9713 57.3466C83.1386 57.2426 83.3039 57.1376 83.4692 57.0306L83.6345 56.9207C83.7473 56.8468 83.8591 56.772 83.9709 56.6961L84.1654 56.5658C84.2714 56.4919 84.3764 56.418 84.4804 56.3431C84.5398 56.3004 84.6001 56.2586 84.6594 56.2148C84.789 56.1201 84.9187 56.0249 85.0483 55.9289L85.1455 55.8599C85.2992 55.7422 85.4499 55.6236 85.5996 55.504L85.7669 55.3688L86.0586 55.1277L86.2395 54.9741C86.3367 54.8943 86.4281 54.8127 86.5205 54.731L86.6887 54.5832C86.8112 54.4743 86.9324 54.3637 87.0524 54.2516L87.1817 54.131C87.299 54.0202 87.4151 53.909 87.5298 53.7975L87.5813 53.7479C87.2896 52.019 86.8705 50.0734 86.3172 47.8758C84.2043 39.5864 81.7812 36.2113 79.3366 34.7139Z" fill="#D9E3F3"/>
<path d="M59.1168 42.7135L59.2937 42.5988C59.2909 42.5957 59.2883 42.5925 59.286 42.5891C59.254 42.5331 59.2456 42.4667 59.2625 42.4045C59.2795 42.3424 59.3204 42.2895 59.3764 42.2575L59.811 42.0085C59.8116 41.9335 59.7939 41.8594 59.7595 41.7927L59.0059 40.3672C59.0023 41.1507 59.0393 41.9338 59.1168 42.7135Z" fill="#D9E3F3"/>
<path d="M63.0733 33.7376V33.653C63.0616 33.653 63.051 33.653 63.0383 33.653C62.8461 33.6499 62.6543 33.6691 62.4666 33.7104C62.1428 42.0134 66.7391 49.7826 67.5764 51.1245C67.6147 51.0992 67.6597 51.0856 67.7057 51.0856C67.758 51.0862 67.8088 51.1036 67.8506 51.1352C72.4421 45.0433 73.2958 37.5065 73.4339 34.2073C73.4339 34.181 73.4339 34.1567 73.4339 34.1314C73.3697 34.0974 73.3065 34.0634 73.2394 34.0342C73.1232 33.9787 73.0337 33.8793 72.9907 33.7579C72.9477 33.6365 72.9546 33.5029 73.0099 33.3866C73.0492 33.3047 73.1109 33.2356 73.1879 33.1873L72.8524 33.1552C72.8592 33.48 72.8631 33.6812 72.8631 33.6812C72.8631 33.6812 68.8404 37.0942 63.0733 33.7376Z" fill="#54C0A1"/>
<path d="M60.5514 33.5461C59.0646 33.7046 57.5721 33.9885 56.0659 34.8014L58.1205 38.6909C58.3257 36.8366 58.8634 35.378 59.7365 34.3269C59.9764 34.0354 60.2499 33.7733 60.5514 33.5461Z" fill="#90C9ED"/>
<path d="M77.3626 38.4507L79.3365 34.7139L79.3608 34.6692C79.1152 34.546 78.873 34.4339 78.6345 34.3327C77.7717 33.9635 76.8688 33.6966 75.944 33.5373L75.906 33.5305C75.8312 33.514 75.7534 33.4984 75.6746 33.4829L75.6396 33.4761C75.5628 33.4615 75.484 33.4469 75.4033 33.4333L75.3605 33.4255L75.1077 33.3857H75.0766L74.7975 33.3468C74.701 33.3344 74.6037 33.3228 74.5058 33.3118H74.4718C74.3746 33.3001 74.2773 33.2904 74.1743 33.2797H74.1383L73.8339 33.2515C75.7009 34.218 76.7705 36.2386 77.3626 38.4507Z" fill="#90C9ED"/>
<path d="M73.442 34.1334V34.2083C73.3 37.5075 72.4501 45.0443 67.8586 51.1361C67.8169 51.1046 67.7661 51.0872 67.7138 51.0866C67.6675 51.0865 67.6221 51.1 67.5835 51.1255C66.7463 49.7836 62.1499 42.0144 62.4737 33.7114C61.6797 33.885 60.971 34.3299 60.4697 34.9696C59.7141 35.8914 59.0335 37.5153 59.0111 40.3672L59.7647 41.7927C59.7991 41.8594 59.8168 41.9335 59.8162 42.0086L60.8975 41.3901C60.9252 41.3734 60.9561 41.3624 60.9881 41.3577C61.0202 41.3531 61.0529 41.3549 61.0842 41.363C61.1156 41.3712 61.145 41.3855 61.1708 41.4052C61.1965 41.4249 61.218 41.4495 61.2341 41.4777C61.2502 41.5058 61.2605 41.5369 61.2644 41.5691C61.2683 41.6012 61.2657 41.6339 61.2568 41.665C61.2479 41.6962 61.2329 41.7253 61.2126 41.7505C61.1923 41.7758 61.1671 41.7967 61.1386 41.8121L59.6179 42.6776C59.5811 42.6984 59.5396 42.7095 59.4973 42.7096C59.4567 42.7093 59.4168 42.6988 59.3813 42.6791C59.3458 42.6594 59.3158 42.6311 59.2941 42.5968L59.1171 42.7116C59.1599 43.1618 59.2143 43.6344 59.2873 44.1322C60.6 45.7104 63.694 48.7879 67.4998 51.2091C67.479 51.2448 67.4676 51.2853 67.4668 51.3267C67.4668 51.3501 67.4609 53.6361 67.6214 58.6272C67.6234 58.6902 67.6498 58.7499 67.6949 58.7938C67.7401 58.8377 67.8005 58.8623 67.8635 58.8626H67.8713C67.9032 58.8615 67.9346 58.8543 67.9637 58.8411C67.9929 58.8279 68.0191 58.8092 68.0409 58.7859C68.0628 58.7626 68.0798 58.7352 68.0911 58.7053C68.1024 58.6754 68.1076 58.6436 68.1066 58.6117C67.9471 53.6312 67.953 51.351 67.953 51.3287C67.9533 51.2746 67.9351 51.2221 67.9014 51.1799C72.2771 48.3873 75.7027 44.7351 76.5477 43.5128C76.5857 43.4589 76.6123 43.3978 76.626 43.3333C76.6396 43.2688 76.64 43.2022 76.6271 43.1375C76.6141 43.0728 76.5882 43.0115 76.5508 42.9571C76.5134 42.9028 76.4654 42.8566 76.4096 42.8215L75.9604 42.5297C75.927 42.583 75.8742 42.6211 75.8131 42.6358C75.752 42.6505 75.6876 42.6407 75.6337 42.6085L74.0545 41.6819C74.0252 41.6667 73.9992 41.6458 73.9781 41.6203C73.9571 41.5948 73.9415 41.5654 73.9323 41.5336C73.9231 41.5019 73.9204 41.4687 73.9244 41.4359C73.9285 41.4031 73.9392 41.3715 73.9558 41.343C73.9725 41.3144 73.9948 41.2896 74.0214 41.27C74.048 41.2504 74.0783 41.2364 74.1105 41.2289C74.1426 41.2214 74.176 41.2205 74.2085 41.2264C74.241 41.2322 74.272 41.2446 74.2996 41.2628L75.5452 41.9969C75.5466 41.9258 75.5642 41.856 75.5967 41.7927L76.6663 39.7673C76.2015 37.3966 75.2671 35.1262 73.442 34.1334Z" fill="#90C9ED"/>
<path d="M73.9673 41.3532C73.951 41.3807 73.9404 41.4112 73.936 41.4429C73.9316 41.4746 73.9336 41.5068 73.9417 41.5377C73.9499 41.5686 73.964 41.5976 73.9834 41.623C74.0028 41.6484 74.0271 41.6697 74.0548 41.6857L75.6339 42.6124C75.6879 42.6447 75.7523 42.6545 75.8133 42.6397C75.8744 42.625 75.9273 42.5869 75.9606 42.5337L75.9674 42.5259C75.9997 42.4701 76.0086 42.4039 75.9922 42.3416C75.9758 42.2793 75.9355 42.226 75.8799 42.1933L75.5454 41.9989L74.2998 41.2686C74.2445 41.2358 74.1784 41.2263 74.1161 41.2422C74.0537 41.258 74.0002 41.298 73.9673 41.3532Z" fill="#75B2E1"/>
<path d="M59.2862 42.5892C59.2886 42.5926 59.2912 42.5958 59.294 42.5989C59.3158 42.6332 59.3458 42.6615 59.3813 42.6812C59.4168 42.7009 59.4566 42.7114 59.4972 42.7117C59.5395 42.7115 59.5811 42.7005 59.6178 42.6796L61.1337 41.8122C61.1622 41.7968 61.1874 41.7758 61.2077 41.7505C61.228 41.7253 61.243 41.6962 61.2519 41.665C61.2608 41.6339 61.2634 41.6012 61.2595 41.5691C61.2556 41.5369 61.2453 41.5058 61.2292 41.4777C61.2131 41.4495 61.1916 41.4249 61.1659 41.4052C61.1401 41.3855 61.1107 41.3712 61.0793 41.363C61.048 41.3549 61.0153 41.3531 60.9832 41.3577C60.9512 41.3624 60.9203 41.3734 60.8926 41.3901L59.8113 42.0086L59.3767 42.2576C59.3207 42.2896 59.2798 42.3425 59.2628 42.4046C59.2459 42.4668 59.2543 42.5332 59.2862 42.5892Z" fill="#75B2E1"/>
<path d="M73.0185 33.3856C72.9632 33.502 72.9563 33.6355 72.9993 33.7569C73.0423 33.8783 73.1318 33.9777 73.248 34.0332C73.3132 34.0644 73.3764 34.0984 73.4425 34.1305C75.2676 35.1233 76.202 37.3937 76.6668 39.7643C77.1734 42.3479 77.1219 45.0491 77.0558 46.3492H77.0879L77.609 46.4065C77.7593 46.4232 77.9018 46.4819 78.0203 46.5757C78.1117 45.1279 78.2148 41.5953 77.365 38.4458C76.7699 36.2386 75.7003 34.218 73.8305 33.2398C73.776 33.2116 73.7225 33.1824 73.6671 33.1562C73.6095 33.1286 73.5469 33.1127 73.4831 33.1093C73.4193 33.1059 73.3555 33.1152 73.2953 33.1365C73.235 33.1578 73.1796 33.1908 73.1321 33.2335C73.0846 33.2763 73.046 33.328 73.0185 33.3856Z" fill="#1F3966"/>
<path d="M59.0062 40.3672C59.0305 37.5153 59.7112 35.8943 60.4648 34.9696C60.9661 34.3299 61.6748 33.885 62.4688 33.7114C62.6565 33.6701 62.8484 33.6508 63.0406 33.654C63.0532 33.654 63.0639 33.654 63.0756 33.654L63.1184 32.6875H63.1057C63.0425 32.6826 61.8057 32.6116 60.562 33.5393L60.5494 33.549C60.2481 33.7753 59.9746 34.0364 59.7345 34.3269C58.8594 35.378 58.3236 36.8366 58.1184 38.6909C57.8189 41.4047 58.2361 44.9675 59.3679 49.3509C59.666 49.2221 59.9874 49.1559 60.3121 49.1564H60.3218C59.8846 47.5033 59.5392 45.8273 59.2872 44.1361C59.2162 43.6382 59.1598 43.1637 59.1171 42.7155C59.0395 41.9352 59.0025 41.1513 59.0062 40.3672Z" fill="#1F3966"/>
<path d="M77.0848 46.354H77.0527C76.697 46.3229 76.3433 46.4323 76.0672 46.6587C75.7912 46.8852 75.6147 47.2107 75.5757 47.5656L75.2986 50.084C75.259 50.4445 75.3642 50.8059 75.591 51.0889C75.8178 51.3719 76.1477 51.5532 76.5082 51.5931L77.0293 51.6505C77.2423 51.6737 77.4558 51.6114 77.6229 51.4775C77.7901 51.3435 77.8973 51.1487 77.921 50.9358L78.3255 47.3021C78.3481 47.0893 78.2857 46.8763 78.1518 46.7094C78.0179 46.5425 77.8234 46.4354 77.6108 46.4114L77.0848 46.354Z" fill="white"/>
<path d="M59.3693 49.3509C58.8295 49.5838 58.3952 50.0086 58.1504 50.5431C57.9055 51.0776 57.8675 51.6838 58.0436 52.2447C58.2197 52.8056 58.5975 53.2813 59.104 53.5799C59.6104 53.8785 60.2096 53.9788 60.7856 53.8613C61.3617 53.7439 61.8738 53.4171 62.2229 52.9441C62.572 52.4711 62.7334 51.8854 62.6759 51.3003C62.6184 50.7152 62.3461 50.1723 61.9115 49.7763C61.477 49.3803 60.9111 49.1594 60.3232 49.1564H60.3134C59.9887 49.1559 59.6674 49.2221 59.3693 49.3509ZM61.1302 51.5319C61.1304 51.6934 61.0827 51.8514 60.993 51.9859C60.9034 52.1203 60.7759 52.2252 60.6267 52.2871C60.4775 52.3491 60.3132 52.3654 60.1547 52.334C59.9962 52.3026 59.8506 52.2249 59.7362 52.1107C59.6219 51.9965 59.544 51.851 59.5124 51.6925C59.4808 51.5341 59.497 51.3698 59.5587 51.2205C59.6205 51.0712 59.7252 50.9436 59.8596 50.8538C59.9939 50.764 60.1519 50.716 60.3134 50.716C60.5299 50.716 60.7375 50.802 60.8907 50.9549C61.0438 51.1079 61.13 51.3154 61.1302 51.5319Z" fill="white"/>
<path d="M59.4973 51.5319C59.4971 51.6934 59.5448 51.8514 59.6345 51.9859C59.7241 52.1203 59.8516 52.2252 60.0008 52.2871C60.15 52.3491 60.3143 52.3654 60.4728 52.334C60.6313 52.3026 60.7769 52.2249 60.8912 52.1107C61.0056 51.9965 61.0834 51.851 61.115 51.6925C61.1466 51.5341 61.1305 51.3698 61.0687 51.2205C61.0069 51.0712 60.9023 50.9436 60.7679 50.8538C60.6336 50.764 60.4756 50.7161 60.314 50.7161C60.0976 50.7161 59.89 50.802 59.7369 50.9549C59.5837 51.1079 59.4975 51.3154 59.4973 51.5319Z" fill="#90C9ED"/>
<path d="M63.3084 28.3838L63.1197 32.6914L63.077 33.6579V33.7425C68.8441 37.0991 72.8755 33.6851 72.8755 33.6851C72.8755 33.6851 72.8755 33.4839 72.8648 33.1591C72.8541 32.8343 72.8502 32.3433 72.8405 31.8153C67.3029 33.0862 63.4669 28.5685 63.3084 28.3838Z" fill="#FBC3A8"/>
<path d="M63.3043 28.3721L63.3101 28.3789C63.4686 28.5686 67.3046 33.0862 72.8393 31.8105H72.8529L72.8276 28.8807C71.5091 29.8531 69.9835 30.4122 68.345 30.4122C66.4635 30.4093 64.7366 29.6547 63.3043 28.3721Z" fill="#E07C69"/>
<path d="M58.7363 18.1127L58.7908 18.102L58.9026 18.0816L58.9658 18.0729L59.0757 18.0593H59.0825C59.074 18.0223 59.0714 17.9842 59.0747 17.9465C59.0846 17.8438 59.1347 17.7493 59.2142 17.6837C59.2937 17.618 59.396 17.5867 59.4987 17.5964L60.5031 17.6936C61.7672 15.7353 61.4667 10.8453 61.4667 10.8453C65.713 12.6247 67.334 10.3144 67.334 10.3144C72.6129 12.9971 76.551 10.9386 76.551 10.9386C77.2521 12.9582 77.4397 14.9253 77.4854 16.0572C77.5097 16.66 77.4932 17.0217 77.4932 17.0217C78.0422 16.7421 78.5603 16.4058 79.0393 16.0183C80.7108 14.6725 82.777 12.0432 82.0098 7.54606C80.7759 0.315563 74.2484 3.25696 74.2484 3.25696C65.8569 -3.37456 61.4064 5.12487 61.4064 5.12487C61.4064 5.12487 54.6495 5.12487 56.9948 14.1844C57.1387 14.7406 57.2797 15.2258 57.4149 15.6488C57.87 17.0684 58.2706 17.788 58.5817 18.1507C58.6274 18.137 58.6838 18.1244 58.7363 18.1127Z" fill="#5C1E14"/>
<path d="M65.62 13.9277C64.2451 13.9277 63.0822 15.9376 63.0822 18.316C63.0822 20.6944 64.249 22.7042 65.62 22.7042C66.9911 22.7042 68.1579 20.6944 68.1579 18.316C68.1579 15.9376 66.9959 13.9277 65.62 13.9277ZM65.9117 20.8869C65.5228 20.8869 65.2116 20.2928 65.2116 19.5587C65.2116 18.8245 65.5247 18.2294 65.9117 18.2294C66.2987 18.2294 66.6128 18.8245 66.6128 19.5587C66.6128 20.2928 66.2987 20.8869 65.9117 20.8869Z" fill="#FBC3A8"/>
<path d="M77.5027 18.3684L74.8043 18.6232C74.7071 21.3711 73.2875 23.485 71.4983 23.485C70.4287 23.485 69.4923 22.7324 68.8904 21.5403L69.0343 23.6192C69.0445 23.7596 69.0023 23.8987 68.9159 24.0099C68.8296 24.121 68.7051 24.1962 68.5666 24.2211L67.8247 24.3504C67.8102 24.3519 67.7955 24.3519 67.7809 24.3504C67.7165 24.3561 67.6524 24.3359 67.6028 24.2944C67.5532 24.2528 67.5221 24.1932 67.5165 24.1287C67.5108 24.0642 67.531 24.0002 67.5725 23.9506C67.6141 23.901 67.6737 23.8699 67.7382 23.8642L68.482 23.7301C68.5026 23.7265 68.5212 23.7153 68.5339 23.6987C68.5467 23.6822 68.5528 23.6614 68.5511 23.6406L68.379 21.2097C67.7897 22.5827 66.7852 23.4714 65.6223 23.4714C63.8341 23.4714 62.4135 21.3701 62.3162 18.631L59.4264 18.3684C59.3434 18.3602 59.2652 18.3256 59.2034 18.2695C59.1416 18.2135 59.0994 18.1391 59.0831 18.0573H59.0734L58.9635 18.0709L58.9003 18.0796L58.7885 18.1001L58.7341 18.1108C58.6786 18.1224 58.6251 18.1351 58.5717 18.1487C57.3309 18.4773 56.4325 19.4721 56.4325 20.6486C56.4325 22.0926 57.7938 23.2633 59.4662 23.2633C59.6578 23.2634 59.8491 23.2474 60.038 23.2157C60.7498 25.3072 61.8855 27.0983 63.3042 28.3692C64.7229 29.6401 66.4614 30.4112 68.343 30.4112C69.9814 30.4112 71.5071 29.8569 72.8256 28.8797C74.5457 27.6049 75.9119 25.6106 76.7073 23.1865C76.9532 23.2403 77.2042 23.2674 77.456 23.2672C79.1314 23.2672 80.4898 22.1004 80.4898 20.6525C80.4898 19.3223 79.3375 18.2216 77.8459 18.0602C77.8291 18.1415 77.7867 18.2152 77.7249 18.2707C77.6632 18.3262 77.5853 18.3604 77.5027 18.3684ZM58.9694 22.1607C58.9518 22.2069 58.9207 22.2467 58.8801 22.2748C58.8395 22.3029 58.7912 22.318 58.7418 22.3182C58.7123 22.3182 58.683 22.3129 58.6553 22.3026C57.9007 22.0177 57.4126 21.3672 57.4126 20.6496C57.4126 20.0273 57.7704 19.4565 58.3694 19.124C58.4259 19.0928 58.4925 19.0853 58.5545 19.1031C58.6165 19.121 58.6688 19.1628 58.7 19.2193C58.7312 19.2757 58.7387 19.3423 58.7208 19.4043C58.703 19.4663 58.6612 19.5187 58.6047 19.5499C58.1633 19.7949 57.8988 20.2062 57.8988 20.6496C57.8988 21.1679 58.2634 21.6395 58.8274 21.8524C58.8878 21.8753 58.9367 21.9212 58.9633 21.9801C58.9899 22.039 58.9921 22.106 58.9694 22.1665V22.1607ZM65.4521 26.0851C65.4454 26.1442 65.4173 26.1987 65.373 26.2383C65.3287 26.278 65.2714 26.2999 65.212 26.3H65.1838C65.1001 26.2903 63.1185 26.0375 62.4611 23.5599C62.4472 23.4985 62.4577 23.4341 62.4903 23.3803C62.5229 23.3264 62.5751 23.2873 62.6359 23.2712C62.6968 23.2551 62.7615 23.2632 62.8165 23.2938C62.8715 23.3244 62.9125 23.3752 62.9308 23.4354C63.5016 25.5814 65.1672 25.808 65.2421 25.8167C65.2739 25.8209 65.3046 25.8314 65.3323 25.8474C65.3601 25.8635 65.3845 25.8848 65.404 25.9103C65.4235 25.9358 65.4378 25.9648 65.446 25.9958C65.4543 26.0268 65.4564 26.0592 65.4521 26.091V26.0851ZM78.2504 19.3146C78.1911 19.2888 78.1445 19.2405 78.1207 19.1803C78.097 19.1201 78.0982 19.053 78.124 18.9937C78.1498 18.9344 78.1981 18.8877 78.2583 18.864C78.3184 18.8403 78.3856 18.8415 78.4449 18.8673C79.2228 19.2008 79.709 19.8814 79.709 20.6447C79.709 21.6511 78.8494 22.4922 77.7098 22.6079H77.6855C77.621 22.611 77.5579 22.5884 77.5102 22.545C77.4624 22.5016 77.4338 22.441 77.4307 22.3765C77.4276 22.312 77.4503 22.249 77.4937 22.2012C77.5371 22.1534 77.5977 22.1249 77.6621 22.1218C78.5518 22.0342 79.2228 21.3983 79.2228 20.6428C79.2228 20.0856 78.8504 19.5761 78.2504 19.3204V19.3146Z" fill="#FBC3A8"/>
<path d="M76.5514 10.9347C76.5514 10.9347 72.6133 12.9932 67.3344 10.3105C67.3344 10.3105 65.7134 12.6208 61.4671 10.8414C61.4671 10.8414 61.7676 15.7314 60.5035 17.6897L62.3179 17.8609C62.4609 15.1849 63.8591 13.1498 65.624 13.1498C66.9153 13.1498 68.0121 14.2447 68.5615 15.8841C69.1109 14.2447 70.2077 13.1498 71.499 13.1498C73.2551 13.1498 74.6514 15.1762 74.805 17.8434L77.4382 17.5954C77.4576 17.594 77.4771 17.594 77.4965 17.5954C77.5004 17.0567 77.5004 16.5427 77.4965 16.0533C77.4401 14.9253 77.2564 12.9543 76.5514 10.9347Z" fill="#FBC3A8"/>
<path d="M74.0292 18.1293C73.9709 15.8326 72.8342 13.9277 71.4953 13.9277C70.1194 13.9277 68.9574 15.9376 68.9574 18.316C68.9574 20.6944 70.1242 22.7042 71.4953 22.7042C72.8498 22.7042 73.9972 20.7527 74.0312 18.42C74.0112 18.374 74.0009 18.3243 74.0009 18.2742C74.0009 18.224 74.0112 18.1743 74.0312 18.1283L74.0292 18.1293ZM71.9805 20.8869C71.5915 20.8869 71.2794 20.2928 71.2794 19.5587C71.2794 18.8245 71.5935 18.2294 71.9805 18.2294C72.3675 18.2294 72.6806 18.8245 72.6806 19.5587C72.6806 20.2928 72.3675 20.8869 71.9805 20.8869Z" fill="#FBC3A8"/>
<path d="M74.7966 17.8434C74.6478 15.1762 73.2515 13.1498 71.4906 13.1498C70.1993 13.1498 69.1024 14.2447 68.553 15.8841C68.0037 14.2447 66.9068 13.1498 65.6155 13.1498C63.8546 13.1498 62.4563 15.185 62.3095 17.8609L60.5038 17.6878L59.4994 17.5906C59.3968 17.5808 59.2945 17.6122 59.215 17.6779C59.1355 17.7435 59.0853 17.838 59.0754 17.9406C59.0721 17.9784 59.0747 18.0165 59.0832 18.0534C59.0995 18.1353 59.1417 18.2097 59.2035 18.2657C59.2653 18.3217 59.3434 18.3564 59.4265 18.3646L62.3115 18.6369C62.4165 21.376 63.8322 23.4772 65.6175 23.4772C66.7843 23.4772 67.7849 22.5885 68.3741 21.2155L68.3518 20.8956C68.3495 20.8637 68.3536 20.8317 68.3638 20.8013C68.3739 20.771 68.3899 20.7429 68.4109 20.7188C68.4319 20.6946 68.4575 20.6748 68.4861 20.6605C68.5148 20.6463 68.5459 20.6378 68.5778 20.6355C68.6098 20.6333 68.6418 20.6374 68.6722 20.6475C68.7025 20.6577 68.7306 20.6737 68.7547 20.6947C68.7789 20.7157 68.7987 20.7412 68.8129 20.7699C68.8272 20.7985 68.8357 20.8297 68.838 20.8616L68.8856 21.5345C69.4875 22.7246 70.4229 23.4792 71.4935 23.4792C73.2855 23.4792 74.7023 21.3692 74.7995 18.6174L77.5027 18.3685C77.5857 18.3603 77.6639 18.3256 77.7257 18.2696C77.7875 18.2136 77.8296 18.1391 77.8459 18.0573C77.8544 18.0204 77.857 17.9823 77.8537 17.9445C77.8417 17.8428 77.7909 17.7497 77.7119 17.6845C77.633 17.6192 77.5319 17.587 77.4297 17.5945L74.7966 17.8434ZM65.6204 22.7052C64.2455 22.7052 63.0825 20.6953 63.0825 18.3169C63.0825 15.9386 64.2494 13.9287 65.6204 13.9287C66.9914 13.9287 68.1583 15.9386 68.1583 18.3169C68.1583 20.6953 66.9963 22.7042 65.6204 22.7042V22.7052ZM71.4954 22.7052C70.1195 22.7052 68.9576 20.6953 68.9576 18.3169C68.9576 15.9386 70.1244 13.9287 71.4954 13.9287C72.8344 13.9287 73.9711 15.8335 74.0294 18.1303C74.0094 18.1763 73.9991 18.2259 73.9991 18.2761C73.9991 18.3263 74.0094 18.3759 74.0294 18.422C73.9973 20.7527 72.8499 22.7042 71.4954 22.7042V22.7052Z" fill="white"/>
<path d="M68.4799 23.7378L67.736 23.872C67.6715 23.8777 67.612 23.9087 67.5704 23.9583C67.5288 24.0079 67.5086 24.072 67.5143 24.1365C67.52 24.2009 67.551 24.2605 67.6006 24.3021C67.6502 24.3437 67.7143 24.3638 67.7788 24.3582C67.7933 24.3596 67.808 24.3596 67.8225 24.3582L68.5664 24.224C68.7049 24.1991 68.8294 24.1239 68.9157 24.0128C69.0021 23.9016 69.0442 23.7625 69.0341 23.6221L68.8873 21.5471L68.8396 20.8742C68.8374 20.8423 68.8289 20.8111 68.8146 20.7825C68.8003 20.7538 68.7806 20.7283 68.7564 20.7073C68.7323 20.6863 68.7042 20.6703 68.6739 20.6601C68.6435 20.65 68.6115 20.6459 68.5795 20.6481C68.5476 20.6504 68.5164 20.6589 68.4878 20.6732C68.4592 20.6874 68.4336 20.7072 68.4126 20.7314C68.3916 20.7555 68.3756 20.7836 68.3654 20.8139C68.3553 20.8443 68.3512 20.8763 68.3535 20.9083L68.3758 21.2282L68.5479 23.659C68.5472 23.6779 68.54 23.696 68.5276 23.7103C68.5153 23.7246 68.4984 23.7343 68.4799 23.7378Z" fill="#E07C69"/>
<path d="M77.6618 22.1296C77.5973 22.1327 77.5367 22.1613 77.4933 22.2091C77.4499 22.2569 77.4273 22.3199 77.4304 22.3844C77.4335 22.4489 77.462 22.5095 77.5098 22.5529C77.5576 22.5963 77.6207 22.6189 77.6851 22.6158H77.7094C78.8491 22.503 79.7086 21.659 79.7086 20.6526C79.7086 19.8893 79.2225 19.2086 78.4446 18.8751C78.4152 18.8623 78.3836 18.8555 78.3516 18.8549C78.3195 18.8543 78.2877 18.8601 78.2579 18.8718C78.2281 18.8836 78.2009 18.9011 78.1779 18.9233C78.1549 18.9456 78.1364 18.9721 78.1237 19.0015C78.1109 19.0309 78.104 19.0625 78.1035 19.0945C78.1029 19.1265 78.1087 19.1583 78.1204 19.1881C78.1322 19.2179 78.1496 19.2451 78.1719 19.2681C78.1941 19.2912 78.2207 19.3096 78.2501 19.3224C78.85 19.5781 79.2225 20.0876 79.2225 20.6526C79.2225 21.4062 78.5515 22.0421 77.6618 22.1296Z" fill="#E07C69"/>
<path d="M58.8273 21.8534C58.2633 21.6405 57.8987 21.1728 57.8987 20.6506C57.8987 20.2072 58.1632 19.7959 58.6046 19.5509C58.6611 19.5197 58.7029 19.4673 58.7207 19.4053C58.7386 19.3433 58.7311 19.2768 58.6999 19.2203C58.6687 19.1638 58.6163 19.1221 58.5543 19.1042C58.4923 19.0863 58.4258 19.0938 58.3693 19.125C57.7703 19.4576 57.4125 20.0283 57.4125 20.6506C57.4125 21.3731 57.8987 22.0236 58.6552 22.3036C58.6829 22.314 58.7122 22.3192 58.7417 22.3192C58.7987 22.3192 58.8538 22.2992 58.8975 22.2627C58.9412 22.2263 58.9707 22.1756 58.9809 22.1196C58.9911 22.0636 58.9813 22.0058 58.9532 21.9563C58.9251 21.9067 58.8806 21.8686 58.8273 21.8486V21.8534Z" fill="#E07C69"/>
<path d="M71.9798 18.2294C71.5909 18.2294 71.2787 18.8245 71.2787 19.5586C71.2787 20.2927 71.5928 20.8869 71.9798 20.8869C72.3668 20.8869 72.6799 20.2927 72.6799 19.5586C72.6799 18.8245 72.3668 18.2294 71.9798 18.2294Z" fill="black"/>
<path d="M65.912 18.2294C65.523 18.2294 65.2119 18.8245 65.2119 19.5586C65.2119 20.2927 65.525 20.8869 65.912 20.8869C66.299 20.8869 66.613 20.2927 66.613 19.5586C66.613 18.8245 66.299 18.2294 65.912 18.2294Z" fill="black"/>
<path d="M65.2395 25.8206C65.1685 25.8119 63.499 25.5853 62.9283 23.4393C62.91 23.3791 62.869 23.3283 62.814 23.2977C62.759 23.2671 62.6943 23.259 62.6334 23.2751C62.5726 23.2912 62.5204 23.3303 62.4878 23.3842C62.4552 23.438 62.4447 23.5024 62.4586 23.5638C63.1179 26.0414 65.0995 26.2942 65.1812 26.3039H65.2094C65.2738 26.3076 65.3372 26.2856 65.3854 26.2427C65.4336 26.1997 65.4628 26.1394 65.4666 26.0749C65.4703 26.0104 65.4483 25.9471 65.4053 25.8989C65.3624 25.8506 65.302 25.8214 65.2376 25.8177L65.2395 25.8206Z" fill="#FBC3A8"/>
<path d="M70.6927 26.6567C70.6446 26.7097 69.4979 27.944 67.4149 27.1746C67.3551 27.1549 67.29 27.1591 67.2333 27.1864C67.1765 27.2138 67.1326 27.262 67.1108 27.321C67.0889 27.3801 67.0908 27.4453 67.116 27.5029C67.1413 27.5606 67.1879 27.6062 67.2461 27.6302C69.6512 28.5182 70.9991 27.0439 71.0541 26.9827L71.0704 26.9597C71.1106 26.9091 71.129 26.8447 71.1217 26.7805C71.1144 26.7164 71.0818 26.6577 71.0313 26.6176C70.9807 26.5774 70.9163 26.5589 70.8521 26.5662C70.788 26.5736 70.7294 26.6061 70.6892 26.6566L70.6927 26.6567Z" fill="#E07C69"/>
<path d="M54.9394 58.4172H54.9277C54.8634 58.4142 54.8029 58.3858 54.7595 58.3382C54.7161 58.2906 54.6934 58.2278 54.6963 58.1634C54.8605 54.3673 54.82 50.565 54.5747 46.7732C54.5723 46.7412 54.5762 46.7091 54.5862 46.6787C54.5961 46.6483 54.612 46.6201 54.6329 46.5959C54.6537 46.5716 54.6792 46.5516 54.7077 46.5372C54.7363 46.5227 54.7674 46.514 54.7994 46.5116C54.8313 46.5092 54.8634 46.5131 54.8938 46.523C54.9242 46.533 54.9524 46.5489 54.9767 46.5697C55.001 46.5906 55.0209 46.616 55.0354 46.6446C55.0498 46.6732 55.0585 46.7043 55.0609 46.7362C55.3076 50.5478 55.3485 54.3698 55.1835 58.1858C55.1802 58.2483 55.1531 58.3072 55.1077 58.3503C55.0622 58.3933 55.002 58.4173 54.9394 58.4172Z" fill="#90C9ED"/>
<path d="M80.2892 57.9563C80.2285 57.956 80.1701 57.9332 80.1253 57.8922C80.0806 57.8512 80.0527 57.795 80.0471 57.7346C79.8731 55.7441 79.8857 50.0403 79.8867 49.7991C79.8867 49.7346 79.9123 49.6728 79.9579 49.6272C80.0035 49.5816 80.0653 49.556 80.1298 49.556C80.1943 49.5563 80.2561 49.5821 80.3017 49.6279C80.3473 49.6736 80.3728 49.7355 80.3728 49.8001C80.3728 49.8594 80.3592 55.7228 80.5323 57.6918C80.5351 57.7237 80.5316 57.7558 80.522 57.7863C80.5123 57.8168 80.4968 57.8451 80.4762 57.8696C80.4556 57.8941 80.4303 57.9142 80.4019 57.9289C80.3735 57.9437 80.3425 57.9526 80.3106 57.9553L80.2892 57.9563Z" fill="#90C9ED"/>
<path opacity="0.1" d="M48.3241 78.256L44.7592 80.3132C44.5414 80.4383 44.3605 80.6187 44.2347 80.8361C44.1088 81.0535 44.0426 81.3002 44.0426 81.5513C44.0426 81.8025 44.1088 82.0492 44.2347 82.2666C44.3605 82.484 44.5414 82.6644 44.7592 82.7895L48.3241 84.8475C48.5414 84.9736 48.788 85.0401 49.0392 85.0403C49.2903 85.0406 49.5371 84.9746 49.7546 84.849C49.9721 84.7234 50.1527 84.5427 50.278 84.325C50.4034 84.1074 50.4691 83.8605 50.4686 83.6094V79.4933C50.469 79.2422 50.4031 78.9955 50.2777 78.778C50.1523 78.5604 49.9717 78.3798 49.7543 78.2543C49.5368 78.1289 49.29 78.0629 49.039 78.0632C48.7879 78.0635 48.5413 78.13 48.3241 78.256Z" fill="#D9E3F3"/>
</g>
</svg>
