<svg width="348" height="134" viewBox="0 0 348 134" fill="none" xmlns="http://www.w3.org/2000/svg">
<defs>
<filter id="filter0_d" x="0" y="30" width="348" height="104" filterUnits="userSpaceOnUse" color-interpolation-filters="sRGB">
<feFlood flood-opacity="0" result="BackgroundImageFix"/>
<feColorMatrix in="SourceAlpha" type="matrix" values="0 0 0 0 0 0 0 0 0 0 0 0 0 0 0 0 0 0 127 0" result="hardAlpha"/>
<feOffset dy="4"/>
<feGaussianBlur stdDeviation="2"/>
<feComposite in2="hardAlpha" operator="out"/>
<feColorMatrix type="matrix" values="0 0 0 0 0.360784 0 0 0 0 0.733333 0 0 0 0 0.721569 0 0 0 0.2 0"/>
<feBlend mode="normal" in2="BackgroundImageFix" result="effect1_dropShadow"/>
<feBlend mode="normal" in="SourceGraphic" in2="effect1_dropShadow" result="shape"/>
</filter>
<radialGradient id="paint0_angular" cx="0" cy="0" r="1" gradientUnits="userSpaceOnUse" gradientTransform="translate(174 78) rotate(90) scale(48 170)">
<stop offset="0.129994" stop-color="white"/>
<stop offset="0.375127" stop-color="white" stop-opacity="0.59"/>
<stop offset="0.622321" stop-color="white" stop-opacity="0.75"/>
<stop offset="0.860263" stop-color="white" stop-opacity="0"/>
</radialGradient>
</defs>
<g filter="url(#filter0_d)">
<rect x="4" y="30" width="340" height="96" rx="32" fill="#5CBBB8"/>
<rect x="5" y="31" width="338" height="94" rx="31" stroke="url(#paint0_angular)" stroke-width="2"/>
</g>
<path d="M323 73L328.25 78.25L323 83.5" stroke="white" stroke-width="2" stroke-miterlimit="10" stroke-linecap="round" stroke-linejoin="round"/>
<path opacity="0.1" d="M143.627 86.5254L134.68 84.0734C134.159 83.9302 133.614 83.8912 133.078 83.9585C132.541 84.0259 132.023 84.1984 131.553 84.4661C131.083 84.7339 130.67 85.0916 130.339 85.5189C130.007 85.9462 129.763 86.4346 129.62 86.9563L129.131 88.7413C130.055 93.3075 130.234 97.4361 129.356 100.703C129.58 100.81 129.813 100.897 130.052 100.963L138.999 103.415C139.52 103.558 140.065 103.597 140.602 103.53C141.139 103.463 141.657 103.29 142.127 103.022C142.597 102.754 143.009 102.397 143.341 101.969C143.672 101.542 143.916 101.053 144.059 100.531L146.511 91.5847C146.654 91.0631 146.693 90.5185 146.625 89.9819C146.558 89.4453 146.385 88.9273 146.118 88.4574C145.85 87.9876 145.492 87.5751 145.065 87.2436C144.637 86.9121 144.149 86.668 143.627 86.5254Z" fill="white"/>
<path d="M66.0313 76.7881L37.6485 80.1482C36.9153 80.2355 36.1718 80.1613 35.4704 79.9306L35.5351 80.2439C35.6702 80.8963 35.9326 81.5156 36.3071 82.0665C36.6816 82.6175 37.161 83.0893 37.7179 83.4549C38.2747 83.8206 38.8981 84.073 39.5526 84.1978C40.207 84.3225 40.8795 84.3171 41.5318 84.1819L65.3602 79.2611C65.3854 79.1637 65.4097 79.0662 65.4349 78.9679C65.6222 78.2161 65.823 77.4912 66.0313 76.7881Z" fill="#617ABC"/>
<path d="M37.6486 80.1439L66.0314 76.7839C66.5586 74.9857 67.1917 73.2203 67.9273 71.4969C67.6594 71.7167 67.334 71.8549 66.9898 71.8951L61.3795 72.5587C61.1419 72.5867 60.9011 72.5676 60.671 72.5026C60.4408 72.4375 60.2257 72.3277 60.0379 72.1795C59.8501 72.0313 59.6934 71.8476 59.5767 71.6388C59.46 71.43 59.3855 71.2002 59.3576 70.9627L58.6948 65.3842C58.6667 65.1466 58.6857 64.9058 58.7507 64.6755C58.8157 64.4452 58.9254 64.23 59.0736 64.0421C59.2219 63.8543 59.4057 63.6975 59.6145 63.5807C59.8234 63.4639 60.0532 63.3895 60.2908 63.3615L65.9012 62.6979C66.3809 62.6416 66.8634 62.7781 67.2425 63.0774C67.6217 63.3766 67.8664 63.8142 67.9231 64.2939L68.5858 69.8724C68.5917 69.9244 68.5951 69.9757 68.5967 70.0269C69.9886 67.1256 71.5426 64.8324 73.1479 63.0213L71.1117 45.9038C70.9529 44.5684 70.2703 43.3508 69.214 42.5185C68.1577 41.6862 66.8142 41.3073 65.4787 41.4653L64.6185 41.5669L64.8604 43.6048C64.9156 44.071 64.7833 44.5401 64.4927 44.9089C64.2021 45.2776 63.7769 45.5159 63.3106 45.5712L63.041 45.6031C62.5749 45.6583 62.1061 45.5261 61.7375 45.2356C61.3689 44.9452 61.1307 44.5202 61.0754 44.0542L60.8335 42.0146L38.0123 44.7127L38.2559 46.7506C38.3111 47.2168 38.1788 47.6859 37.8882 48.0547C37.5976 48.4234 37.1724 48.6617 36.7061 48.717L36.4365 48.7489C35.9705 48.8041 35.5016 48.6719 35.133 48.3814C34.7644 48.0909 34.5262 47.666 34.4709 47.2L34.2239 45.1604L33.5041 45.2444C32.1683 45.4034 30.9505 46.0865 30.1183 47.1433C29.286 48.2001 28.9077 49.5442 29.0663 50.88L32.0156 75.7036C32.1742 77.0391 32.8567 78.2569 33.9131 79.0893C34.9694 79.9216 36.3131 80.3004 37.6486 80.1422V80.1439ZM58.9527 52.1165L64.5622 51.4529C64.9811 51.4028 65.4044 51.5002 65.7592 51.7284L66.9764 49.872C67.037 49.7798 67.1153 49.7004 67.2066 49.6384C67.298 49.5764 67.4006 49.5331 67.5087 49.5107C67.6169 49.4884 67.7283 49.4876 67.8367 49.5084C67.9451 49.5292 68.0484 49.5711 68.1406 49.6317C68.2328 49.6924 68.3122 49.7707 68.3742 49.862C68.4362 49.9533 68.4795 50.056 68.5019 50.1641C68.5242 50.2722 68.525 50.3837 68.5042 50.4921C68.4834 50.6005 68.4415 50.7038 68.3809 50.796L66.6328 53.4588L67.2469 58.6248C67.275 58.8624 67.256 59.1032 67.191 59.3335C67.126 59.5638 67.0162 59.779 66.868 59.9669C66.7198 60.1547 66.536 60.3115 66.3272 60.4283C66.1183 60.5451 65.8885 60.6196 65.6509 60.6475L60.0413 61.3111C59.8038 61.3391 59.563 61.32 59.3328 61.255C59.1026 61.1899 58.8875 61.0801 58.6998 60.9319C58.512 60.7837 58.3553 60.6 58.2386 60.3912C58.1218 60.1824 58.0474 59.9527 58.0195 59.7151L57.3567 54.1375C57.3287 53.9 57.3478 53.6593 57.4128 53.4291C57.4779 53.199 57.5877 52.984 57.7359 52.7963C57.8841 52.6086 58.0679 52.4519 58.2767 52.3353C58.4854 52.2186 58.7152 52.1443 58.9527 52.1165ZM56.7595 65.6178L57.4222 71.1962C57.4503 71.4338 57.4314 71.6747 57.3664 71.9049C57.3014 72.1352 57.1916 72.3504 57.0434 72.5383C56.8952 72.7261 56.7114 72.8829 56.5025 72.9997C56.2937 73.1165 56.0639 73.191 55.8262 73.2189L50.2167 73.8825C49.9791 73.9105 49.7384 73.8914 49.5082 73.8264C49.278 73.7613 49.0629 73.6516 48.8751 73.5034C48.6874 73.3552 48.5307 73.1714 48.4139 72.9626C48.2972 72.7538 48.2227 72.5241 48.1948 72.2865L47.5321 66.7089C47.5038 66.4712 47.5227 66.2303 47.5877 65.9999C47.6526 65.7695 47.7623 65.5542 47.9106 65.3663C48.0588 65.1783 48.2426 65.0215 48.4515 64.9046C48.6604 64.7878 48.8903 64.7133 49.1281 64.6854L54.7376 64.0218C55.2173 63.9654 55.6998 64.1019 56.0789 64.4012C56.4581 64.7005 56.7029 65.1381 56.7595 65.6178ZM47.7908 53.4378L53.4003 52.775C53.6379 52.7469 53.8787 52.7659 54.1089 52.8309C54.3391 52.8959 54.5543 53.0057 54.7421 53.1539C54.9299 53.3021 55.0866 53.4859 55.2033 53.6948C55.32 53.9036 55.3944 54.1334 55.4222 54.371L56.0849 59.9486C56.1131 60.1862 56.0941 60.4271 56.0291 60.6574C55.9641 60.8876 55.8543 61.1029 55.7061 61.2907C55.5579 61.4786 55.3741 61.6354 55.1653 61.7521C54.9564 61.8689 54.7266 61.9434 54.4889 61.9713L48.8794 62.6349C48.3996 62.6915 47.9169 62.5551 47.5375 62.2558C47.1582 61.9565 46.9133 61.5188 46.8567 61.0389L46.1939 55.4613C46.1656 55.2235 46.1844 54.9824 46.2493 54.7518C46.3143 54.5212 46.424 54.3057 46.5724 54.1176C46.7207 53.9295 46.9046 53.7724 47.1137 53.6555C47.3228 53.5386 47.5529 53.464 47.7908 53.4361V53.4378ZM35.804 62.3443L35.1412 56.7667C35.113 56.529 35.1319 56.2881 35.1968 56.0577C35.2618 55.8273 35.3715 55.612 35.5197 55.4241C35.668 55.2361 35.8518 55.0792 36.0607 54.9624C36.2696 54.8456 36.4995 54.7711 36.7372 54.7431L42.3476 54.0804C42.5852 54.0523 42.826 54.0713 43.0562 54.1363C43.2864 54.2013 43.5016 54.311 43.6894 54.4593C43.8771 54.6075 44.0339 54.7913 44.1506 55.0001C44.2673 55.209 44.3416 55.4388 44.3695 55.6764L45.0322 61.254C45.0603 61.4916 45.0414 61.7324 44.9764 61.9627C44.9114 62.193 44.8016 62.4082 44.6534 62.5961C44.5052 62.7839 44.3214 62.9407 44.1125 63.0575C43.9037 63.1743 43.6739 63.2488 43.4362 63.2767L37.8259 63.9403C37.5883 63.9683 37.3476 63.9492 37.1174 63.8842C36.8872 63.8191 36.6721 63.7093 36.4843 63.5611C36.2965 63.4129 36.1398 63.2292 36.0231 63.0204C35.9064 62.8116 35.8319 62.5819 35.804 62.3443ZM38.072 65.9949L43.6823 65.328C43.9199 65.3 44.1607 65.319 44.3908 65.3841C44.621 65.4491 44.8361 65.5589 45.0239 65.7071C45.2117 65.8553 45.3684 66.0391 45.4851 66.2479C45.6018 66.4567 45.6763 66.6864 45.7042 66.924L46.367 72.5024C46.3953 72.7401 46.3765 72.981 46.3116 73.2114C46.2467 73.4417 46.137 73.657 45.9887 73.8449C45.8404 74.0328 45.6566 74.1896 45.4476 74.3063C45.2387 74.4231 45.0087 74.4974 44.771 74.5251L39.1615 75.1887C38.9239 75.2167 38.6832 75.1976 38.453 75.1326C38.2228 75.0675 38.0077 74.9578 37.8199 74.8096C37.6321 74.6613 37.4754 74.4776 37.3587 74.2688C37.242 74.06 37.1675 73.8303 37.1396 73.5927L36.4768 68.0151C36.4207 67.5356 36.5574 67.0535 36.8566 66.6746C37.1559 66.2958 37.5934 66.0513 38.0728 65.9949H38.072Z" fill="#6F9BD4"/>
<path d="M36.435 48.749L36.7047 48.7171C36.9357 48.6899 37.1591 48.6175 37.3621 48.5039C37.5651 48.3903 37.7437 48.2379 37.8878 48.0553C38.0319 47.8727 38.1386 47.6635 38.2018 47.4396C38.265 47.2157 38.2834 46.9816 38.2561 46.7506L38.0142 44.7128L37.7622 42.5892C37.7349 42.3585 37.6624 42.1355 37.5489 41.9328C37.4354 41.7301 37.2831 41.5518 37.1006 41.4081C36.9181 41.2643 36.7091 41.1579 36.4855 41.0949C36.2619 41.0319 36.0281 41.0137 35.7975 41.0411L35.527 41.073C35.2956 41.0995 35.0718 41.1714 34.8683 41.2846C34.6648 41.3978 34.4857 41.5501 34.3412 41.7328C34.1967 41.9154 34.0898 42.1248 34.0264 42.3489C33.9631 42.573 33.9446 42.8074 33.9722 43.0386L34.2242 45.1605L34.4661 47.2C34.4935 47.4311 34.5661 47.6545 34.6799 47.8575C34.7937 48.0604 34.9465 48.2389 35.1293 48.3828C35.3122 48.5267 35.5217 48.6331 35.7457 48.6959C35.9698 48.7588 36.204 48.7768 36.435 48.749Z" fill="#617ABC"/>
<path d="M63.041 45.6031L63.3107 45.5712C63.7769 45.5159 64.2021 45.2776 64.4928 44.9089C64.7834 44.5401 64.9157 44.071 64.8605 43.6048L64.6186 41.5669L64.3666 39.4434C64.3393 39.2127 64.2668 38.9897 64.1533 38.787C64.0398 38.5843 63.8874 38.406 63.705 38.2622C63.5225 38.1185 63.3135 38.0121 63.0899 37.9491C62.8663 37.8861 62.6325 37.8678 62.4018 37.8953L62.1313 37.9272C61.9004 37.9544 61.6772 38.0268 61.4743 38.1403C61.2715 38.2538 61.093 38.4062 60.949 38.5888C60.8051 38.7713 60.6985 38.9805 60.6355 39.2042C60.5724 39.428 60.5541 39.662 60.5815 39.8928L60.8335 42.0146L61.0754 44.0542C61.1308 44.5202 61.3689 44.9452 61.7375 45.2356C62.1061 45.5261 62.575 45.6583 63.041 45.6031Z" fill="#617ABC"/>
<path d="M42.3428 54.0825L36.7337 54.7454C35.7349 54.8635 35.0208 55.7689 35.1389 56.7677L35.7981 62.346C35.9162 63.3448 36.8216 64.0588 37.8204 63.9408L43.4295 63.2779C44.4284 63.1599 45.1424 62.2545 45.0243 61.2556L44.3651 55.6773C44.247 54.6785 43.3416 53.9645 42.3428 54.0825Z" fill="#D9E3F3"/>
<path d="M53.3983 52.7756L47.7892 53.4385C46.7904 53.5565 46.0764 54.4619 46.1944 55.4608L46.8537 61.0391C46.9717 62.0379 47.8771 62.7519 48.8759 62.6339L54.485 61.971C55.4839 61.8529 56.1979 60.9475 56.0798 59.9487L55.4206 54.3704C55.3026 53.3716 54.3972 52.6575 53.3983 52.7756Z" fill="#D9E3F3"/>
<path d="M58.0211 59.7177C58.0491 59.9553 58.1235 60.185 58.2402 60.3938C58.357 60.6026 58.5137 60.7863 58.7014 60.9345C58.8892 61.0827 59.1043 61.1925 59.3345 61.2576C59.5647 61.3226 59.8055 61.3417 60.043 61.3137L65.6526 60.6501C65.8902 60.6222 66.12 60.5477 66.3289 60.4309C66.5377 60.3141 66.7215 60.1573 66.8697 59.9695C67.0179 59.7816 67.1277 59.5664 67.1927 59.3361C67.2577 59.1058 67.2767 58.865 67.2486 58.6274L66.6345 53.4613L64.0019 57.469C63.7574 57.8407 63.3804 58.1053 62.9477 58.2089C62.515 58.3125 62.059 58.2474 61.6726 58.0268L61.6063 57.989L59.6373 56.3299C59.5514 56.2593 59.4803 56.1724 59.4283 56.0741C59.3762 55.9759 59.3442 55.8682 59.3341 55.7575C59.3239 55.6468 59.3359 55.5351 59.3692 55.429C59.4026 55.3229 59.4567 55.2245 59.5283 55.1395C59.6 55.0545 59.6878 54.9845 59.7868 54.9337C59.8857 54.8829 59.9937 54.8523 60.1046 54.8435C60.2154 54.8348 60.3269 54.8481 60.4326 54.8828C60.5382 54.9175 60.6359 54.9728 60.7201 55.0456L62.5378 56.5769C62.5495 56.5774 62.5612 56.5749 62.5716 56.5696C62.5821 56.5643 62.591 56.5564 62.5975 56.5467L65.7592 51.7284C65.4044 51.5003 64.9811 51.4028 64.5622 51.4529L58.9527 52.1165C58.7149 52.1443 58.485 52.2187 58.276 52.3355C58.067 52.4524 57.8832 52.6092 57.7349 52.7972C57.5867 52.9852 57.4769 53.2005 57.412 53.4309C57.3471 53.6614 57.3283 53.9023 57.3567 54.1401L58.0211 59.7177Z" fill="#D9E3F3"/>
<path d="M43.6793 65.334L38.0701 65.9968C37.0713 66.1149 36.3573 67.0203 36.4753 68.0191L37.1346 73.5973C37.2526 74.5961 38.158 75.3101 39.1568 75.1921L44.766 74.5292C45.7648 74.4111 46.4788 73.5057 46.3608 72.5069L45.7015 66.9287C45.5835 65.9299 44.6781 65.2159 43.6793 65.334Z" fill="#D9E3F3"/>
<path d="M54.734 64.028L49.1249 64.6909C48.126 64.8089 47.412 65.7143 47.53 66.7131L48.1893 72.2913C48.3073 73.2901 49.2127 74.0041 50.2116 73.8861L55.8207 73.2232C56.8195 73.1051 57.5336 72.1997 57.4155 71.2009L56.7563 65.6228C56.6382 64.6239 55.7328 63.9099 54.734 64.028Z" fill="#D9E3F3"/>
<path d="M67.9215 64.2981C67.8649 63.8184 67.6201 63.3809 67.241 63.0816C66.8618 62.7823 66.3794 62.6458 65.8996 62.7022L60.2893 63.3658C60.0516 63.3937 59.8218 63.4682 59.613 63.5849C59.4041 63.7017 59.2203 63.8585 59.0721 64.0464C58.9239 64.2342 58.8141 64.4494 58.7491 64.6797C58.6841 64.91 58.6652 65.1508 58.6933 65.3884L59.356 70.9668C59.384 71.2044 59.4584 71.4341 59.5752 71.6429C59.6919 71.8517 59.8486 72.0354 60.0364 72.1836C60.2241 72.3319 60.4392 72.4416 60.6694 72.5067C60.8996 72.5717 61.1404 72.5908 61.3779 72.5628L66.9883 71.8992C67.3325 71.859 67.6578 71.7208 67.9257 71.5011C68.1441 70.9971 68.3667 70.5071 68.5935 70.0311C68.5935 69.9798 68.5885 69.9286 68.5826 69.8765L67.9215 64.2981Z" fill="#D9E3F3"/>
<path d="M62.5379 56.5769L60.7201 55.0456C60.636 54.9728 60.5383 54.9175 60.4326 54.8828C60.327 54.8481 60.2155 54.8348 60.1046 54.8435C59.9938 54.8522 59.8858 54.8829 59.7868 54.9337C59.6879 54.9845 59.6001 55.0545 59.5284 55.1395C59.4567 55.2245 59.4026 55.3229 59.3693 55.429C59.3359 55.5351 59.324 55.6467 59.3341 55.7575C59.3443 55.8682 59.3763 55.9758 59.4283 56.0741C59.4804 56.1724 59.5514 56.2593 59.6374 56.3299L61.608 57.9889L61.6744 58.0267C62.0608 58.2474 62.5167 58.3125 62.9494 58.2089C63.3821 58.1053 63.7591 57.8407 64.0037 57.469L66.6346 53.4588L68.3809 50.796C68.4416 50.7038 68.4835 50.6005 68.5043 50.4921C68.525 50.3837 68.5242 50.2722 68.5019 50.1641C68.4796 50.056 68.4362 49.9534 68.3743 49.862C68.3123 49.7707 68.2329 49.6924 68.1407 49.6318C68.0485 49.5711 67.9452 49.5292 67.8368 49.5084C67.7284 49.4877 67.6169 49.4885 67.5088 49.5108C67.4007 49.5331 67.298 49.5764 67.2067 49.6384C67.1154 49.7004 67.0371 49.7798 66.9764 49.872L65.7593 51.7284L62.5975 56.5467C62.591 56.5564 62.5821 56.5643 62.5717 56.5696C62.5612 56.5749 62.5496 56.5774 62.5379 56.5769Z" fill="#617ABC"/>
<path d="M121.727 107.724C121.719 107.698 121.706 107.673 121.688 107.652C121.671 107.631 121.649 107.613 121.625 107.6C121.6 107.587 121.574 107.579 121.546 107.577C121.519 107.574 121.491 107.577 121.465 107.585C121.425 107.597 117.415 108.774 110.617 107.091C110.563 107.078 110.506 107.086 110.458 107.115C110.41 107.144 110.376 107.191 110.362 107.245C110.349 107.299 110.358 107.356 110.387 107.404C110.415 107.452 110.462 107.486 110.516 107.499C112.549 108.016 114.63 108.321 116.725 108.409C117.025 108.42 117.313 108.425 117.586 108.425C120.096 108.425 121.491 108.016 121.587 107.987C121.634 107.973 121.675 107.943 121.702 107.903C121.72 107.877 121.731 107.847 121.735 107.816C121.739 107.785 121.736 107.754 121.727 107.724Z" fill="#231F20"/>
<path d="M87.9143 57.4908C87.9143 57.3371 87.9143 57.196 87.9084 57.0649L87.8983 57.07C87.9 57.2044 87.9084 57.348 87.9143 57.4908Z" fill="#D9E3F3"/>
<path d="M107.611 68.9274L108.149 69.2348C108.173 69.2484 108.194 69.2667 108.211 69.2885C108.228 69.3102 108.24 69.3352 108.248 69.3618C108.255 69.3884 108.257 69.4162 108.253 69.4436C108.25 69.471 108.241 69.4974 108.227 69.5213C108.225 69.5243 108.223 69.5271 108.22 69.5297L108.841 69.9295L108.859 69.9421C109 68.5915 109.057 67.2333 109.027 65.8757L107.671 68.4419C107.591 68.5905 107.57 68.7638 107.611 68.9274Z" fill="#D9E3F3"/>
<path d="M104.452 106.251C104.766 106.323 105.088 106.083 105.171 105.72C105.213 105.547 105.19 105.363 105.105 105.206C105.069 105.138 105.019 105.078 104.958 105.031C104.897 104.983 104.827 104.949 104.752 104.931C104.715 104.922 104.677 104.918 104.64 104.918C104.523 104.919 104.409 104.957 104.315 105.026C104.173 105.134 104.073 105.288 104.034 105.462C103.994 105.636 104.018 105.818 104.099 105.976C104.135 106.045 104.185 106.104 104.246 106.152C104.307 106.199 104.377 106.233 104.452 106.251Z" fill="#D9E3F3"/>
<path d="M112.555 58.1166C110.336 57.0246 108.137 56.6819 105.947 56.4761C108.137 56.6819 110.336 57.0212 112.555 58.1166Z" fill="#D9E3F3"/>
<path d="M87.9158 56.1864C87.9158 56.0945 87.9208 56.0468 87.9208 56.0468H87.8773C87.8773 56.0903 87.8773 56.1362 87.8773 56.1822L87.9158 56.1864Z" fill="#D9E3F3"/>
<path d="M129.131 88.7413C128.175 84.0004 126.42 78.7882 124.223 73.5751C120.384 64.4712 116.663 60.325 113 58.3468L109.783 64.4368C109.795 64.5804 109.808 64.7232 109.818 64.8694C110.079 68.6393 109.454 73.4777 107.965 79.2535C108.781 79.5294 109.464 80.1023 109.877 80.8584C110.291 81.6146 110.405 82.4985 110.196 83.3346C109.987 84.1707 109.472 84.8978 108.752 85.3713C108.032 85.8448 107.16 86.0301 106.31 85.8903C105.46 85.7505 104.693 85.2959 104.163 84.6169C103.632 83.9379 103.376 83.0841 103.447 82.2252C103.517 81.3663 103.907 80.5653 104.541 79.9813C105.175 79.3972 106.005 79.073 106.866 79.0729C106.959 79.0729 107.05 79.078 107.141 79.0847C107.897 76.1598 108.394 73.6163 108.688 71.4029C107.023 73.5306 102.282 78.3816 96.3723 82.1162C96.388 82.1457 96.3963 82.1786 96.3966 82.212C96.3966 82.2439 96.4059 85.5434 96.1749 92.7473C96.1731 92.8018 96.1502 92.8535 96.111 92.8914C96.0718 92.9294 96.0194 92.9506 95.9649 92.9506H95.9581C95.9025 92.9486 95.8499 92.9247 95.8118 92.8841C95.7738 92.8435 95.7533 92.7895 95.7549 92.7338C95.9859 85.5392 95.9766 82.2456 95.9766 82.2137C95.977 82.1628 95.9954 82.1136 96.0287 82.0751C89.6556 78.033 84.6534 72.704 83.4287 70.9274C83.3746 70.8494 83.3368 70.7612 83.3175 70.6683C83.2982 70.5753 83.2978 70.4793 83.3164 70.3862C83.335 70.2931 83.3721 70.2047 83.4256 70.1262C83.4791 70.0477 83.5479 69.9808 83.6278 69.9295L84.3947 69.4356L84.3888 69.4289C84.3749 69.405 84.3658 69.3787 84.3621 69.3514C84.3584 69.3241 84.3601 69.2963 84.3671 69.2696C84.3741 69.2429 84.3863 69.2179 84.403 69.1959C84.4197 69.1739 84.4406 69.1555 84.4644 69.1416L84.8617 68.9081C84.8986 68.7506 84.8774 68.585 84.8021 68.4419L83.0549 65.1356C82.2409 69.0089 82.3165 73.1156 82.4173 75.0552C83.0073 75.007 83.5928 75.1905 84.0497 75.5669C84.5065 75.9433 84.7987 76.4829 84.8642 77.0712L85.2002 80.1086C85.2329 80.4059 85.2067 80.7068 85.123 80.9939C85.0394 81.2811 84.8999 81.549 84.7127 81.7822C84.5255 82.0155 84.2941 82.2095 84.0319 82.3533C83.7696 82.4971 83.4816 82.5878 83.1842 82.6202L82.9079 82.6505C82.5537 82.6894 82.1985 82.586 81.9205 82.3631C81.6425 82.1402 81.4644 81.8161 81.4253 81.4619L80.8868 76.5714C80.8578 76.3056 80.9087 76.0372 81.0331 75.8004C81.1574 75.5637 81.3495 75.3695 81.5849 75.2425C81.5009 73.7473 81.4169 70.8166 81.7823 67.6993C81.9252 66.4495 82.1497 65.2104 82.4543 63.9899L79.3698 58.1527C77.3723 59.1557 75.2194 60.6895 73.1538 63.0247C71.5486 64.8358 69.9946 67.129 68.6027 70.0303C68.3787 70.5041 68.1561 70.9941 67.9349 71.5003C67.1993 73.2238 66.5662 74.9892 66.039 76.7873C65.8307 77.4904 65.6299 78.2153 65.4392 78.9713C65.414 79.0696 65.3897 79.167 65.3645 79.2644C59.1485 103.772 61.0435 105.171 65.2284 107.124C67.2847 108.083 71.898 108.598 76.0736 108.874C75.9678 114.082 75.956 119.675 75.9653 123.49H79.8746C79.9303 123.49 79.9838 123.513 80.0231 123.552C80.0625 123.591 80.0846 123.645 80.0846 123.7H86.2553C86.2552 123.673 86.2605 123.645 86.271 123.62C86.2816 123.594 86.297 123.571 86.3166 123.552C86.3361 123.532 86.3593 123.517 86.3848 123.506C86.4103 123.496 86.4377 123.49 86.4653 123.49H117.748C117.476 119.327 117.046 112.822 116.733 108.415C114.637 108.326 112.557 108.022 110.524 107.505C110.497 107.499 110.472 107.487 110.449 107.47C110.427 107.454 110.408 107.433 110.394 107.41C110.38 107.386 110.37 107.36 110.366 107.333C110.362 107.305 110.363 107.278 110.37 107.251C110.377 107.224 110.388 107.199 110.405 107.176C110.421 107.154 110.442 107.135 110.465 107.121C110.489 107.107 110.515 107.097 110.543 107.093C110.57 107.089 110.598 107.09 110.625 107.097C117.423 108.777 121.433 107.601 121.472 107.591C121.499 107.583 121.526 107.58 121.554 107.583C121.581 107.585 121.608 107.593 121.632 107.606C121.657 107.619 121.678 107.637 121.696 107.658C121.713 107.679 121.726 107.704 121.734 107.73C121.743 107.759 121.746 107.79 121.742 107.82C121.738 107.85 121.727 107.879 121.71 107.904C125.966 107.057 128.358 104.447 129.363 100.709C130.236 97.4362 130.053 93.3076 129.131 88.7413ZM121.248 98.8566C119.777 102.637 111.654 107.727 106.938 107.541C106.938 107.541 107.134 106.67 107.335 105.39C107.126 106.553 106.939 107.49 106.923 107.582C106.915 107.622 106.896 107.66 106.867 107.69C106.839 107.72 106.802 107.741 106.761 107.75C100.324 109.157 92.6737 109.499 86.7475 109.499C81.1733 109.499 77.1245 109.196 77.0422 109.189C77.0146 109.187 76.9877 109.18 76.963 109.167C76.9383 109.155 76.9164 109.138 76.8983 109.117C76.862 109.074 76.8439 109.019 76.8481 108.963C76.8524 108.908 76.8785 108.856 76.9209 108.82C76.9633 108.783 77.0184 108.765 77.0741 108.769C77.2421 108.782 94.1194 110.045 106.537 107.367C106.693 106.565 107.491 102.432 107.522 101.095C107.614 97.0304 106.514 96.0947 106.346 95.9771C104.763 95.6965 103.164 95.4286 101.563 95.1732C102.176 96.0972 103.598 99.1775 101.983 106.538C101.973 106.585 101.947 106.627 101.91 106.658C101.873 106.689 101.826 106.705 101.778 106.706C101.763 106.707 101.747 106.707 101.732 106.706C101.705 106.7 101.68 106.688 101.657 106.672C101.634 106.657 101.615 106.636 101.6 106.613C101.585 106.589 101.575 106.563 101.57 106.536C101.566 106.509 101.567 106.481 101.573 106.454C102.569 101.918 102.364 99.0842 102.016 97.5076C101.642 95.8082 101.028 95.1673 101.022 95.1614C101.001 95.1399 100.985 95.1141 100.975 95.0858C85.7068 92.6792 70.5784 91.431 70.4095 91.4176C70.3819 91.4153 70.3551 91.4076 70.3305 91.395C70.3058 91.3824 70.284 91.365 70.2661 91.3439C70.2299 91.3013 70.2122 91.246 70.2167 91.1903C70.2213 91.1347 70.2478 91.083 70.2904 91.0469C70.333 91.0107 70.3883 90.993 70.4439 90.9976C70.4742 90.9976 70.9916 91.0421 71.9081 91.1244C69.9937 87.4956 70.6875 85.6711 71.3142 85.2536C71.3683 85.2183 71.4261 85.1887 71.4864 85.1654V85.1579C71.4777 85.1319 71.4742 85.1045 71.4762 85.0772C71.4781 85.0498 71.4854 85.0232 71.4976 84.9987C71.5099 84.9742 71.5268 84.9523 71.5475 84.9344C71.5682 84.9164 71.5923 84.9028 71.6183 84.8941C71.6578 84.8807 72.1895 84.7169 73.158 84.9857C72.5507 83.2091 72.9547 82.1028 73.3739 81.5047C73.4251 81.4312 73.4935 81.3714 73.5731 81.3304C73.6528 81.2894 73.7412 81.2684 73.8308 81.2693C73.9203 81.2702 74.0083 81.293 74.0871 81.3356C74.1659 81.3782 74.233 81.4395 74.2828 81.514C74.5994 81.986 75.169 82.758 76.14 83.8609C76.2736 80.8764 76.2198 76.7965 76.2198 76.7478C76.2194 76.7203 76.2244 76.6929 76.2345 76.6673C76.2447 76.6417 76.2598 76.6184 76.279 76.5986C76.2982 76.5789 76.3211 76.5631 76.3464 76.5522C76.3717 76.5414 76.3989 76.5356 76.4264 76.5353C76.4815 76.5355 76.5343 76.5572 76.5735 76.5958C76.6128 76.6344 76.6353 76.6869 76.6364 76.7419C76.6364 76.7932 76.6952 81.283 76.5356 84.307C77.2538 85.1008 78.1602 86.0424 79.2976 87.1445C82.592 90.3365 83.38 91.7813 83.5656 92.3222C90.2277 93.085 98.5647 94.1702 106.46 95.5756C106.479 95.5788 106.498 95.585 106.516 95.5941C106.577 95.6272 106.633 95.6679 106.684 95.715C107.188 95.0296 110.236 91.0631 114.278 89.2966C114.11 82.0415 114.588 76.3009 114.594 76.2253C114.597 76.1977 114.605 76.1709 114.617 76.1463C114.63 76.1218 114.648 76.0999 114.669 76.0821C114.69 76.0643 114.714 76.0508 114.741 76.0424C114.767 76.0341 114.795 76.031 114.822 76.0334C114.85 76.0357 114.877 76.0435 114.901 76.0563C114.926 76.069 114.948 76.0865 114.966 76.1077C114.984 76.1288 114.997 76.1533 115.005 76.1797C115.014 76.2061 115.017 76.2339 115.014 76.2614C115.008 76.3354 114.54 81.9734 114.696 89.1252C116.857 88.2785 119.279 88.0903 121.737 89.3621C121.85 89.4201 121.949 89.5018 122.027 89.6015C122.106 89.7012 122.162 89.8167 122.191 89.94C122.293 90.3692 122.306 91.1303 121.738 92.2458C120.791 94.0946 122.716 95.0749 121.248 98.8566ZM103.625 105.369C103.685 105.093 103.845 104.849 104.074 104.684C104.184 104.603 104.31 104.546 104.443 104.518C104.576 104.49 104.714 104.491 104.847 104.521C104.98 104.552 105.105 104.61 105.213 104.693C105.321 104.776 105.41 104.882 105.474 105.002C105.609 105.25 105.648 105.539 105.583 105.813C105.465 106.329 105.033 106.684 104.565 106.684C104.394 106.683 104.226 106.636 104.079 106.548C103.933 106.459 103.813 106.332 103.734 106.18C103.599 105.932 103.559 105.644 103.623 105.369H103.625Z" fill="#D9E3F3"/>
<path d="M115.013 76.2547C115.015 76.2271 115.012 76.1994 115.004 76.173C114.995 76.1466 114.982 76.1221 114.964 76.1009C114.946 76.0798 114.924 76.0623 114.9 76.0496C114.875 76.0368 114.848 76.029 114.821 76.0267C114.793 76.0243 114.765 76.0274 114.739 76.0357C114.713 76.0441 114.688 76.0576 114.667 76.0754C114.646 76.0932 114.628 76.115 114.616 76.1396C114.603 76.1642 114.595 76.191 114.593 76.2186C114.586 76.2942 114.11 82.0348 114.276 89.29C114.414 89.23 114.554 89.174 114.696 89.122C114.538 81.9651 115.006 76.332 115.013 76.2547Z" fill="#90C9ED"/>
<path d="M122.19 89.9333C122.16 89.81 122.104 89.6945 122.025 89.5948C121.947 89.495 121.848 89.4134 121.735 89.3554C119.277 88.0836 116.855 88.2718 114.694 89.1185C114.554 89.1745 114.414 89.2305 114.274 89.2865C110.232 91.0505 107.186 95.0195 106.681 95.7049C107.076 96.0544 108.025 97.2908 107.941 101.099C107.921 101.956 107.605 103.862 107.334 105.383C107.133 106.664 106.937 107.534 106.937 107.534C111.653 107.72 119.776 102.632 121.247 98.8499C122.718 95.0682 120.792 94.0879 121.737 92.2324C122.304 91.1236 122.291 90.36 122.19 89.9333ZM116.764 96.2534C116.733 96.2537 116.702 96.2468 116.674 96.2334C116.646 96.2201 116.621 96.2005 116.601 96.1762C116.566 96.1329 116.55 96.0775 116.555 96.0221C116.561 95.9667 116.588 95.9158 116.631 95.8805C118.395 94.4525 121.057 93.5806 121.167 93.5444C121.194 93.5358 121.221 93.5324 121.249 93.5345C121.277 93.5366 121.304 93.5441 121.328 93.5567C121.353 93.5692 121.375 93.5866 121.393 93.6077C121.411 93.6288 121.425 93.6532 121.433 93.6796C121.442 93.706 121.445 93.7338 121.442 93.7614C121.44 93.789 121.432 93.8159 121.42 93.8405C121.407 93.8651 121.389 93.887 121.368 93.9048C121.347 93.9226 121.322 93.936 121.296 93.9443C121.269 93.9527 118.593 94.8246 116.894 96.2064C116.858 96.2365 116.812 96.2531 116.764 96.2534ZM121.603 96.1157C121.623 96.1352 121.638 96.1584 121.649 96.1839C121.66 96.2094 121.665 96.2367 121.665 96.2644C121.665 96.292 121.66 96.3193 121.649 96.3448C121.638 96.3704 121.623 96.3935 121.603 96.413C120.566 97.4173 119.382 98.2577 118.091 98.9053C118.062 98.9191 118.031 98.9263 117.999 98.9263C117.952 98.9261 117.906 98.91 117.869 98.8805C117.832 98.851 117.806 98.8099 117.795 98.7638C117.784 98.7177 117.79 98.6694 117.81 98.6266C117.83 98.5838 117.864 98.5492 117.906 98.5282C119.859 97.5739 121.29 96.1325 121.304 96.1182C121.324 96.0981 121.347 96.0821 121.372 96.0711C121.398 96.0601 121.425 96.0543 121.453 96.054C121.481 96.0538 121.509 96.0591 121.534 96.0697C121.56 96.0803 121.584 96.0959 121.603 96.1157ZM121.644 91.657C121.6 91.6486 118.244 91.0354 115.607 93.3588C115.587 93.377 115.563 93.3911 115.537 93.4C115.51 93.409 115.483 93.4127 115.455 93.411C115.428 93.4092 115.401 93.4021 115.376 93.39C115.351 93.3779 115.329 93.361 115.311 93.3403C115.293 93.3196 115.279 93.2956 115.27 93.2695C115.261 93.2434 115.257 93.2158 115.259 93.1882C115.26 93.1607 115.268 93.1338 115.28 93.109C115.292 93.0842 115.309 93.062 115.329 93.0438C118.13 90.5759 121.579 91.2168 121.724 91.2445C121.779 91.2557 121.827 91.2881 121.858 91.3346C121.889 91.3812 121.9 91.438 121.888 91.4927C121.877 91.5474 121.845 91.5955 121.798 91.6263C121.752 91.6571 121.695 91.6681 121.64 91.657H121.644Z" fill="#FBC3A8"/>
<path d="M121.89 91.4915C121.895 91.4642 121.895 91.4362 121.889 91.409C121.884 91.3818 121.873 91.3559 121.857 91.3329C121.842 91.31 121.821 91.2903 121.798 91.2752C121.775 91.26 121.749 91.2496 121.722 91.2445C121.576 91.2168 118.127 90.5725 115.327 93.0438C115.306 93.0621 115.289 93.0842 115.277 93.109C115.265 93.1338 115.258 93.1607 115.256 93.1883C115.254 93.2158 115.258 93.2434 115.267 93.2695C115.276 93.2956 115.29 93.3197 115.308 93.3404C115.327 93.361 115.349 93.3779 115.374 93.39C115.398 93.4022 115.425 93.4093 115.453 93.411C115.48 93.4127 115.508 93.409 115.534 93.4001C115.56 93.3911 115.584 93.3771 115.605 93.3588C118.242 91.0354 121.597 91.6486 121.641 91.657C121.668 91.6626 121.696 91.6628 121.723 91.6575C121.751 91.6522 121.777 91.6415 121.8 91.6262C121.823 91.6108 121.843 91.5909 121.858 91.5678C121.874 91.5447 121.884 91.5188 121.89 91.4915Z" fill="#EB7360"/>
<path d="M121.434 93.6797C121.417 93.6268 121.38 93.5829 121.33 93.5575C121.28 93.5322 121.223 93.5275 121.17 93.5444C121.057 93.5806 118.393 94.4483 116.634 95.8804C116.591 95.9157 116.563 95.9666 116.558 96.022C116.552 96.0774 116.569 96.1328 116.604 96.1761C116.639 96.2192 116.69 96.2465 116.745 96.2522C116.801 96.2579 116.856 96.2414 116.899 96.2063C118.598 94.8246 121.274 93.9527 121.301 93.9443C121.354 93.9268 121.397 93.8891 121.422 93.8396C121.447 93.79 121.452 93.7325 121.434 93.6797Z" fill="#EB7360"/>
<path d="M121.307 96.1182C121.293 96.1325 119.862 97.5738 117.909 98.528C117.867 98.549 117.833 98.5837 117.812 98.6265C117.792 98.6693 117.787 98.7176 117.798 98.7637C117.808 98.8097 117.834 98.8508 117.871 98.8803C117.908 98.9098 117.954 98.926 118.001 98.9262C118.033 98.9261 118.065 98.919 118.094 98.9052C119.384 98.2576 120.569 97.4173 121.606 96.413C121.626 96.3935 121.642 96.3702 121.652 96.3445C121.663 96.3188 121.669 96.2913 121.669 96.2634C121.669 96.2356 121.663 96.208 121.652 96.1823C121.642 96.1566 121.626 96.1333 121.606 96.1137C121.586 96.0941 121.563 96.0787 121.537 96.0684C121.511 96.058 121.483 96.0528 121.456 96.0533C121.428 96.0537 121.4 96.0596 121.375 96.0708C121.349 96.0819 121.326 96.0981 121.307 96.1182Z" fill="#EB7360"/>
<path d="M76.6364 76.7352C76.6354 76.6802 76.6128 76.6277 76.5735 76.5891C76.5343 76.5505 76.4815 76.5288 76.4264 76.5286C76.3989 76.5289 76.3717 76.5346 76.3464 76.5455C76.3211 76.5564 76.2982 76.5721 76.279 76.5919C76.2598 76.6116 76.2447 76.635 76.2345 76.6606C76.2243 76.6862 76.2193 76.7135 76.2198 76.7411C76.2198 76.7898 76.2736 80.8697 76.14 83.8542C76.266 83.9978 76.3987 84.1457 76.539 84.3002C76.6953 81.2762 76.6364 76.7864 76.6364 76.7352Z" fill="#90C9ED"/>
<path d="M79.2977 87.1377C78.1603 86.0357 77.2539 85.094 76.5357 84.3002C76.3955 84.1457 76.2627 83.9978 76.1367 83.8542C75.1657 82.7513 74.5962 81.9793 74.2795 81.5072C74.2298 81.4327 74.1626 81.3715 74.0838 81.3289C74.005 81.2862 73.9171 81.2635 73.8275 81.2626C73.7379 81.2617 73.6495 81.2826 73.5699 81.3237C73.4903 81.3647 73.4219 81.4245 73.3706 81.498C72.9506 82.0961 72.5474 83.2024 73.1547 84.9789C73.9821 85.2074 75.1287 85.7526 76.5626 86.9781C76.5952 87.006 76.6185 87.0432 76.6293 87.0847C76.6402 87.1262 76.638 87.17 76.6232 87.2103C76.6084 87.2505 76.5816 87.2853 76.5464 87.3099C76.5113 87.3344 76.4694 87.3477 76.4265 87.3477C76.3763 87.3481 76.3276 87.3302 76.2896 87.2973C73.3841 84.8135 71.762 85.2813 71.7461 85.2864C71.6947 85.3024 71.6391 85.2981 71.5908 85.2744C71.5425 85.2506 71.5051 85.2092 71.4865 85.1587C71.4262 85.182 71.3684 85.2116 71.3143 85.2469C70.6877 85.6669 69.9938 87.4889 71.9082 91.1176C74.0225 91.3075 78.2636 91.7056 83.5657 92.3155C83.3801 91.7745 82.5921 90.3297 79.2977 87.1377ZM75.6075 89.089C75.5919 89.1119 75.572 89.1314 75.5489 89.1465C75.5257 89.1615 75.4999 89.1719 75.4727 89.177C75.4455 89.1821 75.4177 89.1817 75.3906 89.176C75.3636 89.1703 75.338 89.1593 75.3152 89.1436C73.1027 87.6317 71.5881 88.601 71.5243 88.6396C71.5014 88.655 71.4757 88.6658 71.4487 88.6712C71.4216 88.6767 71.3938 88.6768 71.3667 88.6715C71.3397 88.6662 71.3139 88.6556 71.2909 88.6403C71.2679 88.625 71.2482 88.6054 71.2328 88.5825C71.2174 88.5596 71.2067 88.5339 71.2012 88.5069C71.1958 88.4799 71.1957 88.452 71.201 88.425C71.2063 88.3979 71.2169 88.3721 71.2322 88.3492C71.2474 88.3262 71.267 88.3064 71.2899 88.291C71.3622 88.2423 73.0934 87.11 75.5529 88.795C75.5761 88.8106 75.5959 88.8305 75.6112 88.8538C75.6265 88.8771 75.637 88.9032 75.6421 88.9306C75.6472 88.9579 75.6467 88.9861 75.6408 89.0133C75.6349 89.0405 75.6235 89.0663 75.6075 89.089Z" fill="#FBC3A8"/>
<path d="M71.746 85.2864C71.762 85.2813 73.384 84.8135 76.2895 87.2973C76.3275 87.3302 76.3762 87.3481 76.4264 87.3477C76.4693 87.3476 76.5112 87.3344 76.5463 87.3098C76.5815 87.2853 76.6083 87.2505 76.6231 87.2103C76.6379 87.17 76.6401 87.1262 76.6292 87.0847C76.6184 87.0432 76.5951 87.006 76.5625 86.9781C75.1287 85.7526 73.9821 85.2074 73.1547 84.979C72.1862 84.7102 71.6545 84.874 71.615 84.8874C71.589 84.896 71.565 84.9097 71.5443 84.9277C71.5236 84.9456 71.5066 84.9674 71.4943 84.9919C71.4821 85.0164 71.4748 85.0431 71.4729 85.0704C71.4709 85.0977 71.4744 85.1252 71.4831 85.1512V85.1587C71.5018 85.21 71.5396 85.252 71.5887 85.2758C71.6378 85.2996 71.6942 85.3034 71.746 85.2864Z" fill="#EB7360"/>
<path d="M75.552 88.7976C73.0925 87.1134 71.3612 88.2457 71.289 88.2936C71.2428 88.3247 71.2108 88.3728 71.2001 88.4275C71.1893 88.4822 71.2008 88.5388 71.2319 88.5851C71.2629 88.6313 71.3111 88.6633 71.3658 88.674C71.4204 88.6847 71.4771 88.6733 71.5233 88.6422C71.5872 88.6002 73.1017 87.6283 75.3143 89.1462C75.337 89.1626 75.3627 89.1744 75.39 89.1807C75.4173 89.1871 75.4456 89.1879 75.4732 89.1831C75.5009 89.1784 75.5273 89.1681 75.5509 89.153C75.5745 89.1379 75.5948 89.1182 75.6107 89.0951C75.6266 89.072 75.6377 89.0459 75.6433 89.0185C75.6489 88.991 75.649 88.9627 75.6436 88.9352C75.6381 88.9077 75.6272 88.8816 75.6114 88.8584C75.5957 88.8352 75.5755 88.8154 75.552 88.8001V88.7976Z" fill="#EB7360"/>
<path d="M106.684 95.7083C106.633 95.6612 106.577 95.6205 106.516 95.5874C106.498 95.5783 106.479 95.5721 106.46 95.5689C98.5638 94.1661 90.2277 93.0783 83.5657 92.3155C78.2636 91.709 74.0224 91.3075 71.9082 91.1177C70.9917 91.0337 70.4743 90.9934 70.4441 90.9908C70.4165 90.9886 70.3887 90.9918 70.3624 91.0002C70.336 91.0087 70.3116 91.0223 70.2905 91.0402C70.2694 91.0581 70.252 91.08 70.2394 91.1046C70.2268 91.1292 70.2191 91.156 70.2168 91.1836C70.2146 91.2112 70.2178 91.239 70.2262 91.2653C70.2347 91.2916 70.2483 91.3161 70.2662 91.3372C70.2841 91.3583 70.3059 91.3756 70.3306 91.3883C70.3552 91.4009 70.382 91.4086 70.4096 91.4108C70.5776 91.4243 85.7068 92.6709 100.975 95.0792C100.985 95.1074 101.001 95.1332 101.022 95.1547C101.028 95.1606 101.642 95.8016 102.016 97.5009C102.364 99.0776 102.569 101.91 101.573 106.447C101.567 106.474 101.566 106.502 101.57 106.529C101.575 106.557 101.585 106.583 101.6 106.606C101.615 106.63 101.634 106.65 101.657 106.666C101.68 106.682 101.705 106.693 101.732 106.699C101.747 106.701 101.763 106.701 101.778 106.699C101.826 106.699 101.873 106.682 101.91 106.651C101.947 106.621 101.973 106.578 101.983 106.531C103.599 99.1708 102.177 96.0872 101.563 95.1665C103.164 95.4185 104.763 95.6898 106.346 95.9704C106.514 96.088 107.611 97.0238 107.522 101.089C107.491 102.425 106.693 106.559 106.537 107.36C94.1194 110.038 77.2438 108.775 77.0742 108.763C77.0466 108.761 77.0189 108.764 76.9926 108.773C76.9663 108.781 76.942 108.795 76.921 108.813C76.8786 108.849 76.8524 108.901 76.8482 108.957C76.844 109.013 76.862 109.068 76.8984 109.11C76.9348 109.152 76.9865 109.179 77.0422 109.183C77.1262 109.19 81.1733 109.493 86.7476 109.493C92.6738 109.493 100.324 109.15 106.761 107.743C106.802 107.734 106.839 107.713 106.867 107.683C106.896 107.654 106.915 107.616 106.923 107.575C106.939 107.491 107.126 106.546 107.335 105.384C107.61 103.859 107.923 101.953 107.942 101.099C108.026 97.2942 107.08 96.0578 106.684 95.7083Z" fill="#90C9ED"/>
<path d="M104.359 106.661C104.426 106.676 104.494 106.684 104.563 106.684C105.031 106.684 105.463 106.329 105.581 105.813C105.646 105.539 105.607 105.25 105.472 105.002C105.408 104.881 105.319 104.776 105.211 104.693C105.103 104.61 104.978 104.552 104.845 104.521C104.712 104.491 104.575 104.49 104.441 104.518C104.308 104.546 104.182 104.603 104.072 104.684C103.847 104.852 103.688 105.095 103.627 105.37C103.565 105.644 103.604 105.932 103.737 106.181C103.8 106.3 103.889 106.405 103.996 106.488C104.103 106.571 104.227 106.63 104.359 106.661ZM104.033 105.461C104.07 105.287 104.171 105.132 104.315 105.026C104.409 104.957 104.523 104.919 104.639 104.918C104.677 104.918 104.715 104.922 104.752 104.931C104.827 104.949 104.897 104.983 104.958 105.031C105.019 105.078 105.069 105.138 105.105 105.206C105.19 105.363 105.213 105.547 105.171 105.72C105.087 106.085 104.766 106.323 104.452 106.251C104.377 106.233 104.307 106.199 104.246 106.152C104.185 106.104 104.135 106.045 104.099 105.976C104.015 105.819 103.991 105.635 104.033 105.461Z" fill="#90C9ED"/>
<path d="M108.841 69.9295L108.22 69.5297C108.202 69.5594 108.176 69.584 108.145 69.601C108.115 69.6181 108.08 69.6271 108.045 69.6271C108.008 69.627 107.972 69.6174 107.941 69.5994L105.757 68.3478C105.71 68.3195 105.676 68.2739 105.662 68.2208C105.648 68.1678 105.656 68.1114 105.683 68.0638C105.71 68.0162 105.755 67.9811 105.808 67.966C105.86 67.951 105.917 67.9572 105.965 67.9832L107.616 68.9274C107.573 68.7643 107.592 68.591 107.671 68.4419L109.027 65.8757C108.916 61.9714 107.935 59.7067 106.857 58.3997C105.779 57.0926 104.54 56.6357 103.743 56.4845C104.359 69.1466 96.9518 81.0301 96.2453 82.1322V82.1414L96.1933 82.2162L96.1353 82.1423C89.3657 73.308 88.1208 62.2922 87.9142 57.4908C87.9083 57.3446 87.9033 57.2044 87.8982 57.0708C85.1884 58.4702 83.7721 61.711 83.0522 65.1348L84.7995 68.441C84.8748 68.5842 84.896 68.7497 84.8591 68.9072L86.7432 67.8026C86.767 67.7869 86.7938 67.7762 86.8219 67.7712C86.85 67.7662 86.8788 67.7669 86.9066 67.7734C86.9344 67.7799 86.9606 67.792 86.9835 67.8089C87.0065 67.8258 87.0258 67.8473 87.0402 67.8719C87.0546 67.8965 87.0638 67.9239 87.0673 67.9522C87.0708 67.9805 87.0685 68.0092 87.0605 68.0366C87.0525 68.064 87.039 68.0895 87.0209 68.1115C87.0027 68.1335 86.9803 68.1516 86.9549 68.1647L84.6743 69.5028C84.6418 69.5215 84.6051 69.5313 84.5676 69.5314C84.5326 69.5314 84.4981 69.5225 84.4674 69.5057C84.4367 69.4888 84.4108 69.4644 84.3921 69.4348L83.6251 69.9287C83.5452 69.98 83.4765 70.0469 83.423 70.1254C83.3695 70.2038 83.3324 70.2923 83.3138 70.3854C83.2952 70.4785 83.2956 70.5744 83.3149 70.6674C83.3341 70.7604 83.372 70.8485 83.426 70.9266C84.6533 72.7032 89.6555 78.0322 96.0261 82.0742C95.9928 82.1128 95.9743 82.1619 95.974 82.2128C95.974 82.2448 95.9833 85.5384 95.7523 92.733C95.7507 92.7886 95.7712 92.8426 95.8092 92.8832C95.8473 92.9238 95.8999 92.9477 95.9555 92.9497H95.9623C96.0168 92.9497 96.0692 92.9285 96.1084 92.8906C96.1476 92.8526 96.1705 92.801 96.1723 92.7464C96.4033 85.5426 96.394 82.2464 96.394 82.2112C96.3937 82.1777 96.3854 82.1449 96.3697 82.1154C102.279 78.3808 107.02 73.5298 108.685 71.402C108.752 70.898 108.808 70.4111 108.853 69.9413L108.841 69.9295Z" fill="#90C9ED"/>
<path d="M107.484 57.8411C108.758 59.3766 109.53 61.595 109.783 64.4368L113 58.3468C112.852 58.2678 112.705 58.1914 112.557 58.1183C110.338 57.0263 108.14 56.6836 105.949 56.4778C106.529 56.8489 107.047 57.309 107.484 57.8411Z" fill="#90C9ED"/>
<path d="M83.4641 60.9978C84.4939 58.6853 85.9211 57.0792 87.7069 56.2258C87.7594 56.2004 87.8167 56.1867 87.8749 56.1854C87.8749 56.1392 87.8749 56.093 87.8749 56.0494H87.8707L87.4347 56.0838L87.3608 56.0897L87.1995 56.104L87.0945 56.1132L86.9442 56.1275L86.8333 56.1384L86.6913 56.1527L86.5746 56.1653L86.4402 56.1804L86.3217 56.1938L86.1941 56.2081L86.063 56.2249L85.953 56.2384L85.7262 56.2686L85.6355 56.2812L85.4943 56.3022L85.3977 56.3165L85.2675 56.3366L85.1735 56.3526L85.0466 56.3736L84.9567 56.3896L84.8299 56.4122L84.7459 56.4282L84.6115 56.4551L84.5443 56.4685C84.4779 56.482 84.4124 56.4954 84.3494 56.5097C84.3318 56.5139 84.3133 56.5164 84.2948 56.5189L84.0369 56.5651H84.0218C83.9378 56.5802 83.8538 56.597 83.7698 56.6147H83.753C83.669 56.6323 83.5775 56.6516 83.4884 56.671H83.4809C83.4036 56.6886 83.3246 56.7062 83.2457 56.7256L83.1029 56.76L83.0071 56.7835L82.8391 56.8272L82.7652 56.8465L82.5812 56.8978L82.5199 56.9146L82.3242 56.9717L82.2713 56.9868L82.0646 57.0506L82.0201 57.0641L81.8017 57.1355L81.7681 57.1464L81.5354 57.2254L81.5144 57.2329L81.2683 57.3169H81.2591C81.1818 57.3455 81.1045 57.374 81.0264 57.4009L80.8794 57.458L80.7903 57.4933L80.6299 57.5588L80.5518 57.5899L80.3838 57.6605L80.3107 57.6924L80.1427 57.7672L80.0713 57.7991L79.9033 57.878L79.8302 57.9116L79.6572 57.9956L79.5841 58.0309L79.4094 58.1149L79.3699 58.1342L82.4544 63.9714C82.707 62.9536 83.0447 61.9589 83.4641 60.9978Z" fill="#90C9ED"/>
<path d="M84.5677 69.532C84.6051 69.532 84.6419 69.5222 84.6744 69.5035L86.955 68.1656C86.9804 68.1525 87.0028 68.1344 87.021 68.1124C87.0391 68.0904 87.0526 68.0649 87.0606 68.0375C87.0686 68.0101 87.0709 67.9814 87.0674 67.9531C87.0639 67.9248 87.0547 67.8975 87.0402 67.8728C87.0258 67.8482 87.0066 67.8268 86.9836 67.8098C86.9606 67.7929 86.9345 67.7808 86.9067 67.7743C86.8789 67.7679 86.8501 67.7671 86.822 67.7721C86.7939 67.7772 86.7671 67.7879 86.7433 67.8036L84.8592 68.908L84.4618 69.1415C84.438 69.1554 84.4171 69.1738 84.4004 69.1958C84.3838 69.2177 84.3715 69.2428 84.3645 69.2695C84.3575 69.2961 84.3558 69.3239 84.3595 69.3512C84.3633 69.3786 84.3723 69.4049 84.3862 69.4287L84.3921 69.4354C84.4108 69.4651 84.4368 69.4894 84.4675 69.5063C84.4982 69.5232 84.5326 69.5321 84.5677 69.532Z" fill="#75B2E1"/>
<path d="M108.149 69.235L107.612 68.9275L105.96 67.9832C105.912 67.9572 105.855 67.951 105.803 67.9661C105.75 67.9811 105.705 68.0162 105.678 68.0638C105.651 68.1114 105.643 68.1678 105.657 68.2209C105.671 68.2739 105.705 68.3195 105.752 68.3478L107.936 69.5996C107.968 69.6176 108.003 69.6272 108.04 69.6273C108.075 69.6272 108.11 69.6183 108.14 69.6012C108.171 69.5842 108.197 69.5596 108.216 69.5298C108.218 69.5272 108.22 69.5244 108.222 69.5214C108.251 69.4737 108.259 69.4168 108.245 69.3631C108.231 69.3094 108.197 69.2633 108.149 69.235Z" fill="#75B2E1"/>
<path d="M82.0738 75.0913C81.9018 75.11 81.7352 75.1622 81.5833 75.2451C81.3479 75.372 81.1558 75.5662 81.0315 75.8029C80.9071 76.0397 80.8562 76.3081 80.8852 76.5739L81.4237 81.4643C81.4628 81.8185 81.6409 82.1427 81.9189 82.3656C82.1969 82.5884 82.5521 82.6918 82.9063 82.6529L83.1826 82.6227C83.48 82.5902 83.768 82.4995 84.0302 82.3558C84.2925 82.212 84.5239 82.0179 84.7111 81.7847C84.8983 81.5514 85.0377 81.2835 85.1214 80.9964C85.205 80.7092 85.2313 80.4084 85.1986 80.1111L84.8626 77.0737C84.7971 76.4854 84.5049 75.9458 84.048 75.5695C83.5912 75.1931 83.0057 75.0095 82.4157 75.0577L82.351 75.0636L82.0738 75.0913Z" fill="white"/>
<path d="M102.909 56.4089C103.188 56.401 103.466 56.4252 103.739 56.4811C104.535 56.6332 105.772 57.0834 106.853 58.3963C107.934 59.7092 108.912 61.9714 109.022 65.8723C109.052 67.23 108.996 68.5882 108.854 69.9388C108.807 70.4081 108.751 70.895 108.686 71.3996C108.392 73.613 107.896 76.1565 107.14 79.0814C107.421 79.1034 107.697 79.1598 107.964 79.2494C109.453 73.4735 110.077 68.6351 109.817 64.8652C109.807 64.719 109.794 64.5762 109.782 64.4326C109.53 61.5908 108.757 59.3724 107.483 57.8369C107.045 57.3039 106.527 56.8433 105.946 56.4719C104.377 55.4773 102.931 55.5613 102.851 55.5664H102.826L102.863 56.3996C102.878 56.4036 102.894 56.4067 102.909 56.4089Z" fill="#1F3966"/>
<path d="M106.866 79.0729C105.948 79.0696 105.064 79.4268 104.406 80.0678C103.747 80.7088 103.366 81.5824 103.345 82.5011C103.324 83.4197 103.664 84.3101 104.292 84.981C104.92 85.6518 105.786 86.0496 106.704 86.0889C107.622 86.1282 108.519 85.8059 109.202 85.1912C109.885 84.5764 110.299 83.7184 110.356 82.8013C110.414 81.8842 110.109 80.9812 109.508 80.2862C108.907 79.5913 108.057 79.1599 107.141 79.0847C107.052 79.078 106.959 79.0729 106.866 79.0729ZM108.042 82.5044C108.042 82.737 107.973 82.9644 107.844 83.1578C107.715 83.3512 107.531 83.5019 107.316 83.5909C107.102 83.6799 106.865 83.7032 106.637 83.6578C106.409 83.6124 106.199 83.5004 106.035 83.336C105.87 83.1715 105.758 82.962 105.713 82.7338C105.668 82.5057 105.691 82.2692 105.78 82.0544C105.869 81.8395 106.02 81.6558 106.213 81.5266C106.406 81.3973 106.634 81.3284 106.866 81.3284C107.021 81.328 107.174 81.3582 107.317 81.4172C107.46 81.4761 107.59 81.5627 107.7 81.6719C107.809 81.7812 107.896 81.9109 107.955 82.0538C108.014 82.1966 108.045 82.3497 108.045 82.5044H108.042Z" fill="white"/>
<path d="M107.699 83.3379C108.16 82.8776 108.16 82.1314 107.699 81.6711C107.239 81.2109 106.493 81.2109 106.033 81.6711C105.572 82.1314 105.572 82.8776 106.033 83.3379C106.493 83.7981 107.239 83.7981 107.699 83.3379Z" fill="#90C9ED"/>
<path d="M102.882 56.8104L102.864 56.408L102.827 55.5748L102.541 49.0732C102.313 49.347 96.7739 55.8696 88.7829 54.0292C88.7703 54.7902 88.7577 55.4782 88.7485 55.9696C88.7392 56.4391 88.7334 56.7256 88.7334 56.7256C88.7334 56.7256 94.5538 61.6572 102.882 56.8104Z" fill="#FBC3A8"/>
<path d="M102.541 49.0732L102.549 49.0639C100.48 50.9119 97.9891 52.0039 95.2734 52.0039C92.9079 52.0039 90.7038 51.2034 88.8054 49.793L88.7684 54.0233L88.7869 54.0275C96.7736 55.8696 102.313 49.347 102.541 49.0732Z" fill="#EB7360"/>
<path d="M86.8339 34.6462C86.8667 38.217 88.5979 41.1041 90.7215 41.1041C92.8669 41.1041 94.6116 38.1641 94.6116 34.5428C94.6116 30.9216 92.8669 27.9808 90.7215 27.9808C88.6215 27.9808 86.907 30.8032 86.8356 34.316C86.8692 34.3755 86.8838 34.4438 86.8776 34.5118C86.8725 34.5591 86.8577 34.6049 86.8339 34.6462ZM90.7215 34.4185C91.2809 34.4185 91.7295 35.277 91.7295 36.3371C91.7295 37.3972 91.2767 38.2556 90.7215 38.2556C90.1662 38.2556 89.7135 37.3963 89.7135 36.3371C89.7135 35.2778 90.1629 34.416 90.7215 34.416V34.4185Z" fill="#FBC3A8"/>
<path d="M99.2047 41.1041C101.349 41.1041 103.094 38.1641 103.094 34.5428C103.094 30.9216 101.349 27.9808 99.2047 27.9808C97.0602 27.9808 95.3147 30.9208 95.3147 34.5428C95.3147 38.1649 97.056 41.1041 99.2047 41.1041ZM99.4836 34.416C100.043 34.416 100.492 35.2745 100.492 36.3346C100.492 37.3946 100.039 38.2531 99.4836 38.2531C98.9283 38.2531 98.4756 37.3938 98.4756 36.3346C98.4756 35.2753 98.925 34.416 99.4836 34.416Z" fill="#FBC3A8"/>
<path d="M102.549 49.0639C104.6 47.2276 106.236 44.6413 107.265 41.6206C107.537 41.666 107.814 41.6887 108.09 41.6887C110.51 41.6887 112.472 39.9986 112.472 37.9137C112.472 36.2153 111.17 34.7789 109.379 34.3018C109.084 34.2242 108.782 34.1739 108.477 34.1514H108.459C108.406 34.1514 108.352 34.1438 108.299 34.1422H108.28C108.217 34.1422 108.154 34.1422 108.09 34.1422C107.752 34.1419 107.414 34.1757 107.082 34.243C106.709 34.3188 106.346 34.4383 106 34.5991L103.759 34.8108C103.719 36.6151 103.268 38.3069 102.476 39.5988C101.615 41.0049 100.452 41.7828 99.2005 41.7828C97.9489 41.7828 96.7872 41.0083 95.9245 39.5988C95.4842 38.8621 95.1582 38.0628 94.9577 37.2283C94.7578 38.0629 94.4321 38.8622 93.9917 39.5988C93.1298 41.0049 91.9673 41.7828 90.7157 41.7828C89.4641 41.7828 88.3032 41.0083 87.4396 39.5988C86.645 38.301 86.1931 36.5992 86.1561 34.7856L82.0603 34.3992C81.9928 34.3925 81.929 34.3656 81.8771 34.322C81.8252 34.2784 81.7878 34.2201 81.7696 34.1548C79.5159 34.3009 77.736 35.928 77.736 37.9137C77.736 39.9986 79.6974 41.6887 82.1166 41.6887C82.4795 41.6888 82.8414 41.65 83.196 41.5728C84.3451 45.0722 86.3166 47.9567 88.8013 49.7938C90.7039 51.2042 92.908 52.0047 95.2693 52.0047C97.9892 52.0047 100.48 50.916 102.549 49.0639ZM109.063 39.7819C109.932 39.4543 110.491 38.721 110.491 37.9137C110.491 37.2216 110.082 36.5815 109.399 36.2018C109.35 36.1748 109.314 36.1295 109.299 36.0759C109.284 36.0223 109.29 35.9649 109.317 35.9162C109.345 35.8676 109.39 35.8316 109.443 35.8163C109.497 35.8011 109.554 35.8077 109.603 35.8348C110.422 36.29 110.912 37.067 110.912 37.9137C110.912 38.8974 110.24 39.7853 109.207 40.175C109.155 40.1946 109.098 40.1927 109.047 40.1697C108.996 40.1467 108.957 40.1045 108.937 40.0524C108.917 40.0002 108.919 39.9425 108.942 39.8917C108.965 39.841 109.007 39.8015 109.06 39.7819H109.063ZM99.7709 45.5199C99.8767 45.5073 102.375 45.1755 103.227 41.9768C103.241 41.9229 103.276 41.8769 103.324 41.8488C103.372 41.8208 103.43 41.813 103.484 41.8273C103.538 41.8415 103.584 41.8766 103.612 41.9248C103.64 41.973 103.647 42.0304 103.633 42.0843C102.709 45.5695 99.8473 45.9332 99.8187 45.9366H99.7944C99.7668 45.9381 99.7392 45.9342 99.7131 45.9251C99.6871 45.9159 99.663 45.9018 99.6424 45.8834C99.6218 45.865 99.6051 45.8427 99.5931 45.8178C99.5811 45.7929 99.5742 45.7659 99.5726 45.7383C99.5711 45.7107 99.575 45.6831 99.5841 45.6571C99.5932 45.631 99.6074 45.607 99.6258 45.5864C99.6442 45.5658 99.6665 45.549 99.6914 45.537C99.7163 45.5251 99.7433 45.5181 99.7709 45.5166V45.5199ZM81.7822 40.6084H81.7621C80.1888 40.4539 79.0027 39.2955 79.0027 37.9146C79.0027 36.8705 79.6747 35.9372 80.7474 35.4786C80.7727 35.4676 80.8 35.4616 80.8277 35.4612C80.8554 35.4607 80.8828 35.4656 80.9086 35.4758C80.9343 35.4859 80.9578 35.501 80.9777 35.5203C80.9976 35.5395 81.0135 35.5624 81.0246 35.5878C81.0356 35.6132 81.0415 35.6405 81.042 35.6681C81.0425 35.6958 81.0375 35.7233 81.0274 35.749C81.0172 35.7748 81.0021 35.7982 80.9829 35.8181C80.9637 35.838 80.9407 35.854 80.9154 35.865C79.9964 36.2564 79.426 37.041 79.426 37.9146C79.426 39.0788 80.4492 40.0574 81.8066 40.191C81.8623 40.1938 81.9146 40.2186 81.952 40.2599C81.9894 40.3013 82.0089 40.3558 82.0061 40.4115C82.0033 40.4672 81.9785 40.5195 81.9372 40.5569C81.8958 40.5943 81.8413 40.6138 81.7856 40.611L81.7822 40.6084ZM94.4158 42.2044L94.6964 38.2363C94.7003 38.1806 94.7262 38.1287 94.7683 38.0921C94.8105 38.0555 94.8654 38.0371 94.9211 38.041C94.9768 38.0449 95.0287 38.0708 95.0653 38.1129C95.1019 38.155 95.1203 38.21 95.1164 38.2657L94.8358 42.2338C94.8311 42.2985 94.8504 42.3625 94.8902 42.4137C94.9299 42.4649 94.9871 42.4996 95.0509 42.511L96.1253 42.7051C96.181 42.71 96.2324 42.7368 96.2683 42.7797C96.3042 42.8225 96.3217 42.8779 96.3168 42.9336C96.3119 42.9893 96.2851 43.0407 96.2422 43.0766C96.1994 43.1126 96.144 43.13 96.0883 43.1251C96.0757 43.1263 96.0631 43.1263 96.0505 43.1251L94.977 42.931C94.8095 42.9017 94.6592 42.8107 94.5553 42.6761C94.4515 42.5415 94.4018 42.373 94.4158 42.2036V42.2044Z" fill="#FBC3A8"/>
<path d="M86.1696 34.1078C86.2334 32.3673 86.6811 30.7411 87.4472 29.4878C88.309 28.0816 89.4716 27.3038 90.7232 27.3038C91.9748 27.3038 93.1365 28.0783 93.9992 29.4878C94.4396 30.2247 94.7653 31.0243 94.9652 31.8591C95.1657 31.0243 95.4917 30.2248 95.932 29.4878C96.7939 28.0816 97.9564 27.3038 99.208 27.3038C100.46 27.3038 101.62 28.0783 102.484 29.4878C103.254 30.7478 103.702 32.3816 103.763 34.1313L106.745 33.8499C106.548 33.5802 106.381 33.2899 106.246 32.9839C106.198 32.8764 106.151 32.7647 106.106 32.6479C106.083 32.5899 106.062 32.532 106.041 32.4732C105.998 32.3556 105.957 32.2346 105.919 32.112C105.899 32.0498 105.88 31.9876 105.862 31.9247C105.825 31.7986 105.79 31.6726 105.757 31.5408C105.723 31.4089 105.692 31.2778 105.663 31.1434C105.558 30.6747 105.475 30.185 105.411 29.6911C105.4 29.6205 105.391 29.55 105.383 29.4794C105.365 29.3374 105.348 29.1963 105.333 29.0544C105.295 28.7007 105.266 28.3488 105.242 28.0035C105.232 27.8649 105.224 27.728 105.217 27.5919C105.206 27.3886 105.197 27.189 105.189 26.993C105.184 26.8628 105.18 26.7351 105.176 26.6091C105.173 26.4831 105.17 26.3571 105.169 26.2395C105.167 26.1219 105.169 26.0009 105.164 25.8859C105.164 25.4852 105.164 25.1223 105.169 24.814C105.169 24.73 105.169 24.646 105.175 24.562C105.189 24.0505 105.207 23.7439 105.207 23.7439C99.0753 26.3126 96.7359 22.9778 96.7359 22.9778C89.1062 26.8561 83.4203 23.885 83.4203 23.885C82.4123 26.7998 82.1376 29.644 82.0763 31.277C82.0662 32.052 82.0662 32.8702 82.0763 33.7315C82.0967 33.7298 82.1172 33.7298 82.1376 33.7315L86.1696 34.1078Z" fill="#FBC3A8"/>
<path d="M106.587 13.8176C106.811 13.9075 108.818 12.9826 109.732 11.6705C110.677 10.3114 110.431 8.65661 109.59 8.21981C108.75 7.78301 107.207 8.51801 106.687 10.0897C106.128 11.789 106.455 13.7655 106.587 13.8176Z" fill="#5C1E14"/>
<path d="M90.7214 38.2556C91.2799 38.2556 91.7327 37.3967 91.7327 36.3371C91.7327 35.2775 91.2799 34.4185 90.7214 34.4185C90.1629 34.4185 89.7101 35.2775 89.7101 36.3371C89.7101 37.3967 90.1629 38.2556 90.7214 38.2556Z" fill="#2B100E"/>
<path d="M99.4836 38.2556C100.042 38.2556 100.495 37.3967 100.495 36.3371C100.495 35.2775 100.042 34.4185 99.4836 34.4185C98.925 34.4185 98.4722 35.2775 98.4722 36.3371C98.4722 37.3967 98.925 38.2556 99.4836 38.2556Z" fill="#2B100E"/>
<path d="M99.7944 45.9383H99.8188C99.8473 45.9383 102.706 45.5713 103.633 42.086C103.648 42.0321 103.64 41.9748 103.612 41.9266C103.584 41.8783 103.538 41.8433 103.484 41.829C103.43 41.8147 103.372 41.8225 103.324 41.8505C103.276 41.8786 103.241 41.9246 103.227 41.9785C102.376 45.1773 99.8767 45.5066 99.7709 45.5217C99.7433 45.5232 99.7163 45.5302 99.6914 45.5422C99.6665 45.5542 99.6442 45.5709 99.6258 45.5915C99.6074 45.6121 99.5932 45.6361 99.5841 45.6622C99.575 45.6883 99.5711 45.7159 99.5726 45.7435C99.5742 45.771 99.5811 45.798 99.5931 45.8229C99.6051 45.8478 99.6219 45.8701 99.6425 45.8885C99.663 45.9069 99.6871 45.9211 99.7131 45.9302C99.7392 45.9393 99.7668 45.9432 99.7944 45.9417V45.9383Z" fill="#FBC3A8"/>
<path d="M92.1554 46.993L92.1722 47.0106C92.1919 47.0314 94.4248 48.8535 97.5922 47.129C97.6412 47.1023 97.6775 47.0572 97.6932 47.0036C97.7089 46.9501 97.7027 46.8926 97.6759 46.8436C97.6492 46.7947 97.6041 46.7584 97.5506 46.7427C97.4971 46.727 97.4395 46.7332 97.3906 46.7599C94.4836 48.3429 92.5254 46.7557 92.4416 46.6893C92.4216 46.6703 92.3979 46.6555 92.3721 46.6457C92.3463 46.6359 92.3188 46.6312 92.2912 46.632C92.2636 46.6328 92.2364 46.6391 92.2112 46.6504C92.186 46.6617 92.1633 46.6778 92.1443 46.6979C92.1254 46.718 92.1106 46.7417 92.1007 46.7675C92.0909 46.7933 92.0863 46.8208 92.0871 46.8484C92.0879 46.876 92.0941 46.9032 92.1054 46.9284C92.1168 46.9536 92.1329 46.9763 92.153 46.9953L92.1554 46.993Z" fill="#EB7360"/>
<path d="M96.0875 43.121C96.1432 43.1259 96.1986 43.1085 96.2415 43.0726C96.2843 43.0366 96.3111 42.9852 96.316 42.9295C96.3209 42.8738 96.3035 42.8184 96.2676 42.7756C96.2317 42.7327 96.1802 42.7059 96.1245 42.701L95.0501 42.5069C94.9863 42.4955 94.9291 42.4608 94.8894 42.4096C94.8496 42.3584 94.8303 42.2944 94.8351 42.2297L95.1156 38.2615C95.1176 38.2339 95.114 38.2063 95.1053 38.18C95.0965 38.1538 95.0827 38.1296 95.0645 38.1087C95.0279 38.0666 94.976 38.0407 94.9203 38.0368C94.8646 38.0329 94.8097 38.0513 94.7675 38.0879C94.7254 38.1246 94.6995 38.1764 94.6956 38.2321L94.415 42.2003C94.4029 42.3684 94.4534 42.535 94.5569 42.6679C94.6604 42.8009 94.8095 42.8908 94.9753 42.9202L96.0489 43.1143C96.0615 43.1178 96.0745 43.1201 96.0875 43.121Z" fill="#EB7360"/>
<path d="M81.8031 40.1901C80.4457 40.0566 79.4226 39.078 79.4226 37.9138C79.4226 37.041 79.9929 36.2556 80.9119 35.8642C80.9631 35.8419 81.0034 35.8002 81.0239 35.7482C81.0444 35.6962 81.0433 35.6382 81.0211 35.587C80.9988 35.5357 80.9571 35.4954 80.9051 35.475C80.8531 35.4545 80.7951 35.4555 80.7439 35.4778C79.6679 35.9364 78.9992 36.8696 78.9992 37.9138C78.9992 39.2947 80.1853 40.4531 81.7586 40.6076H81.7787C81.8344 40.6104 81.8889 40.591 81.9303 40.5535C81.9716 40.5161 81.9964 40.4638 81.9992 40.4081C82.002 40.3524 81.9826 40.2979 81.9451 40.2566C81.9077 40.2152 81.8554 40.1904 81.7997 40.1876L81.8031 40.1901Z" fill="#EB7360"/>
<path d="M82.0679 34.3958L86.1637 34.7822C86.2007 36.5958 86.6526 38.2976 87.4472 39.5954C88.3091 41.0016 89.4716 41.7794 90.7232 41.7794C91.9748 41.7794 93.1365 41.005 93.9992 39.5954C94.4396 38.8589 94.7653 38.0596 94.9652 37.225C95.1657 38.0595 95.4917 38.8587 95.9321 39.5954C96.7939 41.0016 97.9565 41.7794 99.2081 41.7794C100.46 41.7794 101.621 41.005 102.484 39.5954C103.275 38.3035 103.726 36.6118 103.767 34.8074L106.008 34.5958C106.353 34.435 106.716 34.3154 107.09 34.2396C107.056 34.2085 107.023 34.1758 106.991 34.1422L106.944 34.0909L106.901 34.0422C106.88 34.0187 106.859 33.9943 106.839 33.9691L106.817 33.9422C106.793 33.9131 106.77 33.8829 106.746 33.8515L103.764 34.1329C103.703 32.3832 103.255 30.7469 102.485 29.4894C101.623 28.0832 100.461 27.3054 99.2089 27.3054C97.9573 27.3054 96.7956 28.0799 95.9329 29.4894C95.4926 30.2264 95.1666 31.0259 94.9661 31.8607C94.7662 31.0259 94.4405 30.2263 94.0001 29.4894C93.1382 28.0832 91.9757 27.3054 90.7241 27.3054C89.4725 27.3054 88.3116 28.0799 87.4481 29.4894C86.682 30.741 86.2343 32.3672 86.1704 34.1094L82.1325 33.728C82.1121 33.7264 82.0916 33.7264 82.0712 33.728C81.9931 33.7349 81.9198 33.7689 81.8641 33.8242C81.8085 33.8794 81.7738 33.9524 81.7663 34.0304C81.7625 34.0714 81.7665 34.1127 81.7781 34.1522C81.7963 34.2173 81.8337 34.2753 81.8854 34.3187C81.9371 34.3622 82.0007 34.3891 82.0679 34.3958ZM99.2039 27.9808C101.348 27.9808 103.093 30.9208 103.093 34.5428C103.093 38.1649 101.348 41.1041 99.2039 41.1041C97.0593 41.1041 95.3138 38.1641 95.3138 34.5428C95.3138 30.9216 97.056 27.9808 99.2047 27.9808H99.2039ZM86.8357 34.316C86.9071 30.8032 88.6224 27.9808 90.7215 27.9808C92.8669 27.9808 94.6116 30.9208 94.6116 34.5428C94.6116 38.1649 92.8669 41.1041 90.7215 41.1041C88.598 41.1041 86.8668 38.217 86.834 34.6462C86.8578 34.6049 86.8726 34.5591 86.8777 34.5118C86.8839 34.4438 86.8693 34.3755 86.8357 34.316Z" fill="white"/>
<path d="M96.7293 22.9845C96.7293 22.9845 99.072 26.3193 105.204 23.748C105.204 23.748 105.186 24.0546 105.172 24.5662C105.172 24.6443 105.172 24.7283 105.166 24.8182C105.16 25.1265 105.157 25.4902 105.16 25.89C105.16 26.0051 105.16 26.1227 105.165 26.2437C105.17 26.3646 105.165 26.4873 105.173 26.6133C105.181 26.7393 105.181 26.8653 105.186 26.9971C105.193 27.1931 105.202 27.3928 105.213 27.5961C105.221 27.7321 105.229 27.8691 105.238 28.0077C105.263 28.3529 105.292 28.7048 105.33 29.0585C105.345 29.2004 105.362 29.3416 105.38 29.4835C105.388 29.5541 105.397 29.6246 105.407 29.6952C105.474 30.1891 105.557 30.6788 105.659 31.1476C105.689 31.282 105.721 31.4147 105.753 31.5449C105.786 31.6751 105.821 31.8028 105.858 31.9288C105.877 31.9918 105.896 32.0539 105.916 32.1161C105.954 32.2387 105.994 32.3597 106.037 32.4773C106.058 32.5361 106.08 32.594 106.103 32.652C106.147 32.7662 106.194 32.878 106.243 32.988C106.377 33.294 106.545 33.5844 106.742 33.854C106.766 33.8854 106.789 33.9156 106.813 33.9448L106.834 33.9716C106.855 33.9968 106.876 34.0212 106.897 34.0447L106.939 34.0934L106.987 34.1447C107.02 34.1783 107.053 34.211 107.086 34.2421C107.418 34.1748 107.756 34.1411 108.094 34.1413C108.158 34.1413 108.221 34.1413 108.284 34.1413H108.304C108.357 34.1413 108.41 34.1464 108.463 34.1506H108.482C108.786 34.1733 109.088 34.2239 109.383 34.3018C109.958 33.6239 110.762 32.0724 111.668 28.5738C115.055 15.4925 105.298 15.4925 105.298 15.4925C105.298 15.4925 98.8671 3.22014 86.7492 12.7894C86.7492 12.7894 77.3244 8.54321 75.5427 18.9827C74.0181 27.9178 80.2383 31.7507 82.0637 32.6654C82.0637 32.6654 82.041 32.1413 82.0763 31.2694C82.1418 29.6406 82.4123 26.7964 83.4203 23.8774C83.4203 23.8849 89.1062 26.856 96.7293 22.9845Z" fill="#5C1E14"/>
<path d="M109.137 40.1885C109.162 40.1886 109.187 40.184 109.211 40.1751C110.246 39.7853 110.915 38.8974 110.915 37.9138C110.915 37.0671 110.425 36.29 109.606 35.8348C109.582 35.8214 109.556 35.8128 109.528 35.8097C109.501 35.8065 109.473 35.8088 109.447 35.8163C109.42 35.8239 109.395 35.8366 109.374 35.8538C109.352 35.8709 109.334 35.8921 109.321 35.9162C109.307 35.9403 109.299 35.9668 109.296 35.9942C109.293 36.0216 109.295 36.0494 109.302 36.0759C109.31 36.1024 109.323 36.1272 109.34 36.1488C109.357 36.1704 109.378 36.1884 109.402 36.2018C110.086 36.5815 110.494 37.2216 110.494 37.9138C110.494 38.721 109.931 39.4544 109.066 39.782C109.02 39.7993 108.982 39.8322 108.958 39.875C108.933 39.9178 108.925 39.9677 108.934 40.0161C108.942 40.0645 108.968 40.1083 109.006 40.1398C109.043 40.1713 109.091 40.1885 109.14 40.1885H109.137Z" fill="#EB7360"/>
<path d="M79.8671 123.485H46.7476C46.6919 123.485 46.6385 123.507 46.5991 123.546C46.5597 123.585 46.5376 123.639 46.5376 123.695C46.5376 123.75 46.5597 123.804 46.5991 123.843C46.6385 123.882 46.6919 123.905 46.7476 123.905H79.8671C79.9227 123.905 79.9762 123.882 80.0155 123.843C80.0549 123.804 80.0771 123.75 80.0771 123.695C80.0771 123.639 80.0549 123.585 80.0155 123.546C79.9762 123.507 79.9227 123.485 79.8671 123.485Z" fill="#1F3966"/>
<path d="M86.2476 123.695C86.2475 123.722 86.2529 123.75 86.2634 123.775C86.2739 123.801 86.2894 123.824 86.3089 123.843C86.3284 123.863 86.3516 123.878 86.3771 123.889C86.4027 123.899 86.43 123.905 86.4576 123.905H142.623C142.678 123.905 142.732 123.883 142.771 123.843C142.811 123.804 142.833 123.75 142.833 123.695C142.833 123.639 142.811 123.585 142.771 123.546C142.732 123.507 142.678 123.485 142.623 123.485H86.4576C86.43 123.484 86.4027 123.49 86.3771 123.5C86.3516 123.511 86.3284 123.526 86.3089 123.546C86.2894 123.565 86.2739 123.589 86.2634 123.614C86.2529 123.64 86.2475 123.667 86.2476 123.695Z" fill="#1F3966"/>
<path d="M87.732 56.2148L87.7068 56.2258C85.921 57.0792 84.4938 58.6853 83.464 60.9978C83.0418 61.9656 82.7024 62.9674 82.4492 63.9924C82.1446 65.2129 81.9202 66.452 81.7772 67.7018C81.411 70.8191 81.4941 73.7498 81.5798 75.245C81.7317 75.1622 81.8984 75.11 82.0704 75.0913L82.3468 75.0611L82.4114 75.0552C82.3106 73.1165 82.235 69.0072 83.049 65.1356C83.7689 61.7101 85.1851 58.4694 87.895 57.0716L87.905 57.0666L88.7299 56.7306L88.7459 55.9066C88.7459 55.9066 88.1234 56.0158 87.732 56.2148Z" fill="#1F3966"/>
<path d="M88.2864 56.0116L87.921 56.046C87.921 56.046 87.921 56.0754 87.921 56.13C88.0407 56.0845 88.1627 56.045 88.2864 56.0116Z" fill="#75B2E1"/>
<path d="M103.739 56.4811C103.466 56.4252 103.188 56.401 102.909 56.4089C102.894 56.4097 102.879 56.4097 102.864 56.4089L102.881 56.8112C94.5536 61.658 88.7333 56.7272 88.7333 56.7272L87.9084 57.0632C87.9084 57.1943 87.9084 57.3354 87.9143 57.4891C88.1209 62.2905 89.3658 73.3071 96.132 82.1396L96.1899 82.2135L96.242 82.1388V82.1295C96.9476 81.0266 104.355 69.1432 103.739 56.4811Z" fill="#75B2E1"/>
<path d="M88.7485 55.9687L88.7334 56.7247C88.7334 56.7247 88.7393 56.4358 88.7485 55.9687Z" fill="#75B2E1"/>
<path opacity="0.1" fill-rule="evenodd" clip-rule="evenodd" d="M52.4521 101.909L51.5785 105.753C51.555 105.856 51.5591 105.963 51.5904 106.064C51.6216 106.165 51.6789 106.256 51.7564 106.328C51.834 106.4 51.9291 106.45 52.0322 106.474C52.1353 106.497 52.2427 106.493 52.3437 106.462L56.1103 105.297C56.2112 105.266 56.3022 105.208 56.374 105.131C56.4458 105.053 56.496 104.958 56.5194 104.855C56.5428 104.752 56.5387 104.644 56.5074 104.543C56.4761 104.442 56.4188 104.351 56.3413 104.28L53.4491 101.6C53.3714 101.528 53.2762 101.478 53.1731 101.455C53.07 101.432 52.9625 101.436 52.8615 101.467C52.7605 101.498 52.6695 101.556 52.5976 101.633C52.5258 101.711 52.4756 101.806 52.4521 101.909Z" fill="white"/>
<path d="M158.396 70.676C158.66 70.76 158.894 70.898 159.098 71.09C159.314 71.294 159.53 71.564 159.746 71.9L160.988 73.916L159.422 74.69L157.82 72.08C157.436 71.456 156.806 71.144 155.93 71.144C154.73 71.144 153.686 70.88 152.798 70.352C151.922 69.824 151.244 69.074 150.764 68.102C150.284 67.13 150.044 65.984 150.044 64.664C150.044 63.332 150.278 62.18 150.746 61.208C151.226 60.224 151.91 59.474 152.798 58.958C153.686 58.43 154.73 58.166 155.93 58.166C157.142 58.166 158.192 58.43 159.08 58.958C159.968 59.474 160.646 60.224 161.114 61.208C161.594 62.18 161.834 63.326 161.834 64.646C161.834 66.122 161.534 67.388 160.934 68.444C160.334 69.488 159.488 70.232 158.396 70.676ZM151.934 64.646C151.934 66.242 152.282 67.472 152.978 68.336C153.686 69.2 154.67 69.632 155.93 69.632C157.202 69.632 158.192 69.2 158.9 68.336C159.608 67.472 159.962 66.242 159.962 64.646C159.962 63.05 159.608 61.826 158.9 60.974C158.204 60.11 157.214 59.678 155.93 59.678C154.67 59.678 153.686 60.11 152.978 60.974C152.282 61.826 151.934 63.05 151.934 64.646ZM171.851 62.216V71H170.087V69.578C169.811 70.082 169.427 70.466 168.935 70.73C168.455 70.994 167.915 71.126 167.315 71.126C165.179 71.126 164.111 69.95 164.111 67.598V62.216H165.929V67.58C165.929 68.288 166.073 68.81 166.361 69.146C166.649 69.482 167.093 69.65 167.693 69.65C168.401 69.65 168.965 69.422 169.385 68.966C169.817 68.51 170.033 67.904 170.033 67.148V62.216H171.851ZM178.067 62C179.243 62 180.113 62.294 180.677 62.882C181.253 63.47 181.541 64.364 181.541 65.564V71H179.795V69.542C179.567 70.058 179.225 70.454 178.769 70.73C178.325 70.994 177.803 71.126 177.203 71.126C176.627 71.126 176.099 71.012 175.619 70.784C175.139 70.544 174.761 70.214 174.485 69.794C174.221 69.374 174.089 68.906 174.089 68.39C174.089 67.754 174.251 67.256 174.575 66.896C174.911 66.524 175.457 66.26 176.213 66.104C176.981 65.948 178.031 65.87 179.363 65.87H179.777V65.348C179.777 64.676 179.633 64.19 179.345 63.89C179.069 63.59 178.613 63.44 177.977 63.44C176.981 63.44 175.985 63.746 174.989 64.358L174.449 63.08C174.917 62.756 175.481 62.498 176.141 62.306C176.813 62.102 177.455 62 178.067 62ZM177.527 69.776C178.187 69.776 178.727 69.554 179.147 69.11C179.567 68.654 179.777 68.072 179.777 67.364V66.896H179.453C178.517 66.896 177.797 66.938 177.293 67.022C176.789 67.106 176.429 67.25 176.213 67.454C175.997 67.646 175.889 67.928 175.889 68.3C175.889 68.72 176.039 69.074 176.339 69.362C176.651 69.638 177.047 69.776 177.527 69.776ZM178.643 61.064H177.581V60.578C177.581 60.326 177.641 60.116 177.761 59.948C177.881 59.768 178.049 59.582 178.265 59.39C178.421 59.246 178.529 59.132 178.589 59.048C178.661 58.964 178.697 58.868 178.697 58.76C178.697 58.628 178.637 58.526 178.517 58.454C178.397 58.37 178.229 58.328 178.013 58.328C177.701 58.328 177.365 58.394 177.005 58.526L176.699 57.662C177.179 57.458 177.671 57.356 178.175 57.356C178.763 57.356 179.219 57.476 179.543 57.716C179.879 57.956 180.047 58.256 180.047 58.616C180.047 58.892 179.981 59.12 179.849 59.3C179.717 59.468 179.525 59.648 179.273 59.84C179.057 60.008 178.895 60.158 178.787 60.29C178.691 60.41 178.643 60.56 178.643 60.74V61.064ZM188.762 62C190.862 62 191.912 63.182 191.912 65.546V71H190.094V65.636C190.094 64.892 189.944 64.346 189.644 63.998C189.356 63.65 188.9 63.476 188.276 63.476C187.544 63.476 186.956 63.704 186.512 64.16C186.068 64.616 185.846 65.228 185.846 65.996V71H184.028V62.216H185.81V63.62C186.098 63.092 186.5 62.69 187.016 62.414C187.532 62.138 188.114 62 188.762 62ZM199.145 71V58.31H200.963V71H199.145ZM209.732 62.234H211.55L206.312 74.24H204.476L206.006 70.784L202.316 62.234H204.224L206.96 68.948L209.732 62.234ZM207.518 61.064H206.33L208.112 57.41H210.056L207.518 61.064ZM217.602 71V58.31H219.42V71H217.602ZM221.961 71V62.216H223.779V71H221.961ZM221.835 58.292H223.923V60.182H221.835V58.292ZM221.907 72.548H223.815V74.366H221.907V72.548ZM230.173 71.126C229.285 71.126 228.511 70.94 227.851 70.568C227.203 70.196 226.699 69.674 226.339 69.002C225.991 68.318 225.817 67.52 225.817 66.608C225.817 65.696 225.997 64.892 226.357 64.196C226.729 63.5 227.245 62.96 227.905 62.576C228.577 62.192 229.357 62 230.245 62C230.857 62 231.445 62.102 232.009 62.306C232.585 62.51 233.053 62.786 233.413 63.134L232.855 64.43C232.063 63.782 231.241 63.458 230.389 63.458C229.549 63.458 228.889 63.734 228.409 64.286C227.941 64.826 227.707 65.594 227.707 66.59C227.707 67.574 227.941 68.336 228.409 68.876C228.877 69.404 229.537 69.668 230.389 69.668C231.241 69.668 232.063 69.344 232.855 68.696L233.413 70.01C233.029 70.358 232.549 70.634 231.973 70.838C231.397 71.03 230.797 71.126 230.173 71.126ZM239.756 62C241.856 62 242.906 63.182 242.906 65.546V71H241.088V65.636C241.088 64.892 240.938 64.346 240.638 63.998C240.35 63.65 239.894 63.476 239.27 63.476C238.538 63.476 237.95 63.704 237.506 64.16C237.062 64.616 236.84 65.228 236.84 65.996V71H235.022V58.31H236.84V63.548C237.14 63.044 237.542 62.66 238.046 62.396C238.55 62.132 239.12 62 239.756 62ZM254.873 62C256.973 62 258.023 63.182 258.023 65.546V71H256.205V65.636C256.205 64.892 256.055 64.346 255.755 63.998C255.467 63.65 255.011 63.476 254.387 63.476C253.655 63.476 253.067 63.704 252.623 64.16C252.179 64.616 251.957 65.228 251.957 65.996V71H250.139V58.31H251.957V63.548C252.257 63.044 252.659 62.66 253.163 62.396C253.667 62.132 254.237 62 254.873 62ZM268.034 66.914H261.824C261.956 68.774 262.88 69.704 264.596 69.704C265.604 69.704 266.516 69.374 267.332 68.714L267.89 69.992C267.482 70.34 266.978 70.616 266.378 70.82C265.778 71.024 265.166 71.126 264.542 71.126C263.138 71.126 262.028 70.724 261.212 69.92C260.408 69.116 260.006 68.006 260.006 66.59C260.006 65.69 260.18 64.892 260.528 64.196C260.888 63.5 261.386 62.96 262.022 62.576C262.67 62.192 263.402 62 264.218 62C265.406 62 266.336 62.384 267.008 63.152C267.692 63.92 268.034 64.982 268.034 66.338V66.914ZM264.254 63.332C263.558 63.332 263 63.554 262.58 63.998C262.172 64.43 261.926 65.054 261.842 65.87H266.468C266.432 65.054 266.222 64.43 265.838 63.998C265.466 63.554 264.938 63.332 264.254 63.332ZM263.552 72.548H265.46V74.366H263.552V72.548ZM274.771 62C276.871 62 277.921 63.182 277.921 65.546V71H276.103V65.636C276.103 64.892 275.953 64.346 275.653 63.998C275.365 63.65 274.909 63.476 274.285 63.476C273.553 63.476 272.965 63.704 272.521 64.16C272.077 64.616 271.855 65.228 271.855 65.996V71H270.037V62.216H271.819V63.62C272.107 63.092 272.509 62.69 273.025 62.414C273.541 62.138 274.123 62 274.771 62ZM158.54 96H156.236L152.078 91.86V96H150.26V83.31H152.078V91.176L155.93 87.234H158.18L154.022 91.446L158.54 96ZM164.293 87C166.393 87 167.443 88.182 167.443 90.546V96H165.625V90.636C165.625 89.892 165.475 89.346 165.175 88.998C164.887 88.65 164.431 88.476 163.807 88.476C163.075 88.476 162.487 88.704 162.043 89.16C161.599 89.616 161.377 90.228 161.377 90.996V96H159.559V83.31H161.377V88.548C161.677 88.044 162.079 87.66 162.583 87.396C163.087 87.132 163.657 87 164.293 87ZM173.602 87C174.778 87 175.648 87.294 176.212 87.882C176.788 88.47 177.076 89.364 177.076 90.564V96H175.33V94.542C175.102 95.058 174.76 95.454 174.304 95.73C173.86 95.994 173.338 96.126 172.738 96.126C172.162 96.126 171.634 96.012 171.154 95.784C170.674 95.544 170.296 95.214 170.02 94.794C169.756 94.374 169.624 93.906 169.624 93.39C169.624 92.754 169.786 92.256 170.11 91.896C170.446 91.524 170.992 91.26 171.748 91.104C172.516 90.948 173.566 90.87 174.898 90.87H175.312V90.348C175.312 89.676 175.168 89.19 174.88 88.89C174.604 88.59 174.148 88.44 173.512 88.44C172.516 88.44 171.52 88.746 170.524 89.358L169.984 88.08C170.452 87.756 171.016 87.498 171.676 87.306C172.348 87.102 172.99 87 173.602 87ZM173.062 94.776C173.722 94.776 174.262 94.554 174.682 94.11C175.102 93.654 175.312 93.072 175.312 92.364V91.896H174.988C174.052 91.896 173.332 91.938 172.828 92.022C172.324 92.106 171.964 92.25 171.748 92.454C171.532 92.646 171.424 92.928 171.424 93.3C171.424 93.72 171.574 94.074 171.874 94.362C172.186 94.638 172.582 94.776 173.062 94.776ZM174.214 86.064H173.026L174.808 82.41H176.752L174.214 86.064ZM189.643 87C191.611 87 192.595 88.182 192.595 90.546V96H190.777V90.618C190.777 89.874 190.645 89.334 190.381 88.998C190.129 88.65 189.715 88.476 189.139 88.476C188.479 88.476 187.957 88.704 187.573 89.16C187.189 89.616 186.997 90.24 186.997 91.032V96H185.179V90.618C185.179 89.874 185.047 89.334 184.783 88.998C184.519 88.65 184.105 88.476 183.541 88.476C182.869 88.476 182.341 88.704 181.957 89.16C181.573 89.616 181.381 90.24 181.381 91.032V96H179.563V87.216H181.345V88.548C181.621 88.056 181.993 87.678 182.461 87.414C182.929 87.138 183.463 87 184.063 87C185.419 87 186.301 87.564 186.709 88.692C186.985 88.164 187.381 87.75 187.897 87.45C188.413 87.15 188.995 87 189.643 87ZM203.988 94.722C204.264 94.722 204.534 94.704 204.798 94.668L204.708 96.054C204.408 96.102 204.096 96.126 203.772 96.126C202.632 96.126 201.78 95.85 201.216 95.298C200.664 94.734 200.388 93.924 200.388 92.868V88.62H198.678V87.216H200.388V84.57H202.206V87.216H204.618V88.62H202.206V92.796C202.206 94.08 202.8 94.722 203.988 94.722ZM209.848 87C211.024 87 211.894 87.294 212.458 87.882C213.034 88.47 213.322 89.364 213.322 90.564V96H211.576V94.542C211.348 95.058 211.006 95.454 210.55 95.73C210.106 95.994 209.584 96.126 208.984 96.126C208.408 96.126 207.88 96.012 207.4 95.784C206.92 95.544 206.542 95.214 206.266 94.794C206.002 94.374 205.87 93.906 205.87 93.39C205.87 92.754 206.032 92.256 206.356 91.896C206.692 91.524 207.238 91.26 207.994 91.104C208.762 90.948 209.812 90.87 211.144 90.87H211.558V90.348C211.558 89.676 211.414 89.19 211.126 88.89C210.85 88.59 210.394 88.44 209.758 88.44C208.762 88.44 207.766 88.746 206.77 89.358L206.23 88.08C206.698 87.756 207.262 87.498 207.922 87.306C208.594 87.102 209.236 87 209.848 87ZM209.308 94.776C209.968 94.776 210.508 94.554 210.928 94.11C211.348 93.654 211.558 93.072 211.558 92.364V91.896H211.234C210.298 91.896 209.578 91.938 209.074 92.022C208.57 92.106 208.21 92.25 207.994 92.454C207.778 92.646 207.67 92.928 207.67 93.3C207.67 93.72 207.82 94.074 208.12 94.362C208.432 94.638 208.828 94.776 209.308 94.776ZM208.858 97.548H210.766V99.366H208.858V97.548ZM215.809 96V87.216H217.627V96H215.809ZM215.683 83.292H217.771V85.182H215.683V83.292ZM228.766 96.126C227.878 96.126 227.104 95.94 226.444 95.568C225.796 95.196 225.292 94.674 224.932 94.002C224.584 93.318 224.41 92.52 224.41 91.608C224.41 90.696 224.59 89.892 224.95 89.196C225.322 88.5 225.838 87.96 226.498 87.576C227.17 87.192 227.95 87 228.838 87C229.45 87 230.038 87.102 230.602 87.306C231.178 87.51 231.646 87.786 232.006 88.134L231.448 89.43C230.656 88.782 229.834 88.458 228.982 88.458C228.142 88.458 227.482 88.734 227.002 89.286C226.534 89.826 226.3 90.594 226.3 91.59C226.3 92.574 226.534 93.336 227.002 93.876C227.47 94.404 228.13 94.668 228.982 94.668C229.834 94.668 230.656 94.344 231.448 93.696L232.006 95.01C231.622 95.358 231.142 95.634 230.566 95.838C229.99 96.03 229.39 96.126 228.766 96.126ZM241.913 85.452C241.913 86.076 241.763 86.61 241.463 87.054C241.175 87.486 240.767 87.798 240.239 87.99C240.731 88.374 241.103 88.878 241.355 89.502C241.619 90.114 241.751 90.804 241.751 91.572C241.751 92.484 241.571 93.288 241.211 93.984C240.863 94.668 240.359 95.196 239.699 95.568C239.051 95.94 238.295 96.126 237.431 96.126C236.567 96.126 235.805 95.94 235.145 95.568C234.497 95.196 233.993 94.668 233.633 93.984C233.285 93.288 233.111 92.484 233.111 91.572C233.111 90.648 233.285 89.844 233.633 89.16C233.993 88.464 234.497 87.93 235.145 87.558C235.805 87.186 236.561 87 237.413 87C237.641 87 237.935 87.024 238.295 87.072C238.499 87.108 238.655 87.126 238.763 87.126C239.279 87.126 239.669 86.982 239.933 86.694C240.197 86.406 240.329 85.908 240.329 85.2V84.912H241.913V85.452ZM237.431 94.686C238.235 94.686 238.847 94.422 239.267 93.894C239.699 93.366 239.915 92.592 239.915 91.572C239.915 90.564 239.699 89.796 239.267 89.268C238.835 88.728 238.223 88.458 237.431 88.458C236.639 88.458 236.027 88.728 235.595 89.268C235.163 89.796 234.947 90.564 234.947 91.572C234.947 92.592 235.157 93.366 235.577 93.894C236.009 94.422 236.627 94.686 237.431 94.686ZM251.618 96.126C250.094 96.126 248.876 95.754 247.964 95.01L248.522 93.696C249.422 94.392 250.472 94.74 251.672 94.74C252.26 94.74 252.71 94.644 253.022 94.452C253.334 94.248 253.49 93.966 253.49 93.606C253.49 93.294 253.382 93.048 253.166 92.868C252.962 92.688 252.602 92.538 252.086 92.418L250.628 92.094C249.848 91.914 249.26 91.62 248.864 91.212C248.468 90.804 248.27 90.288 248.27 89.664C248.27 88.872 248.588 88.23 249.224 87.738C249.872 87.246 250.718 87 251.762 87C252.386 87 252.98 87.102 253.544 87.306C254.108 87.498 254.594 87.774 255.002 88.134L254.444 89.412C253.58 88.728 252.686 88.386 251.762 88.386C251.21 88.386 250.772 88.494 250.448 88.71C250.136 88.926 249.98 89.22 249.98 89.592C249.98 89.892 250.076 90.138 250.268 90.33C250.472 90.51 250.79 90.648 251.222 90.744L252.716 91.086C253.568 91.278 254.192 91.578 254.588 91.986C254.984 92.382 255.182 92.904 255.182 93.552C255.182 94.344 254.858 94.974 254.21 95.442C253.574 95.898 252.71 96.126 251.618 96.126ZM265.503 85.452C265.503 86.076 265.353 86.61 265.053 87.054C264.765 87.486 264.357 87.798 263.829 87.99C264.321 88.374 264.693 88.878 264.945 89.502C265.209 90.114 265.341 90.804 265.341 91.572C265.341 92.484 265.161 93.288 264.801 93.984C264.453 94.668 263.949 95.196 263.289 95.568C262.641 95.94 261.885 96.126 261.021 96.126C260.157 96.126 259.395 95.94 258.735 95.568C258.087 95.196 257.583 94.668 257.223 93.984C256.875 93.288 256.701 92.484 256.701 91.572C256.701 90.648 256.875 89.844 257.223 89.16C257.583 88.464 258.087 87.93 258.735 87.558C259.395 87.186 260.151 87 261.003 87C261.231 87 261.525 87.024 261.885 87.072C262.089 87.108 262.245 87.126 262.353 87.126C262.869 87.126 263.259 86.982 263.523 86.694C263.787 86.406 263.919 85.908 263.919 85.2V84.912H265.503V85.452ZM261.021 94.686C261.825 94.686 262.437 94.422 262.857 93.894C263.289 93.366 263.505 92.592 263.505 91.572C263.505 90.564 263.289 89.796 262.857 89.268C262.425 88.728 261.813 88.458 261.021 88.458C260.229 88.458 259.617 88.728 259.185 89.268C258.753 89.796 258.537 90.564 258.537 91.572C258.537 92.592 258.747 93.366 259.167 93.894C259.599 94.422 260.217 94.686 261.021 94.686ZM261.579 86.064H260.517V85.578C260.517 85.326 260.577 85.116 260.697 84.948C260.817 84.768 260.985 84.582 261.201 84.39C261.357 84.246 261.465 84.132 261.525 84.048C261.597 83.964 261.633 83.868 261.633 83.76C261.633 83.628 261.573 83.526 261.453 83.454C261.333 83.37 261.165 83.328 260.949 83.328C260.637 83.328 260.301 83.394 259.941 83.526L259.635 82.662C260.115 82.458 260.607 82.356 261.111 82.356C261.699 82.356 262.155 82.476 262.479 82.716C262.815 82.956 262.983 83.256 262.983 83.616C262.983 83.892 262.917 84.12 262.785 84.3C262.653 84.468 262.461 84.648 262.209 84.84C261.993 85.008 261.831 85.158 261.723 85.29C261.627 85.41 261.579 85.56 261.579 85.74V86.064ZM278.34 87.234H280.158L274.92 99.24H273.084L274.614 95.784L270.924 87.234H272.832L275.568 93.948L278.34 87.234ZM290.367 94.722C290.643 94.722 290.913 94.704 291.177 94.668L291.087 96.054C290.787 96.102 290.475 96.126 290.151 96.126C289.011 96.126 288.159 95.85 287.595 95.298C287.043 94.734 286.767 93.924 286.767 92.868V88.62H285.057V87.216H286.767V84.57H288.585V87.216H290.997V88.62H288.585V92.796C288.585 94.08 289.179 94.722 290.367 94.722ZM300.079 91.914H293.869C294.001 93.774 294.925 94.704 296.641 94.704C297.649 94.704 298.561 94.374 299.377 93.714L299.935 94.992C299.527 95.34 299.023 95.616 298.423 95.82C297.823 96.024 297.211 96.126 296.587 96.126C295.183 96.126 294.073 95.724 293.257 94.92C292.453 94.116 292.051 93.006 292.051 91.59C292.051 90.69 292.225 89.892 292.573 89.196C292.933 88.5 293.431 87.96 294.067 87.576C294.715 87.192 295.447 87 296.263 87C297.451 87 298.381 87.384 299.053 88.152C299.737 88.92 300.079 89.982 300.079 91.338V91.914ZM296.299 88.332C295.603 88.332 295.045 88.554 294.625 88.998C294.217 89.43 293.971 90.054 293.887 90.87H298.513C298.477 90.054 298.267 89.43 297.883 88.998C297.511 88.554 296.983 88.332 296.299 88.332ZM298.855 84.192H297.829L299.377 81.636H301.105L298.855 84.192ZM294.985 86.064H293.491L295.687 83.454H296.839L299.035 86.064H297.541L296.263 84.426L294.985 86.064Z" fill="white"/>
</svg>
