<svg width="375" height="172" viewBox="0 0 375 172" fill="none" xmlns="http://www.w3.org/2000/svg">
    <g style="mix-blend-mode:overlay">
        <path d="M227.151 101.531L247.068 113.019V135.996L227.151 147.484L207.233 135.996V113.019L227.151 101.531ZM246.361 113.34L227.151 102.237L207.94 113.34V135.482L227.151 146.585L246.361 135.482V113.34Z" fill="#666666"/>
        <path d="M188.023 101.531L207.94 113.019V135.996L188.023 147.484L168.105 135.996V113.019L188.023 101.531ZM207.233 113.34L188.023 102.301L168.812 113.404V135.546L188.023 146.649L207.233 135.546V113.34Z" fill="#666666"/>
        <path d="M148.895 101.531L168.812 113.019V135.996L148.895 147.484L128.978 135.996V113.019L148.895 101.531ZM168.105 113.34L148.895 102.237L129.684 113.34V135.482L148.895 146.585L168.105 135.482V113.34Z" fill="#666666"/>
        <path d="M324.938 67.6448L344.855 79.1328V102.109L324.938 113.597L305.021 102.109V79.1328L324.938 67.6448ZM344.149 79.5179L324.938 68.4149L305.727 79.5179V101.724L324.938 112.827L344.149 101.724V79.5179Z" fill="#666666"/>
        <path d="M285.81 67.6448L305.727 79.1328V102.109L285.81 113.597L265.893 102.109V79.1328L285.81 67.6448ZM305.021 79.5179L285.81 68.4149L266.6 79.5179V101.724L285.81 112.827L305.021 101.724V79.5179Z" fill="#666666"/>
        <path d="M246.682 67.6448L266.6 79.1328V102.109L246.682 113.597L226.765 102.109V79.1328L246.682 67.6448ZM265.893 79.5179L246.682 68.4149L227.472 79.5179V101.724L246.682 112.827L265.893 101.724V79.5179Z" fill="#666666"/>
        <path d="M207.555 67.6448L227.472 79.1328V102.109L207.555 113.597L187.637 102.109V79.1328L207.555 67.6448ZM226.829 79.5179L207.619 68.4149L188.408 79.5179V101.724L207.619 112.827L226.829 101.724V79.5179Z" fill="#666666"/>
        <path d="M168.491 67.6448L188.408 79.1328V102.109L168.491 113.597L148.574 102.109V79.1328L168.491 67.6448ZM187.702 79.5179L168.491 68.4149L149.28 79.5179V101.724L168.491 112.827L187.702 101.724V79.5179Z" fill="#666666"/>
        <path d="M305.342 33.8224L325.259 45.3104V68.2866L305.342 79.7746L285.425 68.2866V45.3104L305.342 33.8224ZM324.553 45.6955L305.342 34.5925L286.131 45.6955V67.8373L305.342 78.9403L324.553 67.8373V45.6955Z" fill="#666666"/>
        <path d="M266.278 33.8224L286.196 45.3104V68.2866L266.278 79.7746L246.361 68.2866V45.3104L266.278 33.8224ZM285.489 45.6955L266.278 34.5925L247.068 45.6955V67.8373L266.278 78.9403L285.489 67.8373V45.6955Z" fill="#666666"/>
        <path d="M188.023 33.8224L207.94 45.3104V68.2866L188.023 79.7746L168.105 68.2866V45.3104L188.023 33.8224ZM207.233 45.6955L188.023 34.5925L168.812 45.6955V67.8373L188.023 78.9403L207.233 67.8373V45.6955Z" fill="#666666"/>
        <path d="M285.81 0L305.727 11.4881V34.4642L285.81 45.9522L265.893 34.4642V11.4881L285.81 0ZM305.021 11.8731L285.81 0.770149L266.6 11.8731V34.0149L285.81 45.1179L305.021 34.0149V11.8731Z" fill="#666666"/>
    </g>
    <g style="mix-blend-mode:color-burn">
<!--        <path d="M323.075 155.57L296.411 170.973L269.748 155.57V124.764L281.313 118.09L296.411 109.361L323.075 124.764V155.57ZM255.87 116.228L242.506 108.527V77.7209L255.87 70.0194L269.234 62.3179L295.897 77.7209V108.527L282.534 116.228L269.17 123.93L255.87 116.228ZM324.039 155.057V124.187L296.861 108.527V77.2075L269.684 61.5478V30.2284L242.057 14.3119L214.429 30.2284V61.5478L187.252 77.2075V108.527L160.074 124.187V155.185H-24V156.084H160.203L187.766 172L214.943 156.34L242.121 172L269.298 156.34L296.476 172L324.103 156.084V156.019H364.516V155.121H324.039V155.057ZM215.393 30.806L242.057 15.403L268.72 30.806V61.6119L260.56 66.3612L242.057 77.0149L222.075 65.4627L215.393 61.6119V30.806ZM214.429 155.57L187.766 170.973L161.102 155.57V124.764L187.766 109.361L202.864 118.09L214.429 124.764V155.57ZM201.579 116.228L188.216 108.527V77.7209L214.879 62.3179L230.042 71.1104L241.543 77.7209V108.527L230.106 115.201L214.943 123.994L201.579 116.228ZM268.784 155.57L242.121 170.973L215.457 155.57V124.764L222.139 120.913L242.121 109.361L260.625 120.015L268.784 124.764V155.57Z" fill="white"/>-->
<!--        <path d="M323.203 155.378L296.54 170.781L269.876 155.378V124.572L281.441 117.897L296.54 109.169L323.203 124.572V155.378ZM256.063 116.1L242.699 108.399V77.5925L256.063 69.8911L269.427 62.1896L296.09 77.5925V108.399L282.726 116.1L269.362 123.801L256.063 116.1ZM324.167 154.928V124.058L296.99 108.399V77.0791L269.812 61.4194V30.1L242.185 14.1836L214.558 30.1V61.4194L187.38 77.0791V108.399L160.203 124.058V155.057H-23.8715V155.955H160.396L187.959 171.872L215.136 156.212L242.313 171.872L269.491 156.212L296.668 171.872L324.296 155.955V155.891H364.708V154.993H324.167V154.928ZM215.521 30.6776L242.185 15.2746L268.848 30.6776V61.4836L260.689 66.2328L242.185 76.8866L222.203 65.3343L215.521 61.4836V30.6776ZM214.622 155.378L187.959 170.781L161.295 155.378V124.572L187.959 109.169L203.057 117.897L214.622 124.572V155.378ZM201.708 116.1L188.344 108.399V77.5925L215.008 62.1896L230.17 70.9821L241.671 77.5925V108.399L230.17 115.009L215.008 123.801L201.708 116.1ZM268.913 155.378L242.249 170.781L215.586 155.378V124.572L222.268 120.721L242.249 109.169L260.753 119.822L268.913 124.572V155.378Z" fill="#FEFEFE"/>-->
<!--        <path d="M323.332 155.249L296.668 170.652L270.005 155.249V124.443L281.57 117.769L296.668 109.04L323.332 124.443V155.249ZM256.191 115.972L242.827 108.27V77.4642L256.191 69.7627L269.555 62.0612L296.219 77.4642V108.27L282.855 115.972L269.491 123.673L256.191 115.972ZM324.296 154.8V123.93L297.118 108.27V76.9508L270.005 61.2911V29.9717L242.378 14.0552L214.75 29.9717V61.2911L187.573 76.9508V108.27L160.396 123.93V154.928H-23.743V155.827H160.46L188.023 171.743L215.2 156.084L242.378 171.743L269.555 156.084L296.733 171.743L324.36 155.827V155.763H364.708V154.864H324.296V154.8ZM215.65 30.5493L242.313 15.1463L268.977 30.5493V61.3552L260.817 66.1045L242.378 76.694L222.396 65.1418L215.714 61.2911V30.5493H215.65ZM214.75 155.249L188.087 170.652L161.424 155.249V124.443L188.087 109.04L203.186 117.769L214.75 124.443V155.249ZM201.836 115.972L188.472 108.27V77.4642L215.136 62.0612L230.299 70.8537L241.799 77.4642V108.27L230.427 114.881L215.264 123.673L201.836 115.972ZM269.041 155.249L242.378 170.652L215.714 155.249V124.443L222.396 120.593L242.378 109.04L260.881 119.694L269.041 124.443V155.249Z" fill="#FDFDFD"/>-->
<!--        <path d="M323.525 155.121L296.861 170.524L270.198 155.121V124.315L281.763 117.64L296.861 108.912L323.525 124.315V155.121ZM256.32 115.843L242.956 108.142V77.3358L256.32 69.6343L269.684 61.9328L296.347 77.3358V108.142L282.983 115.843L269.619 123.545L256.32 115.843ZM324.424 154.672V123.801L297.311 108.142V76.8224L270.133 61.1627V29.8433L242.506 13.9269L214.879 29.8433V61.1627L187.702 76.8224V108.142L160.524 123.801V154.8H-23.5503V155.699H160.653L188.215 171.615L215.393 155.955L242.57 171.615L269.748 155.955L296.925 171.615L324.553 155.699V155.634H364.965V154.736H324.424V154.672ZM215.843 30.3567L242.506 14.9537L269.17 30.3567V61.1627L261.01 65.9119L242.506 76.5657L222.525 65.0134L215.843 61.1627V30.3567ZM214.879 155.121L188.215 170.524L161.552 155.121V124.315L188.215 108.912L203.314 117.64L214.879 124.315V155.121ZM202.029 115.843L188.665 108.142V77.3358L215.329 61.9328L230.492 70.7254L241.992 77.3358V108.142L230.492 114.752L215.329 123.545L202.029 115.843ZM269.17 155.121L242.506 170.524L215.843 155.121V124.315L222.525 120.464L242.506 108.912L261.01 119.566L269.17 124.315V155.121Z" fill="#FCFCFC"/>-->
<!--        <path d="M323.653 154.993L296.99 170.396L270.262 154.993V124.187L281.827 117.512L296.925 108.784L323.589 124.187V154.993H323.653ZM256.448 115.715L243.084 108.013V77.2075L256.448 69.506L269.812 61.8045L296.476 77.2075V108.013L283.112 115.715L269.748 123.416L256.448 115.715ZM324.553 154.543V123.673L297.375 108.013V76.694L270.262 61.0343V29.7149L242.635 13.7985L215.008 29.7149V61.0343L187.894 76.694V108.013L160.717 123.673V154.672H-23.4218V155.57H160.781L188.344 171.487L215.521 155.827L242.699 171.487L269.876 155.827L297.054 171.487L324.681 155.57V155.506H365.094V154.607H324.553V154.543ZM215.971 30.2284L242.635 14.8254L269.298 30.2284V61.0343L261.139 65.7836L242.635 76.4373L222.653 64.8851L215.971 61.0343V30.2284ZM215.008 154.993L188.344 170.396L161.681 154.993V124.187L188.344 108.784L203.443 117.512L215.008 124.187V154.993ZM202.158 115.715L188.794 108.013V77.2075L215.457 61.8045L230.62 70.597L242.121 77.2075V108.013L230.62 114.624L215.457 123.416L202.158 115.715ZM269.298 154.993L242.635 170.396L215.971 154.993V124.187L222.653 120.336L242.635 108.784L261.139 119.437L269.298 124.187V154.993Z" fill="#FBFBFB"/>-->
<!--        <path d="M323.782 154.864L297.118 170.267L270.455 154.864V124.058L282.02 117.384L297.118 108.655L323.782 124.058V154.864ZM256.577 115.522L243.213 107.821V77.0149L256.577 69.3134L269.941 61.6119L296.604 77.0149V107.821L283.24 115.522L269.876 123.224L256.577 115.522ZM324.745 154.415V123.545L297.568 107.885V76.5657L270.39 60.906V29.5866L242.763 13.6702L215.136 29.5866V60.906L188.023 76.5657V107.885L160.845 123.545V154.543H-23.2933V155.442H160.91L188.473 171.358L215.65 155.634L242.827 171.294L270.005 155.634L297.182 171.294L324.81 155.378V155.313H365.222V154.415H324.745ZM216.1 30.1L242.763 14.697L269.427 30.1V60.906L261.267 65.6552L242.763 76.3089L222.782 64.7567L216.1 60.906V30.1ZM215.136 154.864L188.473 170.267L161.809 154.864V124.058L188.473 108.655L203.571 117.384L215.136 124.058V154.864ZM202.286 115.522L188.922 107.821V77.0149L215.586 61.6119L230.749 70.4045L242.249 77.0149V107.821L230.749 114.431L215.65 123.224L202.286 115.522ZM269.491 154.864L242.827 170.267L216.164 154.864V124.058L222.846 120.207L242.827 108.655L261.331 119.309L269.491 124.058V154.864Z" fill="#FAFAFA"/>-->
<!--        <path d="M323.91 154.672L297.247 170.075L270.583 154.672V123.866L282.148 117.191L297.247 108.463L323.91 123.866V154.672ZM256.77 115.394L243.406 107.693V76.8866L256.77 69.1851L270.133 61.4836L296.797 76.8866V107.693L283.433 115.394L270.069 123.096L256.77 115.394ZM324.874 154.222V123.352L297.696 107.693V76.3731L270.519 60.7134V29.394L242.892 13.4776L215.265 29.394V60.7134L188.087 76.3731V107.693L160.91 123.352V154.351H-23.1647V155.249H161.038L188.601 171.166L215.779 155.506L242.956 171.166L270.133 155.506L297.311 171.166L324.938 155.249V155.185H365.351V154.287H324.874V154.222ZM216.228 29.9716L242.892 14.5687L269.555 29.9716V60.7776L261.396 65.5269L242.892 76.1806L222.91 64.6284L216.228 60.7776V29.9716ZM215.329 154.672L188.665 170.075L162.002 154.672V123.866L188.665 108.463L203.764 117.191L215.329 123.866V154.672ZM202.415 115.394L189.051 107.693V76.8866L215.714 61.4836L230.877 70.2761L242.378 76.8866V107.693L230.877 114.303L215.714 123.096L202.415 115.394ZM269.619 154.672L242.956 170.075L216.293 154.672V123.866L222.974 120.015L242.956 108.463L261.46 119.116L269.619 123.866V154.672Z" fill="#F9F9F9"/>-->
<!--        <path d="M324.039 154.543L297.375 169.946L270.712 154.543V123.737L282.277 117.063L297.375 108.334L324.039 123.737V154.543ZM256.898 115.266L243.534 107.564V76.7582L256.898 69.0567L270.262 61.3552L296.925 76.7582V107.564L283.562 115.266L270.198 122.967L256.898 115.266ZM325.002 154.094V123.224L297.825 107.564V76.2448L270.647 60.5851V29.2657L243.02 13.3493L215.393 29.2657V60.5851L188.216 76.2448V107.564L161.038 123.224V154.222H-23.0363V155.121H161.167L188.73 171.037L215.907 155.378L243.084 171.037L270.262 155.378L297.439 171.037L325.067 155.121V154.993H365.479V154.094H325.002ZM216.357 29.8433L243.02 14.4403L269.684 29.8433V60.6493L261.524 65.3985L243.02 76.0522L223.039 64.5L216.357 60.6493V29.8433ZM215.457 154.543L188.794 169.946L162.13 154.543V123.737L188.794 108.334L203.892 117.063L215.457 123.737V154.543ZM202.543 115.266L189.179 107.564V76.7582L215.843 61.3552L231.006 70.1478L242.506 76.7582V107.564L231.07 114.175L215.907 122.967L202.543 115.266ZM269.748 154.543L243.084 169.946L216.421 154.543V123.737L223.103 119.887L243.084 108.334L261.588 118.988L269.748 123.737V154.543Z" fill="#F8F8F8"/>-->
<!--        <path d="M324.167 154.415L297.504 169.818L270.84 154.415V123.609L282.405 116.934L297.504 108.206L324.167 123.609V154.415ZM257.027 115.137L243.663 107.436V76.6298L257.027 68.9283L270.39 61.2268L297.054 76.6298V107.436L283.69 115.137L270.326 122.839L257.027 115.137ZM325.131 153.966V123.095L297.953 107.436V76.1164L270.776 60.4567V29.1373L243.149 13.2209L215.521 29.1373V60.4567L188.344 76.1164V107.436L161.167 123.095V154.094H-22.9078V154.992H161.295L188.858 170.909L216.035 155.249L243.213 170.909L270.39 155.249L297.568 170.909L325.195 154.992V154.928H365.608V154.03H325.131V153.966ZM216.549 29.6507L243.213 14.2478L269.876 29.6507V60.4567L261.717 65.206L243.213 75.8597L223.231 64.3074L216.549 60.4567V29.6507ZM215.586 154.415L188.922 169.818L162.259 154.415V123.609L188.922 108.206L204.021 116.934L215.586 123.609V154.415ZM202.736 115.137L189.372 107.436V76.6298L216.035 61.2268L231.198 70.0194L242.699 76.6298V107.436L231.198 114.046L216.035 122.839L202.736 115.137ZM269.876 154.415L243.213 169.818L216.549 154.415V123.609L223.231 119.758L243.213 108.206L261.717 118.86L269.876 123.609V154.415Z" fill="#F7F7F7"/>-->
<!--        <path d="M324.36 154.287L297.696 169.69L271.033 154.287V123.481L282.598 116.806L297.696 108.078L324.36 123.481V154.287ZM257.155 115.009L243.791 107.307V76.5015L257.155 68.8L270.519 61.0985L297.182 76.5015V107.307L283.819 115.009L270.455 122.71L257.155 115.009ZM325.259 153.837V122.967L298.082 107.307V75.988L270.904 60.3283V29.0089L243.277 13.0925L215.65 29.0089V60.3283L188.473 75.988V107.307L161.295 122.967V153.966H-22.715V154.864H161.488L189.051 170.781L216.228 155.121L243.406 170.781L270.583 155.121L297.761 170.781L325.388 154.864V154.8H365.801V153.901H325.259V153.837ZM216.678 29.5224L243.341 14.1194L270.005 29.5224V60.3283L261.845 65.0776L243.341 75.7313L223.36 64.1791L216.678 60.3283V29.5224ZM215.714 154.287L189.051 169.69L162.387 154.287V123.481L189.051 108.078L204.149 116.806L215.714 123.481V154.287ZM202.864 115.009L189.501 107.307V76.5015L216.164 61.0985L231.327 69.891L242.827 76.5015V107.307L231.391 113.918L216.228 122.71L202.864 115.009ZM270.005 154.287L243.341 169.69L216.678 154.287V123.481L223.36 119.63L243.341 108.078L261.845 118.731L270.005 123.481V154.287Z" fill="#F6F6F6"/>-->
<!--        <path d="M324.488 154.158L297.825 169.561L271.161 154.158V123.352L282.726 116.678L297.825 107.949L324.488 123.352V154.158ZM257.284 114.881L243.92 107.179V76.3731L257.284 68.6717L270.647 60.9702L297.311 76.3731V107.179L283.947 114.881L270.583 122.582L257.284 114.881ZM325.452 153.709V122.839L298.275 107.179V75.8597L271.097 60.2V28.8806L243.47 12.9642L215.843 28.8806V60.2L188.665 75.8597V107.179L161.488 122.839V153.837H-22.5865V154.736H161.616L189.179 170.652L216.357 154.993L243.534 170.652L270.712 154.993L297.889 170.652L325.516 154.736V154.672H365.929V153.709H325.452ZM216.806 29.394L243.47 13.9911L270.133 29.394V60.2L261.974 64.9493L243.47 75.603L223.488 64.0508L216.806 60.2V29.394ZM215.843 154.158L189.179 169.561L162.516 154.158V123.352L189.179 107.949L204.278 116.678L215.843 123.352V154.158ZM202.993 114.881L189.629 107.179V76.3731L216.292 60.9702L231.455 69.7627L242.956 76.3731V107.179L231.455 113.79L216.292 122.582L202.993 114.881ZM270.198 154.158L243.534 169.561L216.871 154.158V123.352L223.553 119.502L243.534 107.949L262.038 118.603L270.198 123.352V154.158Z" fill="#F5F5F5"/>-->
<!--        <path d="M324.617 154.03L297.953 169.433L271.29 154.03V123.224L282.855 116.549L297.953 107.821L324.617 123.224V154.03ZM257.412 114.688L244.048 106.987V76.1806L257.412 68.4791L270.776 60.7776L297.439 76.1806V106.987L284.076 114.688L270.712 122.39L257.412 114.688ZM325.581 153.516V122.646L298.403 106.987V75.6672L271.226 60.0075V28.6881L243.598 12.7716L215.971 28.6881V60.0075L188.794 75.6672V106.987L161.681 122.71V153.709H-22.458V154.607H161.745L189.308 170.524L216.485 154.864L243.663 170.524L270.84 154.864L298.018 170.524L325.645 154.607V154.543H366.058V153.645H325.581V153.516ZM216.935 29.2657L243.598 13.8627L270.262 29.2657V60.0716L262.102 64.8209L243.598 75.4104L223.617 63.8582L216.935 60.0075V29.2657ZM215.971 154.03L189.308 169.433L162.644 154.03V123.224L189.308 107.821L204.406 116.549L215.971 123.224V154.03ZM203.121 114.688L189.758 106.987V76.1806L216.421 60.7776L231.584 69.5701L243.084 76.1806V106.987L231.584 113.597L216.421 122.39L203.121 114.688ZM270.326 154.03L243.663 169.433L216.999 154.03V123.224L223.681 119.373L243.663 107.821L262.167 118.475L270.326 123.224V154.03Z" fill="#F4F4F4"/>-->
<!--        <path d="M324.874 153.709L298.21 169.112L271.547 153.709V122.903L283.112 116.228L298.21 107.5L324.874 122.903V153.709ZM257.733 114.431L244.37 106.73V75.9239L257.733 68.2224L271.097 60.5209L297.761 75.9239V106.73L284.397 114.431L271.033 122.133L257.733 114.431ZM325.838 153.26V122.39L298.66 106.73V75.4105L271.547 59.7508V28.4314L243.92 12.5149L216.293 28.4314V59.7508L189.115 75.4105V106.73L161.938 122.39V153.388H-22.201V154.287H162.002L189.565 170.203L216.742 154.543L243.92 170.203L271.097 154.543L298.275 170.203L325.902 154.287V154.222H366.315V153.324H325.838V153.26ZM217.256 29.009L243.92 13.606L270.583 29.009V59.8149L262.424 64.5642L243.92 75.1538L223.938 63.6015L217.256 59.7508V29.009ZM216.293 153.709L189.629 169.112L162.966 153.709V122.903L189.629 107.5L204.728 116.228L216.293 122.903V153.709ZM203.443 114.431L190.079 106.73V75.9239L216.742 60.5209L231.905 69.3134L243.406 75.9239V106.73L231.905 113.34L216.742 122.133L203.443 114.431ZM270.583 153.709L243.92 169.112L217.256 153.709V122.903L223.938 119.052L243.92 107.5L262.424 118.154L270.583 122.903V153.709Z" fill="#F2F2F2"/>-->
<!--        <path d="M325.067 153.581L298.403 168.984L271.74 153.581V122.775L283.305 116.1L298.403 107.372L325.067 122.775V153.581ZM257.862 114.303L244.498 106.602V75.7955L257.862 68.094L271.226 60.3926L297.889 75.7955V106.602L284.525 114.303L271.161 122.004L257.862 114.303ZM325.966 153.131V122.261L298.789 106.602V75.2821L271.611 59.6224V28.303L243.984 12.3866L216.357 28.303V59.6224L189.179 75.2821V106.602L162.13 122.261V153.26H-22.0083V154.158H162.195L189.757 170.075L216.935 154.415L244.112 170.075L271.29 154.415L298.467 170.075L326.095 154.158V154.094H366.507V153.196H325.966V153.131ZM217.385 28.8164L244.048 13.4134L270.712 28.8164V59.6224L262.552 64.3717L244.048 75.0254L224.067 63.4732L217.385 59.6224V28.8164ZM216.421 153.581L189.757 168.984L163.094 153.581V122.775L189.757 107.372L204.856 116.1L216.421 122.775V153.581ZM203.571 114.303L190.207 106.602V75.7955L216.871 60.3926L232.034 69.1851L243.534 75.7955V106.602L232.034 113.212L216.871 122.004L203.571 114.303ZM270.712 153.581L244.048 168.984L217.385 153.581V122.775L224.067 118.924L244.048 107.372L262.552 118.025L270.712 122.775V153.581Z" fill="#F1F1F1"/>-->
<!--        <path d="M325.195 153.452L298.532 168.855L271.868 153.452V122.646L283.433 115.972L298.532 107.243L325.195 122.646V153.452ZM257.99 114.175L244.626 106.473V75.6671L257.99 67.9657L271.354 60.2642L298.018 75.6671V106.473L284.654 114.175L271.29 121.876L257.99 114.175ZM326.095 153.003V122.133L298.917 106.473V75.1537L271.74 59.494V28.1746L244.112 12.2582L216.485 28.1746V59.494L189.308 75.1537V106.473L162.13 122.133V153.131H-21.8798V154.03H162.323L189.886 169.946L217.064 154.287L244.241 169.946L271.418 154.287L298.596 169.946L326.223 154.03V153.966H366.636V153.067H326.095V153.003ZM217.513 28.6881L244.177 13.2851L270.84 28.6881V59.494L262.681 64.2433L244.177 74.897L224.195 63.3448L217.513 59.494V28.6881ZM216.55 153.452L189.886 168.855L163.223 153.452V122.646L189.886 107.243L204.985 115.972L216.55 122.646V153.452ZM203.7 114.175L190.336 106.473V75.6671L216.999 60.2642L232.162 69.0567L243.663 75.6671V106.473L232.162 113.084L216.999 121.876L203.7 114.175ZM270.84 153.452L244.177 168.855L217.513 153.452V122.646L224.195 118.796L244.177 107.243L262.681 117.897L270.84 122.646V153.452Z" fill="#F0F0F0"/>-->
<!--        <path d="M325.324 153.324L298.66 168.727L271.997 153.324V122.518L283.562 115.843L298.66 107.115L325.324 122.518V153.324ZM258.119 113.982L244.755 106.281V75.4746L258.119 67.7731L271.483 60.0716L298.146 75.4746V106.281L284.782 113.982L271.418 121.684L258.119 113.982ZM326.287 152.81V121.94L299.11 106.281V74.9612L271.932 59.3657V28.0463L244.305 12.1299L216.678 28.0463V59.3657L189.501 75.0254V106.345L162.323 122.004V153.003H-21.7513V153.901H162.452L190.015 169.818L217.192 154.158L244.369 169.818L271.547 154.158L298.724 169.818L326.352 153.901V153.837H366.636V152.939H326.287V152.81ZM217.642 28.5597L244.305 13.1567L270.969 28.5597V59.3657L262.809 64.1149L244.305 74.7687L224.324 63.2164L217.642 59.3657V28.5597ZM216.678 153.324L190.015 168.727L163.351 153.324V122.518L190.015 107.115L205.113 115.843L216.678 122.518V153.324ZM203.828 113.982L190.464 106.281V75.4746L217.128 60.0716L232.291 68.8642L243.791 75.4746V106.281L232.355 112.955L217.192 121.748L203.828 113.982ZM271.033 153.324L244.369 168.727L217.706 153.324V122.518L224.388 118.667L244.369 107.115L262.873 117.769L271.033 122.518V153.324Z" fill="#EFEFEF"/>-->
<!--        <path d="M325.452 153.131L298.789 168.534L272.125 153.131V122.325L283.69 115.651L298.789 106.922L325.452 122.325V153.131ZM258.312 113.854L244.948 106.152V75.3463L258.312 67.6448L271.675 59.9433L298.339 75.3463V106.152L284.975 113.854L271.611 121.555L258.312 113.854ZM326.416 152.682V121.812L299.238 106.152V74.8328L272.061 59.1731V27.8537L244.434 11.9373L216.806 27.8537V59.1731L189.629 74.8328V106.152L162.452 121.812V152.81H-21.6228V153.709H162.58L190.143 169.625L217.32 153.966L244.498 169.625L271.675 153.966L298.853 169.625L326.48 153.709V153.645H366.893V152.746H326.416V152.682ZM217.77 28.4313L244.434 13.0284L271.097 28.4313V59.2373L262.938 63.9866L244.434 74.6403L224.452 63.0881L217.77 59.2373V28.4313ZM216.871 153.131L190.207 168.534L163.544 153.131V122.325L190.207 106.922L205.306 115.651L216.871 122.325V153.131ZM203.957 113.854L190.593 106.152V75.3463L217.256 59.9433L232.419 68.7358L243.92 75.3463V106.152L232.419 112.763L217.256 121.555L203.957 113.854ZM271.161 153.131L244.498 168.534L217.834 153.131V122.325L224.516 118.475L244.498 106.922L263.002 117.576L271.161 122.325V153.131Z" fill="#EEEEEE"/>-->
<!--        <path d="M325.581 153.003L298.917 168.406L272.254 153.003V122.197L283.819 115.522L298.917 106.794L325.581 122.197V153.003ZM258.44 113.725L245.076 106.024V75.2179L258.44 67.5164L271.804 59.8149L298.467 75.2179V106.024L285.104 113.725L271.74 121.427L258.44 113.725ZM326.544 152.554V121.684L299.367 106.024V74.7045L272.189 59.0448V27.7254L244.562 11.809L216.935 27.7254V59.0448L189.758 74.7045V106.024L162.58 121.684V152.682H-21.4943V153.581H162.709L190.272 169.497L217.449 153.837L244.626 169.497L271.804 153.837L298.981 169.497L326.609 153.581V153.516H367.021V152.618H326.544V152.554ZM217.899 28.303L244.562 12.9L271.226 28.303V59.109L263.066 63.8582L244.562 74.5119L224.581 62.9597L217.899 59.109V28.303ZM216.999 153.003L190.336 168.406L163.672 153.003V122.197L190.336 106.794L205.434 115.522L216.999 122.197V153.003ZM204.085 113.725L190.721 106.024V75.2179L217.385 59.8149L232.548 68.6075L244.048 75.2179V106.024L232.676 112.634L217.513 121.427L204.085 113.725ZM271.29 153.003L244.626 168.406L217.963 153.003V122.197L224.645 118.346L244.626 106.794L263.13 117.448L271.29 122.197V153.003Z" fill="#EDEDED"/>-->
<!--        <path d="M325.709 152.875L299.046 168.278L272.382 152.875V122.069L283.947 115.394L299.046 106.666L325.709 122.069V152.875ZM258.569 113.597L245.205 105.896V75.0896L258.569 67.3881L271.932 59.6866L298.596 75.0896V105.896L285.232 113.597L271.868 121.299L258.569 113.597ZM326.673 152.425V121.555L299.495 105.896V74.5761L272.318 58.9164V27.597L244.691 11.6806L217.063 27.597V58.9164L189.95 74.5761V105.896L162.773 121.555V152.554H-21.3658V153.452H162.837L190.4 169.369L217.577 153.709L244.755 169.369L271.932 153.709L299.11 169.369L326.737 153.452V153.388H367.15V152.425H326.673ZM218.091 28.1105L244.755 12.7075L271.418 28.1105V58.9164L263.259 63.6657L244.755 74.3194L224.773 62.7672L218.091 58.9164V28.1105ZM217.128 152.875L190.464 168.278L163.801 152.875V122.069L190.464 106.666L205.563 115.394L217.128 122.069V152.875ZM204.278 113.597L190.914 105.896V75.0896L217.577 59.6866L232.74 68.4791L244.241 75.0896V105.896L232.74 112.506L217.577 121.299L204.278 113.597ZM271.418 152.875L244.755 168.278L218.091 152.875V122.069L224.773 118.218L244.755 106.666L263.259 117.319L271.418 122.069V152.875Z" fill="#ECECEC"/>-->
<!--        <path d="M325.902 152.746L299.238 168.149L272.575 152.746V121.94L284.14 115.266L299.238 106.537L325.902 121.94V152.746ZM258.697 113.469L245.333 105.767V74.9612L258.697 67.2597L272.061 59.5582L298.724 74.9612V105.767L285.361 113.469L271.997 121.17L258.697 113.469ZM326.801 152.297V121.427L299.624 105.767V74.4477L272.446 58.788V27.4686L244.819 11.5522L217.192 27.4686V58.788L190.015 74.4477V105.767L162.966 121.427V152.425H-21.173V153.324H163.03L190.593 169.24L217.77 153.581L244.948 169.24L272.125 153.581L299.303 169.24L326.93 153.324V153.26H367.343V152.361H326.801V152.297ZM218.22 27.9821L244.883 12.5791L271.547 27.9821V58.788L263.387 63.5373L244.883 74.191L224.902 62.6388L218.22 58.788V27.9821ZM217.256 152.746L190.593 168.149L163.929 152.746V121.94L190.593 106.537L205.691 115.266L217.256 121.94V152.746ZM204.406 113.469L191.042 105.767V74.9612L217.706 59.5582L232.869 68.3507L244.369 74.9612V105.767L232.869 112.378L217.706 121.17L204.406 113.469ZM271.547 152.746L244.883 168.149L218.22 152.746V121.94L224.902 118.09L244.883 106.537L263.387 117.191L271.547 121.94V152.746Z" fill="#EBEBEB"/>-->
<!--        <path d="M326.03 152.618L299.367 168.021L272.703 152.618V121.812L284.268 115.137L299.367 106.409L326.03 121.812V152.618ZM258.826 113.34L245.462 105.639V74.8328L258.826 67.1313L272.189 59.4298L298.853 74.8328V105.639L285.489 113.34L272.189 120.978L258.826 113.34ZM326.994 152.169V121.299L299.817 105.639V74.3194L272.639 58.6597V27.3403L245.012 11.4239L217.385 27.3403V58.6597L190.207 74.3194V105.639L163.03 121.299V152.297H-21.0446V153.196H163.158L190.721 169.112L217.899 153.452L245.076 169.112L272.254 153.452L299.431 169.112L327.058 153.196V153.067H367.471V152.169H326.994ZM218.348 27.8537L245.012 12.4507L271.675 27.8537V58.6597L263.516 63.4089L245.012 74.0627L225.03 62.5104L218.348 58.6597V27.8537ZM217.385 152.618L190.721 168.021L164.058 152.618V121.812L190.721 106.409L205.82 115.137L217.385 121.812V152.618ZM204.535 113.34L191.171 105.639V74.8328L217.834 59.4298L232.997 68.2224L244.498 74.8328V105.639L232.997 112.249L217.899 120.978L204.535 113.34ZM271.74 152.618L245.076 168.021L218.413 152.618V121.812L225.095 117.961L245.076 106.409L263.58 117.063L271.74 121.812V152.618Z" fill="#EAEAEA"/>-->
<!--        <path d="M326.287 152.297L299.624 167.7L272.96 152.297V121.491L284.525 114.816L299.624 106.088L326.287 121.491V152.297ZM259.147 113.019L245.783 105.318V74.5119L259.147 66.8104L272.511 59.109L299.174 74.5119V105.318L285.81 113.019L272.446 120.721L259.147 113.019ZM327.251 151.848V120.978L300.074 105.318V73.9985L272.896 58.3388V27.0194L245.269 11.103L217.642 27.0194V58.3388L190.464 73.9985V105.318L163.351 120.978V151.976H-20.7875V152.875H163.415L190.978 168.791L218.156 153.131L245.333 168.791L272.511 153.131L299.688 168.791L327.315 152.875V152.81H367.728V151.912H327.251V151.848ZM218.605 27.597L245.269 12.194L271.932 27.597V58.403L263.773 63.1522L245.269 73.806L225.287 62.2537L218.605 58.403V27.597ZM217.706 152.297L191.043 167.7L164.379 152.297V121.491L191.043 106.088L206.141 114.816L217.706 121.491V152.297ZM204.792 113.019L191.428 105.318V74.5119L218.091 59.109L233.254 67.9015L244.755 74.5119V105.318L233.319 111.993L218.156 120.785L204.792 113.019ZM271.997 152.297L245.333 167.7L218.67 152.297V121.491L225.352 117.64L245.333 106.088L263.837 116.742L271.997 121.491V152.297Z" fill="#E8E8E8"/>-->
<!--        <path d="M326.416 152.169L299.752 167.572L273.089 152.169V121.363L284.654 114.688L299.752 105.96L326.416 121.363V152.169ZM259.275 112.891L245.911 105.19V74.3836L259.275 66.6821L272.639 58.9806L299.303 74.3836V105.19L285.939 112.891L272.575 120.592L259.275 112.891ZM327.38 151.719V120.849L300.202 105.19V73.8701L273.025 58.2104V26.891L245.397 10.9746L217.77 26.891V58.2104L190.593 73.8701V105.19L163.415 120.849V151.848H-20.6591V152.746H163.608L191.171 168.663L218.348 153.003L245.526 168.663L272.703 153.003L299.881 168.663L327.508 152.746V152.682H367.921V151.784H327.38V151.719ZM218.798 27.4686L245.462 12.0657L272.125 27.4686V58.2746L263.965 63.0239L245.462 73.6776L225.48 62.1254L218.798 58.2746V27.4686ZM217.834 152.169L191.171 167.572L164.508 152.169V121.363L191.171 105.96L206.27 114.688L217.834 121.363V152.169ZM204.985 112.891L191.621 105.19V74.3836L218.284 58.9806L233.447 67.7731L244.948 74.3836V105.19L233.447 111.8L218.284 120.592L204.985 112.891ZM272.125 152.169L245.462 167.572L218.798 152.169V121.363L225.48 117.512L245.462 105.96L263.965 116.613L272.125 121.363V152.169Z" fill="#E7E7E7"/>-->
<!--        <path d="M326.609 152.04L299.945 167.443L273.282 152.04V121.234L284.846 114.56L299.945 105.831L326.609 121.234V152.04ZM259.404 112.763L246.04 105.061V74.2552L259.404 66.5537L272.768 58.8522L299.431 74.2552V105.061L286.067 112.763L272.703 120.464L259.404 112.763ZM327.508 151.591V120.721L300.331 105.061V73.7418L273.217 58.0821V26.7627L245.59 10.8463L217.963 26.7627V58.0821L190.785 73.7418V105.061L163.608 120.721V151.719H-20.4663V152.618H163.737L191.299 168.534L218.477 152.875L245.654 168.534L272.832 152.875L300.009 168.534L327.637 152.618V152.554H367.921V151.655H327.508V151.591ZM218.927 27.2761L245.59 11.8731L272.254 27.2761V58.0821L264.094 62.8314L245.59 73.4851L225.609 61.9328L218.927 58.0821V27.2761ZM217.963 152.04L191.299 167.443L164.636 152.04V121.234L191.299 105.831L206.398 114.56L217.963 121.234V152.04ZM205.113 112.763L191.749 105.061V74.2552L218.413 58.8522L233.576 67.6448L245.076 74.2552V105.061L233.64 111.672L218.477 120.464L205.113 112.763ZM272.254 152.04L245.59 167.443L218.927 152.04V121.234L225.609 117.384L245.59 105.831L264.094 116.485L272.254 121.234V152.04Z" fill="#E6E6E6"/>-->
<!--        <path d="M326.737 151.912L300.074 167.315L273.41 151.912V121.106L284.975 114.431L300.074 105.703L326.737 121.106V151.912ZM259.532 112.634L246.168 104.933V74.1269L259.532 66.4254L272.896 58.7239L299.56 74.1269V104.933L286.196 112.634L272.832 120.336L259.532 112.634ZM327.637 151.463V120.593L300.523 104.933V73.6134L273.346 57.9538V26.6343L245.719 10.7179L218.091 26.6343V57.9538L190.914 73.6134V104.933L163.737 120.593V151.591H-20.3378V152.49H163.865L191.428 168.406L218.605 152.746L245.783 168.406L272.96 152.746L300.138 168.406L327.765 152.49V152.425H368.178V151.527H327.637V151.463ZM219.055 27.1478L245.719 11.7448L272.382 27.1478V57.9538L264.222 62.703L245.719 73.3567L225.737 61.8045L219.055 57.9538V27.1478ZM218.091 151.912L191.428 167.315L164.764 151.912V121.106L191.428 105.703L206.527 114.431L218.091 121.106V151.912ZM205.242 112.634L191.878 104.933V74.1269L218.541 58.7239L233.704 67.5164L245.205 74.1269V104.933L233.704 111.543L218.605 120.336L205.242 112.634ZM272.382 151.912L245.719 167.315L219.055 151.912V121.106L225.737 117.255L245.719 105.703L264.222 116.357L272.382 121.106V151.912Z" fill="#E5E5E5"/>-->
<!--        <path d="M326.866 151.784L300.202 167.187L273.474 151.784V120.978L285.039 114.303L300.138 105.575L326.801 120.978V151.784H326.866ZM259.661 112.442L246.297 104.74V73.9343L259.661 66.2328L273.025 58.5313L299.688 73.9343V104.74L286.324 112.442L272.96 120.143L259.661 112.442ZM327.829 151.27V120.4L300.652 104.74V73.4851L273.474 57.8253V26.4418L245.847 10.5254L218.22 26.4418V57.7612L191.107 73.4851V104.804L163.929 120.464V151.463H-20.2093V152.361H163.994L191.556 168.278L218.734 152.618L245.911 168.278L273.089 152.618L300.266 168.278L327.894 152.361V152.297H368.306V151.398H327.829V151.27ZM219.184 27.0194L245.847 11.6164L272.511 27.0194V57.8253L264.351 62.5746L245.847 73.1642L225.866 61.6119L219.184 57.7612V27.0194ZM218.22 151.784L191.556 167.187L164.893 151.784V120.978L191.556 105.575L206.655 114.303L218.22 120.978V151.784ZM205.37 112.442L192.006 104.74V73.9343L218.67 58.5313L233.833 67.3239L245.333 73.9343V104.74L233.833 111.351L218.67 120.143L205.37 112.442ZM272.575 151.784L245.911 167.187L219.248 151.784V120.978L225.93 117.127L245.911 105.575L264.415 116.228L272.575 120.978V151.784Z" fill="#E4E4E4"/>-->
<!--        <path d="M326.994 151.591L300.331 166.994L273.667 151.591V120.785L285.232 114.11L300.331 105.382L326.994 120.785V151.591ZM259.854 112.313L246.49 104.612V73.806L259.854 66.1045L273.217 58.403L299.881 73.806V104.612L286.517 112.313L273.153 120.015L259.854 112.313ZM327.958 151.142V120.272L300.78 104.612V73.2925L273.603 57.6329V26.3134L245.976 10.397L218.348 26.3134V57.6329L191.235 73.2925V104.612L164.058 120.272V151.27H-20.0808V152.169H164.122L191.685 168.085L218.862 152.425L246.04 168.085L273.217 152.425L300.395 168.085L328.022 152.169V152.104H368.435V151.142H327.958ZM219.312 26.8911L245.976 11.4881L272.639 26.8911V57.697L264.479 62.4463L245.976 73.1L225.994 61.5478L219.312 57.697V26.8911ZM218.413 151.591L191.749 166.994L165.086 151.591V120.785L191.749 105.382L206.848 114.11L218.413 120.785V151.591ZM205.499 112.313L192.135 104.612V73.806L218.798 58.403L233.961 67.1955L245.462 73.806V104.612L233.961 111.222L218.862 120.015L205.499 112.313ZM272.703 151.591L246.04 166.994L219.376 151.591V120.785L226.058 116.934L246.04 105.382L264.544 116.036L272.703 120.785V151.591Z" fill="#E3E3E3"/>-->
<!--        <path d="M327.123 151.463L300.459 166.866L273.796 151.463V120.657L285.361 113.982L300.459 105.254L327.123 120.657V151.463ZM259.982 112.185L246.618 104.484V73.6776L259.982 65.9761L273.346 58.2746L300.009 73.6776V104.484L286.645 112.185L273.282 119.887L259.982 112.185ZM328.086 151.013V120.143L300.909 104.484V73.1642L273.731 57.5045V26.1851L246.104 10.2687L218.477 26.1851V57.5045L191.299 73.1642V104.484L164.122 120.143V151.142H-19.9523V152.04H164.251L191.813 167.957L218.991 152.297L246.168 167.957L273.346 152.297L300.523 167.957L328.151 152.04V151.976H368.563V151.078H328.086V151.013ZM219.441 26.7627L246.104 11.3597L272.768 26.7627V57.5687L264.608 62.3179L246.104 72.9716L226.123 61.4194L219.441 57.5687V26.7627ZM218.541 151.463L191.878 166.866L165.214 151.463V120.657L191.878 105.254L206.976 113.982L218.541 120.657V151.463ZM205.627 112.185L192.263 104.484V73.6776L218.927 58.2746L234.09 67.0672L245.59 73.6776V104.484L234.09 111.094L218.927 119.887L205.627 112.185ZM272.832 151.463L246.168 166.866L219.505 151.463V120.657L226.187 116.806L246.168 105.254L264.672 115.907L272.832 120.657V151.463Z" fill="#E2E2E2"/>-->
<!--        <path d="M327.315 151.334L300.652 166.737L273.988 151.334V120.528L285.553 113.854L300.652 105.125L327.315 120.528V151.334ZM260.111 112.057L246.747 104.355V73.5493L260.111 65.8478L273.474 58.1463L300.138 73.5493V104.355L286.774 112.057L273.41 119.758L260.111 112.057ZM328.215 150.885V120.015L301.102 104.355V73.0358L273.924 57.3761V26.0567L246.297 10.1403L218.67 26.0567V57.3761L191.492 73.0358V104.355L164.315 120.015V151.013H-19.7595V151.912H164.443L192.006 167.828L219.184 152.169L246.361 167.828L273.539 152.169L300.716 167.828L328.343 151.912V151.784H368.756V150.885H328.215ZM219.634 26.5702L246.297 11.1672L272.96 26.5702V57.3761L264.801 62.1254L246.297 72.7791L226.315 61.2269L219.634 57.3761V26.5702ZM218.67 151.334L192.006 166.737L165.343 151.334V120.528L192.006 105.125L207.105 113.854L218.67 120.528V151.334ZM205.82 112.057L192.456 104.355V73.5493L219.12 58.1463L234.282 66.9388L245.783 73.5493V104.355L234.282 110.966L219.12 119.758L205.82 112.057ZM272.96 151.334L246.297 166.737L219.634 151.334V120.528L226.315 116.678L246.297 105.125L264.801 115.779L272.96 120.528V151.334Z" fill="#E1E1E1"/>-->
<!--        <path d="M327.444 151.206L300.78 166.609L274.117 151.206V120.4L285.682 113.725L300.78 104.997L327.444 120.4V151.206ZM260.239 111.928L246.875 104.227V73.4209L260.239 65.7194L273.603 58.0179L300.266 73.4209V104.227L286.902 111.928L273.539 119.63L260.239 111.928ZM328.343 150.757V119.887L301.166 104.227V72.9075L273.988 57.2477V25.9283L246.361 10.0119L218.734 25.9283V57.2477L191.556 72.9075V104.227L164.379 119.887V150.885H-19.631V151.784H164.572L192.135 167.7L219.312 152.04L246.49 167.7L273.667 152.04L300.845 167.7L328.472 151.784V151.719H368.885V150.821H328.343V150.757ZM219.762 26.4418L246.425 11.0388L273.089 26.4418V57.2477L264.929 61.997L246.425 72.6507L226.444 61.0985L219.762 57.2477V26.4418ZM218.798 151.206L192.135 166.609L165.471 151.206V120.4L192.135 104.997L207.233 113.725L218.798 120.4V151.206ZM205.948 111.928L192.584 104.227V73.4209L219.248 58.0179L234.411 66.8104L245.911 73.4209V104.227L234.411 110.837L219.248 119.63L205.948 111.928ZM273.089 151.206L246.425 166.609L219.762 151.206V120.4L226.444 116.549L246.425 104.997L264.929 115.651L273.089 120.4V151.206Z" fill="#E0E0E0"/>-->
<!--        <path d="M327.572 151.078L300.909 166.481L274.245 151.078V120.272L285.81 113.597L300.909 104.869L327.572 120.272V151.078ZM260.368 111.8L247.004 104.098V73.2925L260.368 65.591L273.731 57.8895L300.395 73.2925V104.098L287.031 111.8L273.667 119.501L260.368 111.8ZM328.536 150.628V119.758L301.359 104.098V72.7791L274.181 57.1194V25.8L246.554 9.88358L218.927 25.8V57.1194L191.749 72.7791V104.098L164.572 119.758V150.757H-19.5026V151.655H164.7L192.263 167.572L219.441 151.912L246.618 167.572L273.796 151.912L300.973 167.572L328.6 151.655V151.591H369.013V150.693H328.536V150.628ZM219.89 26.3134L246.554 10.9104L273.217 26.3134V57.1194L265.058 61.8686L246.554 72.5224L226.572 60.9701L219.89 57.1194V26.3134ZM218.927 151.078L192.263 166.481L165.6 151.078V120.272L192.263 104.869L207.362 113.597L218.927 120.272V151.078ZM206.077 111.8L192.713 104.098V73.2925L219.376 57.8895L234.539 66.6821L246.04 73.2925V104.098L234.604 110.709L219.441 119.501L206.077 111.8ZM273.282 151.078L246.618 166.481L219.955 151.078V120.272L226.637 116.421L246.618 104.869L265.122 115.522L273.282 120.272V151.078Z" fill="#DFDFDF"/>-->
<!--        <path d="M327.701 150.885L301.037 166.288L274.374 150.885V120.079L285.939 113.404L301.037 104.676L327.701 120.079V150.885ZM260.496 111.607L247.132 103.906V73.1L260.496 65.3985L273.86 57.697L300.523 73.1V103.906L287.159 111.607L273.796 119.309L260.496 111.607ZM328.665 150.436V119.566L301.487 103.906V72.5866L274.31 56.9269V25.6075L246.682 9.69104L219.055 25.6075V56.9269L191.878 72.5866V103.906L164.7 119.566V150.564H-19.3741V151.463H164.829L192.392 167.379L219.569 151.719L246.747 167.379L273.924 151.719L301.102 167.379L328.729 151.463V151.398H369.142V150.5H328.665V150.436ZM220.019 26.1851L246.682 10.7821L273.346 26.1851V56.991L265.186 61.7403L246.682 72.394L226.701 60.8418L220.019 56.991V26.1851ZM219.055 150.885L192.392 166.288L165.728 150.885V120.079L192.392 104.676L207.49 113.404L219.055 120.079V150.885ZM206.205 111.607L192.841 103.906V73.1L219.505 57.697L234.668 66.4895L246.168 73.1V103.906L234.668 110.516L219.505 119.309L206.205 111.607ZM273.41 150.885L246.747 166.288L220.083 150.885V120.079L226.765 116.228L246.747 104.676L265.25 115.33L273.41 120.079V150.885Z" fill="#DEDEDE"/>-->
<!--        <path d="M327.829 150.757L301.166 166.16L274.502 150.757V119.951L286.067 113.276L301.166 104.548L327.829 119.951V150.757ZM260.689 111.479L247.325 103.778V72.9716L260.689 65.2701L274.053 57.5686L300.716 72.9716V103.778L287.352 111.479L273.988 119.181L260.689 111.479ZM328.793 150.307V119.437L301.616 103.778V72.4582L274.502 56.7985V25.4791L246.875 9.56268L219.248 25.4791V56.7985L192.07 72.4582V103.778L164.893 119.437V150.436H-19.2455V151.334H164.957L192.52 167.251L219.698 151.591L246.875 167.251L274.053 151.591L301.23 167.251L328.857 151.334V151.27H369.206V150.372H328.793V150.307ZM220.147 26.0567L246.811 10.6537L273.474 26.0567V56.8627L265.315 61.6119L246.875 72.2015L226.894 60.6492L220.212 56.7985V26.0567H220.147ZM219.248 150.757L192.584 166.16L165.921 150.757V119.951L192.584 104.548L207.683 113.276L219.248 119.951V150.757ZM206.334 111.479L192.97 103.778V72.9716L219.633 57.5686L234.796 66.3612L246.297 72.9716V103.778L234.796 110.388L219.633 119.181L206.334 111.479ZM273.539 150.757L246.875 166.16L220.212 150.757V119.951L226.894 116.1L246.875 104.548L265.379 115.201L273.539 119.951V150.757Z" fill="#DDDDDD"/>-->
<!--        <path d="M327.958 150.628L301.294 166.031L274.631 150.628V119.822L286.196 113.148L301.294 104.419L327.958 119.822V150.628ZM260.817 111.351L247.453 103.649V72.8433L260.817 65.1418L274.181 57.4403L300.845 72.8433V103.649L287.481 111.351L274.117 119.052L260.817 111.351ZM328.922 150.179V119.309L301.744 103.649V72.3298L274.567 56.6701V25.3507L246.939 9.43433L219.312 25.3507V56.6701L192.135 72.3298V103.649L164.957 119.309V150.307H-19.1171V151.206H165.086L192.649 167.122L219.826 151.463L247.004 167.122L274.181 151.463L301.359 167.122L328.986 151.206V151.142H369.399V150.243H328.922V150.179ZM220.34 25.8642L247.004 10.4612L273.667 25.8642V56.6701L265.508 61.4194L247.004 72.0731L227.022 60.5209L220.34 56.6701V25.8642ZM219.376 150.628L192.713 166.031L166.05 150.628V119.822L192.713 104.419L207.812 113.148L219.376 119.822V150.628ZM206.527 111.351L193.163 103.649V72.8433L219.826 57.4403L234.989 66.2328L246.49 72.8433V103.649L234.989 110.26L219.826 119.052L206.527 111.351ZM273.667 150.628L247.004 166.031L220.34 150.628V119.822L227.022 115.972L247.004 104.419L265.508 115.073L273.667 119.822V150.628Z" fill="#DCDCDC"/>-->
<!--        <path d="M328.151 150.5L301.487 165.903L274.759 150.5V119.694L286.324 113.019L301.423 104.291L328.086 119.694V150.5H328.151ZM260.946 111.222L247.582 103.521V72.7149L260.946 65.0134L274.31 57.3119L300.973 72.7149V103.521L287.609 111.222L274.245 118.924L260.946 111.222ZM329.05 150.051V119.181L301.873 103.521V72.2015L274.759 56.5418V25.2224L247.132 9.30597L219.505 25.2224V56.5418L192.327 72.2015V103.521L165.15 119.181V150.179H-18.9243V151.078H165.279L192.841 166.994L220.019 151.334L247.196 166.994L274.374 151.334L301.551 166.994L329.179 151.078V151.013H369.591V150.115H329.05V150.051ZM220.469 25.7358L247.132 10.3328L273.796 25.7358V56.5418L265.636 61.291L247.132 71.9448L227.151 60.3925L220.469 56.5418V25.7358ZM219.505 150.5L192.841 165.903L166.178 150.5V119.694L192.841 104.291L207.94 113.019L219.505 119.694V150.5ZM206.655 111.222L193.291 103.521V72.7149L219.955 57.3119L235.118 66.1045L246.618 72.7149V103.521L235.118 110.131L219.955 118.924L206.655 111.222ZM273.796 150.5L247.132 165.903L220.469 150.5V119.694L227.151 115.843L247.132 104.291L265.636 114.945L273.796 119.694V150.5Z" fill="#DBDBDB"/>-->
<!--        <path d="M328.279 150.372L301.616 165.775L274.952 150.372V119.566L286.517 112.891L301.616 104.163L328.279 119.566V150.372ZM261.074 111.094L247.71 103.393V72.5866L261.074 64.8851L274.438 57.1836L301.102 72.5866V103.393L287.738 111.094L274.374 118.796L261.074 111.094ZM329.179 149.922V119.052L302.001 103.393V72.0731L274.824 56.4134V25.094L247.196 9.17763L219.569 25.094V56.4134L192.52 72.0731V103.393L165.343 119.052V150.051H-18.7958V150.949H165.407L192.97 166.866L220.147 151.142L247.325 166.801L274.502 151.142L301.68 166.801L329.307 150.885V150.821H369.72V149.922H329.179ZM220.597 25.6075L247.261 10.2045L273.924 25.6075V56.4134L265.764 61.1627L247.261 71.8164L227.279 60.2642L220.597 56.4134V25.6075ZM219.633 150.372L192.97 165.775L166.307 150.372V119.566L192.97 104.163L208.069 112.891L219.633 119.566V150.372ZM206.784 111.094L193.42 103.393V72.5866L220.083 57.1836L235.246 65.9761L246.747 72.5866V103.393L235.246 110.003L220.147 118.731L206.784 111.094ZM273.988 150.372L247.325 165.775L220.661 150.372V119.566L227.343 115.715L247.325 104.163L265.829 114.816L273.988 119.566V150.372Z" fill="#DADADA"/>-->
<!--        <path d="M328.408 150.243L301.744 165.646L275.081 150.243V119.437L286.646 112.763L301.744 104.034L328.408 119.437V150.243ZM261.203 110.901L247.839 103.2V72.394L261.203 64.6925L274.567 56.991L301.23 72.394V103.2L287.866 110.901L274.502 118.603L261.203 110.901ZM329.371 149.73V118.86L302.194 103.2V71.8806L275.016 56.2209V24.9015L247.389 8.98508L219.762 24.9015V56.2209L192.584 71.8806V103.2L165.407 118.86V149.858H-18.6673V150.757H165.536L193.098 166.673L220.276 151.013L247.453 166.673L274.631 151.013L301.808 166.673L329.436 150.757V150.693H369.848V149.794H329.371V149.73ZM220.726 25.4791L247.389 10.0761L274.053 25.4791V56.2851L265.893 61.0343L247.389 71.6881L227.408 60.1358L220.726 56.2851V25.4791ZM219.762 150.243L193.098 165.646L166.435 150.243V119.437L193.098 104.034L208.197 112.763L219.762 119.437V150.243ZM206.912 110.901L193.548 103.2V72.394L220.212 56.991L235.375 65.7836L246.875 72.394V103.2L235.375 109.81L220.212 118.603L206.912 110.901ZM274.117 150.243L247.453 165.646L220.79 150.243V119.437L227.472 115.587L247.453 104.034L265.957 114.688L274.117 119.437V150.243Z" fill="#D9D9D9"/>-->
<!--        <path d="M328.536 150.051L301.873 165.454L275.209 150.051V119.245L286.774 112.57L301.873 103.842L328.536 119.245V150.051ZM261.396 110.773L248.032 103.072V72.2657L261.396 64.5642L274.759 56.8627L301.423 72.2657V103.072L288.059 110.773L274.695 118.475L261.396 110.773ZM329.5 149.601V118.731L302.322 103.072V71.7522L275.145 56.0925V24.7731L247.518 8.8567L219.89 24.7731V56.0925L192.713 71.7522V103.072L165.536 118.731V149.73H-18.5388V150.628H165.664L193.227 166.545L220.404 150.885L247.582 166.545L274.759 150.885L301.937 166.545L329.564 150.628V150.564H369.977V149.666H329.5V149.601ZM220.854 25.3507L247.518 9.94775L274.181 25.3507V56.1567L266.021 60.906L247.518 71.5597L227.536 60.0074L220.854 56.1567V25.3507ZM219.955 150.051L193.291 165.454L166.628 150.051V119.245L193.291 103.842L208.39 112.57L219.955 119.245V150.051ZM207.041 110.773L193.677 103.072V72.2657L220.34 56.8627L235.503 65.6552L247.004 72.2657V103.072L235.567 109.746L220.404 118.539L207.041 110.773ZM274.245 150.051L247.582 165.454L220.918 150.051V119.245L227.6 115.394L247.582 103.842L266.086 114.495L274.245 119.245V150.051Z" fill="#D9D9D9"/>-->
<!--        <path d="M328.665 149.922L302.001 165.325L275.338 149.922V119.116L286.902 112.442L302.001 103.713L328.665 119.116V149.922ZM261.524 110.645L248.16 102.943V72.1373L261.524 64.4358L274.888 56.7344L301.551 72.1373V102.943L288.187 110.645L274.824 118.346L261.524 110.645ZM329.628 149.473V118.603L302.451 102.943V71.6239L275.273 55.9642V24.6448L247.646 8.72838L220.019 24.6448V55.9642L192.841 71.6239V102.943L165.664 118.603V149.602H-18.4103V150.5H165.792L193.355 166.416L220.533 150.757L247.71 166.416L274.888 150.757L302.065 166.416L329.693 150.5V150.436H370.105V149.537H329.628V149.473ZM220.983 25.2224L247.646 9.81942L274.31 25.2224V56.0284L266.15 60.7776L247.646 71.4314L227.665 59.8791L220.983 56.0284V25.2224ZM220.083 149.922L193.42 165.325L166.756 149.922V119.116L193.42 103.713L208.518 112.442L220.083 119.116V149.922ZM207.169 110.645L193.805 102.943V72.1373L220.469 56.7344L235.632 65.5269L247.132 72.1373V102.943L235.632 109.554L220.469 118.346L207.169 110.645ZM274.374 149.922L247.71 165.325L221.047 149.922V119.116L227.729 115.266L247.71 103.713L266.214 114.367L274.374 119.116V149.922Z" fill="#D8D8D8"/>-->
<!--        <path d="M328.857 149.794L302.194 165.197L275.53 149.794V118.988L287.095 112.313L302.194 103.585L328.857 118.988V149.794ZM261.652 110.516L248.289 102.815V72.009L261.652 64.3075L275.016 56.606L301.68 72.009V102.815L288.316 110.516L274.952 118.218L261.652 110.516ZM329.757 149.345V118.475L302.579 102.815V71.4955L275.402 55.8358V24.5164L247.775 8.60001L220.147 24.5164V55.8358L192.97 71.4955V102.815L165.792 118.475V149.473H-18.2176V150.372H165.985L193.548 166.288L220.726 150.628L247.903 166.288L275.081 150.628L302.258 166.288L329.885 150.372V150.307H370.298V149.409H329.757V149.345ZM221.175 25.0299L247.839 9.62687L274.502 25.0299V55.8358L266.343 60.5851L247.839 71.2388L227.857 59.6866L221.175 55.8358V25.0299ZM220.212 149.794L193.548 165.197L166.885 149.794V118.988L193.548 103.585L208.647 112.313L220.212 118.988V149.794ZM207.362 110.516L193.998 102.815V72.009L220.661 56.606L235.824 65.3985L247.325 72.009V102.815L235.888 109.425L220.726 118.218L207.362 110.516ZM274.502 149.794L247.839 165.197L221.175 149.794V118.988L227.857 115.137L247.839 103.585L266.343 114.239L274.502 118.988V149.794Z" fill="#D7D7D7"/>-->
<!--        <path d="M328.986 149.666L302.322 165.069L275.659 149.666V118.86L287.224 112.185L302.322 103.457L328.986 118.86V149.666ZM261.781 110.388L248.417 102.687V71.8806L261.781 64.1791L275.145 56.4776L301.808 71.8806V102.687L288.444 110.388L275.081 118.09L261.781 110.388ZM329.885 149.216V118.346L302.708 102.687V71.3672L275.53 55.7075V24.3881L247.903 8.47165L220.276 24.3881V55.7075L193.163 71.3672V102.687L165.985 118.346V149.345H-18.0891V150.243H166.114L193.677 166.16L220.79 150.5L247.967 166.16L275.145 150.5L302.322 166.16L329.95 150.243V150.179H370.362V149.216H329.885ZM221.304 24.9015L247.967 9.49851L274.631 24.9015V55.7075L266.471 60.4567L247.967 71.1105L227.986 59.5582L221.304 55.7075V24.9015ZM220.34 149.666L193.677 165.069L167.013 149.666V118.86L193.677 103.457L208.775 112.185L220.34 118.86V149.666ZM207.49 110.388L194.126 102.687V71.8806L220.79 56.4776L235.953 65.2702L247.453 71.8806V102.687L235.953 109.297L220.79 118.09L207.49 110.388ZM274.631 149.666L247.967 165.069L221.304 149.666V118.86L227.986 115.009L247.967 103.457L266.471 114.11L274.631 118.86V149.666Z" fill="#D6D6D6"/>-->
<!--        <path d="M329.114 149.537L302.451 164.94L275.787 149.537V118.731L287.352 112.057L302.451 103.328L329.114 118.731V149.537ZM261.91 110.26L248.546 102.558V71.7523L261.91 64.0508L275.273 56.3493L301.937 71.7523V102.558L288.573 110.26L275.209 117.961L261.91 110.26ZM330.078 149.088V118.218L302.901 102.558V71.2388L275.723 55.5791V24.2597L248.096 8.34329L220.469 24.2597V55.5791L193.291 71.2388V102.558L166.178 118.218V149.216H-17.9606V150.115H166.242L193.805 166.031L220.983 150.372L248.16 166.031L275.338 150.372L302.515 166.031L330.142 150.115V150.051H370.555V149.152H330.078V149.088ZM221.432 24.7731L248.096 9.37016L274.759 24.7731V55.5791L266.6 60.3284L248.096 70.9179L228.114 59.3657L221.432 55.5149V24.7731ZM220.469 149.537L193.805 164.94L167.142 149.537V118.731L193.805 103.328L208.904 112.057L220.469 118.731V149.537ZM207.619 110.26L194.255 102.558V71.7523L220.918 56.3493L236.081 65.1418L247.582 71.7523V102.558L236.081 109.169L220.918 117.961L207.619 110.26ZM274.824 149.537L248.16 164.94L221.497 149.537V118.731L228.179 114.881L248.16 103.328L266.664 113.982L274.824 118.731V149.537Z" fill="#D5D5D5"/>-->
<!--        <path d="M329.243 149.345L302.579 164.748L275.916 149.345V118.539L287.481 111.864L302.579 103.136L329.243 118.539V149.345ZM262.038 110.067L248.674 102.366V71.5597L262.038 63.8582L275.402 56.1567L302.065 71.5597V102.366L288.702 110.067L275.402 117.769L262.038 110.067ZM330.207 148.896V118.025L303.029 102.366V71.0463L275.852 55.3866V24.0672L248.224 8.15076L220.597 24.0672V55.3866L193.42 71.0463V102.366L166.242 118.025V149.024H-17.832V149.922H166.371L193.934 165.839L221.111 150.179L248.289 165.839L275.466 150.179L302.644 165.839L330.271 149.922V149.858H370.684V148.96H330.207V148.896ZM221.561 24.6448L248.224 9.2418L274.888 24.6448V55.4508L266.728 60.2L248.224 70.8537L228.243 59.3015L221.561 55.4508V24.6448ZM220.661 149.345L193.998 164.748L167.335 149.345V118.539L193.998 103.136L209.097 111.864L220.661 118.539V149.345ZM207.747 110.067L194.448 102.366V71.5597L221.111 56.1567L236.274 64.9493L247.775 71.5597V102.366L236.274 108.976L221.111 117.769L207.747 110.067ZM274.952 149.345L248.289 164.748L221.625 149.345V118.539L228.307 114.688L248.289 103.136L266.793 113.79L274.952 118.539V149.345Z" fill="#D4D4D4"/>-->
<!--        <path d="M329.371 149.216L302.708 164.619L276.044 149.216V118.41L287.609 111.736L302.708 103.007L329.371 118.41V149.216ZM262.231 109.939L248.867 102.237V71.4314L262.231 63.7299L275.595 56.0284L302.258 71.4314V102.237L288.894 109.939L275.53 117.64L262.231 109.939ZM330.335 148.767V117.897L303.158 102.237V70.9179L276.044 55.2582V23.9388L248.417 8.0224L220.79 23.9388V55.2582L193.612 70.9179V102.237L166.435 117.897V148.896H-17.7036V149.794H166.499L194.062 165.71L221.24 150.051L248.417 165.71L275.595 150.051L302.772 165.71L330.399 149.794V149.73H370.812V148.831H330.335V148.767ZM221.689 24.5164L248.353 9.11345L275.016 24.5164V55.3224L266.857 60.0717L248.417 70.6612L228.436 59.109L221.754 55.2582V24.5164H221.689ZM220.79 149.216L194.126 164.619L167.463 149.216V118.41L194.126 103.007L209.225 111.736L220.79 118.41V149.216ZM207.876 109.939L194.512 102.237V71.4314L221.175 56.0284L236.338 64.8209L247.839 71.4314V102.237L236.338 108.848L221.175 117.64L207.876 109.939ZM275.081 149.216L248.417 164.619L221.754 149.216V118.41L228.436 114.56L248.417 103.007L266.921 113.661L275.081 118.41V149.216Z" fill="#D3D3D3"/>-->
<!--        <path d="M329.5 149.088L302.836 164.491L276.173 149.088V118.282L287.738 111.607L302.836 102.879L329.5 118.282V149.088ZM262.359 109.81L248.995 102.109V71.303L262.359 63.6015L275.723 55.9L302.387 71.303V102.109L289.023 109.81L275.659 117.512L262.359 109.81ZM330.464 148.639V117.769L303.286 102.109V70.7895L276.109 55.1298V23.8104L248.481 7.89403L220.854 23.8104V55.1298L193.677 70.7895V102.109L166.628 117.769V148.767H-17.5751V149.666H166.628L194.191 165.582L221.368 149.922L248.546 165.582L275.723 149.922L302.901 165.582L330.528 149.666V149.601H370.941V148.703H330.464V148.639ZM221.882 24.3239L248.546 8.92089L275.209 24.3239V55.1298L267.049 59.8791L248.546 70.5328L228.564 58.9806L221.882 55.1298V24.3239ZM220.918 149.088L194.255 164.491L167.591 149.088V118.282L194.255 102.879L209.354 111.607L220.918 118.282V149.088ZM208.069 109.81L194.705 102.109V71.303L221.368 55.9L236.531 64.6925L248.032 71.303V102.109L236.531 108.719L221.368 117.512L208.069 109.81ZM275.209 149.088L248.546 164.491L221.882 149.088V118.282L228.564 114.431L248.546 102.879L267.049 113.533L275.209 118.282V149.088Z" fill="#D2D2D2"/>-->
<!--        <path d="M329.693 148.96L303.029 164.363L276.366 148.96V118.154L287.931 111.479L303.029 102.751L329.693 118.154V148.96ZM262.488 109.682L249.124 101.981V71.1746L262.488 63.4731L275.852 55.7716L302.515 71.1746V101.981L289.151 109.682L275.787 117.384L262.488 109.682ZM330.592 148.51V117.64L303.415 101.981V70.6612L276.237 55.0015V23.6821L248.61 7.76567L220.983 23.6821V55.0015L193.805 70.6612V101.981L166.628 117.64V148.639H-17.3823V149.537H166.821L194.383 165.454L221.561 149.794L248.738 165.454L275.916 149.794L303.093 165.454L330.721 149.537V149.473H371.133V148.575H330.592V148.51ZM222.011 24.1955L248.674 8.79254L275.338 24.1955V55.0015L267.178 59.7507L248.674 70.4045L228.693 58.8522L222.011 55.0015V24.1955ZM221.047 148.96L194.383 164.363L167.72 148.96V118.154L194.383 102.751L209.482 111.479L221.047 118.154V148.96ZM208.197 109.682L194.833 101.981V71.1746L221.497 55.7716L236.66 64.5642L248.16 71.1746V101.981L236.66 108.591L221.497 117.384L208.197 109.682ZM275.338 148.96L248.674 164.363L222.011 148.96V118.154L228.693 114.303L248.674 102.751L267.178 113.404L275.338 118.154V148.96Z" fill="#D1D1D1"/>-->
<!--        <path d="M329.821 148.831L303.158 164.234L276.494 148.831V118.025L288.059 111.351L303.158 102.622L329.821 118.025V148.831ZM262.616 109.554L249.252 101.852V71.0462L262.616 63.3448L275.98 55.6433L302.644 71.0462V101.852L289.28 109.554L275.916 117.255L262.616 109.554ZM330.721 148.382V117.512L303.543 101.852V70.5328L276.43 54.8731V23.5537L248.803 7.6373L221.175 23.5537V54.8731L193.998 70.5328V101.852L166.82 117.512V148.51H-17.2538V149.409H166.949L194.512 165.325L221.689 149.666L248.867 165.325L276.044 149.666L303.222 165.325L330.849 149.409V149.345H371.133V148.446H330.721V148.382ZM222.139 24.0671L248.803 8.66416L275.466 24.0671V54.8731L267.306 59.6224L248.803 70.2761L228.821 58.7239L222.139 54.8731V24.0671ZM221.175 148.831L194.512 164.234L167.848 148.831V118.025L194.512 102.622L209.611 111.351L221.175 118.025V148.831ZM208.326 109.554L194.962 101.852V71.0462L221.625 55.6433L236.788 64.4358L248.289 71.0462V101.852L236.852 108.463L221.689 117.255L208.326 109.554ZM275.53 148.831L248.867 164.234L222.203 148.831V118.025L228.885 114.175L248.867 102.622L267.371 113.276L275.53 118.025V148.831Z" fill="#D0D0D0"/>-->
<!--        <path d="M330.078 148.51L303.415 163.913L276.751 148.51V117.704L288.316 111.03L303.415 102.301L330.078 117.704V148.51ZM262.938 109.233L249.574 101.531V70.7254L262.938 63.0239L276.301 55.3224L302.965 70.7254V101.531L289.601 109.233L276.237 116.934L262.938 109.233ZM331.042 148.061V117.191L303.864 101.531V70.2119L276.687 54.5522V23.2328L249.06 7.31641L221.432 23.2328V54.5522L194.255 70.2119V101.531L167.077 117.191V148.19H-16.9968V149.088H167.206L194.769 165.004L221.946 149.345L249.124 165.004L276.301 149.345L303.479 165.004L331.106 149.088V149.024H371.519V148.125H331.042V148.061ZM222.396 23.8104L249.06 8.40745L275.723 23.8104V54.6164L267.563 59.3657L249.06 70.0194L229.078 58.4672L222.396 54.6164V23.8104ZM221.497 148.51L194.833 163.913L168.17 148.51V117.704L194.833 102.301L209.932 111.03L221.497 117.704V148.51ZM208.583 109.233L195.219 101.531V70.7254L221.882 55.3224L237.045 64.1149L248.546 70.7254V101.531L237.045 108.142L221.882 116.934L208.583 109.233ZM275.787 148.51L249.124 163.913L222.46 148.51V117.704L229.142 113.854L249.124 102.301L267.628 112.955L275.787 117.704V148.51Z" fill="#CECECE"/>-->
<!--        <path d="M330.207 148.382L303.543 163.785L276.88 148.382V117.576L288.444 110.901L303.543 102.173L330.207 117.576V148.382ZM263.066 109.104L249.702 101.403V70.597L263.066 62.8955L276.43 55.194L303.093 70.597V101.403L289.729 109.104L276.366 116.806L263.066 109.104ZM331.17 147.933V117.063L303.993 101.403V70.0836L276.815 54.4239V23.1045L249.188 7.18805L221.561 23.1045V54.4239L194.448 70.0836V101.403L167.27 117.063V148.061H-16.8683V148.96H167.334L194.897 164.876L222.075 149.216L249.252 164.876L276.43 149.216L303.607 164.876L331.235 148.96V148.896H371.647V147.933H331.17ZM222.525 23.6821L249.188 8.27909L275.852 23.6821V54.488L267.692 59.2373L249.188 69.891L229.207 58.3388L222.525 54.488V23.6821ZM221.625 148.382L194.962 163.785L168.298 148.382V117.576L194.962 102.173L210.06 110.901L221.625 117.576V148.382ZM208.711 109.104L195.347 101.403V70.597L222.011 55.194L237.174 63.9866L248.674 70.597V101.403L237.174 108.013L222.075 116.806L208.711 109.104ZM275.916 148.382L249.252 163.785L222.589 148.382V117.576L229.271 113.725L249.252 102.173L267.756 112.827L275.916 117.576V148.382Z" fill="#CDCDCD"/>-->
<!--        <path d="M330.399 148.254L303.736 163.657L277.072 148.254V117.448L288.637 110.773L303.736 102.045L330.399 117.448V148.254ZM263.194 108.976L249.831 101.275V70.4687L263.194 62.7672L276.558 55.0657L303.222 70.4687V101.275L289.858 108.976L276.494 116.678L263.194 108.976ZM331.299 147.805V116.934L304.121 101.275V69.9552L276.944 54.2955V22.9761L249.317 7.05972L221.689 22.9761V54.2955L194.512 69.9552V101.275L167.463 116.934V147.933H-16.6756V148.831H167.527L195.09 164.748L222.268 149.088L249.445 164.748L276.623 149.088L303.8 164.748L331.427 148.831V148.767H371.84V147.869H331.299V147.805ZM222.717 23.4896L249.381 8.08659L276.044 23.4896V54.2955L267.885 59.0448L249.381 69.6985L229.399 58.1463L222.717 54.2955V23.4896ZM221.754 148.254L195.09 163.657L168.427 148.254V117.448L195.09 102.045L210.189 110.773L221.754 117.448V148.254ZM208.904 108.976L195.54 101.275V70.4687L222.203 55.0657L237.366 63.8582L248.867 70.4687V101.275L237.366 107.885L222.203 116.678L208.904 108.976ZM276.044 148.254L249.381 163.657L222.717 148.254V117.448L229.399 113.597L249.381 102.045L267.885 112.699L276.044 117.448V148.254Z" fill="#CCCCCC"/>-->
<!--        <path d="M330.528 148.125L303.864 163.528L277.201 148.125V117.319L288.766 110.645L303.864 101.916L330.528 117.319V148.125ZM263.323 108.848L249.959 101.146V70.3403L263.323 62.6388L276.687 54.9373L303.35 70.3403V101.146L289.987 108.848L276.623 116.549L263.323 108.848ZM331.427 147.676V116.806L304.314 101.146V69.8269L277.137 54.1672V22.8478L249.509 6.93135L221.882 22.8478V54.1672L194.705 69.8269V101.146L167.527 116.806V147.804H-16.5471V148.703H167.656L195.219 164.619L222.396 148.96L249.574 164.619L276.751 148.96L303.929 164.619L331.556 148.703V148.575H371.969V147.676H331.427ZM222.846 23.3612L249.509 7.95822L276.173 23.3612V54.1672L268.013 58.9164L249.509 69.5702L229.528 58.0179L222.846 54.1672V23.3612ZM221.882 148.125L195.219 163.528L168.555 148.125V117.319L195.219 101.916L210.317 110.645L221.882 117.319V148.125ZM209.032 108.848L195.668 101.146V70.3403L222.332 54.9373L237.495 63.7299L248.995 70.3403V101.146L237.495 107.757L222.332 116.549L209.032 108.848ZM276.173 148.125L249.509 163.528L222.846 148.125V117.319L229.528 113.469L249.509 101.916L268.013 112.57L276.173 117.319V148.125Z" fill="#CBCBCB"/>-->
<!--        <path d="M330.656 147.997L303.993 163.4L277.329 147.997V117.191L288.894 110.516L303.993 101.788L330.656 117.191V147.997ZM263.451 108.655L250.088 100.954V70.1478L263.451 62.4463L276.815 54.7448L303.479 70.1478V100.954L290.115 108.655L276.751 116.357L263.451 108.655ZM331.62 147.548V116.678L304.443 101.018V69.6985L277.265 54.0388V22.7194L249.638 6.80299L222.011 22.7194V54.0388L194.833 69.6985V101.018L167.656 116.678V147.676H-16.4186V148.575H167.784L195.347 164.491L222.525 148.831L249.702 164.491L276.88 148.831L304.057 164.491L331.684 148.575V148.51H372.097V147.612H331.62V147.548ZM222.974 23.2328L249.638 7.82986L276.301 23.2328V54.0388L268.142 58.7881L249.638 69.4418L229.656 57.8896L222.974 54.0388V23.2328ZM222.011 147.997L195.347 163.4L168.684 147.997V117.191L195.347 101.788L210.446 110.516L222.011 117.191V147.997ZM209.161 108.655L195.797 100.954V70.1478L222.46 54.7448L237.623 63.5373L249.124 70.1478V100.954L237.623 107.564L222.46 116.357L209.161 108.655ZM276.366 147.997L249.702 163.4L223.039 147.997V117.191L229.721 113.34L249.702 101.788L268.206 112.442L276.366 117.191V147.997Z" fill="#CACACA"/>-->
<!--        <path d="M330.785 147.804L304.121 163.207L277.458 147.804V116.999L289.023 110.324L304.121 101.596L330.785 116.999V147.804ZM263.644 108.527L250.28 100.825V70.0194L263.644 62.3179L277.008 54.6164L303.672 70.0194V100.825L290.308 108.527L276.944 116.228L263.644 108.527ZM331.749 147.355V116.485L304.571 100.825V69.506L277.394 53.8463V22.5269L249.766 6.61046L222.139 22.5269V53.8463L194.962 69.506V100.825L167.848 116.485V147.484H-16.2901V148.382H167.913L195.476 164.299L222.653 148.639L249.831 164.299L277.008 148.639L304.186 164.299L331.813 148.382V148.318H372.226V147.419H331.749V147.355ZM223.103 23.1045L249.766 7.7015L276.43 23.1045V53.9105L268.27 58.6597L249.766 69.3134L229.785 57.7612L223.103 53.9105V23.1045ZM222.203 147.804L195.54 163.207L168.876 147.804V116.999L195.54 101.596L210.639 110.324L222.203 116.999V147.804ZM209.289 108.527L195.925 100.825V70.0194L222.589 54.6164L237.752 63.409L249.252 70.0194V100.825L237.816 107.5L222.653 116.293L209.289 108.527ZM276.494 147.804L249.831 163.207L223.167 147.804V116.999L229.849 113.148L249.831 101.596L268.334 112.249L276.494 116.999V147.804Z" fill="#C9C9C9"/>-->
<!--        <path d="M330.913 147.676L304.25 163.079L277.586 147.676V116.87L289.151 110.196L304.25 101.467L330.913 116.87V147.676ZM263.773 108.399L250.409 100.697V69.8911L263.773 62.1896L277.137 54.4881L303.8 69.8911V100.697L290.436 108.399L277.072 116.1L263.773 108.399ZM331.877 147.227V116.357L304.7 100.697V69.3776L277.522 53.7179V22.3985L249.895 6.4821L222.268 22.3985V53.7179L195.09 69.3776V100.697L167.913 116.357V147.355H-16.1616V148.254H168.105L195.668 164.17L222.846 148.51L250.023 164.17L277.201 148.51L304.378 164.17L332.005 148.254V148.19H372.418V147.291H331.877V147.227ZM223.231 22.9761L249.895 7.57315L276.558 22.9761V53.7821L268.399 58.5314L249.895 69.1851L229.913 57.6329L223.231 53.7821V22.9761ZM222.332 147.676L195.668 163.079L169.005 147.676V116.87L195.668 101.467L210.767 110.196L222.332 116.87V147.676ZM209.418 108.399L196.054 100.697V69.8911L222.717 54.4881L237.88 63.2806L249.381 69.8911V100.697L237.88 107.307L222.717 116.1L209.418 108.399ZM276.623 147.676L249.959 163.079L223.296 147.676V116.87L229.978 113.019L249.959 101.467L268.463 112.121L276.623 116.87V147.676Z" fill="#C8C8C8"/>-->
<!--        <path d="M331.042 147.548L304.378 162.951L277.715 147.548V116.742L289.28 110.067L304.378 101.339L331.042 116.742V147.548ZM263.901 108.27L250.537 100.569V69.7627L263.901 62.0612L277.265 54.3597L303.929 69.7627V100.569L290.565 108.27L277.201 115.972L263.901 108.27ZM332.005 147.099V116.228L304.828 100.569V69.2493L277.715 53.5896V22.2701L250.088 6.35373L222.46 22.2701V53.5896L195.283 69.2493V100.569L168.105 116.228V147.227H-16.0331V148.125H168.17L195.733 164.042L222.91 148.382L250.088 164.042L277.265 148.382L304.443 164.042L332.07 148.125V148.061H372.418V147.163H332.005V147.099ZM223.424 22.7836L250.088 7.3806L276.751 22.7836V53.5896L268.591 58.3388L250.088 68.9925L230.106 57.4403L223.424 53.5896V22.7836ZM222.46 147.548L195.797 162.951L169.133 147.548V116.742L195.797 101.339L210.896 110.067L222.46 116.742V147.548ZM209.611 108.27L196.247 100.569V69.7627L222.91 54.3597L238.073 63.1522L249.574 69.7627V100.569L238.137 107.179L222.974 115.972L209.611 108.27ZM276.751 147.548L250.088 162.951L223.424 147.548V116.742L230.106 112.891L250.088 101.339L268.591 111.993L276.751 116.742V147.548Z" fill="#C7C7C7"/>-->
<!--        <path d="M331.235 147.419L304.571 162.822L277.908 147.419V116.613L289.472 109.939L304.571 101.21L331.235 116.613V147.419ZM264.03 108.142L250.666 100.44V69.6343L264.03 61.9328L277.394 54.2313L304.057 69.6343V100.44L290.693 108.142L277.329 115.843L264.03 108.142ZM332.134 146.97V116.1L305.021 100.44V69.1209L277.843 53.4612V22.1418L250.216 6.22537L222.589 22.1418V53.4612L195.411 69.1209V100.44L168.234 116.1V147.098H-15.8403V147.997H168.362L195.925 163.913L223.103 148.254L250.28 163.913L277.458 148.254L304.635 163.913L332.263 147.997V147.933H372.675V147.034H332.134V146.97ZM223.553 22.6552L250.216 7.25224L276.88 22.6552V53.4612L268.72 58.2104L250.216 68.8642L230.235 57.3119L223.553 53.4612V22.6552ZM222.589 147.419L195.925 162.822L169.262 147.419V116.613L195.925 101.21L211.024 109.939L222.589 116.613V147.419ZM209.739 108.142L196.375 100.44V69.6343L223.039 54.2313L238.202 63.0239L249.702 69.6343V100.44L238.202 107.051L223.039 115.843L209.739 108.142ZM276.88 147.419L250.216 162.822L223.553 147.419V116.613L230.235 112.763L250.216 101.21L268.72 111.864L276.88 116.613V147.419Z" fill="#C6C6C6"/>-->
<!--        <path d="M331.363 147.291L304.7 162.694L277.972 147.291V116.485L289.537 109.81L304.635 101.082L331.299 116.485V147.291H331.363ZM264.158 108.013L250.794 100.312V69.506L264.158 61.8045L277.522 54.103L304.186 69.506V100.312L290.822 108.013L277.458 115.715L264.158 108.013ZM332.327 146.842V115.972L305.149 100.312V68.9925L277.972 53.3328V22.0134L250.345 6.09702L222.717 22.0134V53.3328L195.604 68.9925V100.312L168.427 115.972V146.97H-15.7119V147.869H168.491L196.054 163.785L223.231 148.125L250.409 163.785L277.586 148.125L304.764 163.785L332.391 147.869V147.804H372.804V146.906H332.327V146.842ZM223.681 22.5269L250.345 7.12388L277.008 22.5269V53.3328L268.848 58.0821L250.345 68.6716L230.363 57.1194L223.681 53.2687V22.5269ZM222.717 147.291L196.054 162.694L169.39 147.291V116.485L196.054 101.082L211.153 109.81L222.717 116.485V147.291ZM209.868 108.013L196.504 100.312V69.506L223.167 54.103L238.33 62.8955L249.831 69.506V100.312L238.33 106.922L223.167 115.715L209.868 108.013ZM277.072 147.291L250.409 162.694L223.745 147.291V116.485L230.427 112.634L250.409 101.082L268.913 111.736L277.072 116.485V147.291Z" fill="#C5C5C5"/>-->
<!--        <path d="M331.492 147.163L304.828 162.566L278.165 147.163V116.357L289.729 109.682L304.828 100.954L331.492 116.357V147.163ZM264.287 107.821L250.923 100.119V69.3134L264.287 61.6119L277.651 53.9104L304.314 69.3134V100.119L290.95 107.821L277.586 115.522L264.287 107.821ZM332.455 146.649V115.843L305.278 100.184V68.8642L278.1 53.2045V21.8209L250.473 5.90448L222.846 21.8209V53.1403L195.733 68.8V100.119L168.555 115.843V146.842H-15.5833V147.74H168.62L196.182 163.657L223.36 147.933L250.537 163.593L277.715 147.933L304.892 163.593L332.52 147.676V147.612H372.932V146.649H332.455ZM223.81 22.3985L250.473 6.99552L277.137 22.3985V53.2045L268.977 57.9537L250.473 68.6075L230.492 57.0552L223.81 53.2045V22.3985ZM222.846 147.163L196.182 162.566L169.519 147.163V116.357L196.182 100.954L211.281 109.682L222.846 116.357V147.163ZM209.996 107.821L196.632 100.119V69.3134L223.296 53.9104L238.459 62.703L249.959 69.3134V100.119L238.459 106.73L223.36 115.522L209.996 107.821ZM277.201 147.163L250.537 162.566L223.874 147.163V116.357L230.556 112.506L250.537 100.954L269.041 111.607L277.201 116.357V147.163Z" fill="#C4C4C4"/>-->
<!--        <path d="M331.62 146.97L304.957 162.373L278.293 146.97V116.164L289.858 109.49L304.957 100.761L331.62 116.164V146.97ZM264.48 107.693L251.116 99.991V69.1851L264.48 61.4836L277.843 53.7821L304.507 69.1851V99.991L291.143 107.693L277.779 115.394L264.48 107.693ZM332.584 146.521V115.651L305.406 99.991V68.6716L278.229 53.0119V21.6925L250.602 5.77612L222.974 21.6925V53.0119L195.797 68.6716V99.991L168.62 115.651V146.649H-15.4548V147.548H168.748L196.311 163.464L223.488 147.804L250.666 163.464L277.843 147.804L305.021 163.464L332.648 147.548V147.484H373.061V146.585H332.584V146.521ZM223.938 22.2702L250.602 6.86717L277.265 22.2702V53.0761L269.105 57.8254L250.602 68.4791L230.62 56.9269L223.938 53.0761V22.2702ZM223.039 146.97L196.375 162.373L169.712 146.97V116.164L196.375 100.761L211.474 109.49L223.039 116.164V146.97ZM210.125 107.693L196.761 99.991V69.1851L223.424 53.7821L238.587 62.5746L250.088 69.1851V99.991L238.587 106.601L223.424 115.394L210.125 107.693ZM277.329 146.97L250.666 162.373L224.002 146.97V116.164L230.684 112.313L250.666 100.761L269.17 111.415L277.329 116.164V146.97Z" fill="#C3C3C3"/>-->
<!--        <path d="M331.749 146.842L305.085 162.245L278.422 146.842V116.036L289.986 109.361L305.085 100.633L331.749 116.036V146.842ZM264.608 107.564L251.244 99.8627V69.0567L264.608 61.3552L277.972 53.6537L304.635 69.0567V99.8627L291.271 107.564L277.908 115.266L264.608 107.564ZM332.712 146.393V115.522L305.535 99.8627V68.5433L278.357 52.8836V21.5642L250.73 5.64775L223.103 21.5642V52.8836L195.925 68.5433V99.8627L168.748 115.522V146.521H-15.3264V147.419H168.876L196.439 163.336L223.617 147.676L250.794 163.336L277.972 147.676L305.149 163.336L332.777 147.419V147.291H373.189V146.393H332.712ZM224.067 22.1418L250.73 6.7388L277.394 22.1418V52.9478L269.234 57.697L250.73 68.3507L230.749 56.7985L224.067 52.9478V22.1418ZM223.167 146.842L196.504 162.245L169.84 146.842V116.036L196.504 100.633L211.602 109.361L223.167 116.036V146.842ZM210.253 107.564L196.889 99.8627V69.0567L223.553 53.6537L238.715 62.4463L250.216 69.0567V99.8627L238.715 106.473L223.553 115.266L210.253 107.564ZM277.458 146.842L250.794 162.245L224.131 146.842V116.036L230.813 112.185L250.794 100.633L269.298 111.287L277.458 116.036V146.842Z" fill="#C2C2C2"/>-->
<!--        <path d="M331.941 146.713L305.278 162.116L278.614 146.713V115.907L290.179 109.233L305.278 100.504L331.941 115.907V146.713ZM264.736 107.436L251.373 99.7343V68.9284L264.736 61.2269L278.1 53.5254L304.764 68.9284V99.7343L291.4 107.436L278.036 115.137L264.736 107.436ZM332.841 146.264V115.394L305.663 99.7343V68.4149L278.486 52.7552V21.4358L250.859 5.51939L223.231 21.4358V52.7552L196.054 68.4149V99.7343L168.876 115.394V146.393H-15.1336V147.291H169.069L196.632 163.207L223.81 147.548L250.987 163.207L278.165 147.548L305.342 163.207L332.969 147.291V147.227H373.382V146.328H332.841V146.264ZM224.259 21.9492L250.923 6.54626L277.586 21.9492V52.7552L269.427 57.5045L250.923 68.1582L230.941 56.606L224.259 52.7552V21.9492ZM223.296 146.713L196.632 162.116L169.969 146.713V115.907L196.632 100.504L211.731 109.233L223.296 115.907V146.713ZM210.446 107.436L197.082 99.7343V68.9284L223.745 53.5254L238.908 62.3179L250.409 68.9284V99.7343L238.908 106.345L223.745 115.137L210.446 107.436ZM277.586 146.713L250.923 162.116L224.259 146.713V115.907L230.941 112.057L250.923 100.504L269.427 111.158L277.586 115.907V146.713Z" fill="#C1C1C1"/>-->
<!--        <path d="M332.07 146.585L305.406 161.988L278.743 146.585V115.779L290.308 109.104L305.406 100.376L332.07 115.779V146.585ZM264.865 107.307L251.501 99.606V68.8L264.865 61.0985L278.229 53.397L304.892 68.8V99.606L291.528 107.307L278.165 115.009L264.865 107.307ZM332.969 146.136V115.266L305.792 99.606V68.2866L278.614 52.6269V21.3075L250.987 5.39105L223.36 21.3075V52.6269L196.182 68.2866V99.606L169.005 115.266V146.264H-15.0051V147.163H169.198L196.761 163.079L223.938 147.419L251.116 163.079L278.293 147.419L305.471 163.079L333.098 147.163V147.099H373.511V146.2H332.969V146.136ZM224.388 21.8209L251.051 6.41792L277.715 21.8209V52.6269L269.555 57.3761L251.051 68.0299L231.07 56.4776L224.388 52.6269V21.8209ZM223.424 146.585L196.761 161.988L170.097 146.585V115.779L196.761 100.376L211.859 109.104L223.424 115.779V146.585ZM210.574 107.307L197.21 99.606V68.8L223.874 53.397L239.037 62.1896L250.537 68.8V99.606L239.101 106.216L223.938 115.009L210.574 107.307ZM277.715 146.585L251.051 161.988L224.388 146.585V115.779L231.07 111.928L251.051 100.376L269.555 111.03L277.715 115.779V146.585Z" fill="#C0C0C0"/>-->
<!--        <path d="M332.198 146.457L305.535 161.86L278.871 146.457V115.651L290.436 108.976L305.535 100.248L332.198 115.651V146.457ZM264.993 107.115L251.63 99.4134V68.6075L264.993 60.906L278.357 53.2045L305.021 68.6075V99.4134L291.657 107.115L278.293 114.816L264.993 107.115ZM333.162 146.007V115.137L305.985 99.4776V68.1582L278.807 52.4985V21.1791L251.18 5.2627L223.553 21.1791V52.4985L196.375 68.1582V99.4776L169.198 115.137V146.136H-14.8766V147.034H169.326L196.889 162.951L224.067 147.291L251.244 162.951L278.422 147.291L305.599 162.951L333.226 147.034V146.97H373.639V146.007H333.162ZM224.516 21.6925L251.18 6.28956L277.843 21.6925V52.4985L269.684 57.2478L251.18 67.9015L231.198 56.3493L224.516 52.4985V21.6925ZM223.553 146.457L196.889 161.86L170.226 146.457V115.651L196.889 100.248L211.988 108.976L223.553 115.651V146.457ZM210.703 107.115L197.339 99.4134V68.6075L224.002 53.2045L239.165 61.997L250.666 68.6075V99.4134L239.165 106.024L224.002 114.816L210.703 107.115ZM277.908 146.457L251.244 161.86L224.581 146.457V115.651L231.263 111.8L251.244 100.248L269.748 110.901L277.908 115.651V146.457Z" fill="#BFBFBF"/>-->
<!--        <path d="M332.327 146.264L305.663 161.667L279 146.264V115.458L290.565 108.784L305.663 100.055L332.327 115.458V146.264ZM265.186 106.987L251.822 99.2851V68.4791L265.186 60.7776L278.55 53.0761L305.214 68.4791V99.2851L291.85 106.987L278.486 114.688L265.186 106.987ZM333.29 145.815V114.945L306.113 99.2851V67.9657L279 52.306V20.9866L251.373 5.07014L223.745 20.9866V52.306L196.568 67.9657V99.2851L169.39 114.945V145.943H-14.7481V146.842H169.455L197.018 162.758L224.195 147.098L251.373 162.758L278.55 147.098L305.728 162.758L333.355 146.842V146.778H373.703V145.879H333.29V145.815ZM224.645 21.5642L251.308 6.16119L277.972 21.5642V52.3701L269.812 57.1194L251.373 67.7089L231.391 56.1567L224.645 52.306V21.5642ZM223.745 146.264L197.082 161.667L170.418 146.264V115.458L197.082 100.055L212.181 108.784L223.745 115.458V146.264ZM210.831 106.987L197.467 99.2851V68.4791L224.131 53.0761L239.294 61.8686L250.794 68.4791V99.2851L239.294 105.896L224.131 114.688L210.831 106.987ZM278.036 146.264L251.373 161.667L224.709 146.264V115.458L231.391 111.607L251.373 100.055L269.876 110.709L278.036 115.458V146.264Z" fill="#BEBEBE"/>-->
<!--        <path d="M332.455 146.136L305.792 161.539L279.128 146.136V115.33L290.693 108.655L305.792 99.9269L332.455 115.33V146.136ZM265.315 106.858L251.951 99.1567V68.3508L265.315 60.6493L278.679 52.9478L305.342 68.3508V99.1567L291.978 106.858L278.614 114.56L265.315 106.858ZM333.419 145.687V114.816L306.241 99.1567V67.8373L279.064 52.1776V20.8582L251.437 4.9418L223.81 20.8582V52.1776L196.632 67.8373V99.1567L169.455 114.816V145.815H-14.6196V146.713H169.583L197.146 162.63L224.324 146.97L251.501 162.63L278.679 146.97L305.856 162.63L333.483 146.713V146.649H373.896V145.751H333.419V145.687ZM224.773 21.4358L251.437 6.03285L278.1 21.4358V52.2418L269.941 56.9911L251.437 67.6448L231.455 56.0925L224.773 52.2418V21.4358ZM223.874 146.136L197.21 161.539L170.547 146.136V115.33L197.21 99.9269L212.309 108.655L223.874 115.33V146.136ZM210.96 106.858L197.66 99.1567V68.3508L224.324 52.9478L239.486 61.7403L250.987 68.3508V99.1567L239.486 105.767L224.324 114.56L210.96 106.858ZM278.165 146.136L251.501 161.539L224.838 146.136V115.33L231.52 111.479L251.501 99.9269L270.005 110.581L278.165 115.33V146.136Z" fill="#BDBDBD"/>-->
<!--        <path d="M332.584 146.007L305.92 161.41L279.257 146.007V115.202L290.822 108.527L305.92 99.7985L332.584 115.202V146.007ZM265.443 106.73L252.079 99.0284V68.2224L265.443 60.5209L278.807 52.8194L305.471 68.2224V99.0284L292.107 106.73L278.743 114.431L265.443 106.73ZM333.548 145.558V114.688L306.37 99.0284V67.709L279.257 52.0493V20.7299L251.63 4.81345L224.002 20.7299V52.0493L196.825 67.709V99.0284L169.647 114.688V145.687H-14.4911V146.585H169.712L197.275 162.502L224.452 146.842L251.63 162.502L278.807 146.842L305.985 162.502L333.612 146.585V146.521H374.025V145.622H333.548V145.558ZM224.966 21.2433L251.63 5.84031L278.293 21.2433V52.0493L270.133 56.7985L251.63 67.4523L231.648 55.9L224.966 52.0493V21.2433ZM224.002 146.007L197.339 161.41L170.675 146.007V115.202L197.339 99.7985L212.438 108.527L224.002 115.202V146.007ZM211.153 106.73L197.789 99.0284V68.2224L224.452 52.8194L239.615 61.612L251.116 68.2224V99.0284L239.615 105.639L224.452 114.431L211.153 106.73ZM278.293 146.007L251.63 161.41L224.966 146.007V115.202L231.648 111.351L251.63 99.7985L270.133 110.452L278.293 115.202V146.007Z" fill="#BCBCBC"/>-->
<!--        <path d="M332.777 145.879L306.113 161.282L279.45 145.879V115.073L291.014 108.398L306.113 99.6701L332.777 115.073V145.879ZM265.572 106.601L252.208 98.9V68.094L265.572 60.3925L278.936 52.691L305.599 68.094V98.9L292.235 106.601L278.871 114.303L265.572 106.601ZM333.676 145.43V114.56L306.499 98.9V67.5806L279.321 51.9209V20.6015L251.694 4.68507L224.067 20.6015V51.9209L196.889 67.5806V98.9L169.84 114.56V145.558H-14.2983V146.457H169.904L197.467 162.373L224.645 146.713L251.822 162.373L279 146.713L306.177 162.373L333.805 146.457V146.393H374.217V145.494H333.676V145.43ZM225.095 21.1149L251.758 5.71194L278.422 21.1149V51.9209L270.262 56.6701L251.758 67.3239L231.777 55.7716L225.095 51.9209V21.1149ZM224.131 145.879L197.467 161.282L170.804 145.879V115.073L197.467 99.6701L212.566 108.398L224.131 115.073V145.879ZM211.281 106.601L197.917 98.9V68.094L224.581 52.691L239.744 61.4836L251.244 68.094V98.9L239.744 105.51L224.581 114.303L211.281 106.601ZM278.422 145.879L251.758 161.282L225.095 145.879V115.073L231.777 111.222L251.758 99.6701L270.262 110.324L278.422 115.073V145.879Z" fill="#BBBBBB"/>-->
        <path d="M332.905 145.751L306.242 161.154L279.578 145.751V114.945L291.143 108.27L306.242 99.5418L332.905 114.945V145.751ZM265.7 106.473L252.336 98.7716V67.9657L265.7 60.2642L279.064 52.5627L305.728 67.9657V98.7716L292.364 106.473L279 114.175L265.7 106.473ZM333.869 145.301V114.431L306.691 98.7716V67.4522L279.514 51.7925V20.4731L251.887 4.55672L224.259 20.4731V51.7925L197.082 67.4522V98.7716L169.904 114.431V145.43H-14.1699V146.328H170.033L197.596 162.245L224.773 146.585L251.951 162.245L279.128 146.585L306.306 162.245L333.933 146.328V146.264H374.346V145.366H333.869V145.301ZM225.223 20.9866L251.887 5.58358L278.55 20.9866V51.7925L270.39 56.5418L251.887 67.1955L231.905 55.6433L225.223 51.7925V20.9866ZM224.259 145.751L197.596 161.154L170.932 145.751V114.945L197.596 99.5418L212.695 108.27L224.259 114.945V145.751ZM211.41 106.473L198.046 98.7716V67.9657L224.709 52.5627L239.872 61.3552L251.373 67.9657V98.7716L239.872 105.382L224.709 114.175L211.41 106.473ZM278.614 145.751L251.951 161.154L225.287 145.751V114.945L231.969 111.094L251.951 99.5418L270.455 110.195L278.614 114.945V145.751Z" fill="#BABABA"/>
        <path d="M333.034 145.622L306.37 161.025L279.707 145.622V114.816L291.271 108.142L306.37 99.4134L333.034 114.816V145.622ZM265.829 106.281L252.465 98.5791V67.7731L265.829 60.0716L279.193 52.3701L305.856 67.7731V98.5791L292.492 106.281L279.128 113.982L265.829 106.281ZM333.997 145.109V114.239L306.82 98.5791V67.2597L279.642 51.6V20.2806L252.015 4.36418L224.388 20.2806V51.6L197.21 67.2597V98.5791L170.033 114.239V145.237H-14.0414V146.136H170.161L197.724 162.052L224.902 146.393L252.079 162.052L279.257 146.393L306.434 162.052L334.062 146.136V146.072H374.346V145.173H333.997V145.109ZM225.352 20.8582L252.015 5.45523L278.679 20.8582V51.6642L270.519 56.4134L252.015 67.0672L232.034 55.5149L225.352 51.6642V20.8582ZM224.388 145.622L197.724 161.025L171.061 145.622V114.816L197.724 99.4134L212.823 108.142L224.388 114.816V145.622ZM211.538 106.281L198.174 98.5791V67.7731L224.838 52.3701L240 61.1627L251.501 67.7731V98.5791L240.065 105.254L224.902 114.046L211.538 106.281ZM278.743 145.622L252.079 161.025L225.416 145.622V114.816L232.098 110.966L252.079 99.4134L270.583 110.067L278.743 114.816V145.622Z" fill="#B9B9B9"/>
        <path d="M333.162 145.43L306.499 160.833L279.835 145.43V114.624L291.4 107.949L306.499 99.2209L333.162 114.624V145.43ZM266.021 106.152L252.658 98.4507V67.6448L266.021 59.9433L279.385 52.2418L306.049 67.6448V98.4507L292.685 106.152L279.321 113.854L266.021 106.152ZM334.126 144.981V114.11L306.948 98.4507V67.1313L279.771 51.4716V20.1522L252.144 4.23582L224.516 20.1522V51.4716L197.339 67.1313V98.4507L170.161 114.11V145.109H-13.9128V146.007H170.29L197.853 161.924L225.03 146.264L252.208 161.924L279.385 146.264L306.563 161.924L334.19 146.007V145.943H374.603V145.045H334.126V144.981ZM225.48 20.7299L252.144 5.32687L278.807 20.7299V51.5358L270.647 56.2851L252.144 66.9388L232.162 55.3866L225.48 51.5358V20.7299ZM224.581 145.43L197.917 160.833L171.254 145.43V114.624L197.917 99.2209L213.016 107.949L224.581 114.624V145.43ZM211.667 106.152L198.303 98.4507V67.6448L224.966 52.2418L240.129 61.0343L251.63 67.6448V98.4507L240.129 105.061L224.966 113.854L211.667 106.152ZM278.871 145.43L252.208 160.833L225.544 145.43V114.624L232.226 110.773L252.208 99.2209L270.712 109.875L278.871 114.624V145.43Z" fill="#B8B8B8"/>
        <path d="M333.29 145.301L306.627 160.704L279.964 145.301V114.496L291.528 107.821L306.627 99.0925L333.29 114.496V145.301ZM266.15 106.024L252.786 98.3224V67.5164L266.15 59.8149L279.514 52.1134L306.177 67.5164V98.3224L292.813 106.024L279.45 113.725L266.15 106.024ZM334.254 144.852V113.982L307.077 98.3224V67.003L279.899 51.3433V20.0239L252.272 4.10747L224.645 20.0239V51.3433L197.467 67.003V98.3224L170.29 113.982V144.981H-13.7844V145.879H170.418L197.981 161.796L225.159 146.136L252.336 161.796L279.514 146.136L306.691 161.796L334.318 145.879V145.815H374.731V144.916H334.254V144.852ZM225.673 20.6015L252.336 5.19851L279 20.6015V51.4075L270.84 56.1567L252.336 66.8104L232.355 55.2582L225.673 51.4075V20.6015ZM224.709 145.301L198.046 160.704L171.382 145.301V114.496L198.046 99.0925L213.144 107.821L224.709 114.496V145.301ZM211.859 106.024L198.495 98.3224V67.5164L225.159 52.1134L240.322 60.906L251.822 67.5164V98.3224L240.386 104.933L225.223 113.725L211.859 106.024ZM279 145.301L252.336 160.704L225.673 145.301V114.496L232.355 110.645L252.336 99.0925L270.84 109.746L279 114.496V145.301Z" fill="#B7B7B7"/>
        <path d="M333.483 145.173L306.82 160.576L280.156 145.173V114.367L291.721 107.693L306.82 98.9641L333.483 114.367V145.173ZM266.278 105.896L252.915 98.194V67.388L266.278 59.6866L279.642 51.9851L306.306 67.388V98.194L292.942 105.896L279.578 113.597L266.278 105.896ZM334.383 144.724V113.854L307.205 98.194V66.8746L280.028 51.2149V19.8955L252.401 3.9791L224.773 19.8955V51.2149L197.66 66.8746V98.194L170.483 113.854V144.852H-13.5916V145.751H170.611L198.174 161.667L225.287 146.007L252.465 161.667L279.642 146.007L306.82 161.667L334.447 145.751V145.687H374.86V144.724H334.383ZM225.801 20.4089L252.465 5.00596L279.128 20.4089V51.2149L270.969 55.9642L252.465 66.6179L232.483 55.0657L225.801 51.2149V20.4089ZM224.838 145.173L198.174 160.576L171.511 145.173V114.367L198.174 98.9641L213.273 107.693L224.838 114.367V145.173ZM211.988 105.896L198.624 98.194V67.388L225.287 51.9851L240.45 60.7776L251.951 67.388V98.194L240.45 104.804L225.287 113.597L211.988 105.896ZM279.128 145.173L252.465 160.576L225.801 145.173V114.367L232.483 110.516L252.465 98.9641L270.969 109.618L279.128 114.367V145.173Z" fill="#B6B6B6"/>
        <path d="M333.612 145.045L306.948 160.448L280.285 145.045V114.239L291.85 107.564L306.948 98.8358L333.612 114.239V145.045ZM266.407 105.767L253.043 98.0657V67.2597L266.407 59.5582L279.771 51.8567L306.434 67.2597V98.0657L293.07 105.767L279.707 113.469L266.407 105.767ZM334.511 144.596V113.725L307.334 98.0657V66.7463L280.156 51.0866V19.7672L252.529 3.85074L224.902 19.7672V51.0866L197.724 66.7463V98.0657L170.675 113.725V144.724H-13.4631V145.622H170.74L198.303 161.539L225.48 145.879L252.658 161.539L279.835 145.879L307.013 161.539L334.64 145.622V145.558H375.053V144.66H334.511V144.596ZM225.93 20.2806L252.593 4.8776L279.257 20.2806V51.0866L271.097 55.8358L252.593 66.4254L232.612 54.8731L225.93 51.0224V20.2806ZM224.966 145.045L198.303 160.448L171.639 145.045V114.239L198.303 98.8358L213.401 107.564L224.966 114.239V145.045ZM212.116 105.767L198.752 98.0657V67.2597L225.416 51.8567L240.579 60.6493L252.079 67.2597V98.0657L240.579 104.676L225.416 113.469L212.116 105.767ZM279.257 145.045L252.593 160.448L225.93 145.045V114.239L232.612 110.388L252.593 98.8358L271.097 109.49L279.257 114.239V145.045Z" fill="#B5B5B5"/>
        <path d="M333.74 144.916L307.077 160.319L280.413 144.916V114.11L291.978 107.436L307.077 98.7075L333.74 114.11V144.916ZM266.535 105.575L253.172 97.8731V67.0672L266.535 59.3657L279.899 51.6642L306.563 67.0672V97.8731L293.199 105.575L279.899 113.276L266.535 105.575ZM334.704 144.403V113.533L307.527 97.9373V66.6179L280.349 50.9582V19.6388L252.722 3.7224L225.095 19.6388V50.9582L197.917 66.6179V97.9373L170.74 113.597V144.596H-13.3346V145.494H170.868L198.431 161.41L225.609 145.751L252.786 161.41L279.964 145.751L307.141 161.41L334.768 145.494V145.366H375.181V144.467H334.704V144.403ZM226.058 20.1522L252.722 4.74926L279.385 20.1522V50.9582L271.226 55.7075L252.722 66.3612L232.74 54.809L226.058 50.9582V20.1522ZM225.095 144.916L198.431 160.319L171.768 144.916V114.11L198.431 98.7075L213.53 107.436L225.095 114.11V144.916ZM212.245 105.575L198.881 97.8731V67.0672L225.544 51.6642L240.707 60.4567L252.208 67.0672V97.8731L240.707 104.484L225.609 113.276L212.245 105.575ZM279.45 144.916L252.786 160.319L226.123 144.916V114.11L232.805 110.26L252.786 98.7075L271.29 109.361L279.45 114.11V144.916Z" fill="#B4B4B4"/>
        <path d="M333.869 144.724L307.205 160.127L280.542 144.724V113.918L292.107 107.243L307.205 98.5149L333.869 113.918V144.724ZM266.728 105.446L253.364 97.7448V66.9388L266.728 59.2373L280.092 51.5358L306.756 66.9388V97.7448L293.392 105.446L280.028 113.148L266.728 105.446ZM334.833 144.275V113.404L307.655 97.7448V66.4254L280.542 50.7657V19.4463L252.915 3.52985L225.287 19.4463V50.7657L198.11 66.4254V97.7448L170.932 113.404V144.403H-13.2061V145.301H170.997L198.56 161.218L225.737 145.558L252.915 161.218L280.092 145.558L307.27 161.218L334.897 145.301V145.237H375.31V144.339H334.833V144.275ZM226.187 20.0239L252.85 4.62089L279.514 20.0239V50.8298L271.354 55.5791L252.915 66.1687L232.933 54.6164L226.251 50.7657V20.0239H226.187ZM225.287 144.724L198.624 160.127L171.96 144.724V113.918L198.624 98.5149L213.723 107.243L225.287 113.918V144.724ZM212.373 105.446L199.009 97.7448V66.9388L225.673 51.5358L240.836 60.3284L252.336 66.9388V97.7448L240.836 104.355L225.673 113.148L212.373 105.446ZM279.578 144.724L252.915 160.127L226.251 144.724V113.918L232.933 110.067L252.915 98.5149L271.418 109.169L279.578 113.918V144.724Z" fill="#B3B3B3"/>
    </g>
    <path d="M334.833 144.275V113.404L307.655 97.7448V66.4254L280.542 50.7657V19.4463L252.915 3.52985L225.287 19.4463V50.7657L198.11 66.4254V97.7448L170.932 113.404V144.403H-13.2061V145.301H170.997L198.56 161.218L225.737 145.558L252.915 161.218L280.092 145.558L307.27 161.218L334.897 145.301V145.237H375.31V144.339H334.833V144.275ZM226.187 20.0239L252.85 4.62089L279.514 20.0239V50.8298L271.354 55.5791L252.915 66.1686L232.933 54.6164L226.251 50.7657V20.0239H226.187ZM225.287 144.724L198.624 160.127L171.96 144.724V113.918L198.624 98.5149L213.723 107.243L225.287 113.918V144.724ZM212.373 105.446L199.009 97.7448V66.9388L225.673 51.5358L240.836 60.3284L252.336 66.9388V97.7448L240.836 104.355L225.673 113.148L212.373 105.446ZM279.578 144.724L252.915 160.127L226.251 144.724V113.918L232.933 110.067L252.915 98.5149L271.418 109.169L279.578 113.918V144.724ZM266.728 105.446L253.364 97.7448V66.9388L266.728 59.2373L280.092 51.5358L306.756 66.9388V97.7448L293.392 105.446L280.028 113.148L266.728 105.446ZM333.869 144.724L307.205 160.127L280.542 144.724V113.918L292.107 107.243L307.205 98.5149L333.869 113.918V144.724Z" fill="white"/>
    <path d="M242.249 41.8448C242.056 42.4866 241.928 43.0642 241.799 43.706C242.442 43.5134 243.02 43.3851 243.663 43.2567C243.855 42.6149 243.984 42.0373 244.177 41.4597C243.534 41.5881 242.892 41.7164 242.249 41.8448ZM258.183 34.2075L256.577 32.603C255.999 32.7313 255.485 32.7955 254.906 32.9239L257.476 35.491C257.091 36.1328 256.641 36.7105 256.127 37.2239L252.529 33.6299C252.015 33.8224 251.565 33.9507 251.051 34.1433L255.035 38.1224C254.714 38.3149 254.457 38.5716 254.135 38.7C253.814 38.8925 253.429 39.0209 253.107 39.2134L249.06 35.1702C248.738 35.4269 248.417 35.6836 248.096 36.0045C248.096 36.0045 248.032 36.0687 248.032 36.1328L251.694 39.791C250.923 40.0478 250.152 40.3045 249.317 40.497L246.682 37.8657C246.425 38.2507 246.168 38.7 245.976 39.1493L247.646 40.8179C246.811 41.0104 245.911 41.1388 245.076 41.2672C244.883 41.8448 244.691 42.4224 244.498 43.0642C248.353 42.294 252.336 41.909 255.549 40.1119C258.44 38.5075 260.046 35.3627 261.074 31.7687C260.432 31.897 259.725 32.0254 259.083 32.1537C258.826 32.8597 258.504 33.5657 258.183 34.2075ZM237.238 43.4493L238.651 44.8612C238.844 44.7328 239.101 44.6687 239.294 44.6045L240.579 45.8881C240.707 45.3104 240.771 44.797 240.9 44.2194L240.707 44.0269C240.772 44.0269 240.836 43.9627 240.9 43.9627C241.028 43.3209 241.221 42.6791 241.35 42.0373C240.001 42.3582 238.587 42.8075 237.238 43.4493ZM259.34 31.3836C259.982 31.2552 260.625 31.1269 261.331 30.9985C261.524 30.3567 261.653 29.7791 261.781 29.1373C261.139 29.3299 260.56 29.4582 259.918 29.5866C259.725 30.1642 259.532 30.806 259.34 31.3836ZM260.111 28.7522C260.753 28.6239 261.331 28.4313 261.974 28.303C261.974 28.2388 261.974 28.1746 262.038 28.1746L262.167 28.303C262.681 28.1746 263.195 27.9821 263.644 27.7896L262.359 26.506C262.424 26.1851 262.488 25.9284 262.552 25.6075L261.139 24.1955C260.817 25.6716 260.496 27.2761 260.111 28.7522Z" fill="white"/>
    <path d="M246.168 34.0791C243.213 37.0313 242.056 42.1657 241.093 47.2358C241.542 47.6851 242.056 48.1985 242.506 48.6478C243.47 43.5776 244.562 38.4433 247.582 35.491C248.16 34.9134 248.803 34.4642 249.509 34.0791C254.457 31.3194 261.203 31.897 266.407 29.394C265.957 28.9448 265.443 28.4313 264.993 27.9821C259.789 30.4851 253.043 29.9075 248.096 32.6672C247.325 33.0522 246.682 33.5657 246.168 34.0791Z" fill="white"/>
    <path d="M286.389 76.7582C282.469 76.7582 279.321 79.8388 279.064 83.6253H293.713C293.456 79.8388 290.308 76.7582 286.389 76.7582Z" fill="white"/>
    <path d="M279.064 84.4597C279.257 88.3104 282.469 91.391 286.389 91.391C290.308 91.391 293.52 88.3104 293.713 84.4597H279.064Z" fill="white"/>
    <path d="M272.832 71.4313C270.262 71.4313 268.142 73.5492 268.142 76.1164V90.3642C268.142 91.6477 268.656 92.803 269.555 93.7015C270.39 94.5358 271.611 95.1134 272.896 95.1134C275.466 95.1134 277.586 92.9955 277.586 90.4283V76.1806C277.522 73.5492 275.402 71.4313 272.832 71.4313ZM276.558 83.497H269.17V76.3089C269.17 74.2552 270.84 72.5866 272.896 72.5866C274.952 72.5866 276.623 74.2552 276.623 76.3089V83.497H276.558Z" fill="white"/>
    <path d="M198.431 115.907C198.431 115.907 190.336 129.385 190.336 133.878C190.336 138.306 193.934 141.964 198.431 141.964C202.864 141.964 206.527 138.37 206.527 133.878C206.527 129.385 198.431 115.907 198.431 115.907ZM198.431 140.167C194.898 140.167 192.071 137.343 192.071 133.813C192.071 131.375 195.54 124.379 198.431 119.245C201.322 124.379 204.792 131.375 204.792 133.813C204.856 137.343 201.965 140.167 198.431 140.167Z" fill="white"/>
    <path d="M197.596 137.664C195.99 136.83 195.026 135.161 195.026 133.364C195.026 133.043 194.769 132.722 194.383 132.722C194.062 132.722 193.741 132.979 193.741 133.364C193.741 135.61 194.962 137.664 196.953 138.755C197.018 138.819 197.146 138.819 197.275 138.819C197.467 138.819 197.724 138.691 197.789 138.499C198.046 138.178 197.917 137.857 197.596 137.664Z" fill="white"/>
    <path d="M237.945 73.2284C237.945 73.2284 237.045 74.1269 234.218 74.1269C233.576 74.1269 232.869 74.0627 232.098 73.9985C227.408 73.4209 225.416 71.303 225.416 71.303C225.416 71.303 223.424 73.3567 218.734 73.9985C217.899 74.1269 217.192 74.1269 216.614 74.1269C213.851 74.1269 212.887 73.2284 212.887 73.2284C212.887 73.2284 210.189 89.2731 225.416 98.1299C240.643 89.3373 237.945 73.2284 237.945 73.2284ZM225.416 96.4612C219.89 93.0597 216.357 88.2463 214.879 82.1493C214.172 79.3896 214.108 76.9508 214.172 75.3463C214.815 75.4746 215.586 75.603 216.549 75.603C217.256 75.603 218.091 75.5388 218.862 75.4746C222.075 75.0896 224.195 73.9985 225.352 73.2284C226.508 73.9985 228.628 75.0896 231.841 75.4746C232.676 75.603 233.447 75.603 234.154 75.603C235.118 75.603 235.889 75.5388 236.531 75.3463C236.788 79.5179 235.953 89.9149 225.416 96.4612Z" fill="white"/>
    <path d="M227.151 78.812H223.681V82.2776H220.212V85.7433H223.681V89.2731H227.151V85.7433H230.62V82.2776H227.151V78.812Z" fill="white"/>
    <path d="M266.985 127.909C266.792 123.737 263.323 120.593 259.018 120.593C258.89 120.593 258.761 120.593 258.633 120.593C255.934 120.721 253.878 122.454 252.85 123.545C251.822 122.454 249.831 120.657 247.132 120.464C246.939 120.464 246.811 120.464 246.618 120.464C242.378 120.464 238.908 123.545 238.651 127.652C238.394 131.503 241.029 134.84 243.02 137.022C245.59 139.846 249.638 142.927 252.272 144.467L252.722 144.724L253.172 144.467C255.806 142.927 259.918 139.975 262.552 137.151C264.544 135.097 267.178 131.76 266.985 127.909ZM261.203 136.06C258.569 138.819 254.842 141.515 252.722 142.798C250.602 141.451 246.875 138.755 244.305 135.931C243.791 135.354 243.277 134.776 242.763 134.07H248.224C248.289 134.07 248.417 134.006 248.481 133.942L248.803 133.557L249.188 135.29C249.188 135.418 249.317 135.482 249.445 135.482C249.574 135.482 249.702 135.418 249.702 135.29L250.088 133.685L250.537 135.996C250.537 136.124 250.666 136.188 250.794 136.188C250.923 136.188 251.051 136.124 251.051 135.996L252.401 129.449L253.493 139.14C253.493 139.269 253.621 139.333 253.75 139.333C253.878 139.333 254.007 139.269 254.007 139.14L254.971 133.364L255.356 135.867C255.356 135.996 255.485 136.06 255.613 136.06C255.742 136.06 255.87 135.996 255.87 135.867L256.577 133.749L256.834 134.969C256.834 135.097 256.962 135.161 257.091 135.161C257.219 135.161 257.348 135.097 257.348 134.969L257.669 134.07L257.99 134.519C258.055 134.584 258.119 134.648 258.183 134.648C258.247 134.648 258.376 134.584 258.376 134.584L258.826 134.07H262.809C262.359 134.776 261.781 135.482 261.203 136.06ZM263.259 133.557H258.826C258.761 133.557 258.633 133.621 258.633 133.621L258.312 133.942L257.926 133.364C257.862 133.3 257.798 133.236 257.669 133.236C257.541 133.236 257.476 133.3 257.412 133.428L257.219 133.942L256.898 132.594C256.898 132.466 256.77 132.401 256.641 132.401C256.513 132.401 256.384 132.466 256.384 132.594L255.742 134.584L255.292 131.567C255.292 131.439 255.163 131.375 255.035 131.375C254.906 131.375 254.778 131.439 254.778 131.567L253.878 137.087L252.786 127.588C252.786 127.46 252.658 127.396 252.529 127.396C252.401 127.396 252.272 127.46 252.272 127.588L250.859 134.455L250.409 132.145C250.409 132.016 250.28 131.952 250.152 131.952C250.023 131.952 249.895 132.016 249.895 132.145L249.509 133.813L249.252 132.722C249.252 132.594 249.124 132.53 248.995 132.53C248.867 132.53 248.803 132.53 248.738 132.658L248.16 133.428H242.442C241.286 131.76 240.322 129.77 240.45 127.652C240.643 124.893 242.827 122.069 246.682 122.069C246.811 122.069 246.939 122.069 247.132 122.069C250.152 122.261 252.208 125.213 252.208 125.278L252.915 126.304L253.621 125.278C253.621 125.278 255.742 122.325 258.761 122.197C262.809 122.069 265.186 125.021 265.315 127.845C265.379 130.027 264.415 131.952 263.259 133.557Z" fill="white"/>
    <path d="M321.276 132.337C321.276 130.604 319.862 129.257 318.192 129.257C316.521 129.257 315.108 130.669 315.108 132.337C315.108 133.813 316.136 135.033 317.549 135.354V140.552C317.549 144.339 314.465 147.419 310.675 147.419C306.884 147.419 303.8 144.339 303.8 140.552V138.434H306.82C308.49 138.434 309.904 137.151 310.096 135.546L311.831 121.555C311.96 120.593 311.638 119.63 310.996 118.924C310.353 118.218 309.454 117.769 308.49 117.769H307.205C306.82 117.769 306.499 118.09 306.499 118.475C306.499 118.86 306.82 119.181 307.205 119.181H308.49C309.068 119.181 309.582 119.437 309.968 119.822C310.353 120.272 310.482 120.785 310.418 121.363L308.683 135.354C308.554 136.316 307.719 137.087 306.756 137.087H299.303C298.339 137.087 297.504 136.381 297.375 135.354L295.64 121.363C295.576 120.785 295.769 120.272 296.09 119.822C296.476 119.373 296.99 119.181 297.568 119.181H299.367C299.752 119.181 300.074 118.86 300.074 118.475C300.074 118.09 299.752 117.769 299.367 117.769H297.568C296.604 117.769 295.705 118.154 295.062 118.924C294.42 119.63 294.163 120.593 294.227 121.555L295.962 135.546C296.154 137.215 297.568 138.434 299.238 138.434H302.258V140.552C302.258 145.109 305.985 148.767 310.482 148.767C315.044 148.767 318.706 145.045 318.706 140.552V135.354C320.248 135.033 321.276 133.813 321.276 132.337Z" fill="white"/>
</svg>
